%TF.GenerationSoftware,KiCad,Pcbnew,8.0.2-8.0.2-0~ubuntu22.04.1*%
%TF.CreationDate,2024-05-09T21:23:21-04:00*%
%TF.ProjectId,TEJ Final Project,54454a20-4669-46e6-916c-2050726f6a65,rev?*%
%TF.SameCoordinates,Original*%
%TF.FileFunction,Legend,Bot*%
%TF.FilePolarity,Positive*%
%FSLAX46Y46*%
G04 Gerber Fmt 4.6, Leading zero omitted, Abs format (unit mm)*
G04 Created by KiCad (PCBNEW 8.0.2-8.0.2-0~ubuntu22.04.1) date 2024-05-09 21:23:21*
%MOMM*%
%LPD*%
G01*
G04 APERTURE LIST*
%ADD10C,0.000000*%
G04 APERTURE END LIST*
D10*
%TO.C,LED_Matrix_8x1*%
G36*
X147004294Y-82650565D02*
G01*
X147015855Y-82660614D01*
X147011159Y-82668297D01*
X146989687Y-82674096D01*
X146974202Y-82671940D01*
X146955186Y-82660614D01*
X146958417Y-82651412D01*
X146981355Y-82647132D01*
X147004294Y-82650565D01*
G37*
G36*
X148403279Y-80425608D02*
G01*
X148476439Y-80428247D01*
X148531958Y-80432754D01*
X148572301Y-80439441D01*
X148599930Y-80448617D01*
X148617309Y-80460594D01*
X148626901Y-80475681D01*
X148631169Y-80494190D01*
X148632235Y-80505198D01*
X148629961Y-80520991D01*
X148617327Y-80531421D01*
X148588918Y-80539728D01*
X148539316Y-80549156D01*
X148530869Y-80550002D01*
X148496038Y-80551286D01*
X148440761Y-80552033D01*
X148369364Y-80552222D01*
X148286177Y-80551832D01*
X148195526Y-80550841D01*
X148185185Y-80550693D01*
X148076430Y-80548641D01*
X147989301Y-80545770D01*
X147918879Y-80541719D01*
X147860245Y-80536129D01*
X147808480Y-80528640D01*
X147758665Y-80518893D01*
X147744074Y-80515686D01*
X147680206Y-80500434D01*
X147639701Y-80487594D01*
X147619798Y-80475645D01*
X147617739Y-80463064D01*
X147630764Y-80448328D01*
X147636384Y-80444977D01*
X147653311Y-80440083D01*
X147681723Y-80436108D01*
X147724200Y-80432923D01*
X147783322Y-80430397D01*
X147861668Y-80428403D01*
X147961817Y-80426810D01*
X148086351Y-80425489D01*
X148194188Y-80424692D01*
X148310017Y-80424526D01*
X148403279Y-80425608D01*
G37*
G36*
X150459949Y-75650028D02*
G01*
X150575117Y-75662450D01*
X150690333Y-75682733D01*
X150798348Y-75709944D01*
X150891917Y-75743152D01*
X150898625Y-75745819D01*
X150931055Y-75757412D01*
X150978581Y-75773462D01*
X151033477Y-75791339D01*
X151052167Y-75797392D01*
X151108645Y-75816505D01*
X151157045Y-75834015D01*
X151188520Y-75846759D01*
X151198700Y-75851229D01*
X151242384Y-75867795D01*
X151289634Y-75883005D01*
X151319679Y-75893163D01*
X151345183Y-75909519D01*
X151354853Y-75932131D01*
X151353760Y-75954355D01*
X151341371Y-75975697D01*
X151317728Y-75982079D01*
X151282893Y-75980996D01*
X151186710Y-75964380D01*
X151068521Y-75940851D01*
X150949621Y-75913116D01*
X150817766Y-75878477D01*
X150747011Y-75859281D01*
X150642087Y-75831775D01*
X150556225Y-75810829D01*
X150485191Y-75795489D01*
X150424756Y-75784802D01*
X150370686Y-75777815D01*
X150325423Y-75770802D01*
X150274877Y-75757927D01*
X150239237Y-75743127D01*
X150215050Y-75723938D01*
X150198807Y-75696121D01*
X150202834Y-75672033D01*
X150227930Y-75657697D01*
X150258745Y-75652498D01*
X150352076Y-75646399D01*
X150459949Y-75650028D01*
G37*
G36*
X146866925Y-75305425D02*
G01*
X146908754Y-75324331D01*
X146930015Y-75349239D01*
X146927700Y-75372903D01*
X146899446Y-75394564D01*
X146844742Y-75414945D01*
X146799169Y-75428456D01*
X146682460Y-75464383D01*
X146575787Y-75499112D01*
X146483172Y-75531265D01*
X146408634Y-75559467D01*
X146356192Y-75582338D01*
X146296663Y-75609024D01*
X146218748Y-75639007D01*
X146118854Y-75673596D01*
X146109658Y-75676660D01*
X146011867Y-75708976D01*
X145934860Y-75733756D01*
X145874331Y-75752273D01*
X145825974Y-75765796D01*
X145785483Y-75775599D01*
X145748552Y-75782954D01*
X145735085Y-75785429D01*
X145704810Y-75791597D01*
X145671024Y-75799549D01*
X145629263Y-75810478D01*
X145575064Y-75825576D01*
X145503965Y-75846038D01*
X145411503Y-75873056D01*
X145410963Y-75873214D01*
X145352922Y-75886048D01*
X145298692Y-75890880D01*
X145252822Y-75888378D01*
X145219863Y-75879212D01*
X145204363Y-75864050D01*
X145210871Y-75843561D01*
X145216791Y-75837586D01*
X145245187Y-75817023D01*
X145282739Y-75795384D01*
X145319105Y-75778283D01*
X145343939Y-75771336D01*
X145346316Y-75771020D01*
X145369353Y-75763311D01*
X145408127Y-75747383D01*
X145455703Y-75726049D01*
X145461344Y-75723452D01*
X145525483Y-75696367D01*
X145599205Y-75668438D01*
X145667660Y-75645321D01*
X145718177Y-75629630D01*
X145819380Y-75597841D01*
X145921733Y-75565276D01*
X146021875Y-75533040D01*
X146116447Y-75502239D01*
X146202088Y-75473976D01*
X146275439Y-75449357D01*
X146333140Y-75429486D01*
X146371830Y-75415469D01*
X146388151Y-75408410D01*
X146399940Y-75402593D01*
X146433067Y-75391982D01*
X146476577Y-75381428D01*
X146513583Y-75372317D01*
X146575673Y-75353569D01*
X146633919Y-75332666D01*
X146665477Y-75321389D01*
X146738534Y-75304158D01*
X146807934Y-75298769D01*
X146866925Y-75305425D01*
G37*
G36*
X149311499Y-76315676D02*
G01*
X149316606Y-76316340D01*
X149355888Y-76320513D01*
X149413711Y-76325770D01*
X149483132Y-76331503D01*
X149557203Y-76337108D01*
X149571600Y-76338169D01*
X149645861Y-76344334D01*
X149714520Y-76351084D01*
X149770474Y-76357671D01*
X149806619Y-76363347D01*
X149840266Y-76370218D01*
X149897456Y-76381596D01*
X149954921Y-76392764D01*
X149998807Y-76402536D01*
X150042424Y-76415171D01*
X150069518Y-76426544D01*
X150070893Y-76427350D01*
X150099180Y-76436845D01*
X150144458Y-76445719D01*
X150197596Y-76452149D01*
X150254816Y-76459225D01*
X150319860Y-76471309D01*
X150372861Y-76485191D01*
X150375238Y-76485971D01*
X150452076Y-76508693D01*
X150539132Y-76530698D01*
X150624538Y-76549191D01*
X150696428Y-76561378D01*
X150717665Y-76564761D01*
X150781467Y-76578612D01*
X150857091Y-76598644D01*
X150935214Y-76622282D01*
X151006513Y-76646954D01*
X151021795Y-76652125D01*
X151078902Y-76665762D01*
X151134592Y-76672626D01*
X151139894Y-76672967D01*
X151182123Y-76679096D01*
X151241654Y-76691297D01*
X151311334Y-76707994D01*
X151384008Y-76727609D01*
X151398647Y-76731777D01*
X151469923Y-76751476D01*
X151535621Y-76768738D01*
X151588980Y-76781827D01*
X151623242Y-76789009D01*
X151637595Y-76791690D01*
X151671134Y-76801096D01*
X151688196Y-76810812D01*
X151692555Y-76815429D01*
X151716074Y-76831843D01*
X151750832Y-76851326D01*
X151791088Y-76874062D01*
X151836537Y-76910693D01*
X151860952Y-76950024D01*
X151861467Y-76957922D01*
X151856311Y-76990108D01*
X151844179Y-77040573D01*
X151826459Y-77104619D01*
X151804535Y-77177548D01*
X151779795Y-77254662D01*
X151753625Y-77331263D01*
X151727409Y-77402652D01*
X151725585Y-77407463D01*
X151708745Y-77455080D01*
X151693045Y-77503767D01*
X151690111Y-77513025D01*
X151674255Y-77554072D01*
X151658470Y-77584288D01*
X151647406Y-77604274D01*
X151640165Y-77629998D01*
X151639271Y-77636932D01*
X151630220Y-77666622D01*
X151614565Y-77704519D01*
X151602743Y-77730437D01*
X151579441Y-77783061D01*
X151556809Y-77835799D01*
X151537435Y-77882473D01*
X151523911Y-77916902D01*
X151518828Y-77932906D01*
X151512763Y-77949441D01*
X151490888Y-77982984D01*
X151456972Y-78026717D01*
X151415133Y-78075988D01*
X151369491Y-78126146D01*
X151324164Y-78172540D01*
X151283271Y-78210519D01*
X151250930Y-78235432D01*
X151238528Y-78243613D01*
X151201179Y-78270236D01*
X151161556Y-78300406D01*
X151144998Y-78313104D01*
X151102722Y-78343001D01*
X151067182Y-78365104D01*
X151066481Y-78365487D01*
X151032331Y-78384577D01*
X151006513Y-78399728D01*
X150927051Y-78446640D01*
X150851696Y-78484331D01*
X150784414Y-78509114D01*
X150718897Y-78523707D01*
X150668567Y-78531844D01*
X150594363Y-78544509D01*
X150527904Y-78556502D01*
X150449833Y-78565701D01*
X150356256Y-78568212D01*
X150258164Y-78564321D01*
X150165883Y-78554443D01*
X150089740Y-78538989D01*
X150047527Y-78525997D01*
X149981759Y-78503279D01*
X149907644Y-78475784D01*
X149831966Y-78446182D01*
X149761508Y-78417137D01*
X149703054Y-78391317D01*
X149663386Y-78371388D01*
X149643971Y-78359734D01*
X149582450Y-78318100D01*
X149513592Y-78266067D01*
X149441584Y-78207353D01*
X149370617Y-78145670D01*
X149304881Y-78084736D01*
X149248563Y-78028263D01*
X149205855Y-77979969D01*
X149180945Y-77943567D01*
X149170243Y-77920276D01*
X149157981Y-77885340D01*
X149155756Y-77864409D01*
X149157044Y-77861535D01*
X149175985Y-77849117D01*
X149202420Y-77850640D01*
X149222855Y-77865821D01*
X149226329Y-77870287D01*
X149247148Y-77891964D01*
X149282593Y-77926324D01*
X149328809Y-77969671D01*
X149381938Y-78018310D01*
X149428145Y-78059477D01*
X149527013Y-78141540D01*
X149618984Y-78207136D01*
X149710627Y-78259780D01*
X149808513Y-78302982D01*
X149919212Y-78340257D01*
X150049295Y-78375117D01*
X150069687Y-78379984D01*
X150126468Y-78391264D01*
X150180336Y-78397168D01*
X150241191Y-78398461D01*
X150318934Y-78395904D01*
X150442349Y-78385548D01*
X150570714Y-78362261D01*
X150676205Y-78327412D01*
X150705420Y-78315559D01*
X150752659Y-78297578D01*
X150804284Y-78278794D01*
X150850024Y-78261360D01*
X150889521Y-78244009D01*
X150912140Y-78231262D01*
X150912478Y-78230989D01*
X150938919Y-78213294D01*
X150973764Y-78193875D01*
X150990216Y-78184878D01*
X151040270Y-78150341D01*
X151099552Y-78099486D01*
X151171369Y-78029563D01*
X151204774Y-77990400D01*
X151248853Y-77924521D01*
X151292706Y-77844987D01*
X151335081Y-77755541D01*
X151374730Y-77659925D01*
X151410403Y-77561882D01*
X151440851Y-77465155D01*
X151464823Y-77373488D01*
X151481069Y-77290622D01*
X151488341Y-77220301D01*
X151485389Y-77166267D01*
X151470962Y-77132263D01*
X151449919Y-77115541D01*
X151421695Y-77106049D01*
X151394836Y-77101186D01*
X151359745Y-77087628D01*
X151358797Y-77087153D01*
X151318907Y-77071783D01*
X151274307Y-77060339D01*
X151243362Y-77052722D01*
X151193391Y-77036820D01*
X151141320Y-77017358D01*
X151078993Y-76995149D01*
X151033298Y-76988580D01*
X151000723Y-76999914D01*
X150976414Y-77030868D01*
X150955519Y-77083161D01*
X150943700Y-77122673D01*
X150928679Y-77183043D01*
X150919157Y-77234128D01*
X150915819Y-77254524D01*
X150901904Y-77313790D01*
X150884209Y-77368947D01*
X150876509Y-77390066D01*
X150858656Y-77446494D01*
X150845786Y-77497026D01*
X150825434Y-77575763D01*
X150781262Y-77679894D01*
X150722142Y-77761853D01*
X150648501Y-77821331D01*
X150560767Y-77858016D01*
X150459367Y-77871598D01*
X150344728Y-77861764D01*
X150295709Y-77850962D01*
X150230269Y-77825097D01*
X150182084Y-77785747D01*
X150146448Y-77728480D01*
X150118657Y-77648864D01*
X150093367Y-77540127D01*
X150069300Y-77380222D01*
X150057238Y-77212494D01*
X150058164Y-77046719D01*
X150061021Y-76975006D01*
X150061899Y-76888004D01*
X150058357Y-76822523D01*
X150050001Y-76775457D01*
X150036438Y-76743703D01*
X150017274Y-76724157D01*
X150002273Y-76717375D01*
X149962383Y-76705596D01*
X149907888Y-76693340D01*
X149846037Y-76682376D01*
X149819463Y-76678240D01*
X149753696Y-76667532D01*
X149689746Y-76656238D01*
X149620581Y-76643032D01*
X149539169Y-76626590D01*
X149438476Y-76605587D01*
X149404158Y-76596989D01*
X149353204Y-76574677D01*
X149307736Y-76538195D01*
X149274601Y-76499523D01*
X149244188Y-76443306D01*
X149231734Y-76388084D01*
X149239588Y-76340667D01*
X149241414Y-76336759D01*
X149254270Y-76318393D01*
X149274468Y-76312465D01*
X149311499Y-76315676D01*
G37*
G36*
X147071833Y-76117052D02*
G01*
X147120804Y-76119454D01*
X147155632Y-76123613D01*
X147180697Y-76129885D01*
X147200377Y-76138623D01*
X147209432Y-76143682D01*
X147242518Y-76166313D01*
X147254299Y-76186352D01*
X147243667Y-76206453D01*
X147209512Y-76229271D01*
X147150725Y-76257462D01*
X147122890Y-76270598D01*
X147062866Y-76302303D01*
X147009472Y-76334207D01*
X146978930Y-76353317D01*
X146947095Y-76371143D01*
X146929877Y-76378024D01*
X146918838Y-76380843D01*
X146888546Y-76392618D01*
X146848678Y-76410443D01*
X146847951Y-76410786D01*
X146799462Y-76432225D01*
X146738760Y-76457207D01*
X146678806Y-76480394D01*
X146666946Y-76484829D01*
X146619197Y-76503374D01*
X146582536Y-76518684D01*
X146564103Y-76527808D01*
X146559757Y-76530490D01*
X146533480Y-76542896D01*
X146496694Y-76557559D01*
X146423641Y-76584880D01*
X146362543Y-76608820D01*
X146319863Y-76627245D01*
X146291828Y-76641797D01*
X146274668Y-76654114D01*
X146270139Y-76660437D01*
X146259575Y-76693307D01*
X146250134Y-76747600D01*
X146242129Y-76819377D01*
X146235877Y-76904701D01*
X146231692Y-76999634D01*
X146229889Y-77100240D01*
X146230783Y-77202581D01*
X146230941Y-77209918D01*
X146229781Y-77308183D01*
X146220217Y-77389280D01*
X146199630Y-77459898D01*
X146165400Y-77526725D01*
X146114911Y-77596451D01*
X146045542Y-77675764D01*
X145979058Y-77742150D01*
X145911327Y-77794645D01*
X145838965Y-77832732D01*
X145754579Y-77860258D01*
X145650776Y-77881066D01*
X145612108Y-77883383D01*
X145547987Y-77867712D01*
X145492801Y-77827779D01*
X145449027Y-77765010D01*
X145440021Y-77746934D01*
X145402299Y-77665961D01*
X145367094Y-77582570D01*
X145336341Y-77502053D01*
X145311979Y-77429704D01*
X145295941Y-77370816D01*
X145290165Y-77330681D01*
X145288880Y-77315876D01*
X145282381Y-77275935D01*
X145271635Y-77221931D01*
X145258039Y-77161233D01*
X145239854Y-77092768D01*
X145217335Y-77032991D01*
X145192440Y-76995533D01*
X145163384Y-76977862D01*
X145128382Y-76977451D01*
X145099322Y-76982639D01*
X145053005Y-76990483D01*
X145000303Y-76999131D01*
X144931702Y-77014042D01*
X144887289Y-77033559D01*
X144865235Y-77059129D01*
X144863321Y-77092264D01*
X144873758Y-77142336D01*
X144904558Y-77266552D01*
X144938646Y-77374184D01*
X144974453Y-77460043D01*
X145003336Y-77518190D01*
X145035622Y-77581274D01*
X145062787Y-77630839D01*
X145088505Y-77673178D01*
X145116448Y-77714584D01*
X145150289Y-77761350D01*
X145154771Y-77767412D01*
X145212091Y-77841292D01*
X145260622Y-77895609D01*
X145304163Y-77934227D01*
X145346514Y-77961012D01*
X145376581Y-77977160D01*
X145423153Y-78003231D01*
X145472069Y-78031438D01*
X145529655Y-78060812D01*
X145643905Y-78100261D01*
X145768476Y-78123013D01*
X145895197Y-78127218D01*
X145896463Y-78127159D01*
X145959409Y-78122072D01*
X146027830Y-78113116D01*
X146095259Y-78101536D01*
X146155227Y-78088573D01*
X146201269Y-78075470D01*
X146226916Y-78063471D01*
X146235887Y-78058440D01*
X146266810Y-78046990D01*
X146308232Y-78035333D01*
X146330131Y-78029573D01*
X146375829Y-78015327D01*
X146409167Y-78002077D01*
X146426152Y-77995259D01*
X146467392Y-77981839D01*
X146522544Y-77965834D01*
X146584433Y-77949401D01*
X146629774Y-77937499D01*
X146685747Y-77921597D01*
X146729070Y-77907873D01*
X146752957Y-77898381D01*
X146754958Y-77897325D01*
X146783553Y-77886211D01*
X146828513Y-77872187D01*
X146881036Y-77858027D01*
X146882925Y-77857556D01*
X146940627Y-77843138D01*
X146995405Y-77829395D01*
X147035637Y-77819241D01*
X147076342Y-77811628D01*
X147122452Y-77813360D01*
X147147103Y-77828870D01*
X147149087Y-77855196D01*
X147127193Y-77889376D01*
X147080213Y-77928448D01*
X147045071Y-77953090D01*
X146989313Y-77994363D01*
X146938382Y-78034177D01*
X146901498Y-78061131D01*
X146840451Y-78098329D01*
X146782674Y-78126546D01*
X146742346Y-78142841D01*
X146682337Y-78167051D01*
X146631619Y-78187473D01*
X146612410Y-78194850D01*
X146533536Y-78220773D01*
X146436895Y-78247611D01*
X146329427Y-78273749D01*
X146218070Y-78297572D01*
X146109764Y-78317464D01*
X146011450Y-78331811D01*
X145976403Y-78335037D01*
X145867715Y-78335449D01*
X145747783Y-78324499D01*
X145624186Y-78303647D01*
X145504505Y-78274352D01*
X145396319Y-78238073D01*
X145307209Y-78196269D01*
X145247078Y-78155503D01*
X145172482Y-78091976D01*
X145094448Y-78013743D01*
X145017992Y-77925501D01*
X145003932Y-77906762D01*
X144971884Y-77857658D01*
X144935790Y-77796111D01*
X144898214Y-77727199D01*
X144861721Y-77656000D01*
X144828874Y-77587592D01*
X144802237Y-77527054D01*
X144784375Y-77479462D01*
X144777851Y-77449897D01*
X144777511Y-77444736D01*
X144772636Y-77424505D01*
X144760748Y-77392090D01*
X144740277Y-77343457D01*
X144709656Y-77274574D01*
X144705013Y-77263990D01*
X144687813Y-77220176D01*
X144676348Y-77184123D01*
X144665846Y-77156423D01*
X144648450Y-77131915D01*
X144638907Y-77121874D01*
X144629549Y-77100828D01*
X144629075Y-77096999D01*
X144620263Y-77071676D01*
X144603837Y-77037453D01*
X144602528Y-77034989D01*
X144581409Y-76985362D01*
X144572781Y-76943509D01*
X144577009Y-76914604D01*
X144594456Y-76903820D01*
X144595337Y-76903757D01*
X144616114Y-76896807D01*
X144655046Y-76880006D01*
X144706894Y-76855716D01*
X144766420Y-76826299D01*
X144817605Y-76800654D01*
X144918213Y-76752375D01*
X144999606Y-76716842D01*
X145064323Y-76692988D01*
X145114900Y-76679746D01*
X145117747Y-76679193D01*
X145155491Y-76668350D01*
X145182309Y-76655008D01*
X145188114Y-76651380D01*
X145217822Y-76637903D01*
X145263241Y-76620561D01*
X145317129Y-76602192D01*
X145323366Y-76600181D01*
X145381845Y-76580728D01*
X145432051Y-76562380D01*
X145482073Y-76541832D01*
X145540001Y-76515776D01*
X145613925Y-76480907D01*
X145648635Y-76465132D01*
X145684126Y-76450913D01*
X145703966Y-76445433D01*
X145714305Y-76443067D01*
X145737477Y-76428144D01*
X145741709Y-76424842D01*
X145768767Y-76409872D01*
X145811631Y-76390096D01*
X145863148Y-76368886D01*
X145881123Y-76361926D01*
X145935558Y-76341463D01*
X145987576Y-76323206D01*
X146044285Y-76304824D01*
X146112790Y-76283987D01*
X146200197Y-76258364D01*
X146250219Y-76243737D01*
X146320402Y-76222966D01*
X146382203Y-76204432D01*
X146384862Y-76203626D01*
X146478667Y-76175409D01*
X146552840Y-76154092D01*
X146613381Y-76138693D01*
X146666285Y-76128229D01*
X146717550Y-76121718D01*
X146773173Y-76118178D01*
X146839151Y-76116625D01*
X146921481Y-76116077D01*
X147004342Y-76116055D01*
X147071833Y-76117052D01*
G37*
G36*
X150620111Y-68838821D02*
G01*
X150693168Y-68861057D01*
X150745539Y-68868576D01*
X150780696Y-68873479D01*
X150805757Y-68887095D01*
X150833707Y-68902281D01*
X150839167Y-68906650D01*
X150874408Y-68927503D01*
X150905455Y-68935985D01*
X150934549Y-68945135D01*
X150937163Y-68947340D01*
X150963659Y-68969690D01*
X150963677Y-68969714D01*
X150989015Y-68993502D01*
X151012710Y-69003395D01*
X151034703Y-69007200D01*
X151059848Y-69018426D01*
X151075239Y-69025297D01*
X151111154Y-69052182D01*
X151113601Y-69054337D01*
X151141012Y-69068298D01*
X151178842Y-69078806D01*
X151183587Y-69079753D01*
X151223600Y-69093666D01*
X151253084Y-69113040D01*
X151275147Y-69128689D01*
X151309618Y-69138215D01*
X151332949Y-69143496D01*
X151360021Y-69163896D01*
X151360286Y-69164268D01*
X151372841Y-69173976D01*
X151386136Y-69184256D01*
X151422642Y-69196612D01*
X151445666Y-69203828D01*
X151492156Y-69230281D01*
X151525495Y-69256182D01*
X151545914Y-69272045D01*
X151552475Y-69277670D01*
X151593543Y-69309507D01*
X151629170Y-69331950D01*
X151652272Y-69340444D01*
X151677381Y-69349709D01*
X151702074Y-69374149D01*
X151724521Y-69397335D01*
X151750458Y-69407854D01*
X151767642Y-69409710D01*
X151798916Y-69421486D01*
X151836750Y-69445899D01*
X151883773Y-69485007D01*
X151942615Y-69540867D01*
X152012360Y-69611924D01*
X152015906Y-69615537D01*
X152086439Y-69688139D01*
X152143020Y-69744297D01*
X152184650Y-69782800D01*
X152212765Y-69804973D01*
X152228802Y-69812144D01*
X152233274Y-69813325D01*
X152254281Y-69828695D01*
X152279906Y-69856129D01*
X152306918Y-69888780D01*
X152378786Y-69970712D01*
X152452179Y-70049724D01*
X152468553Y-70067351D01*
X152577513Y-70180106D01*
X152625651Y-70229660D01*
X152637056Y-70241400D01*
X152691496Y-70299431D01*
X152730166Y-70343797D01*
X152755174Y-70377105D01*
X152768632Y-70401957D01*
X152772649Y-70420958D01*
X152779352Y-70434116D01*
X152802526Y-70464018D01*
X152839286Y-70506181D01*
X152886534Y-70557074D01*
X152941174Y-70613164D01*
X152946151Y-70618166D01*
X153017857Y-70692126D01*
X153068949Y-70748966D01*
X153099528Y-70788808D01*
X153109698Y-70811773D01*
X153109699Y-70811969D01*
X153119382Y-70837359D01*
X153145390Y-70874897D01*
X153183849Y-70918983D01*
X153192487Y-70928175D01*
X153225806Y-70966483D01*
X153249182Y-70997983D01*
X153257999Y-71016599D01*
X153258827Y-71018947D01*
X153261516Y-71026576D01*
X153278912Y-71055470D01*
X153295985Y-71079616D01*
X153307570Y-71096001D01*
X153308519Y-71097226D01*
X153343788Y-71142729D01*
X153366889Y-71172086D01*
X153401370Y-71218940D01*
X153427084Y-71257761D01*
X153439711Y-71282267D01*
X153452127Y-71309975D01*
X153475794Y-71343951D01*
X153478831Y-71347562D01*
X153497859Y-71382559D01*
X153510054Y-71424843D01*
X153510863Y-71429373D01*
X153526270Y-71472950D01*
X153549966Y-71507024D01*
X153567081Y-71531449D01*
X153574014Y-71541344D01*
X153581566Y-71589636D01*
X153587066Y-71631800D01*
X153603878Y-71661060D01*
X153611637Y-71668662D01*
X153636002Y-71706173D01*
X153654938Y-71753364D01*
X153662758Y-71797097D01*
X153670273Y-71827649D01*
X153689422Y-71861569D01*
X153707791Y-71897669D01*
X153716086Y-71940515D01*
X153722513Y-71976872D01*
X153750091Y-72025811D01*
X153754381Y-72031175D01*
X153775287Y-72066786D01*
X153783519Y-72097503D01*
X153783796Y-72098538D01*
X153789409Y-72124662D01*
X153808959Y-72156371D01*
X153816109Y-72165533D01*
X153832629Y-72201177D01*
X153841920Y-72238151D01*
X153843635Y-72244976D01*
X153847129Y-72262773D01*
X153861698Y-72305696D01*
X153880171Y-72335439D01*
X153892769Y-72350724D01*
X153909758Y-72391074D01*
X153916998Y-72445222D01*
X153917686Y-72450370D01*
X153918304Y-72453536D01*
X153930239Y-72476467D01*
X153952320Y-72506244D01*
X153973573Y-72539360D01*
X153986025Y-72591630D01*
X153986025Y-72591887D01*
X153990670Y-72637651D01*
X154001740Y-72684057D01*
X154004090Y-72691766D01*
X154008851Y-72712619D01*
X154013434Y-72741609D01*
X154018078Y-72781421D01*
X154023019Y-72834738D01*
X154027604Y-72892939D01*
X154028494Y-72904244D01*
X154031030Y-72940126D01*
X154034739Y-72992621D01*
X154035288Y-73000945D01*
X154041992Y-73102555D01*
X154050488Y-73236728D01*
X154052858Y-73272053D01*
X154058640Y-73334954D01*
X154066029Y-73379862D01*
X154076246Y-73412990D01*
X154090510Y-73440549D01*
X154096311Y-73450191D01*
X154106027Y-73469953D01*
X154112782Y-73492884D01*
X154117109Y-73523742D01*
X154119539Y-73567287D01*
X154120607Y-73628276D01*
X154120844Y-73711469D01*
X154120879Y-73750468D01*
X154121384Y-73822925D01*
X154122859Y-73874542D01*
X154125772Y-73909590D01*
X154130590Y-73932337D01*
X154137780Y-73947055D01*
X154147808Y-73958013D01*
X154155265Y-73965598D01*
X154165374Y-73982813D01*
X154171295Y-74008977D01*
X154174078Y-74050088D01*
X154174185Y-74059655D01*
X154174772Y-74112145D01*
X154173921Y-74171017D01*
X154170298Y-74219374D01*
X154163008Y-74252092D01*
X154151179Y-74275210D01*
X154140771Y-74295528D01*
X154131655Y-74331210D01*
X154125023Y-74384333D01*
X154120074Y-74459651D01*
X154118221Y-74493940D01*
X154113583Y-74553797D01*
X154107476Y-74594391D01*
X154098916Y-74621048D01*
X154086918Y-74639097D01*
X154081898Y-74645277D01*
X154072737Y-74662752D01*
X154065898Y-74688951D01*
X154060686Y-74728434D01*
X154056405Y-74785758D01*
X154052358Y-74865484D01*
X154051315Y-74887990D01*
X154047608Y-74953431D01*
X154047006Y-74964057D01*
X154041982Y-75019723D01*
X154035453Y-75060250D01*
X154026633Y-75090902D01*
X154014734Y-75116941D01*
X154003877Y-75139536D01*
X153994753Y-75168569D01*
X153989320Y-75205275D01*
X153986703Y-75256078D01*
X153986025Y-75327401D01*
X153986004Y-75346514D01*
X153985226Y-75409898D01*
X153982629Y-75453927D01*
X153977265Y-75484711D01*
X153968188Y-75508359D01*
X153954449Y-75530982D01*
X153949529Y-75538758D01*
X153927323Y-75586579D01*
X153913445Y-75636469D01*
X153911298Y-75647720D01*
X153898111Y-75686185D01*
X153897472Y-75688048D01*
X153879050Y-75712916D01*
X153869585Y-75721822D01*
X153859436Y-75743391D01*
X153853125Y-75779948D01*
X153849220Y-75837473D01*
X153846936Y-75876394D01*
X153841164Y-75922530D01*
X153831347Y-75953307D01*
X153815749Y-75975906D01*
X153814501Y-75977313D01*
X153792714Y-76017150D01*
X153780497Y-76070304D01*
X153778616Y-76083607D01*
X153765039Y-76132149D01*
X153745119Y-76169866D01*
X153743960Y-76171361D01*
X153724446Y-76204330D01*
X153716386Y-76233027D01*
X153719519Y-76246928D01*
X153733302Y-76278468D01*
X153753913Y-76316387D01*
X153776767Y-76352993D01*
X153797280Y-76380596D01*
X153810866Y-76391506D01*
X153820987Y-76400308D01*
X153835100Y-76424837D01*
X153842860Y-76438384D01*
X153866018Y-76472367D01*
X153898773Y-76517126D01*
X153936514Y-76566643D01*
X153974627Y-76614906D01*
X154008500Y-76655897D01*
X154033521Y-76683602D01*
X154046273Y-76704744D01*
X154053504Y-76739629D01*
X154054625Y-76750641D01*
X154066380Y-76788900D01*
X154086788Y-76829669D01*
X154090441Y-76835858D01*
X154111836Y-76886026D01*
X154120424Y-76933484D01*
X154125586Y-76971032D01*
X154143486Y-76996043D01*
X154156396Y-77010756D01*
X154167761Y-77046156D01*
X154176394Y-77104799D01*
X154178711Y-77124129D01*
X154192995Y-77192413D01*
X154214422Y-77236177D01*
X154217014Y-77239545D01*
X154225804Y-77253362D01*
X154232275Y-77270604D01*
X154236780Y-77295195D01*
X154239672Y-77331058D01*
X154241301Y-77382116D01*
X154242021Y-77452290D01*
X154242043Y-77464838D01*
X154242182Y-77545506D01*
X154242167Y-77584916D01*
X154241874Y-77668231D01*
X154240933Y-77729867D01*
X154238988Y-77773621D01*
X154235683Y-77803290D01*
X154230663Y-77822669D01*
X154223573Y-77835556D01*
X154214056Y-77845745D01*
X154202497Y-77859455D01*
X154187323Y-77896359D01*
X154178532Y-77953536D01*
X154177254Y-77965952D01*
X154165228Y-78025420D01*
X154145989Y-78062114D01*
X154130060Y-78087586D01*
X154120844Y-78125874D01*
X154112652Y-78159945D01*
X154091302Y-78194091D01*
X154069619Y-78223453D01*
X154057714Y-78252045D01*
X154056171Y-78257578D01*
X154042254Y-78285999D01*
X154017558Y-78326825D01*
X153986142Y-78373189D01*
X153974005Y-78390416D01*
X153945689Y-78432566D01*
X153925998Y-78464794D01*
X153918615Y-78481205D01*
X153918608Y-78481363D01*
X153908790Y-78496230D01*
X153882212Y-78526877D01*
X153841608Y-78570603D01*
X153789708Y-78624706D01*
X153729245Y-78686483D01*
X153662950Y-78753234D01*
X153593554Y-78822257D01*
X153523789Y-78890849D01*
X153456388Y-78956309D01*
X153394081Y-79015935D01*
X153339600Y-79067026D01*
X153295677Y-79106880D01*
X153265044Y-79132795D01*
X153250431Y-79142069D01*
X153226753Y-79149045D01*
X153189744Y-79167926D01*
X153149289Y-79193140D01*
X153114318Y-79219094D01*
X153093760Y-79240195D01*
X153093207Y-79240898D01*
X153079655Y-79246091D01*
X153072583Y-79247068D01*
X153048668Y-79250372D01*
X152998342Y-79253843D01*
X152926770Y-79256604D01*
X152832048Y-79258757D01*
X152712270Y-79260402D01*
X152340794Y-79264383D01*
X152308686Y-79315245D01*
X152301489Y-79326010D01*
X152271893Y-79362363D01*
X152243698Y-79387651D01*
X152230407Y-79398039D01*
X152198531Y-79426089D01*
X152154369Y-79466841D01*
X152108514Y-79510331D01*
X152101856Y-79516646D01*
X152044928Y-79571858D01*
X152042156Y-79574575D01*
X151975829Y-79638427D01*
X151924676Y-79684846D01*
X151885770Y-79716197D01*
X151856182Y-79734847D01*
X151832986Y-79743161D01*
X151795331Y-79757561D01*
X151766768Y-79782578D01*
X151746395Y-79804059D01*
X151713863Y-79821572D01*
X151702207Y-79826046D01*
X151668836Y-79846993D01*
X151634131Y-79876783D01*
X151617670Y-79892541D01*
X151590886Y-79914968D01*
X151575059Y-79923777D01*
X151568504Y-79925914D01*
X151544311Y-79940458D01*
X151512087Y-79964223D01*
X151501543Y-79972098D01*
X151459343Y-79995604D01*
X151423074Y-80004669D01*
X151396915Y-80009142D01*
X151370749Y-80031216D01*
X151363644Y-80041742D01*
X151339518Y-80071421D01*
X151304278Y-80111356D01*
X151262790Y-80155924D01*
X151238374Y-80182392D01*
X151202421Y-80225384D01*
X151177857Y-80260260D01*
X151168667Y-80281694D01*
X151164590Y-80295413D01*
X151138978Y-80323983D01*
X151088879Y-80359898D01*
X151073578Y-80370139D01*
X151022572Y-80408539D01*
X150966143Y-80455661D01*
X150913949Y-80503574D01*
X150861311Y-80551853D01*
X150808471Y-80591202D01*
X150765741Y-80610844D01*
X150733577Y-80623959D01*
X150689882Y-80655323D01*
X150638148Y-80706649D01*
X150634747Y-80710317D01*
X150588777Y-80754577D01*
X150540043Y-80793821D01*
X150498391Y-80820061D01*
X150478195Y-80830779D01*
X150428688Y-80862166D01*
X150388071Y-80894131D01*
X150368466Y-80910722D01*
X150321964Y-80944080D01*
X150273474Y-80973316D01*
X150237774Y-80994994D01*
X150184573Y-81033425D01*
X150136927Y-81073827D01*
X150100097Y-81105684D01*
X150062762Y-81132596D01*
X150035813Y-81146187D01*
X150013243Y-81156488D01*
X149976007Y-81180802D01*
X149936010Y-81212514D01*
X149902289Y-81239721D01*
X149865048Y-81265128D01*
X149838615Y-81277938D01*
X149830852Y-81280368D01*
X149796136Y-81296400D01*
X149757901Y-81319329D01*
X149744928Y-81327710D01*
X149711537Y-81345696D01*
X149688921Y-81352864D01*
X149670252Y-81360457D01*
X149638001Y-81381481D01*
X149599799Y-81411224D01*
X149563334Y-81439667D01*
X149519818Y-81469078D01*
X149485822Y-81487260D01*
X149465706Y-81498426D01*
X149427311Y-81528826D01*
X149385187Y-81569452D01*
X149345605Y-81613631D01*
X149314834Y-81654689D01*
X149299144Y-81685953D01*
X149300538Y-81715633D01*
X149321519Y-81757674D01*
X149328843Y-81768525D01*
X149335443Y-81781330D01*
X149340669Y-81797815D01*
X149344713Y-81820889D01*
X149347770Y-81853464D01*
X149350033Y-81898450D01*
X149351698Y-81958757D01*
X149352956Y-82037296D01*
X149352981Y-82039690D01*
X149354004Y-82136977D01*
X149355033Y-82260712D01*
X149355449Y-82311094D01*
X149355951Y-82371775D01*
X149356996Y-82474156D01*
X149358241Y-82555199D01*
X149359885Y-82617886D01*
X149362126Y-82665198D01*
X149365160Y-82700116D01*
X149369187Y-82725622D01*
X149374404Y-82744697D01*
X149381009Y-82760323D01*
X149389200Y-82775481D01*
X149392369Y-82781194D01*
X149404385Y-82807490D01*
X149413045Y-82838274D01*
X149419265Y-82879165D01*
X149423961Y-82935781D01*
X149428049Y-83013741D01*
X149429924Y-83053237D01*
X149433880Y-83118401D01*
X149438620Y-83164334D01*
X149445036Y-83196263D01*
X149454020Y-83219415D01*
X149466463Y-83239017D01*
X149469705Y-83243564D01*
X149488756Y-83278267D01*
X149496535Y-83307202D01*
X149496515Y-83309234D01*
X149494142Y-83321066D01*
X149484365Y-83328532D01*
X149462294Y-83332630D01*
X149423040Y-83334358D01*
X149361715Y-83334712D01*
X149348288Y-83334705D01*
X149291523Y-83334196D01*
X149255900Y-83332144D01*
X149236520Y-83327521D01*
X149228485Y-83319301D01*
X149226895Y-83306458D01*
X149226634Y-83302391D01*
X149216614Y-83270889D01*
X149196561Y-83235678D01*
X149187007Y-83221132D01*
X149176151Y-83197066D01*
X149169702Y-83166132D01*
X149166490Y-83121636D01*
X149165348Y-83056884D01*
X149164802Y-83012818D01*
X149162542Y-82962278D01*
X149157573Y-82928117D01*
X149148772Y-82903894D01*
X149135013Y-82883171D01*
X149115754Y-82849197D01*
X149105558Y-82787509D01*
X149102299Y-82746382D01*
X149092558Y-82703984D01*
X149078876Y-82672769D01*
X149063843Y-82660614D01*
X149055477Y-82650461D01*
X149048970Y-82623538D01*
X149044519Y-82586463D01*
X149022425Y-82626909D01*
X148988486Y-82673907D01*
X148937700Y-82711239D01*
X148871194Y-82732729D01*
X148786433Y-82739153D01*
X148680876Y-82731288D01*
X148586503Y-82719368D01*
X148667394Y-82708365D01*
X148735252Y-82692875D01*
X148786396Y-82665506D01*
X148789781Y-82662774D01*
X148824609Y-82642116D01*
X148856195Y-82633650D01*
X148872652Y-82628940D01*
X148903861Y-82607683D01*
X148935813Y-82576501D01*
X148960707Y-82543386D01*
X148970738Y-82516328D01*
X148970771Y-82515621D01*
X148982647Y-82498075D01*
X149009471Y-82479494D01*
X149038377Y-82457703D01*
X149058535Y-82418528D01*
X149064928Y-82360217D01*
X149060990Y-82332604D01*
X149043414Y-82315876D01*
X149012340Y-82321915D01*
X148968405Y-82350783D01*
X148952212Y-82362681D01*
X148924380Y-82378762D01*
X148899775Y-82392978D01*
X148847753Y-82414171D01*
X148823839Y-82421927D01*
X148793752Y-82434671D01*
X148781991Y-82444281D01*
X148781973Y-82444620D01*
X148770103Y-82456964D01*
X148742877Y-82471315D01*
X148715157Y-82486154D01*
X148665410Y-82529053D01*
X148628136Y-82582587D01*
X148603742Y-82608082D01*
X148552490Y-82628375D01*
X148532056Y-82633674D01*
X148505488Y-82644137D01*
X148495538Y-82659237D01*
X148495551Y-82685673D01*
X148493780Y-82716199D01*
X148482069Y-82729613D01*
X148459461Y-82732098D01*
X148424719Y-82736321D01*
X148395000Y-82739667D01*
X148319092Y-82745091D01*
X148243507Y-82746747D01*
X148174853Y-82744752D01*
X148119740Y-82739224D01*
X148084780Y-82730281D01*
X148079031Y-82727662D01*
X148048853Y-82717991D01*
X148016444Y-82717848D01*
X147970183Y-82726892D01*
X147946338Y-82731692D01*
X147888711Y-82738597D01*
X147838254Y-82739272D01*
X147832892Y-82738854D01*
X147795529Y-82732947D01*
X147773765Y-82719149D01*
X147757363Y-82691399D01*
X147747764Y-82672292D01*
X147732194Y-82651879D01*
X147709618Y-82639180D01*
X147673403Y-82631024D01*
X147616917Y-82624238D01*
X147582198Y-82618808D01*
X147523620Y-82603542D01*
X147475604Y-82584235D01*
X147473954Y-82583361D01*
X147427079Y-82560978D01*
X147398336Y-82554450D01*
X147383993Y-82563995D01*
X147380316Y-82589834D01*
X147383303Y-82610275D01*
X147399720Y-82647015D01*
X147424587Y-82675885D01*
X147451158Y-82687578D01*
X147456137Y-82688023D01*
X147478131Y-82698760D01*
X147492983Y-82716783D01*
X147492100Y-82732635D01*
X147489927Y-82734564D01*
X147462783Y-82741922D01*
X147430208Y-82734090D01*
X147405106Y-82713852D01*
X147388382Y-82697667D01*
X147357060Y-82686108D01*
X147305717Y-82679029D01*
X147294789Y-82678057D01*
X147242289Y-82672491D01*
X147213921Y-82665308D01*
X147207328Y-82653206D01*
X147220152Y-82632882D01*
X147250034Y-82601032D01*
X147308813Y-82540552D01*
X147280301Y-82514042D01*
X147275831Y-82510274D01*
X147240458Y-82490757D01*
X147197861Y-82477664D01*
X147186248Y-82475266D01*
X147135220Y-82461040D01*
X147085518Y-82442867D01*
X147073272Y-82437745D01*
X147023138Y-82420925D01*
X146988806Y-82420239D01*
X146964610Y-82436860D01*
X146944885Y-82471959D01*
X146939226Y-82485503D01*
X146926467Y-82520669D01*
X146921275Y-82542739D01*
X146920475Y-82549932D01*
X146910375Y-82576340D01*
X146892493Y-82582214D01*
X146857537Y-82577532D01*
X146812368Y-82564439D01*
X146763734Y-82545261D01*
X146718383Y-82522325D01*
X146683063Y-82497958D01*
X146674865Y-82491118D01*
X146639806Y-82466216D01*
X146610863Y-82451474D01*
X146577337Y-82450840D01*
X146534190Y-82468015D01*
X146493288Y-82499435D01*
X146462823Y-82540191D01*
X146462535Y-82540754D01*
X146445553Y-82587800D01*
X146430756Y-82654101D01*
X146419263Y-82732093D01*
X146412193Y-82814213D01*
X146410664Y-82892894D01*
X146410826Y-82933554D01*
X146407114Y-82971019D01*
X146396706Y-82998336D01*
X146377187Y-83025036D01*
X146371139Y-83032678D01*
X146350211Y-83068060D01*
X146341757Y-83098161D01*
X146338222Y-83119484D01*
X146323717Y-83144153D01*
X146320305Y-83147595D01*
X146304388Y-83174147D01*
X146290017Y-83211388D01*
X146288305Y-83216814D01*
X146269280Y-83261662D01*
X146246411Y-83299181D01*
X146235974Y-83311413D01*
X146215522Y-83326394D01*
X146186524Y-83333141D01*
X146139812Y-83334712D01*
X146096628Y-83334051D01*
X146073645Y-83330412D01*
X146066183Y-83321339D01*
X146068468Y-83304377D01*
X146082630Y-83273142D01*
X146106597Y-83240338D01*
X146110330Y-83235945D01*
X146132671Y-83197185D01*
X146146727Y-83152705D01*
X146148018Y-83145915D01*
X146161046Y-83101187D01*
X146178028Y-83065072D01*
X146182729Y-83056467D01*
X146193701Y-83020024D01*
X146201798Y-82962979D01*
X146207530Y-82882184D01*
X146210876Y-82824422D01*
X146215721Y-82773387D01*
X146222650Y-82737682D01*
X146232989Y-82710915D01*
X146248064Y-82686696D01*
X146281089Y-82640391D01*
X146282400Y-82384234D01*
X148067447Y-82384234D01*
X148074727Y-82397852D01*
X148104523Y-82403392D01*
X148135317Y-82400461D01*
X148163890Y-82390858D01*
X148170501Y-82378762D01*
X148154151Y-82368403D01*
X148113839Y-82364011D01*
X148110933Y-82364028D01*
X148077868Y-82369158D01*
X148067447Y-82384234D01*
X146282400Y-82384234D01*
X146283577Y-82154130D01*
X146486655Y-82154130D01*
X146495665Y-82196370D01*
X146518882Y-82237731D01*
X146553481Y-82271868D01*
X146596638Y-82292436D01*
X146602573Y-82294185D01*
X146638092Y-82309811D01*
X146676414Y-82332387D01*
X146690164Y-82341075D01*
X146737641Y-82360856D01*
X146776950Y-82362002D01*
X146803730Y-82345189D01*
X146813626Y-82311094D01*
X146812750Y-82301096D01*
X146804489Y-82280420D01*
X146784708Y-82255516D01*
X146750000Y-82222477D01*
X146696956Y-82177398D01*
X146670280Y-82155531D01*
X146619993Y-82116564D01*
X146583259Y-82093285D01*
X146555701Y-82083855D01*
X146532944Y-82086441D01*
X146510612Y-82099204D01*
X146494677Y-82117355D01*
X146486655Y-82154130D01*
X146283577Y-82154130D01*
X146284155Y-82041244D01*
X148732226Y-82041244D01*
X148750854Y-82053474D01*
X148795436Y-82066140D01*
X148818370Y-82071047D01*
X148854418Y-82077897D01*
X148876035Y-82078682D01*
X148891498Y-82072982D01*
X148909085Y-82060377D01*
X148915489Y-82055250D01*
X148927105Y-82039690D01*
X148917486Y-82029437D01*
X148884767Y-82023600D01*
X148827081Y-82021289D01*
X148822128Y-82021247D01*
X148768856Y-82023723D01*
X148738558Y-82030858D01*
X148732226Y-82041244D01*
X146284155Y-82041244D01*
X146284159Y-82040444D01*
X146284716Y-81955655D01*
X146285969Y-81832578D01*
X146287653Y-81717968D01*
X146289696Y-81614909D01*
X146292022Y-81526482D01*
X146294558Y-81455771D01*
X146297231Y-81405859D01*
X146299967Y-81379828D01*
X146306234Y-81313503D01*
X146293832Y-81247493D01*
X146260286Y-81180315D01*
X146203862Y-81107046D01*
X146194525Y-81096604D01*
X146122853Y-81028439D01*
X146052558Y-80981848D01*
X146018539Y-80963347D01*
X145979738Y-80938876D01*
X145955845Y-80919589D01*
X145955763Y-80919499D01*
X145926845Y-80899709D01*
X145888639Y-80886571D01*
X145875065Y-80882741D01*
X145829703Y-80857506D01*
X145778375Y-80813853D01*
X145743156Y-80781879D01*
X145706649Y-80753895D01*
X145680253Y-80739283D01*
X145669009Y-80734122D01*
X145636195Y-80713409D01*
X145592874Y-80681904D01*
X145545387Y-80644082D01*
X145519362Y-80623069D01*
X145472562Y-80588290D01*
X145432893Y-80562458D01*
X145406899Y-80550020D01*
X145406562Y-80549934D01*
X145376047Y-80533066D01*
X145336448Y-80498788D01*
X145292862Y-80452505D01*
X145250386Y-80399622D01*
X145214115Y-80345546D01*
X145213639Y-80344751D01*
X145186507Y-80305670D01*
X145148384Y-80258118D01*
X145107367Y-80212208D01*
X145097118Y-80201182D01*
X145039883Y-80131145D01*
X144985436Y-80052170D01*
X144942852Y-79977220D01*
X144938737Y-79972007D01*
X144918215Y-79950036D01*
X144883816Y-79914798D01*
X144839084Y-79869785D01*
X144787560Y-79818487D01*
X144732785Y-79764397D01*
X144678301Y-79711006D01*
X144627651Y-79661805D01*
X144584374Y-79620287D01*
X144552014Y-79589942D01*
X144534112Y-79574263D01*
X144500684Y-79554006D01*
X144461587Y-79538478D01*
X144459016Y-79537668D01*
X144432002Y-79521500D01*
X144390816Y-79488853D01*
X144338983Y-79442689D01*
X144280030Y-79385970D01*
X144256358Y-79362502D01*
X144206527Y-79313620D01*
X144164028Y-79272620D01*
X144132759Y-79243243D01*
X144116621Y-79229230D01*
X144098126Y-79216672D01*
X144063548Y-79193604D01*
X144021835Y-79166025D01*
X143984103Y-79140035D01*
X143949201Y-79113604D01*
X143929181Y-79095472D01*
X143916350Y-79084009D01*
X143891253Y-79074414D01*
X143877283Y-79070920D01*
X143844648Y-79056230D01*
X143805068Y-79033968D01*
X143799073Y-79030358D01*
X143741089Y-79003293D01*
X143690927Y-78993523D01*
X143655610Y-78988655D01*
X143602462Y-78959818D01*
X143596397Y-78954939D01*
X143563557Y-78934433D01*
X143537002Y-78926113D01*
X143515419Y-78920331D01*
X143487479Y-78900719D01*
X143486445Y-78899664D01*
X143455608Y-78879438D01*
X143416174Y-78865559D01*
X143414720Y-78865250D01*
X143374180Y-78851761D01*
X143342023Y-78833412D01*
X143322698Y-78817835D01*
X143274528Y-78783023D01*
X143234257Y-78759492D01*
X143207749Y-78750847D01*
X143189023Y-78745283D01*
X143162568Y-78726435D01*
X143132823Y-78699526D01*
X143084219Y-78667780D01*
X143042894Y-78656474D01*
X143022355Y-78651389D01*
X142998599Y-78630193D01*
X142988852Y-78616144D01*
X142964848Y-78595288D01*
X142925093Y-78571416D01*
X142864819Y-78541361D01*
X142860162Y-78539105D01*
X142825034Y-78519358D01*
X142800842Y-78501454D01*
X142783546Y-78487938D01*
X142748826Y-78465064D01*
X142706140Y-78439486D01*
X142697054Y-78434010D01*
X142651559Y-78401283D01*
X142596490Y-78355389D01*
X142535616Y-78300150D01*
X142472707Y-78239389D01*
X142411533Y-78176931D01*
X142355864Y-78116598D01*
X142309468Y-78062213D01*
X142276116Y-78017599D01*
X142259578Y-77986581D01*
X142256529Y-77977278D01*
X142238316Y-77937560D01*
X142217859Y-77909654D01*
X142203312Y-77890302D01*
X142198920Y-77860927D01*
X142196215Y-77836666D01*
X142172339Y-77804395D01*
X142171192Y-77803318D01*
X142154277Y-77783644D01*
X142143643Y-77758982D01*
X142137213Y-77722006D01*
X142132908Y-77665392D01*
X142130122Y-77628748D01*
X142119394Y-77562526D01*
X142102351Y-77520161D01*
X142099335Y-77515247D01*
X142092184Y-77499307D01*
X142086591Y-77477229D01*
X142082268Y-77445541D01*
X142078925Y-77400774D01*
X142076275Y-77339456D01*
X142075743Y-77320191D01*
X142359775Y-77320191D01*
X142363118Y-77475124D01*
X142372144Y-77606150D01*
X142387086Y-77715143D01*
X142408173Y-77803975D01*
X142435638Y-77874520D01*
X142456366Y-77911923D01*
X142498713Y-77976808D01*
X142548980Y-78045090D01*
X142600357Y-78107676D01*
X142646033Y-78155470D01*
X142666397Y-78174484D01*
X142706595Y-78212582D01*
X142754972Y-78258855D01*
X142805067Y-78307142D01*
X142845401Y-78345295D01*
X142885033Y-78380817D01*
X142914407Y-78404919D01*
X142929099Y-78413799D01*
X142940269Y-78417655D01*
X142968882Y-78433570D01*
X143005486Y-78457615D01*
X143018505Y-78466699D01*
X143069140Y-78500678D01*
X143105149Y-78521491D01*
X143132011Y-78531968D01*
X143155204Y-78534937D01*
X143173661Y-78539032D01*
X143192089Y-78555968D01*
X143192962Y-78557872D01*
X143212205Y-78577438D01*
X143244089Y-78595837D01*
X143286174Y-78616865D01*
X143328541Y-78642326D01*
X143332757Y-78645122D01*
X143364672Y-78662653D01*
X143387937Y-78669867D01*
X143393063Y-78670689D01*
X143419283Y-78682638D01*
X143451867Y-78704264D01*
X143458072Y-78708728D01*
X143502641Y-78732066D01*
X143547514Y-78744902D01*
X143554370Y-78745920D01*
X143590561Y-78756448D01*
X143613148Y-78771263D01*
X143615535Y-78773977D01*
X143643242Y-78786740D01*
X143683716Y-78790407D01*
X143726007Y-78785026D01*
X143759170Y-78770642D01*
X143773856Y-78762102D01*
X143822249Y-78751934D01*
X143881522Y-78757168D01*
X143943868Y-78777515D01*
X143948337Y-78779490D01*
X144013996Y-78798237D01*
X144097012Y-78804273D01*
X144126882Y-78804020D01*
X144176811Y-78800691D01*
X144206685Y-78791918D01*
X144221203Y-78775714D01*
X144225063Y-78750092D01*
X144222773Y-78699207D01*
X144214960Y-78627057D01*
X144203166Y-78550781D01*
X144189026Y-78480736D01*
X144174171Y-78427281D01*
X144169958Y-78414081D01*
X144156972Y-78359465D01*
X144145715Y-78293107D01*
X144138243Y-78226506D01*
X144136510Y-78205512D01*
X144127776Y-78130595D01*
X144116304Y-78078622D01*
X144101156Y-78046369D01*
X144081398Y-78030610D01*
X144067311Y-78030263D01*
X144041157Y-78046066D01*
X144016914Y-78076120D01*
X144001292Y-78113482D01*
X143995998Y-78127992D01*
X143974368Y-78164481D01*
X143944285Y-78201458D01*
X143914256Y-78229742D01*
X143882744Y-78247347D01*
X143846511Y-78252015D01*
X143840395Y-78251891D01*
X143804985Y-78246361D01*
X143783309Y-78235163D01*
X143779478Y-78215601D01*
X143783028Y-78177830D01*
X143792565Y-78130523D01*
X143806131Y-78081738D01*
X143821769Y-78039533D01*
X143837521Y-78011967D01*
X143837832Y-78011603D01*
X143853876Y-77987825D01*
X143876639Y-77948334D01*
X143901301Y-77901484D01*
X143913534Y-77876920D01*
X143928733Y-77843004D01*
X143937548Y-77813067D01*
X143941202Y-77779384D01*
X143940916Y-77734231D01*
X143937910Y-77669880D01*
X143934877Y-77621561D01*
X143927234Y-77551567D01*
X143916368Y-77504636D01*
X143901587Y-77478293D01*
X143882203Y-77470062D01*
X143861957Y-77475704D01*
X143822602Y-77495008D01*
X143771229Y-77524947D01*
X143725270Y-77554350D01*
X143712841Y-77562302D01*
X143652436Y-77603857D01*
X143595017Y-77646393D01*
X143545583Y-77686691D01*
X143532434Y-77698087D01*
X143479413Y-77742008D01*
X143438510Y-77770421D01*
X143403867Y-77786158D01*
X143369624Y-77792052D01*
X143329923Y-77790933D01*
X143305932Y-77787595D01*
X143244715Y-77768026D01*
X143187126Y-77735841D01*
X143137602Y-77695124D01*
X143100579Y-77649956D01*
X143080494Y-77604421D01*
X143081785Y-77562601D01*
X143092029Y-77540785D01*
X143381011Y-77540785D01*
X143390759Y-77552196D01*
X143419188Y-77562710D01*
X143435604Y-77554350D01*
X143434120Y-77529659D01*
X143434087Y-77529575D01*
X143422657Y-77518023D01*
X143399523Y-77525686D01*
X143394448Y-77528495D01*
X143381011Y-77540785D01*
X143092029Y-77540785D01*
X143095249Y-77533927D01*
X143113876Y-77509640D01*
X143120040Y-77504085D01*
X143123186Y-77498500D01*
X143491236Y-77498500D01*
X143508194Y-77509838D01*
X143537594Y-77503249D01*
X143572666Y-77476578D01*
X143579281Y-77469218D01*
X143598044Y-77434162D01*
X143603602Y-77397215D01*
X143595825Y-77366768D01*
X143574587Y-77351217D01*
X143563850Y-77350869D01*
X143553660Y-77362449D01*
X143550993Y-77394612D01*
X143550874Y-77401774D01*
X143544689Y-77429616D01*
X143542589Y-77439069D01*
X143517404Y-77464485D01*
X143517231Y-77464598D01*
X143495817Y-77483613D01*
X143491236Y-77498500D01*
X143123186Y-77498500D01*
X143133491Y-77480203D01*
X143122276Y-77463113D01*
X143088216Y-77456580D01*
X143056632Y-77461130D01*
X143013867Y-77487994D01*
X142988455Y-77510691D01*
X142946292Y-77538357D01*
X142901995Y-77559538D01*
X142863248Y-77570726D01*
X142837736Y-77568412D01*
X142825042Y-77554200D01*
X142813424Y-77517592D01*
X142811240Y-77471296D01*
X142817832Y-77429616D01*
X143281354Y-77429616D01*
X143283926Y-77436059D01*
X143302373Y-77443098D01*
X143312003Y-77441158D01*
X143315059Y-77429616D01*
X143312299Y-77425934D01*
X143294040Y-77416134D01*
X143291030Y-77416520D01*
X143281354Y-77429616D01*
X142817832Y-77429616D01*
X142818601Y-77424755D01*
X142835617Y-77387413D01*
X142838165Y-77383923D01*
X142856158Y-77356274D01*
X142863659Y-77339159D01*
X142871890Y-77316782D01*
X142896356Y-77279593D01*
X142932662Y-77233847D01*
X142976370Y-77184338D01*
X143023039Y-77135860D01*
X143068231Y-77093210D01*
X143107505Y-77061180D01*
X143136423Y-77044567D01*
X143156929Y-77027071D01*
X143160719Y-76998139D01*
X143148276Y-76966448D01*
X143120861Y-76940431D01*
X143079852Y-76924958D01*
X143026979Y-76918535D01*
X142976033Y-76922815D01*
X142938358Y-76937953D01*
X142934622Y-76940660D01*
X142890996Y-76957466D01*
X142848773Y-76950464D01*
X142815204Y-76920672D01*
X142795768Y-76874387D01*
X142797437Y-76818283D01*
X142824249Y-76761687D01*
X142875496Y-76707105D01*
X142905916Y-76687636D01*
X142963247Y-76667732D01*
X143026116Y-76659878D01*
X143085127Y-76664932D01*
X143130884Y-76683754D01*
X143138222Y-76688655D01*
X143178718Y-76709508D01*
X143224056Y-76726388D01*
X143240140Y-76731586D01*
X143269653Y-76744624D01*
X143281354Y-76755540D01*
X143283049Y-76759063D01*
X143302257Y-76770923D01*
X143335976Y-76782669D01*
X143348390Y-76786453D01*
X143381255Y-76801351D01*
X143398031Y-76816747D01*
X143400773Y-76821120D01*
X143423472Y-76837033D01*
X143458965Y-76850524D01*
X143496772Y-76867106D01*
X143549906Y-76901738D01*
X143610255Y-76950215D01*
X143629264Y-76966624D01*
X143694311Y-77019121D01*
X143746440Y-77053899D01*
X143789341Y-77073155D01*
X143826704Y-77079085D01*
X143844606Y-77075911D01*
X143860326Y-77056631D01*
X143856869Y-77021947D01*
X143834064Y-76974274D01*
X143831069Y-76969187D01*
X143813757Y-76931548D01*
X143806165Y-76900123D01*
X143806088Y-76898635D01*
X143797449Y-76865926D01*
X143779344Y-76829669D01*
X143756269Y-76791331D01*
X143736819Y-76755518D01*
X143719293Y-76724895D01*
X144157827Y-76724895D01*
X144159071Y-76740553D01*
X144167175Y-76782973D01*
X144180301Y-76829669D01*
X144190390Y-76871406D01*
X144199114Y-76935411D01*
X144206006Y-77021867D01*
X144211294Y-77133013D01*
X144219325Y-77270621D01*
X144232801Y-77384937D01*
X144235371Y-77397215D01*
X144252215Y-77477699D01*
X144278089Y-77551394D01*
X144310943Y-77608511D01*
X144316711Y-77616561D01*
X144329585Y-77641029D01*
X144330922Y-77667181D01*
X144322068Y-77706911D01*
X144321586Y-77708729D01*
X144312942Y-77759987D01*
X144319341Y-77793398D01*
X144321120Y-77797176D01*
X144329527Y-77830326D01*
X144332946Y-77871626D01*
X144333622Y-77884097D01*
X144344920Y-77935362D01*
X144366651Y-77987822D01*
X144378682Y-78012055D01*
X144394260Y-78050127D01*
X144400356Y-78075455D01*
X144401968Y-78086138D01*
X144413271Y-78119347D01*
X144431821Y-78159004D01*
X144439170Y-78174066D01*
X144459519Y-78228608D01*
X144471793Y-78280776D01*
X144474068Y-78294307D01*
X144488345Y-78345876D01*
X144507671Y-78389632D01*
X144514794Y-78403335D01*
X144532619Y-78451597D01*
X144543973Y-78502431D01*
X144546521Y-78518330D01*
X144560141Y-78575704D01*
X144577763Y-78627301D01*
X144586289Y-78650442D01*
X144601327Y-78706256D01*
X144608867Y-78750092D01*
X144610936Y-78762120D01*
X144615525Y-78793168D01*
X144626454Y-78838948D01*
X144639093Y-78870189D01*
X144649721Y-78895042D01*
X144661978Y-78939534D01*
X144671529Y-78990822D01*
X144679852Y-79035747D01*
X144691527Y-79077043D01*
X144703242Y-79100872D01*
X144707979Y-79107280D01*
X144723085Y-79139299D01*
X144735485Y-79180405D01*
X144738906Y-79193381D01*
X144756020Y-79235298D01*
X144776711Y-79264994D01*
X144795414Y-79289114D01*
X144804815Y-79317418D01*
X144805065Y-79320472D01*
X144813079Y-79347949D01*
X144829949Y-79390303D01*
X144852385Y-79440150D01*
X144877099Y-79490110D01*
X144900799Y-79532801D01*
X144904428Y-79539084D01*
X144920447Y-79569007D01*
X144939717Y-79606951D01*
X144951121Y-79628045D01*
X144981004Y-79675893D01*
X145013645Y-79721548D01*
X145032375Y-79746676D01*
X145058705Y-79785768D01*
X145074914Y-79814778D01*
X145076712Y-79818534D01*
X145089500Y-79838163D01*
X145112437Y-79866686D01*
X145146851Y-79905505D01*
X145194066Y-79956018D01*
X145255410Y-80019625D01*
X145332207Y-80097725D01*
X145425785Y-80191720D01*
X145537469Y-80303007D01*
X145581705Y-80346856D01*
X145653079Y-80416817D01*
X145711363Y-80472348D01*
X145760297Y-80516653D01*
X145803619Y-80552936D01*
X145845067Y-80584403D01*
X145888381Y-80614258D01*
X145937299Y-80645705D01*
X145944883Y-80650485D01*
X145983310Y-80674838D01*
X146033150Y-80706553D01*
X146085600Y-80740031D01*
X146091786Y-80743962D01*
X146154536Y-80781979D01*
X146222173Y-80820388D01*
X146281089Y-80851435D01*
X146289270Y-80855494D01*
X146336312Y-80879075D01*
X146374310Y-80898504D01*
X146395685Y-80909913D01*
X146416342Y-80920847D01*
X146449613Y-80936663D01*
X146465889Y-80944043D01*
X146506012Y-80962627D01*
X146550921Y-80983752D01*
X146578576Y-80996072D01*
X146616427Y-81010281D01*
X146640274Y-81015816D01*
X146651932Y-81017822D01*
X146676818Y-81033642D01*
X146686058Y-81040980D01*
X146716869Y-81059158D01*
X146762419Y-81082785D01*
X146816658Y-81108615D01*
X146848066Y-81122993D01*
X146907518Y-81150329D01*
X146959562Y-81174400D01*
X146995632Y-81191254D01*
X147003900Y-81194995D01*
X147054732Y-81213595D01*
X147103488Y-81225938D01*
X147110336Y-81227190D01*
X147155094Y-81238543D01*
X147191298Y-81252247D01*
X147203359Y-81257408D01*
X147244328Y-81269769D01*
X147291169Y-81279259D01*
X147308659Y-81282630D01*
X147360824Y-81299168D01*
X147404099Y-81321009D01*
X147413079Y-81326724D01*
X147452265Y-81345351D01*
X147485510Y-81352864D01*
X147493173Y-81353493D01*
X147529407Y-81364673D01*
X147567891Y-81385413D01*
X147593996Y-81400510D01*
X147640682Y-81415550D01*
X147703435Y-81422489D01*
X147720252Y-81423479D01*
X147765138Y-81428649D01*
X147791640Y-81437900D01*
X147806420Y-81453218D01*
X147812243Y-81465208D01*
X147810470Y-81484121D01*
X147788431Y-81505648D01*
X147777910Y-81514382D01*
X147765106Y-81531381D01*
X147773079Y-81543278D01*
X147782002Y-81548314D01*
X147797808Y-81553323D01*
X147812481Y-81550249D01*
X147861468Y-81537724D01*
X147919146Y-81518963D01*
X147940319Y-81513106D01*
X147987489Y-81505263D01*
X148054214Y-81498751D01*
X148142960Y-81493349D01*
X148256195Y-81488837D01*
X148325701Y-81486435D01*
X148405061Y-81483066D01*
X148464523Y-81479359D01*
X148508242Y-81474849D01*
X148540374Y-81469070D01*
X148565075Y-81461557D01*
X148586503Y-81451844D01*
X148611572Y-81441279D01*
X148667582Y-81425958D01*
X148728063Y-81417050D01*
X148764582Y-81412580D01*
X148823478Y-81399547D01*
X148869624Y-81382389D01*
X148878925Y-81377829D01*
X148929337Y-81357981D01*
X148977479Y-81345033D01*
X148984537Y-81343628D01*
X149028615Y-81329459D01*
X149063560Y-81310465D01*
X149090955Y-81293246D01*
X149114735Y-81285455D01*
X149126057Y-81283120D01*
X149157683Y-81270910D01*
X149197071Y-81251750D01*
X149221394Y-81239562D01*
X149258059Y-81224093D01*
X149281390Y-81218045D01*
X149291030Y-81216986D01*
X149315202Y-81205827D01*
X149328102Y-81197150D01*
X149360881Y-81178098D01*
X149407594Y-81152334D01*
X149462830Y-81122896D01*
X149508737Y-81098371D01*
X149562362Y-81068562D01*
X149604866Y-81043627D01*
X149629802Y-81027258D01*
X149656491Y-81010009D01*
X149677817Y-81002334D01*
X149694999Y-80996083D01*
X149720463Y-80977381D01*
X149722000Y-80976002D01*
X149755013Y-80956468D01*
X149795801Y-80943319D01*
X149800681Y-80942324D01*
X149836877Y-80930303D01*
X149860295Y-80915005D01*
X149865867Y-80910120D01*
X149895125Y-80896608D01*
X149934986Y-80886989D01*
X149948502Y-80884418D01*
X149989248Y-80870628D01*
X150016864Y-80852623D01*
X150036681Y-80836471D01*
X150062937Y-80827068D01*
X150067211Y-80826358D01*
X150093123Y-80814465D01*
X150131578Y-80790944D01*
X150175940Y-80759748D01*
X150185919Y-80752327D01*
X150232870Y-80718314D01*
X150274426Y-80689526D01*
X150302578Y-80671542D01*
X150343216Y-80646251D01*
X150403750Y-80603302D01*
X150480202Y-80544355D01*
X150498756Y-80529895D01*
X150544933Y-80495269D01*
X150585301Y-80466572D01*
X150589520Y-80463670D01*
X150640720Y-80424213D01*
X150702300Y-80370779D01*
X150770412Y-80307319D01*
X150841209Y-80237784D01*
X150910843Y-80166124D01*
X150975466Y-80096291D01*
X151031231Y-80032235D01*
X151074289Y-79977908D01*
X151100793Y-79937259D01*
X151108043Y-79925582D01*
X151132411Y-79892605D01*
X151167176Y-79849464D01*
X151207373Y-79802440D01*
X151253010Y-79749830D01*
X151300274Y-79692315D01*
X151332888Y-79647618D01*
X151353411Y-79612152D01*
X151364401Y-79582332D01*
X151374888Y-79556883D01*
X151398702Y-79524962D01*
X151407394Y-79514386D01*
X151723442Y-79514386D01*
X151734539Y-79519319D01*
X151741676Y-79518346D01*
X151743527Y-79510331D01*
X151741551Y-79508717D01*
X151725551Y-79510331D01*
X151723442Y-79514386D01*
X151407394Y-79514386D01*
X151415076Y-79505038D01*
X151424454Y-79479423D01*
X151427695Y-79465615D01*
X151442378Y-79432715D01*
X151464900Y-79393411D01*
X151481213Y-79366558D01*
X151489720Y-79350794D01*
X151882840Y-79350794D01*
X151883222Y-79359991D01*
X151886211Y-79369958D01*
X151891633Y-79367021D01*
X151914593Y-79353487D01*
X151948711Y-79332882D01*
X151986492Y-79304833D01*
X152013827Y-79274061D01*
X152025168Y-79247068D01*
X152017067Y-79229090D01*
X152012333Y-79227191D01*
X152004178Y-79235736D01*
X151994776Y-79249248D01*
X151969168Y-79263658D01*
X151944247Y-79279206D01*
X151927150Y-79303770D01*
X151919629Y-79319281D01*
X151901491Y-79330571D01*
X151892824Y-79332902D01*
X151882840Y-79350794D01*
X151489720Y-79350794D01*
X151498597Y-79334346D01*
X151505346Y-79316417D01*
X151509656Y-79302860D01*
X151524322Y-79271604D01*
X151545791Y-79231533D01*
X151563225Y-79197974D01*
X151579824Y-79158703D01*
X151586237Y-79132712D01*
X151592661Y-79109356D01*
X151613201Y-79081155D01*
X151631103Y-79061702D01*
X151640165Y-79043937D01*
X151640681Y-79041090D01*
X151652124Y-79019951D01*
X151673870Y-78991064D01*
X151678330Y-78985495D01*
X151699121Y-78950675D01*
X151707575Y-78920427D01*
X151712496Y-78899189D01*
X152061348Y-78899189D01*
X152072196Y-78920104D01*
X152088466Y-78936951D01*
X152119598Y-78957950D01*
X152161881Y-78974227D01*
X152219267Y-78986822D01*
X152295707Y-78996776D01*
X152395154Y-79005130D01*
X152426257Y-79007479D01*
X152505112Y-79014758D01*
X152578074Y-79023221D01*
X152638133Y-79031999D01*
X152678275Y-79040223D01*
X152690846Y-79043540D01*
X152798939Y-79059729D01*
X152907730Y-79052648D01*
X153023117Y-79021985D01*
X153032518Y-79018592D01*
X153092736Y-78993852D01*
X153149504Y-78966158D01*
X153191641Y-78940891D01*
X153196139Y-78937527D01*
X153224972Y-78913198D01*
X153267319Y-78874782D01*
X153320428Y-78825001D01*
X153381546Y-78766579D01*
X153447920Y-78702242D01*
X153516797Y-78634713D01*
X153585424Y-78566717D01*
X153651048Y-78500977D01*
X153710917Y-78440218D01*
X153762278Y-78387164D01*
X153802377Y-78344540D01*
X153828463Y-78315069D01*
X153837781Y-78301475D01*
X153840848Y-78290906D01*
X153855505Y-78261869D01*
X153878169Y-78225051D01*
X153893321Y-78200869D01*
X153911458Y-78166745D01*
X153918557Y-78145432D01*
X153918962Y-78141923D01*
X153929622Y-78116536D01*
X153950222Y-78084763D01*
X153974308Y-78038494D01*
X153989562Y-77968894D01*
X153993138Y-77944001D01*
X154006962Y-77885010D01*
X154025069Y-77834075D01*
X154045259Y-77770991D01*
X154053139Y-77684256D01*
X154053985Y-77645174D01*
X154059010Y-77606200D01*
X154071287Y-77576057D01*
X154093881Y-77544213D01*
X154105746Y-77527996D01*
X154126063Y-77492069D01*
X154133910Y-77464838D01*
X154133489Y-77451229D01*
X154128866Y-77396703D01*
X154120444Y-77336740D01*
X154109684Y-77279420D01*
X154098044Y-77232825D01*
X154086985Y-77205036D01*
X154081320Y-77194560D01*
X154067688Y-77155314D01*
X154058566Y-77109522D01*
X154055773Y-77092058D01*
X154043151Y-77045790D01*
X154026799Y-77011143D01*
X154008694Y-76978037D01*
X153993754Y-76935284D01*
X153992309Y-76929575D01*
X153975765Y-76889039D01*
X153951614Y-76848935D01*
X153944988Y-76839558D01*
X153926176Y-76807360D01*
X153918615Y-76784758D01*
X153918053Y-76781655D01*
X153905078Y-76758808D01*
X153878335Y-76723506D01*
X153842349Y-76680798D01*
X153801645Y-76635734D01*
X153760749Y-76593364D01*
X153724188Y-76558737D01*
X153696485Y-76536903D01*
X153650125Y-76520147D01*
X153587052Y-76516801D01*
X153572037Y-76519081D01*
X153516678Y-76527487D01*
X153446747Y-76551744D01*
X153427797Y-76559778D01*
X153384049Y-76574135D01*
X153350247Y-76579957D01*
X153333648Y-76582136D01*
X153293276Y-76594189D01*
X153249132Y-76613212D01*
X153226761Y-76624393D01*
X153177427Y-76648467D01*
X153136662Y-76667671D01*
X153129362Y-76671013D01*
X153075222Y-76697365D01*
X153028668Y-76724166D01*
X152984594Y-76755351D01*
X152937892Y-76794853D01*
X152883454Y-76846607D01*
X152816174Y-76914548D01*
X152747507Y-76986891D01*
X152676893Y-77067168D01*
X152625659Y-77133458D01*
X152594448Y-77184915D01*
X152583902Y-77220693D01*
X152586591Y-77231512D01*
X152603097Y-77253498D01*
X152616757Y-77260319D01*
X152640822Y-77257418D01*
X152679371Y-77240310D01*
X152692417Y-77233942D01*
X152746773Y-77210897D01*
X152800121Y-77192282D01*
X152820640Y-77185469D01*
X152857908Y-77169177D01*
X152879833Y-77154046D01*
X152891228Y-77146111D01*
X152924835Y-77134133D01*
X152968678Y-77125621D01*
X152997263Y-77120809D01*
X153035523Y-77109958D01*
X153056980Y-77097851D01*
X153058397Y-77096243D01*
X153085730Y-77075453D01*
X153130785Y-77049948D01*
X153186386Y-77023203D01*
X153245357Y-76998695D01*
X153300520Y-76979898D01*
X153354386Y-76966290D01*
X153417881Y-76959345D01*
X153475334Y-76967256D01*
X153536678Y-76990467D01*
X153574304Y-77010525D01*
X153616301Y-77044929D01*
X153632504Y-77078982D01*
X153623593Y-77111137D01*
X153590249Y-77139847D01*
X153533152Y-77163564D01*
X153452983Y-77180743D01*
X153418930Y-77188149D01*
X153361871Y-77206601D01*
X153307690Y-77229817D01*
X153287229Y-77240523D01*
X153248347Y-77266748D01*
X153234642Y-77290426D01*
X153245389Y-77314473D01*
X153279864Y-77341803D01*
X153289375Y-77348250D01*
X153331728Y-77387557D01*
X153359508Y-77437524D01*
X153374713Y-77503117D01*
X153379337Y-77589303D01*
X153379337Y-77709944D01*
X153331636Y-77751825D01*
X153283936Y-77793707D01*
X153166483Y-77783556D01*
X153151485Y-77782286D01*
X153072695Y-77777021D01*
X153005380Y-77776036D01*
X152936868Y-77779495D01*
X152854489Y-77787561D01*
X152829996Y-77789586D01*
X152746436Y-77789281D01*
X152657379Y-77780042D01*
X152597890Y-77772115D01*
X152541133Y-77770078D01*
X152498296Y-77778266D01*
X152462715Y-77798165D01*
X152427726Y-77831262D01*
X152398875Y-77868819D01*
X152381364Y-77917825D01*
X152390243Y-77964618D01*
X152425489Y-78011020D01*
X152434934Y-78019724D01*
X152473922Y-78049961D01*
X152509751Y-78070797D01*
X152546221Y-78091903D01*
X152594752Y-78127928D01*
X152647134Y-78172368D01*
X152696269Y-78219186D01*
X152735057Y-78262347D01*
X152744722Y-78274895D01*
X152763064Y-78305753D01*
X152770298Y-78338723D01*
X152769874Y-78386067D01*
X152769735Y-78388684D01*
X152766692Y-78430293D01*
X152760382Y-78452282D01*
X152746470Y-78461632D01*
X152720617Y-78465320D01*
X152687170Y-78464046D01*
X152646466Y-78443130D01*
X152632697Y-78431108D01*
X152582863Y-78394607D01*
X152529067Y-78363201D01*
X152479317Y-78341199D01*
X152441619Y-78332907D01*
X152433470Y-78333169D01*
X152411456Y-78338312D01*
X152389083Y-78353169D01*
X152361266Y-78381829D01*
X152322921Y-78428382D01*
X152307300Y-78448458D01*
X152276258Y-78491591D01*
X152254667Y-78526251D01*
X152246471Y-78546350D01*
X152246082Y-78549528D01*
X152236916Y-78575635D01*
X152218091Y-78615967D01*
X152192955Y-78663215D01*
X152189827Y-78668778D01*
X152160871Y-78721057D01*
X152134596Y-78769683D01*
X152116348Y-78804775D01*
X152113552Y-78810296D01*
X152092498Y-78847614D01*
X152073630Y-78875303D01*
X152071525Y-78877903D01*
X152061348Y-78899189D01*
X151712496Y-78899189D01*
X151713148Y-78896374D01*
X151733130Y-78866719D01*
X151740286Y-78858275D01*
X151757027Y-78823932D01*
X151768086Y-78780903D01*
X151771146Y-78764642D01*
X151785133Y-78719435D01*
X151802845Y-78685976D01*
X151803947Y-78684541D01*
X151823764Y-78647594D01*
X151836806Y-78604549D01*
X151839666Y-78591658D01*
X151855640Y-78544958D01*
X151877606Y-78499031D01*
X151885721Y-78483367D01*
X151902943Y-78437275D01*
X151909804Y-78397396D01*
X151910330Y-78387648D01*
X151919922Y-78343255D01*
X151937766Y-78298682D01*
X151948719Y-78272903D01*
X151963968Y-78219482D01*
X151972998Y-78164382D01*
X151977844Y-78129574D01*
X151990538Y-78077230D01*
X152006393Y-78037737D01*
X152017786Y-78011439D01*
X152031714Y-77959948D01*
X152040295Y-77902918D01*
X152046337Y-77858471D01*
X152057981Y-77808448D01*
X152071672Y-77773406D01*
X152082772Y-77746525D01*
X152094716Y-77698415D01*
X152101955Y-77645327D01*
X152102324Y-77640792D01*
X152115757Y-77562990D01*
X152139994Y-77497839D01*
X152142242Y-77493455D01*
X152160202Y-77447663D01*
X152172012Y-77391055D01*
X152179403Y-77315626D01*
X152185698Y-77249077D01*
X152198610Y-77182557D01*
X152218498Y-77129146D01*
X152231073Y-77098529D01*
X152248836Y-77039423D01*
X152260279Y-76981051D01*
X152261321Y-76973128D01*
X152269917Y-76915222D01*
X152281304Y-76846398D01*
X152293312Y-76779885D01*
X152294117Y-76775584D01*
X152305374Y-76700746D01*
X152314042Y-76617371D01*
X152318304Y-76542719D01*
X152318699Y-76519081D01*
X152317008Y-76455309D01*
X152309003Y-76413412D01*
X152292529Y-76389640D01*
X152265427Y-76380245D01*
X152225543Y-76381478D01*
X152196117Y-76383461D01*
X152156870Y-76377562D01*
X152122010Y-76356610D01*
X152082515Y-76316505D01*
X152056877Y-76290715D01*
X151992156Y-76240255D01*
X151909802Y-76189406D01*
X151815430Y-76141839D01*
X151788097Y-76128221D01*
X151718980Y-76086681D01*
X151640305Y-76031792D01*
X151558097Y-75967889D01*
X151478382Y-75899309D01*
X151466968Y-75889543D01*
X151424231Y-75859430D01*
X151384008Y-75838667D01*
X151381094Y-75837546D01*
X151341274Y-75818467D01*
X151309857Y-75797667D01*
X151287208Y-75781582D01*
X151253804Y-75765631D01*
X151235179Y-75756618D01*
X151217152Y-75737118D01*
X151212189Y-75728159D01*
X151195715Y-75717408D01*
X151183798Y-75713147D01*
X151154757Y-75696756D01*
X151135036Y-75683703D01*
X153190590Y-75683703D01*
X153195594Y-75695496D01*
X153217554Y-75703926D01*
X153238005Y-75699548D01*
X153242792Y-75686185D01*
X153223192Y-75671663D01*
X153206464Y-75665772D01*
X153193122Y-75666653D01*
X153190590Y-75683703D01*
X151135036Y-75683703D01*
X151117771Y-75672276D01*
X151115274Y-75670533D01*
X151076283Y-75645175D01*
X151017204Y-75608948D01*
X150941289Y-75563768D01*
X150851791Y-75511553D01*
X150751959Y-75454217D01*
X150645047Y-75393678D01*
X150638571Y-75389736D01*
X150608393Y-75369189D01*
X150563613Y-75337029D01*
X150509142Y-75296817D01*
X150449892Y-75252118D01*
X150435297Y-75241007D01*
X150370778Y-75192294D01*
X150308027Y-75145485D01*
X150253577Y-75105429D01*
X150213958Y-75076976D01*
X150186217Y-75057244D01*
X150138150Y-75020946D01*
X150089330Y-74980584D01*
X150063153Y-74957486D01*
X152788516Y-74957486D01*
X152799613Y-74962419D01*
X152806750Y-74961446D01*
X152808601Y-74953431D01*
X152806625Y-74951817D01*
X152790625Y-74953431D01*
X152788516Y-74957486D01*
X150063153Y-74957486D01*
X150030545Y-74928714D01*
X150029129Y-74927446D01*
X149986948Y-74892244D01*
X149930477Y-74848434D01*
X149867593Y-74801978D01*
X149806173Y-74758839D01*
X149674897Y-74664351D01*
X149511077Y-74533350D01*
X149352056Y-74392544D01*
X149207096Y-74249803D01*
X149185845Y-74227729D01*
X149135988Y-74176937D01*
X149088740Y-74129975D01*
X149052021Y-74094761D01*
X149019507Y-74063948D01*
X149001641Y-74046648D01*
X150703337Y-74046648D01*
X150706345Y-74064551D01*
X150712340Y-74069764D01*
X150728775Y-74073654D01*
X150734389Y-74059655D01*
X150725062Y-74034404D01*
X150714844Y-74023794D01*
X150705974Y-74036456D01*
X150703337Y-74046648D01*
X149001641Y-74046648D01*
X148973436Y-74019337D01*
X148920574Y-73967495D01*
X148867099Y-73914445D01*
X148828142Y-73876329D01*
X148776550Y-73829623D01*
X148741208Y-73803577D01*
X148721777Y-73797921D01*
X148719176Y-73799031D01*
X148702056Y-73818393D01*
X148699053Y-73854897D01*
X148710309Y-73910399D01*
X148735962Y-73986755D01*
X148748308Y-74024216D01*
X148762939Y-74087143D01*
X148768509Y-74140760D01*
X148769205Y-74159613D01*
X148776625Y-74213293D01*
X148789549Y-74258419D01*
X148792028Y-74264851D01*
X148803865Y-74306828D01*
X148815417Y-74363028D01*
X148824499Y-74423140D01*
X148834936Y-74487611D01*
X148848895Y-74542938D01*
X148864127Y-74579774D01*
X148883499Y-74630402D01*
X148889970Y-74701112D01*
X148897664Y-74777328D01*
X148923253Y-74847822D01*
X148934547Y-74873781D01*
X148950420Y-74924151D01*
X148956835Y-74966237D01*
X148958939Y-74987222D01*
X148971298Y-75035549D01*
X148990961Y-75083756D01*
X149002952Y-75109986D01*
X149018558Y-75154906D01*
X149024666Y-75189299D01*
X149024666Y-75189383D01*
X149030236Y-75221288D01*
X149044763Y-75267315D01*
X149065112Y-75317529D01*
X149066283Y-75320121D01*
X149086121Y-75367344D01*
X149100225Y-75406957D01*
X149105608Y-75430620D01*
X149105845Y-75434118D01*
X149114764Y-75463460D01*
X149132572Y-75498652D01*
X149133835Y-75500780D01*
X149151994Y-75546473D01*
X149159486Y-75594388D01*
X149160582Y-75609931D01*
X149172297Y-75659385D01*
X149193191Y-75709372D01*
X149204394Y-75732672D01*
X149220547Y-75777119D01*
X149226895Y-75811782D01*
X149229064Y-75829378D01*
X149241600Y-75871079D01*
X149261580Y-75915553D01*
X149279466Y-75952779D01*
X149289857Y-75992625D01*
X149287934Y-76033682D01*
X149286390Y-76042248D01*
X149274581Y-76081297D01*
X149259344Y-76107833D01*
X149259102Y-76108083D01*
X149241642Y-76130008D01*
X149215680Y-76166875D01*
X149186743Y-76210845D01*
X149149599Y-76261898D01*
X149101744Y-76304841D01*
X149053307Y-76321489D01*
X149003038Y-76312194D01*
X148949685Y-76277306D01*
X148943330Y-76272057D01*
X148912419Y-76251540D01*
X148889018Y-76243221D01*
X148867639Y-76236424D01*
X148839835Y-76216995D01*
X148838669Y-76215925D01*
X148805715Y-76191536D01*
X148766513Y-76169289D01*
X148744855Y-76158866D01*
X148681934Y-76126386D01*
X148638253Y-76099286D01*
X148609004Y-76074680D01*
X148600422Y-76066275D01*
X148568417Y-76037707D01*
X148531487Y-76007270D01*
X148478805Y-75964454D01*
X148396435Y-75893687D01*
X148308540Y-75814538D01*
X148219532Y-75731235D01*
X148133822Y-75648006D01*
X148055821Y-75569076D01*
X147989942Y-75498674D01*
X147940594Y-75441028D01*
X147899285Y-75389367D01*
X147824843Y-75298554D01*
X147756897Y-75219261D01*
X147689468Y-75144425D01*
X147682215Y-75136488D01*
X147644981Y-75093426D01*
X147614487Y-75054569D01*
X147596744Y-75027498D01*
X147586348Y-75009463D01*
X147560513Y-74971161D01*
X147529818Y-74930470D01*
X147511254Y-74906891D01*
X147475910Y-74860361D01*
X147447278Y-74820769D01*
X147439421Y-74809561D01*
X147414807Y-74776042D01*
X147396720Y-74753606D01*
X147388146Y-74742199D01*
X147379868Y-74720745D01*
X147376596Y-74711867D01*
X147359502Y-74686367D01*
X147332681Y-74654109D01*
X147315153Y-74634032D01*
X147293821Y-74607022D01*
X147285494Y-74592502D01*
X147284642Y-74589291D01*
X147272908Y-74568706D01*
X147251789Y-74538935D01*
X147245221Y-74529895D01*
X147225869Y-74496860D01*
X147218084Y-74472425D01*
X147212286Y-74452358D01*
X147193145Y-74425165D01*
X147171454Y-74395461D01*
X147153180Y-74357122D01*
X147135579Y-74318417D01*
X147110709Y-74279129D01*
X147091778Y-74243693D01*
X147083265Y-74203302D01*
X147078375Y-74169741D01*
X147065061Y-74141081D01*
X147064577Y-74140507D01*
X147049921Y-74118716D01*
X147027275Y-74078623D01*
X146995823Y-74018678D01*
X146954752Y-73937329D01*
X146903247Y-73833025D01*
X146898637Y-73823674D01*
X146873130Y-73773718D01*
X146850230Y-73731495D01*
X146834417Y-73705317D01*
X146820564Y-73675261D01*
X146813419Y-73634817D01*
X146810131Y-73601958D01*
X146801622Y-73575707D01*
X146782938Y-73564483D01*
X146750336Y-73566280D01*
X146713906Y-73580889D01*
X146682588Y-73606031D01*
X146658328Y-73631164D01*
X146629572Y-73655925D01*
X146625731Y-73659001D01*
X146601966Y-73682525D01*
X146569062Y-73719204D01*
X146532924Y-73762525D01*
X146523009Y-73774842D01*
X146489559Y-73816368D01*
X146462918Y-73849390D01*
X146448132Y-73867655D01*
X146435392Y-73885901D01*
X146417266Y-73917142D01*
X146412748Y-73924469D01*
X146389758Y-73953720D01*
X146354949Y-73992685D01*
X146313915Y-74034987D01*
X146303266Y-74045649D01*
X146256338Y-74095056D01*
X146212475Y-74144580D01*
X146179974Y-74184935D01*
X146152165Y-74221982D01*
X146112138Y-74273670D01*
X146060978Y-74338319D01*
X145996639Y-74418511D01*
X145917076Y-74516829D01*
X145891713Y-74547338D01*
X145845018Y-74601613D01*
X145792262Y-74661352D01*
X145740724Y-74718247D01*
X145701784Y-74762324D01*
X145658782Y-74815191D01*
X145624447Y-74862004D01*
X145603868Y-74896146D01*
X145597112Y-74910586D01*
X145573867Y-74960623D01*
X145553713Y-75004439D01*
X145544277Y-75022860D01*
X145507498Y-75079517D01*
X145451941Y-75152082D01*
X145378700Y-75239277D01*
X145288874Y-75339822D01*
X145183559Y-75452439D01*
X145063850Y-75575847D01*
X145019622Y-75620774D01*
X144949730Y-75692279D01*
X144894876Y-75749597D01*
X144852422Y-75795907D01*
X144819732Y-75834387D01*
X144794170Y-75868214D01*
X144773097Y-75900568D01*
X144753879Y-75934625D01*
X144733877Y-75973565D01*
X144713740Y-76014570D01*
X144691010Y-76063301D01*
X144675523Y-76099585D01*
X144669838Y-76117664D01*
X144669116Y-76122698D01*
X144654088Y-76148803D01*
X144624651Y-76180896D01*
X144587488Y-76212378D01*
X144549286Y-76236651D01*
X144529045Y-76249419D01*
X144487474Y-76283155D01*
X144438669Y-76328751D01*
X144388343Y-76380501D01*
X144342210Y-76432699D01*
X144305983Y-76479639D01*
X144298650Y-76490071D01*
X144272361Y-76525492D01*
X144251526Y-76550910D01*
X144217569Y-76594103D01*
X144187410Y-76643389D01*
X144165946Y-76689864D01*
X144157827Y-76724895D01*
X143719293Y-76724895D01*
X143688874Y-76671745D01*
X143625338Y-76582809D01*
X143558294Y-76507370D01*
X143555069Y-76504209D01*
X143514495Y-76464897D01*
X143483963Y-76437552D01*
X143455111Y-76415839D01*
X143419573Y-76393422D01*
X143368987Y-76363964D01*
X143288095Y-76317355D01*
X143117776Y-76320158D01*
X143071883Y-76321044D01*
X143011742Y-76323309D01*
X142967259Y-76327581D01*
X142931334Y-76335066D01*
X142896867Y-76346971D01*
X142856757Y-76364503D01*
X142853453Y-76366023D01*
X142806374Y-76389167D01*
X142768000Y-76410557D01*
X142746362Y-76425739D01*
X142732359Y-76436556D01*
X142707408Y-76445433D01*
X142690000Y-76450674D01*
X142664110Y-76469027D01*
X142657861Y-76474905D01*
X142627599Y-76500780D01*
X142591692Y-76529060D01*
X142567523Y-76550314D01*
X142529147Y-76591747D01*
X142494288Y-76636916D01*
X142470477Y-76671452D01*
X142443365Y-76710427D01*
X142424899Y-76736561D01*
X142419674Y-76744595D01*
X142399058Y-76796043D01*
X142382801Y-76873182D01*
X142370875Y-76976247D01*
X142363250Y-77105472D01*
X142359896Y-77261092D01*
X142359775Y-77320191D01*
X142075743Y-77320191D01*
X142074030Y-77258116D01*
X142071902Y-77153284D01*
X142065838Y-76823624D01*
X142100613Y-76791396D01*
X142101062Y-76790977D01*
X142125462Y-76758464D01*
X142135388Y-76725456D01*
X142143013Y-76692372D01*
X142162470Y-76657315D01*
X142182898Y-76623046D01*
X142198075Y-76580274D01*
X142211294Y-76545865D01*
X142231661Y-76522010D01*
X142246681Y-76510698D01*
X142256726Y-76496732D01*
X142262942Y-76487899D01*
X142285463Y-76463002D01*
X142321066Y-76425879D01*
X142366201Y-76380026D01*
X142417318Y-76328940D01*
X142470869Y-76276119D01*
X142523304Y-76225060D01*
X142571073Y-76179260D01*
X142610626Y-76142216D01*
X142638415Y-76117425D01*
X142650890Y-76108385D01*
X142654487Y-76107897D01*
X142661372Y-76095433D01*
X142654250Y-76072765D01*
X142635433Y-76048813D01*
X142617239Y-76026032D01*
X142600876Y-75989425D01*
X142598161Y-75980451D01*
X142581263Y-75942805D01*
X142557574Y-75903058D01*
X142551168Y-75893170D01*
X142533186Y-75855097D01*
X142529917Y-75826618D01*
X142530634Y-75818538D01*
X142523194Y-75786362D01*
X142505018Y-75748824D01*
X142491792Y-75724370D01*
X142477277Y-75677084D01*
X142472858Y-75616186D01*
X142471797Y-75585218D01*
X142461377Y-75525774D01*
X142436509Y-75467884D01*
X142424069Y-75443189D01*
X142411612Y-75410645D01*
X142404040Y-75374233D01*
X142399930Y-75326258D01*
X142397857Y-75259021D01*
X142397819Y-75257106D01*
X142393519Y-75173881D01*
X142384822Y-75099635D01*
X142372768Y-75043310D01*
X142368880Y-75030157D01*
X142357487Y-74987178D01*
X142348101Y-74942425D01*
X142340577Y-74893100D01*
X142334767Y-74836406D01*
X142330524Y-74769545D01*
X142327702Y-74689718D01*
X142326153Y-74594128D01*
X142325730Y-74479977D01*
X142326287Y-74344467D01*
X142327677Y-74184799D01*
X142333599Y-73602668D01*
X142369313Y-73560224D01*
X142381502Y-73545165D01*
X142391334Y-73529167D01*
X142397956Y-73509367D01*
X142402001Y-73481132D01*
X142404105Y-73439829D01*
X142404902Y-73380826D01*
X142405027Y-73299493D01*
X142405098Y-73240374D01*
X142405741Y-73174465D01*
X142407564Y-73127402D01*
X142411170Y-73094383D01*
X142417165Y-73070610D01*
X142426151Y-73051283D01*
X142438732Y-73031603D01*
X142453692Y-73007092D01*
X142461260Y-72987161D01*
X145417431Y-72987161D01*
X145422954Y-73016911D01*
X145424704Y-73019978D01*
X145434497Y-73029881D01*
X145443220Y-73014593D01*
X145446020Y-73000945D01*
X145440497Y-72971196D01*
X145438747Y-72968129D01*
X145428955Y-72958226D01*
X145420231Y-72973513D01*
X145417431Y-72987161D01*
X142461260Y-72987161D01*
X142465471Y-72976069D01*
X142471036Y-72936635D01*
X142471090Y-72934438D01*
X145457228Y-72934438D01*
X145463533Y-72946905D01*
X145476831Y-72951313D01*
X145490678Y-72931942D01*
X149415643Y-72931942D01*
X149421801Y-72946234D01*
X149449348Y-72953607D01*
X149471515Y-72950260D01*
X149483053Y-72940126D01*
X149482700Y-72936936D01*
X149470673Y-72926644D01*
X149462654Y-72925735D01*
X149436968Y-72918460D01*
X149423683Y-72916715D01*
X149415643Y-72931942D01*
X145490678Y-72931942D01*
X145492171Y-72929854D01*
X145505960Y-72892939D01*
X149415643Y-72892939D01*
X149422384Y-72899680D01*
X149429125Y-72892939D01*
X149422384Y-72886198D01*
X149415643Y-72892939D01*
X145505960Y-72892939D01*
X145510023Y-72882061D01*
X145523803Y-72844983D01*
X145550451Y-72803041D01*
X145592838Y-72765363D01*
X145614952Y-72747000D01*
X145651033Y-72709468D01*
X145674495Y-72675125D01*
X145677978Y-72668044D01*
X145694139Y-72640993D01*
X145705782Y-72630041D01*
X145717470Y-72619230D01*
X145731870Y-72592965D01*
X145750096Y-72555907D01*
X145772820Y-72515767D01*
X145776915Y-72508380D01*
X145787790Y-72476662D01*
X145791290Y-72445222D01*
X145787201Y-72422551D01*
X145775309Y-72417136D01*
X145762017Y-72425747D01*
X145735351Y-72448321D01*
X145703508Y-72478174D01*
X145672865Y-72509062D01*
X145649801Y-72534736D01*
X145640696Y-72548952D01*
X145635058Y-72559737D01*
X145613732Y-72576113D01*
X145597607Y-72589757D01*
X145586768Y-72615636D01*
X145584223Y-72625789D01*
X145566408Y-72653750D01*
X145537177Y-72684271D01*
X145535086Y-72686114D01*
X145504392Y-72717584D01*
X145489637Y-72748583D01*
X145484320Y-72792409D01*
X145482845Y-72811053D01*
X145475610Y-72855068D01*
X145465463Y-72886137D01*
X145457384Y-72908388D01*
X145457228Y-72934438D01*
X142471090Y-72934438D01*
X142472437Y-72879554D01*
X142472766Y-72850352D01*
X142476796Y-72797266D01*
X142487185Y-72755370D01*
X142506142Y-72713793D01*
X142525153Y-72671756D01*
X142536654Y-72622764D01*
X142539847Y-72560491D01*
X142541653Y-72514937D01*
X142546479Y-72480726D01*
X142553266Y-72466010D01*
X142560711Y-72458448D01*
X142575778Y-72431198D01*
X142592144Y-72391845D01*
X142606211Y-72355364D01*
X142624046Y-72319264D01*
X142647546Y-72286175D01*
X142668075Y-72262773D01*
X142978969Y-72262773D01*
X142992349Y-72271232D01*
X143003681Y-72272512D01*
X143020632Y-72258478D01*
X143024276Y-72238151D01*
X143014054Y-72229532D01*
X142992481Y-72242890D01*
X142986260Y-72249309D01*
X142978969Y-72262773D01*
X142668075Y-72262773D01*
X142683519Y-72245167D01*
X142685539Y-72242887D01*
X142709868Y-72206363D01*
X142728906Y-72163967D01*
X142745526Y-72130149D01*
X142767398Y-72097503D01*
X143079125Y-72097503D01*
X143085866Y-72104244D01*
X143092607Y-72097503D01*
X143085866Y-72090762D01*
X143079125Y-72097503D01*
X142767398Y-72097503D01*
X142775232Y-72085810D01*
X142811057Y-72041841D01*
X142813714Y-72038889D01*
X142845646Y-72000295D01*
X142868291Y-71967319D01*
X142876895Y-71946820D01*
X142880148Y-71930851D01*
X142896178Y-71903146D01*
X142896284Y-71903029D01*
X142919074Y-71877814D01*
X142946735Y-71847237D01*
X142977778Y-71812607D01*
X143023947Y-71758073D01*
X143052683Y-71716820D01*
X143065076Y-71685045D01*
X143062214Y-71658943D01*
X143045188Y-71634712D01*
X143015085Y-71608548D01*
X143001285Y-71598420D01*
X142960093Y-71573737D01*
X142924685Y-71559277D01*
X142893052Y-71546157D01*
X142867731Y-71525151D01*
X142863495Y-71520325D01*
X142832823Y-71502902D01*
X142787129Y-71491200D01*
X142772701Y-71488469D01*
X142720367Y-71471854D01*
X142675800Y-71449172D01*
X142665503Y-71442612D01*
X142627505Y-71424102D01*
X142596742Y-71416665D01*
X142594410Y-71416574D01*
X142563554Y-71405437D01*
X142532809Y-71381366D01*
X142519826Y-71368690D01*
X142487823Y-71351076D01*
X142443417Y-71346849D01*
X142424091Y-71346500D01*
X142362187Y-71333358D01*
X142313339Y-71299939D01*
X142305158Y-71294543D01*
X142271368Y-71285326D01*
X142223876Y-71281845D01*
X142196230Y-71280992D01*
X142150282Y-71272239D01*
X142113920Y-71251511D01*
X142103354Y-71243730D01*
X142080825Y-71231942D01*
X142051791Y-71224936D01*
X142009436Y-71221432D01*
X141946948Y-71220149D01*
X141913447Y-71219592D01*
X141851175Y-71215855D01*
X141806681Y-71207968D01*
X141777349Y-71196469D01*
X145276683Y-71196469D01*
X145281091Y-71207143D01*
X145300170Y-71213973D01*
X145323594Y-71209322D01*
X145339409Y-71193714D01*
X145339525Y-71193420D01*
X145356775Y-71172926D01*
X145386613Y-71152694D01*
X145389975Y-71150898D01*
X145404485Y-71140285D01*
X151384008Y-71140285D01*
X151385529Y-71149588D01*
X151397490Y-71160508D01*
X151401249Y-71161081D01*
X151410972Y-71174899D01*
X151411049Y-71175720D01*
X151420383Y-71194294D01*
X151442247Y-71226504D01*
X151472297Y-71265902D01*
X151506222Y-71308500D01*
X151539516Y-71350696D01*
X151563300Y-71381261D01*
X151586876Y-71410830D01*
X151620994Y-71452139D01*
X151657964Y-71495858D01*
X151689116Y-71531677D01*
X151717065Y-71561014D01*
X151734610Y-71573547D01*
X151745404Y-71571648D01*
X151753101Y-71557692D01*
X151758109Y-71544582D01*
X151759578Y-71531449D01*
X151750705Y-71517142D01*
X151727798Y-71492090D01*
X151723789Y-71487625D01*
X151702691Y-71458475D01*
X151694093Y-71436224D01*
X151693439Y-71430443D01*
X151679129Y-71398259D01*
X151648989Y-71354616D01*
X151606863Y-71304202D01*
X151556594Y-71251710D01*
X151502027Y-71201830D01*
X151499309Y-71199527D01*
X151449363Y-71158072D01*
X151416024Y-71133071D01*
X151396128Y-71122872D01*
X151386511Y-71125827D01*
X151384008Y-71140285D01*
X145404485Y-71140285D01*
X145413094Y-71133988D01*
X145418600Y-71120639D01*
X145417128Y-71115000D01*
X145428271Y-71102055D01*
X145431581Y-71097226D01*
X145414083Y-71094162D01*
X145413690Y-71094152D01*
X145385782Y-71101927D01*
X145350096Y-71122025D01*
X145314665Y-71148468D01*
X145287517Y-71175276D01*
X145276683Y-71196469D01*
X141777349Y-71196469D01*
X141773630Y-71195011D01*
X141770226Y-71193194D01*
X141739395Y-71179607D01*
X141713976Y-71179300D01*
X141679256Y-71191766D01*
X141676261Y-71193008D01*
X141627959Y-71209412D01*
X141580612Y-71220631D01*
X141575180Y-71221611D01*
X141538908Y-71232850D01*
X141515641Y-71247631D01*
X141495349Y-71262449D01*
X141461757Y-71275002D01*
X141431372Y-71286614D01*
X141400622Y-71308809D01*
X141373059Y-71328841D01*
X141335184Y-71343381D01*
X141309827Y-71353563D01*
X141269651Y-71378729D01*
X141229099Y-71411747D01*
X141197070Y-71439614D01*
X141159768Y-71467754D01*
X141132533Y-71483485D01*
X141130402Y-71484352D01*
X141101874Y-71500095D01*
X141061246Y-71526784D01*
X141016578Y-71559158D01*
X141013974Y-71561136D01*
X140970976Y-71592419D01*
X140942137Y-71608959D01*
X140921391Y-71613370D01*
X140902674Y-71608268D01*
X140885993Y-71599225D01*
X140865902Y-71576548D01*
X140866633Y-71546762D01*
X140888702Y-71507223D01*
X140932628Y-71455283D01*
X140939272Y-71448253D01*
X140982203Y-71406491D01*
X141023925Y-71371117D01*
X141056252Y-71349159D01*
X141085377Y-71331408D01*
X141137097Y-71292775D01*
X141195137Y-71243229D01*
X141252794Y-71188256D01*
X141278315Y-71169735D01*
X141308274Y-71160508D01*
X141315596Y-71159871D01*
X141353887Y-71143816D01*
X141400667Y-71108475D01*
X141429212Y-71079616D01*
X142715112Y-71079616D01*
X142715504Y-71082838D01*
X142728594Y-71093098D01*
X142731816Y-71092706D01*
X142742076Y-71079616D01*
X142741684Y-71076393D01*
X142728594Y-71066134D01*
X142725371Y-71066526D01*
X142715112Y-71079616D01*
X141429212Y-71079616D01*
X141451611Y-71056970D01*
X141458867Y-71049286D01*
X141494118Y-71021251D01*
X141499102Y-71018947D01*
X145532840Y-71018947D01*
X145539581Y-71025688D01*
X145546322Y-71018947D01*
X145539581Y-71012206D01*
X145532840Y-71018947D01*
X141499102Y-71018947D01*
X141527867Y-71005648D01*
X141558774Y-70993738D01*
X141590060Y-70970996D01*
X141614253Y-70954069D01*
X141660647Y-70944796D01*
X141665204Y-70944675D01*
X141709970Y-70935653D01*
X141752990Y-70916697D01*
X141763746Y-70910364D01*
X141782440Y-70901860D01*
X141805169Y-70896130D01*
X141836516Y-70892783D01*
X141881065Y-70891425D01*
X141943398Y-70891663D01*
X142028100Y-70893104D01*
X142047912Y-70893525D01*
X142138642Y-70896516D01*
X142206325Y-70900744D01*
X142249660Y-70906105D01*
X142267347Y-70912492D01*
X142267946Y-70913243D01*
X142288143Y-70921288D01*
X142330233Y-70928971D01*
X142389578Y-70935910D01*
X142461537Y-70941725D01*
X142541472Y-70946034D01*
X142624743Y-70948455D01*
X142706709Y-70948607D01*
X142737485Y-70948134D01*
X142792909Y-70946503D01*
X142830020Y-70943099D01*
X142854880Y-70936643D01*
X142873548Y-70925855D01*
X142892086Y-70909455D01*
X142930823Y-70872342D01*
X142930823Y-70565474D01*
X142930823Y-70258606D01*
X142964528Y-70222238D01*
X142967875Y-70218553D01*
X142986820Y-70191173D01*
X142995900Y-70158077D01*
X142998233Y-70108765D01*
X142999812Y-70068482D01*
X143008742Y-70026849D01*
X143027935Y-69993900D01*
X143030685Y-69990222D01*
X143053178Y-69942559D01*
X143066802Y-69878413D01*
X143071866Y-69848004D01*
X143085865Y-69798407D01*
X143103116Y-69762560D01*
X143107116Y-69756592D01*
X143128671Y-69714816D01*
X143145237Y-69668828D01*
X143148847Y-69656731D01*
X143164246Y-69619631D01*
X143180336Y-69596521D01*
X143192610Y-69579504D01*
X143200462Y-69547120D01*
X143200476Y-69546181D01*
X143210681Y-69514252D01*
X143234167Y-69483185D01*
X143255954Y-69455459D01*
X143267872Y-69413918D01*
X143274844Y-69381258D01*
X143295370Y-69346617D01*
X143298487Y-69343027D01*
X143318533Y-69307459D01*
X143331138Y-69264856D01*
X143332106Y-69259363D01*
X143345430Y-69215491D01*
X143364309Y-69180213D01*
X143381529Y-69153460D01*
X143389210Y-69131884D01*
X143390000Y-69128000D01*
X143403901Y-69106345D01*
X143429656Y-69079670D01*
X143437835Y-69072112D01*
X143460853Y-69047081D01*
X143470101Y-69030517D01*
X143473585Y-69019325D01*
X143489129Y-68989694D01*
X143512737Y-68951086D01*
X143539547Y-68910985D01*
X143564698Y-68876871D01*
X143583330Y-68856229D01*
X143595507Y-68843340D01*
X143604921Y-68822448D01*
X143607652Y-68815851D01*
X143627241Y-68796161D01*
X143659501Y-68773542D01*
X143688468Y-68755200D01*
X143738303Y-68721264D01*
X143790596Y-68683549D01*
X143839105Y-68646709D01*
X143877589Y-68615402D01*
X143899804Y-68594284D01*
X143914670Y-68581139D01*
X143948217Y-68572929D01*
X143979719Y-68588151D01*
X143984586Y-68594608D01*
X143994158Y-68628892D01*
X143994387Y-68676322D01*
X143985804Y-68727793D01*
X143968934Y-68774202D01*
X143963620Y-68785371D01*
X143948179Y-68828826D01*
X143941970Y-68865419D01*
X143941457Y-68872779D01*
X143930017Y-68910867D01*
X143908265Y-68949467D01*
X143903344Y-68956569D01*
X143882814Y-68998118D01*
X143874560Y-69036590D01*
X143873833Y-69046217D01*
X143862190Y-69086811D01*
X143840855Y-69127629D01*
X143833141Y-69139805D01*
X143814557Y-69177964D01*
X143807100Y-69208280D01*
X143802217Y-69232747D01*
X143787617Y-69273781D01*
X143766704Y-69320221D01*
X143747633Y-69362347D01*
X143732235Y-69404986D01*
X143726309Y-69433756D01*
X143721465Y-69458988D01*
X143703227Y-69491848D01*
X143694505Y-69505477D01*
X143680408Y-69550491D01*
X143670629Y-69617455D01*
X143666190Y-69654908D01*
X143653085Y-69714110D01*
X143633808Y-69752260D01*
X143633387Y-69752798D01*
X143624991Y-69765073D01*
X143618534Y-69780003D01*
X143613752Y-69801061D01*
X143610377Y-69831718D01*
X143608144Y-69875449D01*
X143606785Y-69935726D01*
X143606035Y-70016021D01*
X143605628Y-70119807D01*
X143605464Y-70223312D01*
X143605783Y-70303934D01*
X143606833Y-70364643D01*
X143608861Y-70408971D01*
X143612114Y-70440453D01*
X143616838Y-70462622D01*
X143623280Y-70479010D01*
X143631687Y-70493151D01*
X143633330Y-70495671D01*
X143651310Y-70532187D01*
X143658760Y-70564354D01*
X143662943Y-70584720D01*
X143678559Y-70602676D01*
X143687402Y-70602595D01*
X143714967Y-70589153D01*
X143751892Y-70562119D01*
X143792970Y-70526203D01*
X143832994Y-70486115D01*
X143866759Y-70446564D01*
X143889057Y-70412259D01*
X143902565Y-70385230D01*
X143930349Y-70333799D01*
X143954749Y-70296586D01*
X143980540Y-70265954D01*
X144000904Y-70240199D01*
X144003297Y-70234881D01*
X144298202Y-70234881D01*
X144303876Y-70249174D01*
X144309798Y-70251300D01*
X144326624Y-70243058D01*
X144331025Y-70229660D01*
X144322709Y-70218537D01*
X144304583Y-70226260D01*
X144298202Y-70234881D01*
X144003297Y-70234881D01*
X144009380Y-70221362D01*
X144016190Y-70205993D01*
X144031992Y-70188016D01*
X144326085Y-70188016D01*
X144329553Y-70208884D01*
X144336473Y-70214141D01*
X144362250Y-70214307D01*
X144396073Y-70190463D01*
X144438837Y-70142062D01*
X144454932Y-70120685D01*
X144482568Y-70077134D01*
X144491855Y-70049724D01*
X144483290Y-70039777D01*
X144457372Y-70048617D01*
X144414596Y-70077569D01*
X144409179Y-70081840D01*
X144369422Y-70119053D01*
X144340549Y-70156259D01*
X144326085Y-70188016D01*
X144031992Y-70188016D01*
X144036343Y-70183066D01*
X144053993Y-70162103D01*
X144063307Y-70138336D01*
X144066985Y-70130943D01*
X144086571Y-70106239D01*
X144119898Y-70068838D01*
X144163399Y-70022342D01*
X144213504Y-69970355D01*
X144266644Y-69916481D01*
X144273713Y-69909472D01*
X144583182Y-69909472D01*
X144593437Y-69912032D01*
X144619925Y-69907470D01*
X144645227Y-69895135D01*
X144656513Y-69880157D01*
X144658613Y-69873923D01*
X144676211Y-69866240D01*
X144694649Y-69860096D01*
X144720027Y-69840370D01*
X144744330Y-69821539D01*
X144781577Y-69805114D01*
X144809919Y-69792408D01*
X144832609Y-69770316D01*
X144843666Y-69755490D01*
X144862725Y-69744903D01*
X144866059Y-69744544D01*
X144890686Y-69731751D01*
X144919387Y-69707014D01*
X144943188Y-69679087D01*
X144953116Y-69656724D01*
X144955511Y-69645003D01*
X144973484Y-69638083D01*
X145009035Y-69651595D01*
X145010103Y-69652160D01*
X145034858Y-69658212D01*
X145054907Y-69641483D01*
X145063330Y-69630068D01*
X145071750Y-69611924D01*
X145061246Y-69600479D01*
X145028296Y-69588752D01*
X144997383Y-69581030D01*
X144979271Y-69585609D01*
X144965155Y-69606040D01*
X144947127Y-69628021D01*
X144916624Y-69645692D01*
X144894661Y-69654852D01*
X144868540Y-69676341D01*
X144868040Y-69677010D01*
X144843610Y-69697932D01*
X144808855Y-69716605D01*
X144799050Y-69721123D01*
X144759228Y-69745954D01*
X144721222Y-69777271D01*
X144708967Y-69788685D01*
X144677011Y-69814774D01*
X144653143Y-69829418D01*
X144640548Y-69837118D01*
X144629549Y-69857016D01*
X144622969Y-69871618D01*
X144600034Y-69888772D01*
X144583687Y-69899389D01*
X144583182Y-69909472D01*
X144273713Y-69909472D01*
X144319251Y-69864321D01*
X144367756Y-69817480D01*
X144408590Y-69779562D01*
X144438184Y-69754168D01*
X144452971Y-69744903D01*
X144475172Y-69736747D01*
X144511411Y-69714203D01*
X144555343Y-69681677D01*
X144601014Y-69643588D01*
X144642468Y-69604351D01*
X144673202Y-69575797D01*
X144705726Y-69551867D01*
X144717945Y-69546823D01*
X145090411Y-69546823D01*
X145090508Y-69571258D01*
X145097152Y-69581283D01*
X145097672Y-69581196D01*
X145142381Y-69572155D01*
X145166810Y-69562360D01*
X145177519Y-69549192D01*
X145192372Y-69534516D01*
X145222189Y-69522575D01*
X145257189Y-69507451D01*
X145290822Y-69481305D01*
X145292583Y-69479459D01*
X145318533Y-69457391D01*
X145338609Y-69448300D01*
X145344127Y-69447618D01*
X145371176Y-69438249D01*
X145404840Y-69422122D01*
X145434511Y-69404679D01*
X145449581Y-69391362D01*
X145462580Y-69380538D01*
X145492881Y-69361225D01*
X145533843Y-69337693D01*
X145573891Y-69313356D01*
X145602728Y-69291352D01*
X145613732Y-69276663D01*
X145613083Y-69272522D01*
X145597854Y-69261461D01*
X145569018Y-69260645D01*
X145535412Y-69269266D01*
X145505876Y-69286516D01*
X145478079Y-69305063D01*
X145451536Y-69313480D01*
X145436281Y-69316797D01*
X145410856Y-69334482D01*
X145410629Y-69334753D01*
X145386100Y-69355305D01*
X145351907Y-69375288D01*
X145312036Y-69395185D01*
X145259465Y-69426375D01*
X145218879Y-69458808D01*
X145218250Y-69459386D01*
X145183422Y-69482193D01*
X145141864Y-69498537D01*
X145123978Y-69503882D01*
X145099537Y-69519668D01*
X145090411Y-69546823D01*
X144717945Y-69546823D01*
X144727998Y-69542673D01*
X144729611Y-69542570D01*
X144754152Y-69533125D01*
X144791362Y-69511347D01*
X144833852Y-69481506D01*
X144836074Y-69479825D01*
X144881403Y-69448624D01*
X144923817Y-69424415D01*
X144954401Y-69412316D01*
X144985580Y-69400034D01*
X145007702Y-69379660D01*
X145013340Y-69372108D01*
X145040487Y-69350123D01*
X145078003Y-69329390D01*
X145087483Y-69324663D01*
X145128205Y-69298839D01*
X145176837Y-69262173D01*
X145210513Y-69233265D01*
X145674819Y-69233265D01*
X145689375Y-69242799D01*
X145717016Y-69245520D01*
X145739447Y-69237199D01*
X145741890Y-69230070D01*
X145733737Y-69210986D01*
X149550462Y-69210986D01*
X149552268Y-69216951D01*
X149572017Y-69230070D01*
X149575369Y-69232297D01*
X149624613Y-69246070D01*
X149655644Y-69253669D01*
X149686728Y-69264671D01*
X149698764Y-69273990D01*
X149700599Y-69276663D01*
X149703741Y-69281239D01*
X149725569Y-69286516D01*
X149745251Y-69280241D01*
X149749162Y-69256182D01*
X149747843Y-69248812D01*
X149737109Y-69231875D01*
X149711449Y-69217591D01*
X149665059Y-69202238D01*
X149619316Y-69190286D01*
X149578880Y-69185120D01*
X149557021Y-69191937D01*
X149550462Y-69210986D01*
X145733737Y-69210986D01*
X145733537Y-69210519D01*
X145716742Y-69202448D01*
X145693664Y-69205587D01*
X145676118Y-69217242D01*
X145674819Y-69233265D01*
X145210513Y-69233265D01*
X145224822Y-69220982D01*
X145270980Y-69180917D01*
X145316567Y-69149013D01*
X145347441Y-69138215D01*
X145373377Y-69132383D01*
X145404038Y-69112050D01*
X145406815Y-69109230D01*
X145416020Y-69104294D01*
X149215583Y-69104294D01*
X149218369Y-69108231D01*
X149239885Y-69114654D01*
X149283087Y-69130760D01*
X149322858Y-69152828D01*
X149323653Y-69153390D01*
X149353472Y-69168428D01*
X149393297Y-69175917D01*
X149451429Y-69177445D01*
X149464684Y-69177257D01*
X149505563Y-69176169D01*
X149522791Y-69173976D01*
X149519051Y-69169817D01*
X149497027Y-69162831D01*
X149453810Y-69146024D01*
X149414704Y-69124064D01*
X149412877Y-69122787D01*
X149383587Y-69108500D01*
X149344069Y-69101572D01*
X149286133Y-69100504D01*
X149276606Y-69100697D01*
X149234129Y-69102048D01*
X149215583Y-69104294D01*
X145416020Y-69104294D01*
X145444062Y-69089256D01*
X145503872Y-69076725D01*
X145531906Y-69072329D01*
X145589054Y-69058778D01*
X145589091Y-69058765D01*
X146031673Y-69058765D01*
X146037589Y-69063532D01*
X146063728Y-69068769D01*
X146103659Y-69070805D01*
X146127347Y-69070525D01*
X146160431Y-69066971D01*
X146178970Y-69056706D01*
X146191292Y-69036466D01*
X146196214Y-69025708D01*
X148458424Y-69025708D01*
X148458430Y-69027122D01*
X148462128Y-69046795D01*
X148477755Y-69055415D01*
X148512775Y-69057323D01*
X148531718Y-69056082D01*
X148566833Y-69042642D01*
X148579995Y-69018426D01*
X148570048Y-68988437D01*
X148535834Y-68957676D01*
X148516218Y-68953583D01*
X148489178Y-68965994D01*
X148467379Y-68992262D01*
X148464372Y-69003491D01*
X148458424Y-69025708D01*
X146196214Y-69025708D01*
X146196501Y-69025080D01*
X146204968Y-69003491D01*
X146200434Y-68995798D01*
X146180873Y-68993688D01*
X146164944Y-68995509D01*
X146138777Y-69011042D01*
X146127632Y-69020612D01*
X146098534Y-69030359D01*
X146072610Y-69033031D01*
X146043530Y-69043718D01*
X146031673Y-69058765D01*
X145589091Y-69058765D01*
X145636586Y-69042221D01*
X145653298Y-69034961D01*
X145686530Y-69022008D01*
X145705276Y-69016877D01*
X145718544Y-69010859D01*
X145740381Y-68991493D01*
X145748977Y-68983671D01*
X145782470Y-68962238D01*
X145824037Y-68942933D01*
X145826933Y-68941744D01*
X146306723Y-68941744D01*
X146314794Y-68956208D01*
X146324819Y-68967568D01*
X146335016Y-68976431D01*
X146339866Y-68972916D01*
X146355239Y-68956208D01*
X146361714Y-68947340D01*
X146359701Y-68938135D01*
X146335016Y-68935985D01*
X146319190Y-68936469D01*
X146306723Y-68941744D01*
X145826933Y-68941744D01*
X145851731Y-68931563D01*
X145905759Y-68906903D01*
X145927020Y-68896221D01*
X146456775Y-68896221D01*
X146463335Y-68901252D01*
X146490440Y-68907438D01*
X146526379Y-68908482D01*
X146559400Y-68904459D01*
X146577750Y-68895444D01*
X146578980Y-68887095D01*
X146564963Y-68873740D01*
X146549175Y-68870590D01*
X146517968Y-68871427D01*
X146486010Y-68877257D01*
X146462533Y-68886161D01*
X146456775Y-68896221D01*
X145927020Y-68896221D01*
X145957941Y-68880685D01*
X145992463Y-68863012D01*
X146026098Y-68847560D01*
X146044068Y-68841612D01*
X146048263Y-68840541D01*
X146070028Y-68827110D01*
X146075218Y-68822831D01*
X146692288Y-68822831D01*
X146697674Y-68825958D01*
X146720048Y-68828130D01*
X146735401Y-68825396D01*
X146739839Y-68815237D01*
X146739729Y-68815064D01*
X146724103Y-68809182D01*
X146702924Y-68812628D01*
X146692288Y-68822831D01*
X146075218Y-68822831D01*
X146099005Y-68803220D01*
X146113920Y-68791120D01*
X146149824Y-68770980D01*
X146200405Y-68752853D01*
X146271732Y-68734319D01*
X146298172Y-68728128D01*
X146367377Y-68711790D01*
X146432848Y-68696167D01*
X146483318Y-68683944D01*
X146527246Y-68674187D01*
X146594805Y-68661432D01*
X146658583Y-68651470D01*
X146709289Y-68643684D01*
X146758540Y-68634218D01*
X146792044Y-68625639D01*
X146806580Y-68621754D01*
X146850957Y-68615065D01*
X146899989Y-68612419D01*
X146920778Y-68611873D01*
X146973231Y-68606876D01*
X147015944Y-68598353D01*
X147040562Y-68592966D01*
X147089283Y-68585575D01*
X147151018Y-68578310D01*
X147218084Y-68572167D01*
X147271103Y-68567547D01*
X147338139Y-68560449D01*
X147395191Y-68553054D01*
X147433796Y-68546373D01*
X147441361Y-68544832D01*
X147488525Y-68538563D01*
X147549003Y-68534026D01*
X147611636Y-68532114D01*
X147615060Y-68532093D01*
X147677394Y-68529806D01*
X147719633Y-68524303D01*
X147738394Y-68516015D01*
X147743796Y-68512509D01*
X147765281Y-68508559D01*
X147804652Y-68506451D01*
X147864166Y-68506147D01*
X147946078Y-68507609D01*
X148052645Y-68510801D01*
X148089516Y-68512019D01*
X148180094Y-68514771D01*
X148263376Y-68516979D01*
X148334449Y-68518531D01*
X148388401Y-68519315D01*
X148420319Y-68519218D01*
X148450019Y-68519612D01*
X148503244Y-68522068D01*
X148572585Y-68526307D01*
X148652426Y-68531982D01*
X148737145Y-68538746D01*
X148802727Y-68544227D01*
X148898896Y-68552111D01*
X148992425Y-68559620D01*
X149075239Y-68566109D01*
X149139263Y-68570931D01*
X149189209Y-68575001D01*
X149245375Y-68580736D01*
X149287759Y-68586410D01*
X149309794Y-68591240D01*
X149323028Y-68593983D01*
X149341354Y-68585678D01*
X149343306Y-68583691D01*
X149365815Y-68577984D01*
X149404811Y-68577006D01*
X149452207Y-68580026D01*
X149499918Y-68586315D01*
X149539859Y-68595142D01*
X149563944Y-68605777D01*
X149571346Y-68609711D01*
X149604946Y-68617928D01*
X149658105Y-68624863D01*
X149725728Y-68629758D01*
X149767049Y-68632289D01*
X149827734Y-68637725D01*
X149877262Y-68644194D01*
X149907734Y-68650782D01*
X149925879Y-68656583D01*
X149983118Y-68671979D01*
X150054837Y-68688681D01*
X150132524Y-68704874D01*
X150207665Y-68718741D01*
X150271747Y-68728465D01*
X150279805Y-68729566D01*
X150321622Y-68737445D01*
X150352639Y-68746467D01*
X150361445Y-68749837D01*
X150397232Y-68761644D01*
X150440271Y-68774202D01*
X150456492Y-68778766D01*
X150498410Y-68791690D01*
X150527904Y-68802331D01*
X150527953Y-68802352D01*
X150560514Y-68815237D01*
X150620111Y-68838821D01*
G37*
%TD*%
M02*
