%TF.GenerationSoftware,KiCad,Pcbnew,8.0.2-8.0.2-0~ubuntu22.04.1*%
%TF.CreationDate,2024-05-09T21:23:21-04:00*%
%TF.ProjectId,TEJ Final Project,54454a20-4669-46e6-916c-2050726f6a65,rev?*%
%TF.SameCoordinates,Original*%
%TF.FileFunction,Legend,Top*%
%TF.FilePolarity,Positive*%
%FSLAX46Y46*%
G04 Gerber Fmt 4.6, Leading zero omitted, Abs format (unit mm)*
G04 Created by KiCad (PCBNEW 8.0.2-8.0.2-0~ubuntu22.04.1) date 2024-05-09 21:23:21*
%MOMM*%
%LPD*%
G01*
G04 APERTURE LIST*
%ADD10C,0.150000*%
%ADD11C,0.120000*%
%ADD12C,0.000000*%
G04 APERTURE END LIST*
D10*
X134453333Y-70742819D02*
X134120000Y-70266628D01*
X133881905Y-70742819D02*
X133881905Y-69742819D01*
X133881905Y-69742819D02*
X134262857Y-69742819D01*
X134262857Y-69742819D02*
X134358095Y-69790438D01*
X134358095Y-69790438D02*
X134405714Y-69838057D01*
X134405714Y-69838057D02*
X134453333Y-69933295D01*
X134453333Y-69933295D02*
X134453333Y-70076152D01*
X134453333Y-70076152D02*
X134405714Y-70171390D01*
X134405714Y-70171390D02*
X134358095Y-70219009D01*
X134358095Y-70219009D02*
X134262857Y-70266628D01*
X134262857Y-70266628D02*
X133881905Y-70266628D01*
X135358095Y-69742819D02*
X134881905Y-69742819D01*
X134881905Y-69742819D02*
X134834286Y-70219009D01*
X134834286Y-70219009D02*
X134881905Y-70171390D01*
X134881905Y-70171390D02*
X134977143Y-70123771D01*
X134977143Y-70123771D02*
X135215238Y-70123771D01*
X135215238Y-70123771D02*
X135310476Y-70171390D01*
X135310476Y-70171390D02*
X135358095Y-70219009D01*
X135358095Y-70219009D02*
X135405714Y-70314247D01*
X135405714Y-70314247D02*
X135405714Y-70552342D01*
X135405714Y-70552342D02*
X135358095Y-70647580D01*
X135358095Y-70647580D02*
X135310476Y-70695200D01*
X135310476Y-70695200D02*
X135215238Y-70742819D01*
X135215238Y-70742819D02*
X134977143Y-70742819D01*
X134977143Y-70742819D02*
X134881905Y-70695200D01*
X134881905Y-70695200D02*
X134834286Y-70647580D01*
X147236667Y-119347200D02*
X147379524Y-119394819D01*
X147379524Y-119394819D02*
X147617619Y-119394819D01*
X147617619Y-119394819D02*
X147712857Y-119347200D01*
X147712857Y-119347200D02*
X147760476Y-119299580D01*
X147760476Y-119299580D02*
X147808095Y-119204342D01*
X147808095Y-119204342D02*
X147808095Y-119109104D01*
X147808095Y-119109104D02*
X147760476Y-119013866D01*
X147760476Y-119013866D02*
X147712857Y-118966247D01*
X147712857Y-118966247D02*
X147617619Y-118918628D01*
X147617619Y-118918628D02*
X147427143Y-118871009D01*
X147427143Y-118871009D02*
X147331905Y-118823390D01*
X147331905Y-118823390D02*
X147284286Y-118775771D01*
X147284286Y-118775771D02*
X147236667Y-118680533D01*
X147236667Y-118680533D02*
X147236667Y-118585295D01*
X147236667Y-118585295D02*
X147284286Y-118490057D01*
X147284286Y-118490057D02*
X147331905Y-118442438D01*
X147331905Y-118442438D02*
X147427143Y-118394819D01*
X147427143Y-118394819D02*
X147665238Y-118394819D01*
X147665238Y-118394819D02*
X147808095Y-118442438D01*
X148141429Y-118394819D02*
X148379524Y-119394819D01*
X148379524Y-119394819D02*
X148570000Y-118680533D01*
X148570000Y-118680533D02*
X148760476Y-119394819D01*
X148760476Y-119394819D02*
X148998572Y-118394819D01*
X149808095Y-118728152D02*
X149808095Y-119394819D01*
X149570000Y-118347200D02*
X149331905Y-119061485D01*
X149331905Y-119061485D02*
X149950952Y-119061485D01*
X136804819Y-89661904D02*
X137614342Y-89661904D01*
X137614342Y-89661904D02*
X137709580Y-89614285D01*
X137709580Y-89614285D02*
X137757200Y-89566666D01*
X137757200Y-89566666D02*
X137804819Y-89471428D01*
X137804819Y-89471428D02*
X137804819Y-89280952D01*
X137804819Y-89280952D02*
X137757200Y-89185714D01*
X137757200Y-89185714D02*
X137709580Y-89138095D01*
X137709580Y-89138095D02*
X137614342Y-89090476D01*
X137614342Y-89090476D02*
X136804819Y-89090476D01*
X137804819Y-88090476D02*
X137804819Y-88661904D01*
X137804819Y-88376190D02*
X136804819Y-88376190D01*
X136804819Y-88376190D02*
X136947676Y-88471428D01*
X136947676Y-88471428D02*
X137042914Y-88566666D01*
X137042914Y-88566666D02*
X137090533Y-88661904D01*
X124824819Y-89066666D02*
X124348628Y-89399999D01*
X124824819Y-89638094D02*
X123824819Y-89638094D01*
X123824819Y-89638094D02*
X123824819Y-89257142D01*
X123824819Y-89257142D02*
X123872438Y-89161904D01*
X123872438Y-89161904D02*
X123920057Y-89114285D01*
X123920057Y-89114285D02*
X124015295Y-89066666D01*
X124015295Y-89066666D02*
X124158152Y-89066666D01*
X124158152Y-89066666D02*
X124253390Y-89114285D01*
X124253390Y-89114285D02*
X124301009Y-89161904D01*
X124301009Y-89161904D02*
X124348628Y-89257142D01*
X124348628Y-89257142D02*
X124348628Y-89638094D01*
X123824819Y-88733332D02*
X123824819Y-88066666D01*
X123824819Y-88066666D02*
X124824819Y-88495237D01*
X134453333Y-74792819D02*
X134120000Y-74316628D01*
X133881905Y-74792819D02*
X133881905Y-73792819D01*
X133881905Y-73792819D02*
X134262857Y-73792819D01*
X134262857Y-73792819D02*
X134358095Y-73840438D01*
X134358095Y-73840438D02*
X134405714Y-73888057D01*
X134405714Y-73888057D02*
X134453333Y-73983295D01*
X134453333Y-73983295D02*
X134453333Y-74126152D01*
X134453333Y-74126152D02*
X134405714Y-74221390D01*
X134405714Y-74221390D02*
X134358095Y-74269009D01*
X134358095Y-74269009D02*
X134262857Y-74316628D01*
X134262857Y-74316628D02*
X133881905Y-74316628D01*
X135310476Y-73792819D02*
X135120000Y-73792819D01*
X135120000Y-73792819D02*
X135024762Y-73840438D01*
X135024762Y-73840438D02*
X134977143Y-73888057D01*
X134977143Y-73888057D02*
X134881905Y-74030914D01*
X134881905Y-74030914D02*
X134834286Y-74221390D01*
X134834286Y-74221390D02*
X134834286Y-74602342D01*
X134834286Y-74602342D02*
X134881905Y-74697580D01*
X134881905Y-74697580D02*
X134929524Y-74745200D01*
X134929524Y-74745200D02*
X135024762Y-74792819D01*
X135024762Y-74792819D02*
X135215238Y-74792819D01*
X135215238Y-74792819D02*
X135310476Y-74745200D01*
X135310476Y-74745200D02*
X135358095Y-74697580D01*
X135358095Y-74697580D02*
X135405714Y-74602342D01*
X135405714Y-74602342D02*
X135405714Y-74364247D01*
X135405714Y-74364247D02*
X135358095Y-74269009D01*
X135358095Y-74269009D02*
X135310476Y-74221390D01*
X135310476Y-74221390D02*
X135215238Y-74173771D01*
X135215238Y-74173771D02*
X135024762Y-74173771D01*
X135024762Y-74173771D02*
X134929524Y-74221390D01*
X134929524Y-74221390D02*
X134881905Y-74269009D01*
X134881905Y-74269009D02*
X134834286Y-74364247D01*
X162393333Y-70502819D02*
X162060000Y-70026628D01*
X161821905Y-70502819D02*
X161821905Y-69502819D01*
X161821905Y-69502819D02*
X162202857Y-69502819D01*
X162202857Y-69502819D02*
X162298095Y-69550438D01*
X162298095Y-69550438D02*
X162345714Y-69598057D01*
X162345714Y-69598057D02*
X162393333Y-69693295D01*
X162393333Y-69693295D02*
X162393333Y-69836152D01*
X162393333Y-69836152D02*
X162345714Y-69931390D01*
X162345714Y-69931390D02*
X162298095Y-69979009D01*
X162298095Y-69979009D02*
X162202857Y-70026628D01*
X162202857Y-70026628D02*
X161821905Y-70026628D01*
X163345714Y-70502819D02*
X162774286Y-70502819D01*
X163060000Y-70502819D02*
X163060000Y-69502819D01*
X163060000Y-69502819D02*
X162964762Y-69645676D01*
X162964762Y-69645676D02*
X162869524Y-69740914D01*
X162869524Y-69740914D02*
X162774286Y-69788533D01*
X128874819Y-89066666D02*
X128398628Y-89399999D01*
X128874819Y-89638094D02*
X127874819Y-89638094D01*
X127874819Y-89638094D02*
X127874819Y-89257142D01*
X127874819Y-89257142D02*
X127922438Y-89161904D01*
X127922438Y-89161904D02*
X127970057Y-89114285D01*
X127970057Y-89114285D02*
X128065295Y-89066666D01*
X128065295Y-89066666D02*
X128208152Y-89066666D01*
X128208152Y-89066666D02*
X128303390Y-89114285D01*
X128303390Y-89114285D02*
X128351009Y-89161904D01*
X128351009Y-89161904D02*
X128398628Y-89257142D01*
X128398628Y-89257142D02*
X128398628Y-89638094D01*
X128303390Y-88495237D02*
X128255771Y-88590475D01*
X128255771Y-88590475D02*
X128208152Y-88638094D01*
X128208152Y-88638094D02*
X128112914Y-88685713D01*
X128112914Y-88685713D02*
X128065295Y-88685713D01*
X128065295Y-88685713D02*
X127970057Y-88638094D01*
X127970057Y-88638094D02*
X127922438Y-88590475D01*
X127922438Y-88590475D02*
X127874819Y-88495237D01*
X127874819Y-88495237D02*
X127874819Y-88304761D01*
X127874819Y-88304761D02*
X127922438Y-88209523D01*
X127922438Y-88209523D02*
X127970057Y-88161904D01*
X127970057Y-88161904D02*
X128065295Y-88114285D01*
X128065295Y-88114285D02*
X128112914Y-88114285D01*
X128112914Y-88114285D02*
X128208152Y-88161904D01*
X128208152Y-88161904D02*
X128255771Y-88209523D01*
X128255771Y-88209523D02*
X128303390Y-88304761D01*
X128303390Y-88304761D02*
X128303390Y-88495237D01*
X128303390Y-88495237D02*
X128351009Y-88590475D01*
X128351009Y-88590475D02*
X128398628Y-88638094D01*
X128398628Y-88638094D02*
X128493866Y-88685713D01*
X128493866Y-88685713D02*
X128684342Y-88685713D01*
X128684342Y-88685713D02*
X128779580Y-88638094D01*
X128779580Y-88638094D02*
X128827200Y-88590475D01*
X128827200Y-88590475D02*
X128874819Y-88495237D01*
X128874819Y-88495237D02*
X128874819Y-88304761D01*
X128874819Y-88304761D02*
X128827200Y-88209523D01*
X128827200Y-88209523D02*
X128779580Y-88161904D01*
X128779580Y-88161904D02*
X128684342Y-88114285D01*
X128684342Y-88114285D02*
X128493866Y-88114285D01*
X128493866Y-88114285D02*
X128398628Y-88161904D01*
X128398628Y-88161904D02*
X128351009Y-88209523D01*
X128351009Y-88209523D02*
X128303390Y-88304761D01*
X164194819Y-87796666D02*
X163718628Y-88129999D01*
X164194819Y-88368094D02*
X163194819Y-88368094D01*
X163194819Y-88368094D02*
X163194819Y-87987142D01*
X163194819Y-87987142D02*
X163242438Y-87891904D01*
X163242438Y-87891904D02*
X163290057Y-87844285D01*
X163290057Y-87844285D02*
X163385295Y-87796666D01*
X163385295Y-87796666D02*
X163528152Y-87796666D01*
X163528152Y-87796666D02*
X163623390Y-87844285D01*
X163623390Y-87844285D02*
X163671009Y-87891904D01*
X163671009Y-87891904D02*
X163718628Y-87987142D01*
X163718628Y-87987142D02*
X163718628Y-88368094D01*
X163194819Y-87463332D02*
X163194819Y-86844285D01*
X163194819Y-86844285D02*
X163575771Y-87177618D01*
X163575771Y-87177618D02*
X163575771Y-87034761D01*
X163575771Y-87034761D02*
X163623390Y-86939523D01*
X163623390Y-86939523D02*
X163671009Y-86891904D01*
X163671009Y-86891904D02*
X163766247Y-86844285D01*
X163766247Y-86844285D02*
X164004342Y-86844285D01*
X164004342Y-86844285D02*
X164099580Y-86891904D01*
X164099580Y-86891904D02*
X164147200Y-86939523D01*
X164147200Y-86939523D02*
X164194819Y-87034761D01*
X164194819Y-87034761D02*
X164194819Y-87320475D01*
X164194819Y-87320475D02*
X164147200Y-87415713D01*
X164147200Y-87415713D02*
X164099580Y-87463332D01*
X122851104Y-68603142D02*
X122851104Y-68126952D01*
X123136819Y-68698380D02*
X122136819Y-68365047D01*
X122136819Y-68365047D02*
X123136819Y-68031714D01*
X123136819Y-67698380D02*
X122470152Y-67698380D01*
X122660628Y-67698380D02*
X122565390Y-67650761D01*
X122565390Y-67650761D02*
X122517771Y-67603142D01*
X122517771Y-67603142D02*
X122470152Y-67507904D01*
X122470152Y-67507904D02*
X122470152Y-67412666D01*
X123136819Y-66650761D02*
X122136819Y-66650761D01*
X123089200Y-66650761D02*
X123136819Y-66745999D01*
X123136819Y-66745999D02*
X123136819Y-66936475D01*
X123136819Y-66936475D02*
X123089200Y-67031713D01*
X123089200Y-67031713D02*
X123041580Y-67079332D01*
X123041580Y-67079332D02*
X122946342Y-67126951D01*
X122946342Y-67126951D02*
X122660628Y-67126951D01*
X122660628Y-67126951D02*
X122565390Y-67079332D01*
X122565390Y-67079332D02*
X122517771Y-67031713D01*
X122517771Y-67031713D02*
X122470152Y-66936475D01*
X122470152Y-66936475D02*
X122470152Y-66745999D01*
X122470152Y-66745999D02*
X122517771Y-66650761D01*
X122470152Y-65745999D02*
X123136819Y-65745999D01*
X122470152Y-66174570D02*
X122993961Y-66174570D01*
X122993961Y-66174570D02*
X123089200Y-66126951D01*
X123089200Y-66126951D02*
X123136819Y-66031713D01*
X123136819Y-66031713D02*
X123136819Y-65888856D01*
X123136819Y-65888856D02*
X123089200Y-65793618D01*
X123089200Y-65793618D02*
X123041580Y-65745999D01*
X123136819Y-65269808D02*
X122470152Y-65269808D01*
X122136819Y-65269808D02*
X122184438Y-65317427D01*
X122184438Y-65317427D02*
X122232057Y-65269808D01*
X122232057Y-65269808D02*
X122184438Y-65222189D01*
X122184438Y-65222189D02*
X122136819Y-65269808D01*
X122136819Y-65269808D02*
X122232057Y-65269808D01*
X122470152Y-64793618D02*
X123136819Y-64793618D01*
X122565390Y-64793618D02*
X122517771Y-64745999D01*
X122517771Y-64745999D02*
X122470152Y-64650761D01*
X122470152Y-64650761D02*
X122470152Y-64507904D01*
X122470152Y-64507904D02*
X122517771Y-64412666D01*
X122517771Y-64412666D02*
X122613009Y-64365047D01*
X122613009Y-64365047D02*
X123136819Y-64365047D01*
X123136819Y-63745999D02*
X123089200Y-63841237D01*
X123089200Y-63841237D02*
X123041580Y-63888856D01*
X123041580Y-63888856D02*
X122946342Y-63936475D01*
X122946342Y-63936475D02*
X122660628Y-63936475D01*
X122660628Y-63936475D02*
X122565390Y-63888856D01*
X122565390Y-63888856D02*
X122517771Y-63841237D01*
X122517771Y-63841237D02*
X122470152Y-63745999D01*
X122470152Y-63745999D02*
X122470152Y-63603142D01*
X122470152Y-63603142D02*
X122517771Y-63507904D01*
X122517771Y-63507904D02*
X122565390Y-63460285D01*
X122565390Y-63460285D02*
X122660628Y-63412666D01*
X122660628Y-63412666D02*
X122946342Y-63412666D01*
X122946342Y-63412666D02*
X123041580Y-63460285D01*
X123041580Y-63460285D02*
X123089200Y-63507904D01*
X123089200Y-63507904D02*
X123136819Y-63603142D01*
X123136819Y-63603142D02*
X123136819Y-63745999D01*
X123232057Y-63222190D02*
X123232057Y-62460285D01*
X123136819Y-62222189D02*
X122136819Y-62222189D01*
X122136819Y-62222189D02*
X122851104Y-61888856D01*
X122851104Y-61888856D02*
X122136819Y-61555523D01*
X122136819Y-61555523D02*
X123136819Y-61555523D01*
X123089200Y-60698380D02*
X123136819Y-60793618D01*
X123136819Y-60793618D02*
X123136819Y-60984094D01*
X123136819Y-60984094D02*
X123089200Y-61079332D01*
X123089200Y-61079332D02*
X122993961Y-61126951D01*
X122993961Y-61126951D02*
X122613009Y-61126951D01*
X122613009Y-61126951D02*
X122517771Y-61079332D01*
X122517771Y-61079332D02*
X122470152Y-60984094D01*
X122470152Y-60984094D02*
X122470152Y-60793618D01*
X122470152Y-60793618D02*
X122517771Y-60698380D01*
X122517771Y-60698380D02*
X122613009Y-60650761D01*
X122613009Y-60650761D02*
X122708247Y-60650761D01*
X122708247Y-60650761D02*
X122803485Y-61126951D01*
X122470152Y-59793618D02*
X123279676Y-59793618D01*
X123279676Y-59793618D02*
X123374914Y-59841237D01*
X123374914Y-59841237D02*
X123422533Y-59888856D01*
X123422533Y-59888856D02*
X123470152Y-59984094D01*
X123470152Y-59984094D02*
X123470152Y-60126951D01*
X123470152Y-60126951D02*
X123422533Y-60222189D01*
X123089200Y-59793618D02*
X123136819Y-59888856D01*
X123136819Y-59888856D02*
X123136819Y-60079332D01*
X123136819Y-60079332D02*
X123089200Y-60174570D01*
X123089200Y-60174570D02*
X123041580Y-60222189D01*
X123041580Y-60222189D02*
X122946342Y-60269808D01*
X122946342Y-60269808D02*
X122660628Y-60269808D01*
X122660628Y-60269808D02*
X122565390Y-60222189D01*
X122565390Y-60222189D02*
X122517771Y-60174570D01*
X122517771Y-60174570D02*
X122470152Y-60079332D01*
X122470152Y-60079332D02*
X122470152Y-59888856D01*
X122470152Y-59888856D02*
X122517771Y-59793618D01*
X123136819Y-58888856D02*
X122613009Y-58888856D01*
X122613009Y-58888856D02*
X122517771Y-58936475D01*
X122517771Y-58936475D02*
X122470152Y-59031713D01*
X122470152Y-59031713D02*
X122470152Y-59222189D01*
X122470152Y-59222189D02*
X122517771Y-59317427D01*
X123089200Y-58888856D02*
X123136819Y-58984094D01*
X123136819Y-58984094D02*
X123136819Y-59222189D01*
X123136819Y-59222189D02*
X123089200Y-59317427D01*
X123089200Y-59317427D02*
X122993961Y-59365046D01*
X122993961Y-59365046D02*
X122898723Y-59365046D01*
X122898723Y-59365046D02*
X122803485Y-59317427D01*
X122803485Y-59317427D02*
X122755866Y-59222189D01*
X122755866Y-59222189D02*
X122755866Y-58984094D01*
X122755866Y-58984094D02*
X122708247Y-58888856D01*
X123136819Y-57888856D02*
X123136819Y-58460284D01*
X123136819Y-58174570D02*
X122136819Y-58174570D01*
X122136819Y-58174570D02*
X122279676Y-58269808D01*
X122279676Y-58269808D02*
X122374914Y-58365046D01*
X122374914Y-58365046D02*
X122422533Y-58460284D01*
X147236667Y-107917200D02*
X147379524Y-107964819D01*
X147379524Y-107964819D02*
X147617619Y-107964819D01*
X147617619Y-107964819D02*
X147712857Y-107917200D01*
X147712857Y-107917200D02*
X147760476Y-107869580D01*
X147760476Y-107869580D02*
X147808095Y-107774342D01*
X147808095Y-107774342D02*
X147808095Y-107679104D01*
X147808095Y-107679104D02*
X147760476Y-107583866D01*
X147760476Y-107583866D02*
X147712857Y-107536247D01*
X147712857Y-107536247D02*
X147617619Y-107488628D01*
X147617619Y-107488628D02*
X147427143Y-107441009D01*
X147427143Y-107441009D02*
X147331905Y-107393390D01*
X147331905Y-107393390D02*
X147284286Y-107345771D01*
X147284286Y-107345771D02*
X147236667Y-107250533D01*
X147236667Y-107250533D02*
X147236667Y-107155295D01*
X147236667Y-107155295D02*
X147284286Y-107060057D01*
X147284286Y-107060057D02*
X147331905Y-107012438D01*
X147331905Y-107012438D02*
X147427143Y-106964819D01*
X147427143Y-106964819D02*
X147665238Y-106964819D01*
X147665238Y-106964819D02*
X147808095Y-107012438D01*
X148141429Y-106964819D02*
X148379524Y-107964819D01*
X148379524Y-107964819D02*
X148570000Y-107250533D01*
X148570000Y-107250533D02*
X148760476Y-107964819D01*
X148760476Y-107964819D02*
X148998572Y-106964819D01*
X149331905Y-107060057D02*
X149379524Y-107012438D01*
X149379524Y-107012438D02*
X149474762Y-106964819D01*
X149474762Y-106964819D02*
X149712857Y-106964819D01*
X149712857Y-106964819D02*
X149808095Y-107012438D01*
X149808095Y-107012438D02*
X149855714Y-107060057D01*
X149855714Y-107060057D02*
X149903333Y-107155295D01*
X149903333Y-107155295D02*
X149903333Y-107250533D01*
X149903333Y-107250533D02*
X149855714Y-107393390D01*
X149855714Y-107393390D02*
X149284286Y-107964819D01*
X149284286Y-107964819D02*
X149903333Y-107964819D01*
X158666667Y-112997200D02*
X158809524Y-113044819D01*
X158809524Y-113044819D02*
X159047619Y-113044819D01*
X159047619Y-113044819D02*
X159142857Y-112997200D01*
X159142857Y-112997200D02*
X159190476Y-112949580D01*
X159190476Y-112949580D02*
X159238095Y-112854342D01*
X159238095Y-112854342D02*
X159238095Y-112759104D01*
X159238095Y-112759104D02*
X159190476Y-112663866D01*
X159190476Y-112663866D02*
X159142857Y-112616247D01*
X159142857Y-112616247D02*
X159047619Y-112568628D01*
X159047619Y-112568628D02*
X158857143Y-112521009D01*
X158857143Y-112521009D02*
X158761905Y-112473390D01*
X158761905Y-112473390D02*
X158714286Y-112425771D01*
X158714286Y-112425771D02*
X158666667Y-112330533D01*
X158666667Y-112330533D02*
X158666667Y-112235295D01*
X158666667Y-112235295D02*
X158714286Y-112140057D01*
X158714286Y-112140057D02*
X158761905Y-112092438D01*
X158761905Y-112092438D02*
X158857143Y-112044819D01*
X158857143Y-112044819D02*
X159095238Y-112044819D01*
X159095238Y-112044819D02*
X159238095Y-112092438D01*
X159571429Y-112044819D02*
X159809524Y-113044819D01*
X159809524Y-113044819D02*
X160000000Y-112330533D01*
X160000000Y-112330533D02*
X160190476Y-113044819D01*
X160190476Y-113044819D02*
X160428572Y-112044819D01*
X160714286Y-112044819D02*
X161333333Y-112044819D01*
X161333333Y-112044819D02*
X161000000Y-112425771D01*
X161000000Y-112425771D02*
X161142857Y-112425771D01*
X161142857Y-112425771D02*
X161238095Y-112473390D01*
X161238095Y-112473390D02*
X161285714Y-112521009D01*
X161285714Y-112521009D02*
X161333333Y-112616247D01*
X161333333Y-112616247D02*
X161333333Y-112854342D01*
X161333333Y-112854342D02*
X161285714Y-112949580D01*
X161285714Y-112949580D02*
X161238095Y-112997200D01*
X161238095Y-112997200D02*
X161142857Y-113044819D01*
X161142857Y-113044819D02*
X160857143Y-113044819D01*
X160857143Y-113044819D02*
X160761905Y-112997200D01*
X160761905Y-112997200D02*
X160714286Y-112949580D01*
X135806667Y-112997200D02*
X135949524Y-113044819D01*
X135949524Y-113044819D02*
X136187619Y-113044819D01*
X136187619Y-113044819D02*
X136282857Y-112997200D01*
X136282857Y-112997200D02*
X136330476Y-112949580D01*
X136330476Y-112949580D02*
X136378095Y-112854342D01*
X136378095Y-112854342D02*
X136378095Y-112759104D01*
X136378095Y-112759104D02*
X136330476Y-112663866D01*
X136330476Y-112663866D02*
X136282857Y-112616247D01*
X136282857Y-112616247D02*
X136187619Y-112568628D01*
X136187619Y-112568628D02*
X135997143Y-112521009D01*
X135997143Y-112521009D02*
X135901905Y-112473390D01*
X135901905Y-112473390D02*
X135854286Y-112425771D01*
X135854286Y-112425771D02*
X135806667Y-112330533D01*
X135806667Y-112330533D02*
X135806667Y-112235295D01*
X135806667Y-112235295D02*
X135854286Y-112140057D01*
X135854286Y-112140057D02*
X135901905Y-112092438D01*
X135901905Y-112092438D02*
X135997143Y-112044819D01*
X135997143Y-112044819D02*
X136235238Y-112044819D01*
X136235238Y-112044819D02*
X136378095Y-112092438D01*
X136711429Y-112044819D02*
X136949524Y-113044819D01*
X136949524Y-113044819D02*
X137140000Y-112330533D01*
X137140000Y-112330533D02*
X137330476Y-113044819D01*
X137330476Y-113044819D02*
X137568572Y-112044819D01*
X138473333Y-113044819D02*
X137901905Y-113044819D01*
X138187619Y-113044819D02*
X138187619Y-112044819D01*
X138187619Y-112044819D02*
X138092381Y-112187676D01*
X138092381Y-112187676D02*
X137997143Y-112282914D01*
X137997143Y-112282914D02*
X137901905Y-112330533D01*
X162393333Y-74552819D02*
X162060000Y-74076628D01*
X161821905Y-74552819D02*
X161821905Y-73552819D01*
X161821905Y-73552819D02*
X162202857Y-73552819D01*
X162202857Y-73552819D02*
X162298095Y-73600438D01*
X162298095Y-73600438D02*
X162345714Y-73648057D01*
X162345714Y-73648057D02*
X162393333Y-73743295D01*
X162393333Y-73743295D02*
X162393333Y-73886152D01*
X162393333Y-73886152D02*
X162345714Y-73981390D01*
X162345714Y-73981390D02*
X162298095Y-74029009D01*
X162298095Y-74029009D02*
X162202857Y-74076628D01*
X162202857Y-74076628D02*
X161821905Y-74076628D01*
X162774286Y-73648057D02*
X162821905Y-73600438D01*
X162821905Y-73600438D02*
X162917143Y-73552819D01*
X162917143Y-73552819D02*
X163155238Y-73552819D01*
X163155238Y-73552819D02*
X163250476Y-73600438D01*
X163250476Y-73600438D02*
X163298095Y-73648057D01*
X163298095Y-73648057D02*
X163345714Y-73743295D01*
X163345714Y-73743295D02*
X163345714Y-73838533D01*
X163345714Y-73838533D02*
X163298095Y-73981390D01*
X163298095Y-73981390D02*
X162726667Y-74552819D01*
X162726667Y-74552819D02*
X163345714Y-74552819D01*
X170296819Y-87796666D02*
X169820628Y-88129999D01*
X170296819Y-88368094D02*
X169296819Y-88368094D01*
X169296819Y-88368094D02*
X169296819Y-87987142D01*
X169296819Y-87987142D02*
X169344438Y-87891904D01*
X169344438Y-87891904D02*
X169392057Y-87844285D01*
X169392057Y-87844285D02*
X169487295Y-87796666D01*
X169487295Y-87796666D02*
X169630152Y-87796666D01*
X169630152Y-87796666D02*
X169725390Y-87844285D01*
X169725390Y-87844285D02*
X169773009Y-87891904D01*
X169773009Y-87891904D02*
X169820628Y-87987142D01*
X169820628Y-87987142D02*
X169820628Y-88368094D01*
X169630152Y-86939523D02*
X170296819Y-86939523D01*
X169249200Y-87177618D02*
X169963485Y-87415713D01*
X169963485Y-87415713D02*
X169963485Y-86796666D01*
D11*
%TO.C,R5*%
X130580000Y-72658000D02*
X131350000Y-72658000D01*
X131350000Y-71288000D02*
X131350000Y-74028000D01*
X131350000Y-74028000D02*
X137890000Y-74028000D01*
X137890000Y-71288000D02*
X131350000Y-71288000D01*
X137890000Y-74028000D02*
X137890000Y-71288000D01*
X138660000Y-72658000D02*
X137890000Y-72658000D01*
%TO.C,SW4*%
X145070000Y-122440000D02*
X145070000Y-123940000D01*
X146320000Y-126440000D02*
X150820000Y-126440000D01*
X150820000Y-119940000D02*
X146320000Y-119940000D01*
X152070000Y-123940000D02*
X152070000Y-122440000D01*
%TO.C,U1*%
X138350000Y-86650000D02*
X138350000Y-87900000D01*
X138350000Y-89900000D02*
X138350000Y-91150000D01*
X138350000Y-91150000D02*
X158790000Y-91150000D01*
X158790000Y-86650000D02*
X138350000Y-86650000D01*
X158790000Y-91150000D02*
X158790000Y-86650000D01*
X138350000Y-87900000D02*
G75*
G02*
X138350000Y-89900000I0J-1000000D01*
G01*
%TO.C,R7*%
X125370000Y-85630000D02*
X125370000Y-92170000D01*
X125370000Y-92170000D02*
X128110000Y-92170000D01*
X126740000Y-84860000D02*
X126740000Y-85630000D01*
X126740000Y-92940000D02*
X126740000Y-92170000D01*
X128110000Y-85630000D02*
X125370000Y-85630000D01*
X128110000Y-92170000D02*
X128110000Y-85630000D01*
%TO.C,R6*%
X130580000Y-76708000D02*
X131350000Y-76708000D01*
X131350000Y-75338000D02*
X131350000Y-78078000D01*
X131350000Y-78078000D02*
X137890000Y-78078000D01*
X137890000Y-75338000D02*
X131350000Y-75338000D01*
X137890000Y-78078000D02*
X137890000Y-75338000D01*
X138660000Y-76708000D02*
X137890000Y-76708000D01*
%TO.C,R1*%
X158520000Y-72418000D02*
X159290000Y-72418000D01*
X159290000Y-71048000D02*
X159290000Y-73788000D01*
X159290000Y-73788000D02*
X165830000Y-73788000D01*
X165830000Y-71048000D02*
X159290000Y-71048000D01*
X165830000Y-73788000D02*
X165830000Y-71048000D01*
X166600000Y-72418000D02*
X165830000Y-72418000D01*
%TO.C,LED_Matrix_8x1*%
X118333000Y-105959000D02*
X178353000Y-105959000D01*
X178353000Y-45759000D01*
X118333000Y-45759000D01*
X118333000Y-105959000D01*
X138183000Y-54269000D02*
X158503000Y-54269000D01*
X158503000Y-51729000D01*
X138183000Y-51729000D01*
X138183000Y-54269000D01*
X138183000Y-99989000D02*
X158503000Y-99989000D01*
X158503000Y-97449000D01*
X138183000Y-97449000D01*
X138183000Y-99989000D01*
D12*
G36*
X149504610Y-82670919D02*
G01*
X149507841Y-82680121D01*
X149488825Y-82691447D01*
X149473340Y-82693603D01*
X149451868Y-82687804D01*
X149447172Y-82680121D01*
X149458733Y-82670072D01*
X149481672Y-82666639D01*
X149504610Y-82670919D01*
G37*
G36*
X146204282Y-75672005D02*
G01*
X146235097Y-75677204D01*
X146260193Y-75691540D01*
X146264220Y-75715628D01*
X146247977Y-75743445D01*
X146223790Y-75762634D01*
X146188150Y-75777434D01*
X146137604Y-75790309D01*
X146092341Y-75797322D01*
X146038271Y-75804309D01*
X145977836Y-75814996D01*
X145906802Y-75830336D01*
X145820940Y-75851282D01*
X145716016Y-75878788D01*
X145645261Y-75897984D01*
X145513406Y-75932623D01*
X145394506Y-75960358D01*
X145276317Y-75983887D01*
X145180134Y-76000503D01*
X145145299Y-76001586D01*
X145121656Y-75995204D01*
X145109267Y-75973862D01*
X145108174Y-75951638D01*
X145117844Y-75929026D01*
X145143348Y-75912670D01*
X145173393Y-75902512D01*
X145220643Y-75887302D01*
X145264327Y-75870736D01*
X145274507Y-75866266D01*
X145305982Y-75853522D01*
X145354382Y-75836012D01*
X145410860Y-75816899D01*
X145429550Y-75810846D01*
X145484446Y-75792969D01*
X145531972Y-75776919D01*
X145564402Y-75765326D01*
X145571110Y-75762659D01*
X145664679Y-75729451D01*
X145772694Y-75702240D01*
X145887910Y-75681957D01*
X146003078Y-75669535D01*
X146110951Y-75665906D01*
X146204282Y-75672005D01*
G37*
G36*
X148268839Y-80444199D02*
G01*
X148376676Y-80444996D01*
X148501210Y-80446317D01*
X148601359Y-80447910D01*
X148679705Y-80449904D01*
X148738827Y-80452430D01*
X148781304Y-80455615D01*
X148809716Y-80459590D01*
X148826643Y-80464484D01*
X148832263Y-80467835D01*
X148845288Y-80482571D01*
X148843229Y-80495152D01*
X148823326Y-80507101D01*
X148782821Y-80519941D01*
X148718953Y-80535193D01*
X148704362Y-80538400D01*
X148654547Y-80548147D01*
X148602782Y-80555636D01*
X148544148Y-80561226D01*
X148473726Y-80565277D01*
X148386597Y-80568148D01*
X148277842Y-80570200D01*
X148267501Y-80570348D01*
X148176850Y-80571339D01*
X148093663Y-80571729D01*
X148022266Y-80571540D01*
X147966989Y-80570793D01*
X147932158Y-80569509D01*
X147923711Y-80568663D01*
X147874109Y-80559235D01*
X147845700Y-80550928D01*
X147833066Y-80540498D01*
X147830792Y-80524705D01*
X147831858Y-80513697D01*
X147836126Y-80495188D01*
X147845718Y-80480101D01*
X147863097Y-80468124D01*
X147890726Y-80458948D01*
X147931069Y-80452261D01*
X147986588Y-80447754D01*
X148059748Y-80445115D01*
X148153010Y-80444033D01*
X148268839Y-80444199D01*
G37*
G36*
X149724493Y-75323665D02*
G01*
X149797550Y-75340896D01*
X149829108Y-75352173D01*
X149887354Y-75373076D01*
X149949444Y-75391824D01*
X149986450Y-75400935D01*
X150029960Y-75411489D01*
X150063087Y-75422100D01*
X150074876Y-75427917D01*
X150091197Y-75434976D01*
X150129887Y-75448993D01*
X150187588Y-75468864D01*
X150260939Y-75493483D01*
X150346580Y-75521746D01*
X150441152Y-75552547D01*
X150541294Y-75584783D01*
X150643647Y-75617348D01*
X150744850Y-75649137D01*
X150795367Y-75664828D01*
X150863822Y-75687945D01*
X150937544Y-75715874D01*
X151001683Y-75742959D01*
X151007324Y-75745556D01*
X151054900Y-75766890D01*
X151093674Y-75782818D01*
X151116711Y-75790527D01*
X151119088Y-75790843D01*
X151143922Y-75797790D01*
X151180288Y-75814891D01*
X151217840Y-75836530D01*
X151246236Y-75857093D01*
X151252156Y-75863068D01*
X151258664Y-75883557D01*
X151243164Y-75898719D01*
X151210205Y-75907885D01*
X151164335Y-75910387D01*
X151110105Y-75905555D01*
X151052064Y-75892721D01*
X151051524Y-75892563D01*
X150959062Y-75865545D01*
X150887963Y-75845083D01*
X150833764Y-75829985D01*
X150792003Y-75819056D01*
X150758217Y-75811104D01*
X150727942Y-75804936D01*
X150714475Y-75802461D01*
X150677544Y-75795106D01*
X150637053Y-75785303D01*
X150588696Y-75771780D01*
X150528167Y-75753263D01*
X150451160Y-75728483D01*
X150353369Y-75696167D01*
X150344173Y-75693103D01*
X150244279Y-75658514D01*
X150166364Y-75628531D01*
X150106835Y-75601845D01*
X150054393Y-75578974D01*
X149979855Y-75550772D01*
X149887240Y-75518619D01*
X149780567Y-75483890D01*
X149663858Y-75447963D01*
X149618285Y-75434452D01*
X149563581Y-75414071D01*
X149535327Y-75392410D01*
X149533012Y-75368746D01*
X149554273Y-75343838D01*
X149596102Y-75324932D01*
X149655093Y-75318276D01*
X149724493Y-75323665D01*
G37*
G36*
X147208757Y-76337900D02*
G01*
X147221613Y-76356266D01*
X147223439Y-76360174D01*
X147231293Y-76407591D01*
X147218839Y-76462813D01*
X147188426Y-76519030D01*
X147155291Y-76557702D01*
X147109823Y-76594184D01*
X147058869Y-76616496D01*
X147024551Y-76625094D01*
X146923858Y-76646097D01*
X146842446Y-76662539D01*
X146773281Y-76675745D01*
X146709331Y-76687039D01*
X146643564Y-76697747D01*
X146616990Y-76701883D01*
X146555139Y-76712847D01*
X146500644Y-76725103D01*
X146460754Y-76736882D01*
X146445753Y-76743664D01*
X146426589Y-76763210D01*
X146413026Y-76794964D01*
X146404670Y-76842030D01*
X146401128Y-76907511D01*
X146402006Y-76994513D01*
X146404863Y-77066226D01*
X146405789Y-77232001D01*
X146393727Y-77399729D01*
X146369660Y-77559634D01*
X146344370Y-77668371D01*
X146316579Y-77747987D01*
X146280943Y-77805254D01*
X146232758Y-77844604D01*
X146167318Y-77870469D01*
X146118299Y-77881271D01*
X146003660Y-77891105D01*
X145902260Y-77877523D01*
X145814526Y-77840838D01*
X145740885Y-77781360D01*
X145681765Y-77699401D01*
X145637593Y-77595270D01*
X145617241Y-77516533D01*
X145604371Y-77466001D01*
X145586518Y-77409573D01*
X145578818Y-77388454D01*
X145561123Y-77333297D01*
X145547208Y-77274031D01*
X145543870Y-77253635D01*
X145534348Y-77202550D01*
X145519327Y-77142180D01*
X145507508Y-77102668D01*
X145486613Y-77050375D01*
X145462304Y-77019421D01*
X145429729Y-77008087D01*
X145384034Y-77014656D01*
X145321707Y-77036865D01*
X145269636Y-77056327D01*
X145219665Y-77072229D01*
X145188720Y-77079846D01*
X145144120Y-77091290D01*
X145104230Y-77106660D01*
X145103282Y-77107135D01*
X145068191Y-77120693D01*
X145041332Y-77125556D01*
X145013108Y-77135048D01*
X144992065Y-77151770D01*
X144977638Y-77185774D01*
X144974686Y-77239808D01*
X144981958Y-77310129D01*
X144998204Y-77392995D01*
X145022176Y-77484662D01*
X145052624Y-77581389D01*
X145088297Y-77679432D01*
X145127946Y-77775048D01*
X145170321Y-77864494D01*
X145214174Y-77944028D01*
X145258253Y-78009907D01*
X145291658Y-78049070D01*
X145363475Y-78118993D01*
X145422757Y-78169848D01*
X145472811Y-78204385D01*
X145489263Y-78213382D01*
X145524108Y-78232801D01*
X145550549Y-78250496D01*
X145550887Y-78250769D01*
X145573506Y-78263516D01*
X145613003Y-78280867D01*
X145658743Y-78298301D01*
X145710368Y-78317085D01*
X145757607Y-78335066D01*
X145786822Y-78346919D01*
X145892313Y-78381768D01*
X146020678Y-78405055D01*
X146144093Y-78415411D01*
X146221836Y-78417968D01*
X146282691Y-78416675D01*
X146336559Y-78410771D01*
X146393340Y-78399491D01*
X146413732Y-78394624D01*
X146543815Y-78359764D01*
X146654514Y-78322489D01*
X146752400Y-78279287D01*
X146844043Y-78226643D01*
X146936014Y-78161047D01*
X147034882Y-78078984D01*
X147081089Y-78037817D01*
X147134218Y-77989178D01*
X147180434Y-77945831D01*
X147215879Y-77911471D01*
X147236698Y-77889794D01*
X147240172Y-77885328D01*
X147260607Y-77870147D01*
X147287042Y-77868624D01*
X147305983Y-77881042D01*
X147307271Y-77883916D01*
X147305046Y-77904847D01*
X147292784Y-77939783D01*
X147282082Y-77963074D01*
X147257172Y-77999476D01*
X147214464Y-78047770D01*
X147158146Y-78104243D01*
X147092410Y-78165177D01*
X147021443Y-78226860D01*
X146949435Y-78285574D01*
X146880577Y-78337607D01*
X146819056Y-78379241D01*
X146799641Y-78390895D01*
X146759973Y-78410824D01*
X146701519Y-78436644D01*
X146631061Y-78465689D01*
X146555383Y-78495291D01*
X146481268Y-78522786D01*
X146415500Y-78545504D01*
X146373287Y-78558496D01*
X146297144Y-78573950D01*
X146204863Y-78583828D01*
X146106771Y-78587719D01*
X146013194Y-78585208D01*
X145935123Y-78576009D01*
X145868664Y-78564016D01*
X145794460Y-78551351D01*
X145744130Y-78543214D01*
X145678613Y-78528621D01*
X145611331Y-78503838D01*
X145535976Y-78466147D01*
X145456514Y-78419235D01*
X145430696Y-78404084D01*
X145396546Y-78384994D01*
X145395845Y-78384611D01*
X145360305Y-78362508D01*
X145318029Y-78332611D01*
X145301471Y-78319913D01*
X145261848Y-78289743D01*
X145224499Y-78263120D01*
X145212097Y-78254939D01*
X145179756Y-78230026D01*
X145138863Y-78192047D01*
X145093536Y-78145653D01*
X145047894Y-78095495D01*
X145006055Y-78046224D01*
X144972139Y-78002491D01*
X144950264Y-77968948D01*
X144944199Y-77952413D01*
X144939116Y-77936409D01*
X144925592Y-77901980D01*
X144906218Y-77855306D01*
X144883586Y-77802568D01*
X144860284Y-77749944D01*
X144848462Y-77724026D01*
X144832807Y-77686129D01*
X144823756Y-77656439D01*
X144822862Y-77649505D01*
X144815621Y-77623781D01*
X144804557Y-77603795D01*
X144788772Y-77573579D01*
X144772916Y-77532532D01*
X144769982Y-77523274D01*
X144754282Y-77474587D01*
X144737442Y-77426970D01*
X144735618Y-77422159D01*
X144709402Y-77350770D01*
X144683232Y-77274169D01*
X144658492Y-77197055D01*
X144636568Y-77124126D01*
X144618848Y-77060080D01*
X144606716Y-77009615D01*
X144601560Y-76977429D01*
X144602075Y-76969531D01*
X144626490Y-76930200D01*
X144671939Y-76893569D01*
X144712195Y-76870833D01*
X144746953Y-76851350D01*
X144770472Y-76834936D01*
X144774831Y-76830319D01*
X144791893Y-76820603D01*
X144825432Y-76811197D01*
X144839785Y-76808516D01*
X144874047Y-76801334D01*
X144927406Y-76788245D01*
X144993104Y-76770983D01*
X145064380Y-76751284D01*
X145079019Y-76747116D01*
X145151693Y-76727501D01*
X145221373Y-76710804D01*
X145280904Y-76698603D01*
X145323133Y-76692474D01*
X145328435Y-76692133D01*
X145384125Y-76685269D01*
X145441232Y-76671632D01*
X145456514Y-76666461D01*
X145527813Y-76641789D01*
X145605936Y-76618151D01*
X145681560Y-76598119D01*
X145745362Y-76584268D01*
X145766599Y-76580885D01*
X145838489Y-76568698D01*
X145923895Y-76550205D01*
X146010951Y-76528200D01*
X146087789Y-76505478D01*
X146090166Y-76504698D01*
X146143167Y-76490816D01*
X146208211Y-76478732D01*
X146265431Y-76471656D01*
X146318569Y-76465226D01*
X146363847Y-76456352D01*
X146392134Y-76446857D01*
X146393509Y-76446051D01*
X146420603Y-76434678D01*
X146464220Y-76422043D01*
X146508106Y-76412271D01*
X146565571Y-76401103D01*
X146622761Y-76389725D01*
X146656408Y-76382854D01*
X146692553Y-76377178D01*
X146748507Y-76370591D01*
X146817166Y-76363841D01*
X146891427Y-76357676D01*
X146905824Y-76356615D01*
X146979895Y-76351010D01*
X147049316Y-76345277D01*
X147107139Y-76340020D01*
X147146421Y-76335847D01*
X147151528Y-76335183D01*
X147188559Y-76331972D01*
X147208757Y-76337900D01*
G37*
G36*
X149541546Y-76135584D02*
G01*
X149623876Y-76136132D01*
X149689854Y-76137685D01*
X149745477Y-76141225D01*
X149796742Y-76147736D01*
X149849646Y-76158200D01*
X149910187Y-76173599D01*
X149984360Y-76194916D01*
X150078165Y-76223133D01*
X150080824Y-76223939D01*
X150142625Y-76242473D01*
X150212808Y-76263244D01*
X150262830Y-76277871D01*
X150350237Y-76303494D01*
X150418742Y-76324331D01*
X150475451Y-76342713D01*
X150527469Y-76360970D01*
X150581904Y-76381433D01*
X150599879Y-76388393D01*
X150651396Y-76409603D01*
X150694260Y-76429379D01*
X150721318Y-76444349D01*
X150725550Y-76447651D01*
X150748722Y-76462574D01*
X150759061Y-76464940D01*
X150778901Y-76470420D01*
X150814392Y-76484639D01*
X150849102Y-76500414D01*
X150923026Y-76535283D01*
X150980954Y-76561339D01*
X151030976Y-76581887D01*
X151081182Y-76600235D01*
X151139661Y-76619688D01*
X151145898Y-76621699D01*
X151199786Y-76640068D01*
X151245205Y-76657410D01*
X151274913Y-76670887D01*
X151280718Y-76674515D01*
X151307536Y-76687857D01*
X151345280Y-76698700D01*
X151348127Y-76699253D01*
X151398704Y-76712495D01*
X151463421Y-76736349D01*
X151544814Y-76771882D01*
X151645422Y-76820161D01*
X151696607Y-76845806D01*
X151756133Y-76875223D01*
X151807981Y-76899513D01*
X151846913Y-76916314D01*
X151867690Y-76923264D01*
X151868571Y-76923327D01*
X151886018Y-76934111D01*
X151890246Y-76963016D01*
X151881618Y-77004869D01*
X151860499Y-77054496D01*
X151859190Y-77056960D01*
X151842764Y-77091183D01*
X151833952Y-77116506D01*
X151833478Y-77120335D01*
X151824120Y-77141381D01*
X151814577Y-77151422D01*
X151797181Y-77175930D01*
X151786679Y-77203630D01*
X151775214Y-77239683D01*
X151758014Y-77283497D01*
X151753371Y-77294081D01*
X151722750Y-77362964D01*
X151702279Y-77411597D01*
X151690391Y-77444012D01*
X151685516Y-77464243D01*
X151685176Y-77469404D01*
X151678652Y-77498969D01*
X151660790Y-77546561D01*
X151634153Y-77607099D01*
X151601306Y-77675507D01*
X151564813Y-77746706D01*
X151527237Y-77815618D01*
X151491143Y-77877165D01*
X151459095Y-77926269D01*
X151445035Y-77945008D01*
X151368579Y-78033250D01*
X151290545Y-78111483D01*
X151215949Y-78175010D01*
X151155818Y-78215776D01*
X151066708Y-78257580D01*
X150958522Y-78293859D01*
X150838841Y-78323154D01*
X150715244Y-78344006D01*
X150595312Y-78354956D01*
X150486624Y-78354544D01*
X150451577Y-78351318D01*
X150353263Y-78336971D01*
X150244957Y-78317079D01*
X150133600Y-78293256D01*
X150026132Y-78267118D01*
X149929491Y-78240280D01*
X149850617Y-78214357D01*
X149831408Y-78206980D01*
X149780690Y-78186558D01*
X149720681Y-78162348D01*
X149680353Y-78146053D01*
X149622576Y-78117836D01*
X149561529Y-78080638D01*
X149524645Y-78053684D01*
X149473714Y-78013870D01*
X149417956Y-77972597D01*
X149382814Y-77947955D01*
X149335834Y-77908883D01*
X149313940Y-77874703D01*
X149315924Y-77848377D01*
X149340575Y-77832867D01*
X149386685Y-77831135D01*
X149427390Y-77838748D01*
X149467622Y-77848902D01*
X149522400Y-77862645D01*
X149580102Y-77877063D01*
X149581991Y-77877534D01*
X149634514Y-77891694D01*
X149679474Y-77905718D01*
X149708069Y-77916832D01*
X149710070Y-77917888D01*
X149733957Y-77927380D01*
X149777280Y-77941104D01*
X149833253Y-77957006D01*
X149878594Y-77968908D01*
X149940483Y-77985341D01*
X149995635Y-78001346D01*
X150036875Y-78014766D01*
X150053860Y-78021584D01*
X150087198Y-78034834D01*
X150132896Y-78049080D01*
X150154795Y-78054840D01*
X150196217Y-78066497D01*
X150227140Y-78077947D01*
X150236111Y-78082978D01*
X150261758Y-78094977D01*
X150307800Y-78108080D01*
X150367768Y-78121043D01*
X150435197Y-78132623D01*
X150503618Y-78141579D01*
X150566564Y-78146666D01*
X150567830Y-78146725D01*
X150694551Y-78142520D01*
X150819122Y-78119768D01*
X150933372Y-78080319D01*
X150990958Y-78050945D01*
X151039874Y-78022738D01*
X151086446Y-77996667D01*
X151116513Y-77980519D01*
X151158864Y-77953734D01*
X151202405Y-77915116D01*
X151250936Y-77860799D01*
X151308256Y-77786919D01*
X151312738Y-77780857D01*
X151346579Y-77734091D01*
X151374522Y-77692685D01*
X151400240Y-77650346D01*
X151427405Y-77600781D01*
X151459691Y-77537697D01*
X151488574Y-77479550D01*
X151524381Y-77393691D01*
X151558469Y-77286059D01*
X151589269Y-77161843D01*
X151599706Y-77111771D01*
X151597792Y-77078636D01*
X151575738Y-77053066D01*
X151531325Y-77033549D01*
X151462724Y-77018638D01*
X151410022Y-77009990D01*
X151363705Y-77002146D01*
X151334645Y-76996958D01*
X151299643Y-76997369D01*
X151270587Y-77015040D01*
X151245692Y-77052498D01*
X151223173Y-77112275D01*
X151204988Y-77180740D01*
X151191392Y-77241438D01*
X151180646Y-77295442D01*
X151174147Y-77335383D01*
X151172862Y-77350188D01*
X151167086Y-77390323D01*
X151151048Y-77449211D01*
X151126686Y-77521560D01*
X151095933Y-77602077D01*
X151060728Y-77685468D01*
X151023006Y-77766441D01*
X151014000Y-77784517D01*
X150970226Y-77847286D01*
X150915040Y-77887219D01*
X150850919Y-77902890D01*
X150812251Y-77900573D01*
X150708448Y-77879765D01*
X150624062Y-77852239D01*
X150551700Y-77814152D01*
X150483969Y-77761657D01*
X150417485Y-77695271D01*
X150348116Y-77615958D01*
X150297627Y-77546232D01*
X150263397Y-77479405D01*
X150242810Y-77408787D01*
X150233246Y-77327690D01*
X150232086Y-77229425D01*
X150232244Y-77222088D01*
X150233138Y-77119747D01*
X150231335Y-77019141D01*
X150227150Y-76924208D01*
X150220898Y-76838884D01*
X150212893Y-76767107D01*
X150203452Y-76712814D01*
X150192888Y-76679944D01*
X150188359Y-76673621D01*
X150171199Y-76661304D01*
X150143164Y-76646752D01*
X150100484Y-76628327D01*
X150039386Y-76604387D01*
X149966333Y-76577066D01*
X149929547Y-76562403D01*
X149903270Y-76549997D01*
X149898924Y-76547315D01*
X149880491Y-76538191D01*
X149843830Y-76522881D01*
X149796081Y-76504336D01*
X149784221Y-76499901D01*
X149724267Y-76476714D01*
X149663565Y-76451732D01*
X149615076Y-76430293D01*
X149614349Y-76429950D01*
X149574481Y-76412125D01*
X149544189Y-76400350D01*
X149533150Y-76397531D01*
X149515932Y-76390650D01*
X149484097Y-76372824D01*
X149453555Y-76353714D01*
X149400161Y-76321810D01*
X149340137Y-76290105D01*
X149312302Y-76276969D01*
X149253515Y-76248778D01*
X149219360Y-76225960D01*
X149208728Y-76205859D01*
X149220509Y-76185820D01*
X149253595Y-76163189D01*
X149262650Y-76158130D01*
X149282330Y-76149392D01*
X149307395Y-76143120D01*
X149342223Y-76138961D01*
X149391194Y-76136559D01*
X149458685Y-76135562D01*
X149541546Y-76135584D01*
G37*
G36*
X148658375Y-68525958D02*
G01*
X148697746Y-68528066D01*
X148719231Y-68532016D01*
X148724633Y-68535522D01*
X148743394Y-68543810D01*
X148785633Y-68549313D01*
X148847967Y-68551600D01*
X148851391Y-68551621D01*
X148914024Y-68553533D01*
X148974502Y-68558070D01*
X149021666Y-68564339D01*
X149029231Y-68565880D01*
X149067836Y-68572561D01*
X149124888Y-68579956D01*
X149191924Y-68587054D01*
X149244943Y-68591674D01*
X149312009Y-68597817D01*
X149373744Y-68605082D01*
X149422465Y-68612473D01*
X149447083Y-68617860D01*
X149489796Y-68626383D01*
X149542249Y-68631380D01*
X149563038Y-68631926D01*
X149612070Y-68634572D01*
X149656447Y-68641261D01*
X149670983Y-68645146D01*
X149704487Y-68653725D01*
X149753738Y-68663191D01*
X149804444Y-68670977D01*
X149868222Y-68680939D01*
X149935781Y-68693694D01*
X149979709Y-68703451D01*
X150030179Y-68715674D01*
X150095650Y-68731297D01*
X150164855Y-68747635D01*
X150191295Y-68753826D01*
X150262622Y-68772360D01*
X150313203Y-68790487D01*
X150349107Y-68810627D01*
X150364022Y-68822727D01*
X150392999Y-68846617D01*
X150414764Y-68860048D01*
X150418959Y-68861119D01*
X150436929Y-68867067D01*
X150470564Y-68882519D01*
X150505086Y-68900192D01*
X150557268Y-68926410D01*
X150611296Y-68951070D01*
X150638990Y-68962440D01*
X150680557Y-68981745D01*
X150714050Y-69003178D01*
X150722646Y-69011000D01*
X150744483Y-69030366D01*
X150757751Y-69036384D01*
X150776497Y-69041515D01*
X150809729Y-69054468D01*
X150826441Y-69061728D01*
X150873973Y-69078285D01*
X150931121Y-69091836D01*
X150959155Y-69096232D01*
X151018965Y-69108763D01*
X151056212Y-69128737D01*
X151058989Y-69131557D01*
X151089650Y-69151890D01*
X151115586Y-69157722D01*
X151146460Y-69168520D01*
X151192047Y-69200424D01*
X151238205Y-69240489D01*
X151286190Y-69281680D01*
X151334822Y-69318346D01*
X151375544Y-69344170D01*
X151385024Y-69348897D01*
X151422540Y-69369630D01*
X151449687Y-69391615D01*
X151455325Y-69399167D01*
X151477447Y-69419541D01*
X151508626Y-69431823D01*
X151539210Y-69443922D01*
X151581624Y-69468131D01*
X151626953Y-69499332D01*
X151629175Y-69501013D01*
X151671665Y-69530854D01*
X151708875Y-69552632D01*
X151733416Y-69562077D01*
X151735029Y-69562180D01*
X151757301Y-69571374D01*
X151789825Y-69595304D01*
X151820559Y-69623858D01*
X151862013Y-69663095D01*
X151907684Y-69701184D01*
X151951616Y-69733710D01*
X151987855Y-69756254D01*
X152010056Y-69764410D01*
X152024843Y-69773675D01*
X152054437Y-69799069D01*
X152095271Y-69836987D01*
X152143776Y-69883828D01*
X152196383Y-69935988D01*
X152249523Y-69989862D01*
X152299628Y-70041849D01*
X152343129Y-70088345D01*
X152376456Y-70125746D01*
X152396042Y-70150450D01*
X152399720Y-70157843D01*
X152409034Y-70181610D01*
X152426684Y-70202573D01*
X152446837Y-70225500D01*
X152453647Y-70240869D01*
X152462123Y-70259706D01*
X152482487Y-70285461D01*
X152508278Y-70316093D01*
X152532678Y-70353306D01*
X152560462Y-70404737D01*
X152573970Y-70431766D01*
X152596268Y-70466071D01*
X152630033Y-70505622D01*
X152670057Y-70545710D01*
X152711135Y-70581626D01*
X152748060Y-70608660D01*
X152775625Y-70622102D01*
X152784468Y-70622183D01*
X152800084Y-70604227D01*
X152804267Y-70583861D01*
X152811717Y-70551694D01*
X152829697Y-70515178D01*
X152831340Y-70512658D01*
X152839747Y-70498517D01*
X152846189Y-70482129D01*
X152850913Y-70459960D01*
X152854166Y-70428478D01*
X152856194Y-70384150D01*
X152857244Y-70323441D01*
X152857563Y-70242819D01*
X152857399Y-70139314D01*
X152856992Y-70035528D01*
X152856242Y-69955233D01*
X152854883Y-69894956D01*
X152852650Y-69851225D01*
X152849275Y-69820568D01*
X152844493Y-69799510D01*
X152838036Y-69784580D01*
X152829640Y-69772305D01*
X152829219Y-69771767D01*
X152809942Y-69733617D01*
X152796837Y-69674415D01*
X152792398Y-69636962D01*
X152782619Y-69569998D01*
X152768522Y-69524984D01*
X152759800Y-69511355D01*
X152741562Y-69478495D01*
X152736718Y-69453263D01*
X152730792Y-69424493D01*
X152715394Y-69381854D01*
X152696323Y-69339728D01*
X152675410Y-69293288D01*
X152660810Y-69252254D01*
X152655927Y-69227787D01*
X152648470Y-69197471D01*
X152629886Y-69159312D01*
X152622172Y-69147136D01*
X152600837Y-69106318D01*
X152589194Y-69065724D01*
X152588467Y-69056097D01*
X152580213Y-69017625D01*
X152559683Y-68976076D01*
X152554762Y-68968974D01*
X152533010Y-68930374D01*
X152521570Y-68892286D01*
X152521057Y-68884926D01*
X152514848Y-68848333D01*
X152499407Y-68804878D01*
X152494093Y-68793709D01*
X152477223Y-68747300D01*
X152468640Y-68695829D01*
X152468869Y-68648399D01*
X152478441Y-68614115D01*
X152483308Y-68607658D01*
X152514810Y-68592436D01*
X152548357Y-68600646D01*
X152563223Y-68613791D01*
X152585438Y-68634909D01*
X152623922Y-68666216D01*
X152672431Y-68703056D01*
X152724724Y-68740771D01*
X152774559Y-68774707D01*
X152803526Y-68793049D01*
X152835786Y-68815668D01*
X152855375Y-68835358D01*
X152858106Y-68841955D01*
X152867520Y-68862847D01*
X152879697Y-68875736D01*
X152898329Y-68896378D01*
X152923480Y-68930492D01*
X152950290Y-68970593D01*
X152973898Y-69009201D01*
X152989442Y-69038832D01*
X152992926Y-69050024D01*
X153002174Y-69066588D01*
X153025192Y-69091619D01*
X153033371Y-69099177D01*
X153059126Y-69125852D01*
X153073027Y-69147507D01*
X153073817Y-69151391D01*
X153081498Y-69172967D01*
X153098718Y-69199720D01*
X153117597Y-69234998D01*
X153130921Y-69278870D01*
X153131889Y-69284363D01*
X153144494Y-69326966D01*
X153164540Y-69362534D01*
X153167657Y-69366124D01*
X153188183Y-69400765D01*
X153195155Y-69433425D01*
X153207073Y-69474966D01*
X153228860Y-69502692D01*
X153252346Y-69533759D01*
X153262551Y-69565688D01*
X153262565Y-69566627D01*
X153270417Y-69599011D01*
X153282691Y-69616028D01*
X153298781Y-69639138D01*
X153314180Y-69676238D01*
X153317790Y-69688335D01*
X153334356Y-69734323D01*
X153355911Y-69776099D01*
X153359911Y-69782067D01*
X153377162Y-69817914D01*
X153391161Y-69867511D01*
X153396225Y-69897920D01*
X153409849Y-69962066D01*
X153432342Y-70009729D01*
X153435092Y-70013407D01*
X153454285Y-70046356D01*
X153463215Y-70087989D01*
X153464794Y-70128272D01*
X153467127Y-70177584D01*
X153476207Y-70210680D01*
X153495152Y-70238060D01*
X153498499Y-70241745D01*
X153532204Y-70278113D01*
X153532204Y-70584981D01*
X153532204Y-70891849D01*
X153570941Y-70928962D01*
X153589479Y-70945362D01*
X153608147Y-70956150D01*
X153633007Y-70962606D01*
X153670118Y-70966010D01*
X153725542Y-70967641D01*
X153756318Y-70968114D01*
X153838284Y-70967962D01*
X153921555Y-70965541D01*
X154001490Y-70961232D01*
X154073449Y-70955417D01*
X154132794Y-70948478D01*
X154174884Y-70940795D01*
X154195081Y-70932750D01*
X154195680Y-70931999D01*
X154213367Y-70925612D01*
X154256702Y-70920251D01*
X154324385Y-70916023D01*
X154415115Y-70913032D01*
X154434927Y-70912611D01*
X154519629Y-70911170D01*
X154581962Y-70910932D01*
X154626511Y-70912290D01*
X154657858Y-70915637D01*
X154680587Y-70921367D01*
X154699281Y-70929871D01*
X154710037Y-70936204D01*
X154753057Y-70955160D01*
X154797823Y-70964182D01*
X154802380Y-70964303D01*
X154848774Y-70973576D01*
X154872967Y-70990503D01*
X154904253Y-71013245D01*
X154935160Y-71025155D01*
X154968909Y-71040758D01*
X155004160Y-71068793D01*
X155011416Y-71076477D01*
X155062360Y-71127982D01*
X155109140Y-71163323D01*
X155147431Y-71179378D01*
X155154753Y-71180015D01*
X155184712Y-71189242D01*
X155210233Y-71207763D01*
X155267890Y-71262736D01*
X155325930Y-71312282D01*
X155377650Y-71350915D01*
X155406775Y-71368666D01*
X155439102Y-71390624D01*
X155480824Y-71425998D01*
X155523755Y-71467760D01*
X155530399Y-71474790D01*
X155574325Y-71526730D01*
X155596394Y-71566269D01*
X155597125Y-71596055D01*
X155577034Y-71618732D01*
X155560353Y-71627775D01*
X155541636Y-71632877D01*
X155520890Y-71628466D01*
X155492051Y-71611926D01*
X155449053Y-71580643D01*
X155446449Y-71578665D01*
X155401781Y-71546291D01*
X155361153Y-71519602D01*
X155332625Y-71503859D01*
X155330494Y-71502992D01*
X155303259Y-71487261D01*
X155265957Y-71459121D01*
X155233928Y-71431254D01*
X155193376Y-71398236D01*
X155153200Y-71373070D01*
X155127843Y-71362888D01*
X155089968Y-71348348D01*
X155062405Y-71328316D01*
X155031655Y-71306121D01*
X155001270Y-71294509D01*
X154967678Y-71281956D01*
X154947386Y-71267138D01*
X154924119Y-71252357D01*
X154887847Y-71241118D01*
X154882415Y-71240138D01*
X154835068Y-71228919D01*
X154786766Y-71212515D01*
X154783771Y-71211273D01*
X154749051Y-71198807D01*
X154723632Y-71199114D01*
X154692801Y-71212701D01*
X154689397Y-71214518D01*
X154656346Y-71227475D01*
X154611852Y-71235362D01*
X154549580Y-71239099D01*
X154516079Y-71239656D01*
X154453591Y-71240939D01*
X154411236Y-71244443D01*
X154382202Y-71251449D01*
X154359673Y-71263237D01*
X154349107Y-71271018D01*
X154312745Y-71291746D01*
X154266797Y-71300499D01*
X154239151Y-71301352D01*
X154191659Y-71304833D01*
X154157869Y-71314050D01*
X154149688Y-71319446D01*
X154100840Y-71352865D01*
X154038936Y-71366007D01*
X154019610Y-71366356D01*
X153975204Y-71370583D01*
X153943201Y-71388197D01*
X153930218Y-71400873D01*
X153899473Y-71424944D01*
X153868617Y-71436081D01*
X153866285Y-71436172D01*
X153835522Y-71443609D01*
X153797524Y-71462119D01*
X153787227Y-71468679D01*
X153742660Y-71491361D01*
X153690326Y-71507976D01*
X153675898Y-71510707D01*
X153630204Y-71522409D01*
X153599532Y-71539832D01*
X153595296Y-71544658D01*
X153569975Y-71565664D01*
X153538342Y-71578784D01*
X153502934Y-71593244D01*
X153461742Y-71617927D01*
X153447942Y-71628055D01*
X153417839Y-71654219D01*
X153400813Y-71678450D01*
X153397951Y-71704552D01*
X153410344Y-71736327D01*
X153439080Y-71777580D01*
X153485249Y-71832114D01*
X153516292Y-71866744D01*
X153543953Y-71897321D01*
X153566743Y-71922536D01*
X153566849Y-71922653D01*
X153582879Y-71950358D01*
X153586132Y-71966327D01*
X153594736Y-71986826D01*
X153617381Y-72019802D01*
X153649313Y-72058396D01*
X153651970Y-72061348D01*
X153687795Y-72105317D01*
X153717501Y-72149656D01*
X153734121Y-72183474D01*
X153753159Y-72225870D01*
X153777488Y-72262394D01*
X153779508Y-72264674D01*
X153815481Y-72305682D01*
X153838981Y-72338771D01*
X153856816Y-72374871D01*
X153870883Y-72411352D01*
X153887249Y-72450705D01*
X153902316Y-72477955D01*
X153909761Y-72485517D01*
X153916548Y-72500233D01*
X153921374Y-72534444D01*
X153923180Y-72579998D01*
X153926373Y-72642271D01*
X153937874Y-72691263D01*
X153956885Y-72733300D01*
X153975842Y-72774877D01*
X153986231Y-72816773D01*
X153990261Y-72869859D01*
X153990590Y-72899061D01*
X153991991Y-72956142D01*
X153997556Y-72995576D01*
X154009335Y-73026599D01*
X154024295Y-73051110D01*
X154036876Y-73070790D01*
X154045862Y-73090117D01*
X154051857Y-73113890D01*
X154055463Y-73146909D01*
X154057286Y-73193972D01*
X154057929Y-73259881D01*
X154058000Y-73319000D01*
X154058125Y-73400333D01*
X154058922Y-73459336D01*
X154061026Y-73500639D01*
X154065071Y-73528874D01*
X154071693Y-73548674D01*
X154081525Y-73564672D01*
X154093714Y-73579731D01*
X154129428Y-73622175D01*
X154135350Y-74204306D01*
X154136740Y-74363974D01*
X154137297Y-74499484D01*
X154136874Y-74613635D01*
X154135325Y-74709225D01*
X154132503Y-74789052D01*
X154128260Y-74855913D01*
X154122450Y-74912607D01*
X154114926Y-74961932D01*
X154105540Y-75006685D01*
X154094147Y-75049664D01*
X154090259Y-75062817D01*
X154078205Y-75119142D01*
X154069508Y-75193388D01*
X154065208Y-75276613D01*
X154065170Y-75278528D01*
X154063097Y-75345765D01*
X154058987Y-75393740D01*
X154051415Y-75430152D01*
X154038958Y-75462696D01*
X154026518Y-75487391D01*
X154001650Y-75545281D01*
X153991230Y-75604725D01*
X153990169Y-75635693D01*
X153985750Y-75696591D01*
X153971235Y-75743877D01*
X153958009Y-75768331D01*
X153939833Y-75805869D01*
X153932393Y-75838045D01*
X153933110Y-75846125D01*
X153929841Y-75874604D01*
X153911859Y-75912677D01*
X153905453Y-75922565D01*
X153881764Y-75962312D01*
X153864866Y-75999958D01*
X153862151Y-76008932D01*
X153845788Y-76045539D01*
X153827594Y-76068320D01*
X153808777Y-76092272D01*
X153801655Y-76114940D01*
X153808540Y-76127404D01*
X153812137Y-76127892D01*
X153824612Y-76136932D01*
X153852401Y-76161723D01*
X153891954Y-76198767D01*
X153939723Y-76244567D01*
X153992158Y-76295626D01*
X154045709Y-76348447D01*
X154096826Y-76399533D01*
X154141961Y-76445386D01*
X154177564Y-76482509D01*
X154200085Y-76507406D01*
X154206301Y-76516239D01*
X154216346Y-76530205D01*
X154231366Y-76541517D01*
X154251733Y-76565372D01*
X154264952Y-76599781D01*
X154280129Y-76642553D01*
X154300557Y-76676822D01*
X154320014Y-76711879D01*
X154327639Y-76744963D01*
X154337565Y-76777971D01*
X154361965Y-76810484D01*
X154362414Y-76810903D01*
X154397189Y-76843131D01*
X154391125Y-77172791D01*
X154388997Y-77277623D01*
X154386752Y-77358963D01*
X154384102Y-77420281D01*
X154380759Y-77465048D01*
X154376436Y-77496736D01*
X154370843Y-77518814D01*
X154363692Y-77534754D01*
X154360676Y-77539668D01*
X154343633Y-77582033D01*
X154332905Y-77648255D01*
X154330119Y-77684899D01*
X154325814Y-77741513D01*
X154319384Y-77778489D01*
X154308750Y-77803151D01*
X154291835Y-77822825D01*
X154290688Y-77823902D01*
X154266812Y-77856173D01*
X154264107Y-77880434D01*
X154259715Y-77909809D01*
X154245168Y-77929161D01*
X154224711Y-77957067D01*
X154206498Y-77996785D01*
X154203449Y-78006088D01*
X154186911Y-78037106D01*
X154153559Y-78081720D01*
X154107163Y-78136105D01*
X154051494Y-78196438D01*
X153990320Y-78258896D01*
X153927411Y-78319657D01*
X153866537Y-78374896D01*
X153811468Y-78420790D01*
X153765973Y-78453517D01*
X153756887Y-78458993D01*
X153714201Y-78484571D01*
X153679481Y-78507445D01*
X153662185Y-78520961D01*
X153637993Y-78538865D01*
X153602865Y-78558612D01*
X153598208Y-78560868D01*
X153537934Y-78590923D01*
X153498179Y-78614795D01*
X153474175Y-78635651D01*
X153464428Y-78649700D01*
X153440672Y-78670896D01*
X153420133Y-78675981D01*
X153378808Y-78687287D01*
X153330204Y-78719033D01*
X153300459Y-78745942D01*
X153274004Y-78764790D01*
X153255278Y-78770354D01*
X153228770Y-78778999D01*
X153188499Y-78802530D01*
X153140329Y-78837342D01*
X153121004Y-78852919D01*
X153088847Y-78871268D01*
X153048307Y-78884757D01*
X153046853Y-78885066D01*
X153007419Y-78898945D01*
X152976582Y-78919171D01*
X152975548Y-78920226D01*
X152947608Y-78939838D01*
X152926025Y-78945620D01*
X152899470Y-78953940D01*
X152866630Y-78974446D01*
X152860565Y-78979325D01*
X152807417Y-79008162D01*
X152772100Y-79013030D01*
X152721938Y-79022800D01*
X152663954Y-79049865D01*
X152657959Y-79053475D01*
X152618379Y-79075737D01*
X152585744Y-79090427D01*
X152571774Y-79093921D01*
X152546677Y-79103516D01*
X152533846Y-79114979D01*
X152513826Y-79133111D01*
X152478924Y-79159542D01*
X152441192Y-79185532D01*
X152399479Y-79213111D01*
X152364901Y-79236179D01*
X152346406Y-79248737D01*
X152330268Y-79262750D01*
X152298999Y-79292127D01*
X152256500Y-79333127D01*
X152206669Y-79382009D01*
X152182997Y-79405477D01*
X152124044Y-79462196D01*
X152072211Y-79508360D01*
X152031025Y-79541007D01*
X152004011Y-79557175D01*
X152001440Y-79557985D01*
X151962343Y-79573513D01*
X151928915Y-79593770D01*
X151911013Y-79609449D01*
X151878653Y-79639794D01*
X151835376Y-79681312D01*
X151784726Y-79730513D01*
X151730242Y-79783904D01*
X151675467Y-79837994D01*
X151623943Y-79889292D01*
X151579211Y-79934305D01*
X151544812Y-79969543D01*
X151524290Y-79991514D01*
X151520175Y-79996727D01*
X151477591Y-80071677D01*
X151423144Y-80150652D01*
X151365909Y-80220689D01*
X151355660Y-80231715D01*
X151314643Y-80277625D01*
X151276520Y-80325177D01*
X151249388Y-80364258D01*
X151248912Y-80365053D01*
X151212641Y-80419129D01*
X151170165Y-80472012D01*
X151126579Y-80518295D01*
X151086980Y-80552573D01*
X151056465Y-80569441D01*
X151056128Y-80569527D01*
X151030134Y-80581965D01*
X150990465Y-80607797D01*
X150943665Y-80642576D01*
X150917640Y-80663589D01*
X150870153Y-80701411D01*
X150826832Y-80732916D01*
X150794018Y-80753629D01*
X150782774Y-80758790D01*
X150756378Y-80773402D01*
X150719871Y-80801386D01*
X150684652Y-80833360D01*
X150633324Y-80877013D01*
X150587962Y-80902248D01*
X150574388Y-80906078D01*
X150536182Y-80919216D01*
X150507264Y-80939006D01*
X150507182Y-80939096D01*
X150483289Y-80958383D01*
X150444488Y-80982854D01*
X150410469Y-81001355D01*
X150340174Y-81047946D01*
X150268502Y-81116111D01*
X150259165Y-81126553D01*
X150202741Y-81199822D01*
X150169195Y-81267000D01*
X150156793Y-81333010D01*
X150163060Y-81399335D01*
X150165796Y-81425366D01*
X150168469Y-81475278D01*
X150171005Y-81545989D01*
X150173331Y-81634416D01*
X150175374Y-81737475D01*
X150177058Y-81852085D01*
X150178311Y-81975162D01*
X150178868Y-82059951D01*
X150181938Y-82659898D01*
X150214963Y-82706203D01*
X150230038Y-82730422D01*
X150240377Y-82757189D01*
X150247306Y-82792894D01*
X150252151Y-82843929D01*
X150255497Y-82901691D01*
X150261229Y-82982486D01*
X150269326Y-83039531D01*
X150280298Y-83075974D01*
X150284999Y-83084579D01*
X150301981Y-83120694D01*
X150315009Y-83165422D01*
X150316300Y-83172212D01*
X150330356Y-83216692D01*
X150352697Y-83255452D01*
X150356430Y-83259845D01*
X150380397Y-83292649D01*
X150394559Y-83323884D01*
X150396844Y-83340846D01*
X150389382Y-83349919D01*
X150366399Y-83353558D01*
X150323215Y-83354219D01*
X150276503Y-83352648D01*
X150247505Y-83345901D01*
X150227053Y-83330920D01*
X150216616Y-83318688D01*
X150193747Y-83281169D01*
X150174722Y-83236321D01*
X150173010Y-83230895D01*
X150158639Y-83193654D01*
X150142722Y-83167102D01*
X150139310Y-83163660D01*
X150124805Y-83138991D01*
X150121270Y-83117668D01*
X150112816Y-83087567D01*
X150091888Y-83052185D01*
X150085840Y-83044543D01*
X150066321Y-83017843D01*
X150055913Y-82990526D01*
X150052201Y-82953061D01*
X150052363Y-82912401D01*
X150050834Y-82833720D01*
X150043764Y-82751600D01*
X150032271Y-82673608D01*
X150017474Y-82607307D01*
X150000492Y-82560261D01*
X150000204Y-82559698D01*
X149969739Y-82518942D01*
X149928837Y-82487522D01*
X149885690Y-82470347D01*
X149852164Y-82470981D01*
X149823221Y-82485723D01*
X149788162Y-82510625D01*
X149779964Y-82517465D01*
X149744644Y-82541832D01*
X149699293Y-82564768D01*
X149650659Y-82583946D01*
X149605490Y-82597039D01*
X149570534Y-82601721D01*
X149552652Y-82595847D01*
X149542552Y-82569439D01*
X149541752Y-82562246D01*
X149536560Y-82540176D01*
X149523801Y-82505010D01*
X149518142Y-82491466D01*
X149498417Y-82456367D01*
X149474221Y-82439746D01*
X149439889Y-82440432D01*
X149389755Y-82457252D01*
X149377509Y-82462374D01*
X149327807Y-82480547D01*
X149276779Y-82494773D01*
X149265166Y-82497171D01*
X149222569Y-82510264D01*
X149187196Y-82529781D01*
X149182726Y-82533549D01*
X149154214Y-82560059D01*
X149212993Y-82620539D01*
X149242875Y-82652389D01*
X149255699Y-82672713D01*
X149249106Y-82684815D01*
X149220738Y-82691998D01*
X149168238Y-82697564D01*
X149157310Y-82698536D01*
X149105967Y-82705615D01*
X149074645Y-82717174D01*
X149057921Y-82733359D01*
X149032819Y-82753597D01*
X149000244Y-82761429D01*
X148973100Y-82754071D01*
X148970927Y-82752142D01*
X148970044Y-82736290D01*
X148984896Y-82718267D01*
X149006890Y-82707530D01*
X149011869Y-82707085D01*
X149038440Y-82695392D01*
X149063307Y-82666522D01*
X149079724Y-82629782D01*
X149082711Y-82609341D01*
X149079034Y-82583502D01*
X149064691Y-82573957D01*
X149035948Y-82580485D01*
X148989073Y-82602868D01*
X148987423Y-82603742D01*
X148939407Y-82623049D01*
X148880829Y-82638315D01*
X148846110Y-82643745D01*
X148789624Y-82650531D01*
X148753409Y-82658687D01*
X148730833Y-82671386D01*
X148715263Y-82691799D01*
X148705664Y-82710906D01*
X148689262Y-82738656D01*
X148667498Y-82752454D01*
X148630135Y-82758361D01*
X148624773Y-82758779D01*
X148574316Y-82758104D01*
X148516689Y-82751199D01*
X148492844Y-82746399D01*
X148446583Y-82737355D01*
X148414174Y-82737498D01*
X148383996Y-82747169D01*
X148378247Y-82749788D01*
X148343287Y-82758731D01*
X148288174Y-82764259D01*
X148219520Y-82766254D01*
X148143935Y-82764598D01*
X148068027Y-82759174D01*
X148038308Y-82755828D01*
X148003566Y-82751605D01*
X147980958Y-82749120D01*
X147969247Y-82735706D01*
X147967476Y-82705180D01*
X147967489Y-82678744D01*
X147957539Y-82663644D01*
X147930971Y-82653181D01*
X147910537Y-82647882D01*
X147859285Y-82627589D01*
X147834891Y-82602094D01*
X147797617Y-82548560D01*
X147747870Y-82505661D01*
X147720150Y-82490822D01*
X147692924Y-82476471D01*
X147681054Y-82464127D01*
X147681036Y-82463788D01*
X147669275Y-82454178D01*
X147639188Y-82441434D01*
X147615274Y-82433678D01*
X147563252Y-82412485D01*
X147538647Y-82398269D01*
X148292526Y-82398269D01*
X148299137Y-82410365D01*
X148327710Y-82419968D01*
X148358504Y-82422899D01*
X148388300Y-82417359D01*
X148395580Y-82403741D01*
X148385159Y-82388665D01*
X148352094Y-82383535D01*
X148349188Y-82383518D01*
X148308876Y-82387910D01*
X148292526Y-82398269D01*
X147538647Y-82398269D01*
X147510815Y-82382188D01*
X147494622Y-82370290D01*
X147450687Y-82341422D01*
X147419613Y-82335383D01*
X147402037Y-82352111D01*
X147398099Y-82379724D01*
X147404492Y-82438035D01*
X147424650Y-82477210D01*
X147453556Y-82499001D01*
X147480380Y-82517582D01*
X147492256Y-82535128D01*
X147492289Y-82535835D01*
X147502320Y-82562893D01*
X147527214Y-82596008D01*
X147559166Y-82627190D01*
X147590375Y-82648447D01*
X147606832Y-82653157D01*
X147638418Y-82661623D01*
X147673246Y-82682281D01*
X147676631Y-82685013D01*
X147727775Y-82712382D01*
X147795633Y-82727872D01*
X147876524Y-82738875D01*
X147782151Y-82750795D01*
X147676594Y-82758660D01*
X147591833Y-82752236D01*
X147525327Y-82730746D01*
X147474541Y-82693414D01*
X147440602Y-82646416D01*
X147418508Y-82605970D01*
X147414057Y-82643045D01*
X147407550Y-82669968D01*
X147399184Y-82680121D01*
X147384151Y-82692276D01*
X147370469Y-82723491D01*
X147360728Y-82765889D01*
X147357469Y-82807016D01*
X147347273Y-82868704D01*
X147328014Y-82902678D01*
X147314255Y-82923401D01*
X147305454Y-82947624D01*
X147300485Y-82981785D01*
X147298225Y-83032325D01*
X147297679Y-83076391D01*
X147296537Y-83141143D01*
X147293325Y-83185639D01*
X147286876Y-83216573D01*
X147276020Y-83240639D01*
X147266466Y-83255185D01*
X147246413Y-83290396D01*
X147236393Y-83321898D01*
X147236132Y-83325965D01*
X147234542Y-83338808D01*
X147226507Y-83347028D01*
X147207127Y-83351651D01*
X147171504Y-83353703D01*
X147114739Y-83354212D01*
X147101312Y-83354219D01*
X147039987Y-83353865D01*
X147000733Y-83352137D01*
X146978662Y-83348039D01*
X146968885Y-83340573D01*
X146966512Y-83328741D01*
X146966492Y-83326709D01*
X146974271Y-83297774D01*
X146993322Y-83263071D01*
X146996564Y-83258524D01*
X147009007Y-83238922D01*
X147017991Y-83215770D01*
X147024407Y-83183841D01*
X147029147Y-83137908D01*
X147033103Y-83072744D01*
X147034978Y-83033248D01*
X147039066Y-82955288D01*
X147043762Y-82898672D01*
X147049982Y-82857781D01*
X147058642Y-82826997D01*
X147070658Y-82800701D01*
X147073827Y-82794988D01*
X147082018Y-82779830D01*
X147088623Y-82764204D01*
X147093840Y-82745129D01*
X147097867Y-82719623D01*
X147100901Y-82684705D01*
X147103142Y-82637393D01*
X147104786Y-82574706D01*
X147106031Y-82493663D01*
X147107076Y-82391282D01*
X147107578Y-82330601D01*
X149649401Y-82330601D01*
X149659297Y-82364696D01*
X149686077Y-82381509D01*
X149725386Y-82380363D01*
X149772863Y-82360582D01*
X149786613Y-82351894D01*
X149824935Y-82329318D01*
X149860454Y-82313692D01*
X149866389Y-82311943D01*
X149909546Y-82291375D01*
X149944145Y-82257238D01*
X149967362Y-82215877D01*
X149976372Y-82173637D01*
X149968350Y-82136862D01*
X149952415Y-82118711D01*
X149930083Y-82105948D01*
X149907326Y-82103362D01*
X149879768Y-82112792D01*
X149843034Y-82136071D01*
X149792747Y-82175038D01*
X149766071Y-82196905D01*
X149713027Y-82241984D01*
X149678319Y-82275023D01*
X149658538Y-82299927D01*
X149650277Y-82320603D01*
X149649401Y-82330601D01*
X147107578Y-82330601D01*
X147107994Y-82280219D01*
X147109023Y-82156484D01*
X147110046Y-82059197D01*
X147535922Y-82059197D01*
X147547538Y-82074757D01*
X147553942Y-82079884D01*
X147571529Y-82092489D01*
X147586992Y-82098189D01*
X147608609Y-82097404D01*
X147644657Y-82090554D01*
X147667591Y-82085647D01*
X147712173Y-82072981D01*
X147730801Y-82060751D01*
X147724469Y-82050365D01*
X147694171Y-82043230D01*
X147640899Y-82040754D01*
X147635946Y-82040796D01*
X147578260Y-82043107D01*
X147545541Y-82048944D01*
X147535922Y-82059197D01*
X147110046Y-82059197D01*
X147110071Y-82056803D01*
X147111329Y-81978264D01*
X147112994Y-81917957D01*
X147115257Y-81872971D01*
X147118314Y-81840396D01*
X147122358Y-81817322D01*
X147127584Y-81800837D01*
X147134184Y-81788032D01*
X147141508Y-81777181D01*
X147162489Y-81735140D01*
X147163883Y-81705460D01*
X147148193Y-81674196D01*
X147117422Y-81633138D01*
X147077840Y-81588959D01*
X147035716Y-81548333D01*
X146997321Y-81517933D01*
X146977205Y-81506767D01*
X146943209Y-81488585D01*
X146899693Y-81459174D01*
X146863228Y-81430731D01*
X146825026Y-81400988D01*
X146792775Y-81379964D01*
X146774106Y-81372371D01*
X146751490Y-81365203D01*
X146718099Y-81347217D01*
X146705126Y-81338836D01*
X146666891Y-81315907D01*
X146632175Y-81299875D01*
X146624412Y-81297445D01*
X146597979Y-81284635D01*
X146560738Y-81259228D01*
X146527017Y-81232021D01*
X146487020Y-81200309D01*
X146449784Y-81175995D01*
X146427214Y-81165694D01*
X146400265Y-81152103D01*
X146362930Y-81125191D01*
X146326100Y-81093334D01*
X146278454Y-81052932D01*
X146225253Y-81014501D01*
X146189553Y-80992823D01*
X146141063Y-80963587D01*
X146094561Y-80930229D01*
X146074956Y-80913638D01*
X146034339Y-80881673D01*
X145984832Y-80850286D01*
X145964636Y-80839568D01*
X145922984Y-80813328D01*
X145874250Y-80774084D01*
X145828280Y-80729824D01*
X145824879Y-80726156D01*
X145773145Y-80674830D01*
X145729450Y-80643466D01*
X145697286Y-80630351D01*
X145654556Y-80610709D01*
X145601716Y-80571360D01*
X145549078Y-80523081D01*
X145496884Y-80475168D01*
X145440455Y-80428046D01*
X145389449Y-80389646D01*
X145374148Y-80379405D01*
X145324049Y-80343490D01*
X145298437Y-80314920D01*
X145294360Y-80301201D01*
X145285170Y-80279767D01*
X145260606Y-80244891D01*
X145224653Y-80201899D01*
X145200237Y-80175431D01*
X145158749Y-80130863D01*
X145123509Y-80090928D01*
X145099383Y-80061249D01*
X145092278Y-80050723D01*
X145066112Y-80028649D01*
X145039953Y-80024176D01*
X145003684Y-80015111D01*
X144961484Y-79991605D01*
X144950940Y-79983730D01*
X144918716Y-79959965D01*
X144894523Y-79945421D01*
X144887968Y-79943284D01*
X144872141Y-79934475D01*
X144845357Y-79912048D01*
X144828896Y-79896290D01*
X144794191Y-79866500D01*
X144760820Y-79845553D01*
X144749164Y-79841079D01*
X144716632Y-79823566D01*
X144696259Y-79802085D01*
X144667696Y-79777068D01*
X144630041Y-79762668D01*
X144606845Y-79754354D01*
X144577257Y-79735704D01*
X144538351Y-79704353D01*
X144487198Y-79657934D01*
X144420871Y-79594082D01*
X144418099Y-79591365D01*
X144361171Y-79536153D01*
X144354513Y-79529838D01*
X144719500Y-79529838D01*
X144721351Y-79537853D01*
X144728488Y-79538826D01*
X144739585Y-79533893D01*
X144737476Y-79529838D01*
X144721476Y-79528224D01*
X144719500Y-79529838D01*
X144354513Y-79529838D01*
X144308658Y-79486348D01*
X144264496Y-79445596D01*
X144232620Y-79417546D01*
X144219329Y-79407158D01*
X144191134Y-79381870D01*
X144161538Y-79345517D01*
X144154341Y-79334752D01*
X144122233Y-79283890D01*
X143750757Y-79279909D01*
X143630979Y-79278264D01*
X143536257Y-79276111D01*
X143464685Y-79273350D01*
X143414359Y-79269879D01*
X143390444Y-79266575D01*
X144437859Y-79266575D01*
X144449200Y-79293568D01*
X144476535Y-79324340D01*
X144514316Y-79352389D01*
X144548434Y-79372994D01*
X144571394Y-79386528D01*
X144576816Y-79389465D01*
X144579805Y-79379498D01*
X144580187Y-79370301D01*
X144570203Y-79352409D01*
X144561536Y-79350078D01*
X144543398Y-79338788D01*
X144535877Y-79323277D01*
X144518780Y-79298713D01*
X144493859Y-79283165D01*
X144468251Y-79268755D01*
X144458849Y-79255243D01*
X144450694Y-79246698D01*
X144445960Y-79248597D01*
X144437859Y-79266575D01*
X143390444Y-79266575D01*
X143383372Y-79265598D01*
X143369820Y-79260405D01*
X143369267Y-79259702D01*
X143348709Y-79238601D01*
X143313738Y-79212647D01*
X143273283Y-79187433D01*
X143236274Y-79168552D01*
X143212596Y-79161576D01*
X143197983Y-79152302D01*
X143167350Y-79126387D01*
X143123427Y-79086533D01*
X143068946Y-79035442D01*
X143006639Y-78975816D01*
X142939238Y-78910356D01*
X142869473Y-78841764D01*
X142800077Y-78772741D01*
X142733782Y-78705990D01*
X142673319Y-78644213D01*
X142621419Y-78590110D01*
X142580815Y-78546384D01*
X142554237Y-78515737D01*
X142544419Y-78500870D01*
X142544412Y-78500712D01*
X142537029Y-78484301D01*
X142517338Y-78452073D01*
X142489022Y-78409923D01*
X142476885Y-78392696D01*
X142445469Y-78346332D01*
X142420773Y-78305506D01*
X142406856Y-78277085D01*
X142405313Y-78271552D01*
X142393408Y-78242960D01*
X142371725Y-78213598D01*
X142350375Y-78179452D01*
X142342183Y-78145381D01*
X142332967Y-78107093D01*
X142317038Y-78081621D01*
X142297799Y-78044927D01*
X142285773Y-77985459D01*
X142284495Y-77973043D01*
X142275704Y-77915866D01*
X142260530Y-77878962D01*
X142248971Y-77865252D01*
X142239454Y-77855063D01*
X142232364Y-77842176D01*
X142227344Y-77822797D01*
X142224039Y-77793128D01*
X142222094Y-77749374D01*
X142221153Y-77687738D01*
X142220860Y-77604423D01*
X142220845Y-77565013D01*
X142220984Y-77484345D01*
X142329117Y-77484345D01*
X142336964Y-77511576D01*
X142357281Y-77547503D01*
X142369146Y-77563720D01*
X142391740Y-77595564D01*
X142404017Y-77625707D01*
X142409042Y-77664681D01*
X142409888Y-77703763D01*
X142417768Y-77790498D01*
X142437958Y-77853582D01*
X142456065Y-77904517D01*
X142469889Y-77963508D01*
X142473465Y-77988401D01*
X142488719Y-78058001D01*
X142512805Y-78104270D01*
X142533405Y-78136043D01*
X142544065Y-78161430D01*
X142544470Y-78164939D01*
X142551569Y-78186252D01*
X142569706Y-78220376D01*
X142584858Y-78244558D01*
X142607522Y-78281376D01*
X142622179Y-78310413D01*
X142625246Y-78320982D01*
X142634564Y-78334576D01*
X142660650Y-78364047D01*
X142700749Y-78406671D01*
X142752110Y-78459725D01*
X142811979Y-78520484D01*
X142877603Y-78586224D01*
X142946230Y-78654220D01*
X143015107Y-78721749D01*
X143081481Y-78786086D01*
X143142599Y-78844508D01*
X143195708Y-78894289D01*
X143238055Y-78932705D01*
X143266888Y-78957034D01*
X143271386Y-78960398D01*
X143313523Y-78985665D01*
X143370291Y-79013359D01*
X143430509Y-79038099D01*
X143439910Y-79041492D01*
X143555297Y-79072155D01*
X143664088Y-79079236D01*
X143772181Y-79063047D01*
X143784752Y-79059730D01*
X143824894Y-79051506D01*
X143884953Y-79042728D01*
X143957915Y-79034265D01*
X144036770Y-79026986D01*
X144067873Y-79024637D01*
X144167320Y-79016283D01*
X144243760Y-79006329D01*
X144301146Y-78993734D01*
X144343429Y-78977457D01*
X144374561Y-78956458D01*
X144390831Y-78939611D01*
X144401679Y-78918696D01*
X144391502Y-78897410D01*
X144389397Y-78894810D01*
X144370529Y-78867121D01*
X144349475Y-78829803D01*
X144346679Y-78824282D01*
X144328431Y-78789190D01*
X144302156Y-78740564D01*
X144273200Y-78688285D01*
X144270072Y-78682722D01*
X144244936Y-78635474D01*
X144226111Y-78595142D01*
X144216945Y-78569035D01*
X144216556Y-78565857D01*
X144208360Y-78545758D01*
X144186769Y-78511098D01*
X144155727Y-78467965D01*
X144140106Y-78447889D01*
X144101761Y-78401336D01*
X144073944Y-78372676D01*
X144051571Y-78357819D01*
X144029557Y-78352676D01*
X144021408Y-78352414D01*
X143983710Y-78360706D01*
X143933960Y-78382708D01*
X143880164Y-78414114D01*
X143830330Y-78450615D01*
X143816561Y-78462637D01*
X143775857Y-78483553D01*
X143742410Y-78484827D01*
X143716557Y-78481139D01*
X143702645Y-78471789D01*
X143696335Y-78449800D01*
X143693292Y-78408191D01*
X143693153Y-78405574D01*
X143692729Y-78358230D01*
X143699963Y-78325260D01*
X143718305Y-78294402D01*
X143727970Y-78281854D01*
X143766758Y-78238693D01*
X143815893Y-78191875D01*
X143868275Y-78147435D01*
X143916806Y-78111410D01*
X143953276Y-78090304D01*
X143989105Y-78069468D01*
X144028093Y-78039231D01*
X144037538Y-78030527D01*
X144072784Y-77984125D01*
X144081663Y-77937332D01*
X144064152Y-77888326D01*
X144035301Y-77850769D01*
X144000312Y-77817672D01*
X143964731Y-77797773D01*
X143921894Y-77789585D01*
X143865137Y-77791622D01*
X143805648Y-77799549D01*
X143716591Y-77808788D01*
X143633031Y-77809093D01*
X143608538Y-77807068D01*
X143526159Y-77799002D01*
X143457647Y-77795543D01*
X143390332Y-77796528D01*
X143311542Y-77801793D01*
X143296544Y-77803063D01*
X143179091Y-77813214D01*
X143131391Y-77771332D01*
X143083690Y-77729451D01*
X143083690Y-77608810D01*
X143088314Y-77522624D01*
X143103519Y-77457031D01*
X143131299Y-77407064D01*
X143173652Y-77367757D01*
X143183163Y-77361310D01*
X143217638Y-77333980D01*
X143228385Y-77309933D01*
X143214680Y-77286255D01*
X143175798Y-77260030D01*
X143155337Y-77249324D01*
X143101156Y-77226108D01*
X143044097Y-77207656D01*
X143010044Y-77200250D01*
X142929875Y-77183071D01*
X142872778Y-77159354D01*
X142839434Y-77130644D01*
X142830523Y-77098489D01*
X142846726Y-77064436D01*
X142888723Y-77030032D01*
X142926349Y-77009974D01*
X142987693Y-76986763D01*
X143045146Y-76978852D01*
X143108641Y-76985797D01*
X143162507Y-76999405D01*
X143217670Y-77018202D01*
X143276641Y-77042710D01*
X143332242Y-77069455D01*
X143377297Y-77094960D01*
X143404630Y-77115750D01*
X143406047Y-77117358D01*
X143427504Y-77129465D01*
X143465764Y-77140316D01*
X143494349Y-77145128D01*
X143538192Y-77153640D01*
X143571799Y-77165618D01*
X143583194Y-77173553D01*
X143605119Y-77188684D01*
X143642387Y-77204976D01*
X143662906Y-77211789D01*
X143716254Y-77230404D01*
X143770610Y-77253449D01*
X143783656Y-77259817D01*
X143822205Y-77276925D01*
X143846270Y-77279826D01*
X143859930Y-77273005D01*
X143876436Y-77251019D01*
X143879125Y-77240200D01*
X143868579Y-77204422D01*
X143837368Y-77152965D01*
X143786134Y-77086675D01*
X143715520Y-77006398D01*
X143646853Y-76934055D01*
X143579573Y-76866114D01*
X143525135Y-76814360D01*
X143478433Y-76774858D01*
X143434359Y-76743673D01*
X143387805Y-76716872D01*
X143333665Y-76690520D01*
X143326365Y-76687178D01*
X143285600Y-76667974D01*
X143236266Y-76643900D01*
X143213895Y-76632719D01*
X143169751Y-76613696D01*
X143129379Y-76601643D01*
X143112780Y-76599464D01*
X143078978Y-76593642D01*
X143035230Y-76579285D01*
X143016280Y-76571251D01*
X142946349Y-76546994D01*
X142890990Y-76538588D01*
X144144328Y-76538588D01*
X144144723Y-76562226D01*
X144148985Y-76636878D01*
X144157653Y-76720253D01*
X144168910Y-76795091D01*
X144169715Y-76799392D01*
X144181723Y-76865905D01*
X144193110Y-76934729D01*
X144201706Y-76992635D01*
X144202748Y-77000558D01*
X144214191Y-77058930D01*
X144231954Y-77118036D01*
X144244529Y-77148653D01*
X144264417Y-77202064D01*
X144277329Y-77268584D01*
X144283624Y-77335133D01*
X144291015Y-77410562D01*
X144302825Y-77467170D01*
X144320785Y-77512962D01*
X144323033Y-77517346D01*
X144347270Y-77582497D01*
X144360703Y-77660299D01*
X144361072Y-77664834D01*
X144368311Y-77717922D01*
X144380255Y-77766032D01*
X144391355Y-77792913D01*
X144405046Y-77827955D01*
X144416690Y-77877978D01*
X144422732Y-77922425D01*
X144431313Y-77979455D01*
X144445241Y-78030946D01*
X144456634Y-78057244D01*
X144472489Y-78096737D01*
X144485183Y-78149081D01*
X144490029Y-78183889D01*
X144499059Y-78238989D01*
X144514308Y-78292410D01*
X144525261Y-78318189D01*
X144543105Y-78362762D01*
X144552697Y-78407155D01*
X144553223Y-78416903D01*
X144560084Y-78456782D01*
X144577306Y-78502874D01*
X144585421Y-78518538D01*
X144607387Y-78564465D01*
X144623361Y-78611165D01*
X144626221Y-78624056D01*
X144639263Y-78667101D01*
X144659080Y-78704048D01*
X144660182Y-78705483D01*
X144677894Y-78738942D01*
X144691881Y-78784149D01*
X144694941Y-78800410D01*
X144706000Y-78843439D01*
X144722741Y-78877782D01*
X144729897Y-78886226D01*
X144749879Y-78915881D01*
X144755452Y-78939934D01*
X144763906Y-78970182D01*
X144784697Y-79005002D01*
X144789157Y-79010571D01*
X144810903Y-79039458D01*
X144822346Y-79060597D01*
X144822862Y-79063444D01*
X144831924Y-79081209D01*
X144849826Y-79100662D01*
X144870366Y-79128863D01*
X144876790Y-79152219D01*
X144883203Y-79178210D01*
X144899802Y-79217481D01*
X144917236Y-79251040D01*
X144938705Y-79291111D01*
X144953371Y-79322367D01*
X144957681Y-79335924D01*
X144964430Y-79353853D01*
X144981814Y-79386065D01*
X144998127Y-79412918D01*
X145020649Y-79452222D01*
X145035332Y-79485122D01*
X145038573Y-79498930D01*
X145047951Y-79524545D01*
X145064325Y-79544469D01*
X145088139Y-79576390D01*
X145098626Y-79601839D01*
X145109616Y-79631659D01*
X145130139Y-79667125D01*
X145162753Y-79711822D01*
X145210017Y-79769337D01*
X145255654Y-79821947D01*
X145295851Y-79868971D01*
X145330616Y-79912112D01*
X145354984Y-79945089D01*
X145362234Y-79956766D01*
X145388738Y-79997415D01*
X145431796Y-80051742D01*
X145487561Y-80115798D01*
X145552184Y-80185631D01*
X145621818Y-80257291D01*
X145692615Y-80326826D01*
X145760727Y-80390286D01*
X145822307Y-80443720D01*
X145873507Y-80483177D01*
X145877726Y-80486079D01*
X145918094Y-80514776D01*
X145964271Y-80549402D01*
X145982825Y-80563862D01*
X146059277Y-80622809D01*
X146119811Y-80665758D01*
X146160449Y-80691049D01*
X146188601Y-80709033D01*
X146230157Y-80737821D01*
X146277108Y-80771834D01*
X146287087Y-80779255D01*
X146331449Y-80810451D01*
X146369904Y-80833972D01*
X146395816Y-80845865D01*
X146400090Y-80846575D01*
X146426346Y-80855978D01*
X146446163Y-80872130D01*
X146473779Y-80890135D01*
X146514525Y-80903925D01*
X146528041Y-80906496D01*
X146567902Y-80916115D01*
X146597160Y-80929627D01*
X146602732Y-80934512D01*
X146626150Y-80949810D01*
X146662346Y-80961831D01*
X146667226Y-80962826D01*
X146708014Y-80975975D01*
X146741027Y-80995509D01*
X146742564Y-80996888D01*
X146768028Y-81015590D01*
X146785210Y-81021841D01*
X146806536Y-81029516D01*
X146833225Y-81046765D01*
X146858161Y-81063134D01*
X146900665Y-81088069D01*
X146954290Y-81117878D01*
X147000197Y-81142403D01*
X147055433Y-81171841D01*
X147102146Y-81197605D01*
X147134925Y-81216657D01*
X147147825Y-81225334D01*
X147171997Y-81236493D01*
X147181637Y-81237552D01*
X147204968Y-81243600D01*
X147241633Y-81259069D01*
X147265956Y-81271257D01*
X147305344Y-81290417D01*
X147336970Y-81302627D01*
X147348292Y-81304962D01*
X147372072Y-81312753D01*
X147399467Y-81329972D01*
X147434412Y-81348966D01*
X147478490Y-81363135D01*
X147485548Y-81364540D01*
X147533690Y-81377488D01*
X147584102Y-81397336D01*
X147593403Y-81401896D01*
X147639549Y-81419054D01*
X147698445Y-81432087D01*
X147734964Y-81436557D01*
X147795445Y-81445465D01*
X147851455Y-81460786D01*
X147876524Y-81471351D01*
X147897952Y-81481064D01*
X147922653Y-81488577D01*
X147954785Y-81494356D01*
X147998504Y-81498866D01*
X148057966Y-81502573D01*
X148137326Y-81505942D01*
X148206832Y-81508344D01*
X148320067Y-81512856D01*
X148408813Y-81518258D01*
X148475538Y-81524770D01*
X148522708Y-81532613D01*
X148543881Y-81538470D01*
X148601559Y-81557231D01*
X148650546Y-81569756D01*
X148665219Y-81572830D01*
X148681025Y-81567821D01*
X148689948Y-81562785D01*
X148697921Y-81550888D01*
X148685117Y-81533889D01*
X148674596Y-81525155D01*
X148652557Y-81503628D01*
X148650784Y-81484715D01*
X148656607Y-81472725D01*
X148671387Y-81457407D01*
X148697889Y-81448156D01*
X148742775Y-81442986D01*
X148759592Y-81441996D01*
X148822345Y-81435057D01*
X148869031Y-81420017D01*
X148895136Y-81404920D01*
X148933620Y-81384180D01*
X148969854Y-81373000D01*
X148977517Y-81372371D01*
X149010762Y-81364858D01*
X149049948Y-81346231D01*
X149058928Y-81340516D01*
X149102203Y-81318675D01*
X149154368Y-81302137D01*
X149171858Y-81298766D01*
X149218699Y-81289276D01*
X149259668Y-81276915D01*
X149271729Y-81271754D01*
X149307933Y-81258050D01*
X149352691Y-81246697D01*
X149359539Y-81245445D01*
X149408295Y-81233102D01*
X149459127Y-81214502D01*
X149467395Y-81210761D01*
X149503465Y-81193907D01*
X149555509Y-81169836D01*
X149614961Y-81142500D01*
X149646369Y-81128122D01*
X149700608Y-81102292D01*
X149746158Y-81078665D01*
X149776969Y-81060487D01*
X149786209Y-81053149D01*
X149811095Y-81037329D01*
X149822753Y-81035323D01*
X149846600Y-81029788D01*
X149884451Y-81015579D01*
X149912106Y-81003259D01*
X149957015Y-80982134D01*
X149997138Y-80963550D01*
X150013414Y-80956170D01*
X150046685Y-80940354D01*
X150067342Y-80929420D01*
X150088717Y-80918011D01*
X150126715Y-80898582D01*
X150173757Y-80875001D01*
X150181938Y-80870942D01*
X150240854Y-80839895D01*
X150308491Y-80801486D01*
X150371241Y-80763469D01*
X150377427Y-80759538D01*
X150429877Y-80726060D01*
X150479717Y-80694345D01*
X150518144Y-80669992D01*
X150525728Y-80665212D01*
X150574646Y-80633765D01*
X150617960Y-80603910D01*
X150659408Y-80572443D01*
X150702730Y-80536160D01*
X150751664Y-80491855D01*
X150809948Y-80436324D01*
X150881322Y-80366363D01*
X150925558Y-80322514D01*
X151037242Y-80211227D01*
X151130820Y-80117232D01*
X151207617Y-80039132D01*
X151268961Y-79975525D01*
X151316176Y-79925012D01*
X151350590Y-79886193D01*
X151373527Y-79857670D01*
X151386315Y-79838041D01*
X151388113Y-79834285D01*
X151404322Y-79805275D01*
X151430652Y-79766183D01*
X151449382Y-79741055D01*
X151482023Y-79695400D01*
X151511906Y-79647552D01*
X151523310Y-79626458D01*
X151542580Y-79588514D01*
X151558599Y-79558591D01*
X151562228Y-79552308D01*
X151585928Y-79509617D01*
X151610642Y-79459657D01*
X151633078Y-79409810D01*
X151649948Y-79367456D01*
X151657962Y-79339979D01*
X151658212Y-79336925D01*
X151667613Y-79308621D01*
X151686316Y-79284501D01*
X151707007Y-79254805D01*
X151724121Y-79212888D01*
X151727542Y-79199912D01*
X151739942Y-79158806D01*
X151755048Y-79126787D01*
X151759785Y-79120379D01*
X151771500Y-79096550D01*
X151783175Y-79055254D01*
X151791498Y-79010329D01*
X151801049Y-78959041D01*
X151813306Y-78914549D01*
X151823934Y-78889696D01*
X151836573Y-78858455D01*
X151847502Y-78812675D01*
X151852091Y-78781627D01*
X151854160Y-78769599D01*
X152237964Y-78769599D01*
X152241824Y-78795221D01*
X152256342Y-78811425D01*
X152286216Y-78820198D01*
X152336145Y-78823527D01*
X152366015Y-78823780D01*
X152449031Y-78817744D01*
X152514690Y-78798997D01*
X152519159Y-78797022D01*
X152581505Y-78776675D01*
X152640778Y-78771441D01*
X152689171Y-78781609D01*
X152703857Y-78790149D01*
X152737020Y-78804533D01*
X152779311Y-78809914D01*
X152819785Y-78806247D01*
X152847492Y-78793484D01*
X152849879Y-78790770D01*
X152872466Y-78775955D01*
X152908657Y-78765427D01*
X152915513Y-78764409D01*
X152960386Y-78751573D01*
X153004955Y-78728235D01*
X153011160Y-78723771D01*
X153043744Y-78702145D01*
X153069964Y-78690196D01*
X153075090Y-78689374D01*
X153098355Y-78682160D01*
X153130270Y-78664629D01*
X153134486Y-78661833D01*
X153176853Y-78636372D01*
X153218938Y-78615344D01*
X153250822Y-78596945D01*
X153270065Y-78577379D01*
X153270938Y-78575475D01*
X153289366Y-78558539D01*
X153307823Y-78554444D01*
X153331016Y-78551475D01*
X153357878Y-78540998D01*
X153393887Y-78520185D01*
X153444522Y-78486206D01*
X153457541Y-78477122D01*
X153494145Y-78453077D01*
X153522758Y-78437162D01*
X153533928Y-78433306D01*
X153548620Y-78424426D01*
X153577994Y-78400324D01*
X153617626Y-78364802D01*
X153657960Y-78326649D01*
X153708055Y-78278362D01*
X153756432Y-78232089D01*
X153796630Y-78193991D01*
X153816994Y-78174977D01*
X153862670Y-78127183D01*
X153914047Y-78064597D01*
X153964314Y-77996315D01*
X154006661Y-77931430D01*
X154027389Y-77894027D01*
X154054854Y-77823482D01*
X154075941Y-77734650D01*
X154090883Y-77625657D01*
X154099909Y-77494631D01*
X154103252Y-77339698D01*
X154103131Y-77280599D01*
X154099777Y-77124979D01*
X154092152Y-76995754D01*
X154080226Y-76892689D01*
X154063969Y-76815550D01*
X154043353Y-76764102D01*
X154038128Y-76756068D01*
X154019662Y-76729934D01*
X153992550Y-76690959D01*
X153968739Y-76656423D01*
X153933880Y-76611254D01*
X153895504Y-76569821D01*
X153871335Y-76548567D01*
X153835428Y-76520287D01*
X153805166Y-76494412D01*
X153798917Y-76488534D01*
X153773027Y-76470181D01*
X153755619Y-76464940D01*
X153730668Y-76456063D01*
X153716665Y-76445246D01*
X153695027Y-76430064D01*
X153656653Y-76408674D01*
X153609574Y-76385530D01*
X153606270Y-76384010D01*
X153566160Y-76366478D01*
X153531693Y-76354573D01*
X153495768Y-76347088D01*
X153451285Y-76342816D01*
X153391144Y-76340551D01*
X153345251Y-76339665D01*
X153174932Y-76336862D01*
X153094040Y-76383471D01*
X153043454Y-76412929D01*
X153007916Y-76435346D01*
X152979064Y-76457059D01*
X152948532Y-76484404D01*
X152907958Y-76523716D01*
X152904733Y-76526877D01*
X152837689Y-76602316D01*
X152774153Y-76691252D01*
X152726208Y-76775025D01*
X152706758Y-76810838D01*
X152683683Y-76849176D01*
X152665578Y-76885433D01*
X152656939Y-76918142D01*
X152656862Y-76919630D01*
X152649270Y-76951055D01*
X152631958Y-76988694D01*
X152628963Y-76993781D01*
X152606158Y-77041454D01*
X152602701Y-77076138D01*
X152618421Y-77095418D01*
X152636323Y-77098592D01*
X152673686Y-77092662D01*
X152716587Y-77073406D01*
X152768716Y-77038628D01*
X152833763Y-76986131D01*
X152852772Y-76969722D01*
X152913121Y-76921245D01*
X152966255Y-76886613D01*
X153004062Y-76870031D01*
X153039555Y-76856540D01*
X153062254Y-76840627D01*
X153064996Y-76836254D01*
X153081772Y-76820858D01*
X153114637Y-76805960D01*
X153127051Y-76802176D01*
X153160770Y-76790430D01*
X153179978Y-76778570D01*
X153181673Y-76775047D01*
X153193374Y-76764131D01*
X153222887Y-76751093D01*
X153238971Y-76745895D01*
X153284309Y-76729015D01*
X153324805Y-76708162D01*
X153332143Y-76703261D01*
X153377900Y-76684439D01*
X153436911Y-76679385D01*
X153499780Y-76687239D01*
X153557111Y-76707143D01*
X153587531Y-76726612D01*
X153638778Y-76781194D01*
X153665590Y-76837790D01*
X153667259Y-76893894D01*
X153647823Y-76940179D01*
X153614254Y-76969971D01*
X153572031Y-76976973D01*
X153528405Y-76960167D01*
X153524669Y-76957460D01*
X153486994Y-76942322D01*
X153436048Y-76938042D01*
X153383175Y-76944465D01*
X153342166Y-76959938D01*
X153314751Y-76985955D01*
X153302308Y-77017646D01*
X153306098Y-77046578D01*
X153326604Y-77064074D01*
X153355522Y-77080687D01*
X153394796Y-77112717D01*
X153439988Y-77155367D01*
X153486657Y-77203845D01*
X153530365Y-77253354D01*
X153566671Y-77299100D01*
X153591137Y-77336289D01*
X153599368Y-77358666D01*
X153606869Y-77375781D01*
X153624862Y-77403430D01*
X153627410Y-77406920D01*
X153644426Y-77444262D01*
X153651787Y-77490803D01*
X153649603Y-77537099D01*
X153637985Y-77573707D01*
X153625291Y-77587919D01*
X153599779Y-77590233D01*
X153561032Y-77579045D01*
X153516735Y-77557864D01*
X153474572Y-77530198D01*
X153449160Y-77507501D01*
X153406395Y-77480637D01*
X153374811Y-77476087D01*
X153340751Y-77482620D01*
X153329536Y-77499710D01*
X153342987Y-77523592D01*
X153349151Y-77529147D01*
X153367778Y-77553434D01*
X153381242Y-77582108D01*
X153382533Y-77623928D01*
X153362448Y-77669463D01*
X153325425Y-77714631D01*
X153275901Y-77755348D01*
X153218312Y-77787533D01*
X153157095Y-77807102D01*
X153133104Y-77810440D01*
X153093403Y-77811559D01*
X153059160Y-77805665D01*
X153024517Y-77789928D01*
X152983614Y-77761515D01*
X152930593Y-77717594D01*
X152917444Y-77706198D01*
X152868010Y-77665900D01*
X152810591Y-77623364D01*
X152750186Y-77581809D01*
X152737757Y-77573857D01*
X153027423Y-77573857D01*
X153043839Y-77582217D01*
X153072268Y-77571703D01*
X153082016Y-77560292D01*
X153068579Y-77548002D01*
X153063504Y-77545193D01*
X153040370Y-77537530D01*
X153028940Y-77549082D01*
X153028907Y-77549166D01*
X153027423Y-77573857D01*
X152737757Y-77573857D01*
X152691798Y-77544454D01*
X152640425Y-77514515D01*
X152601070Y-77495211D01*
X152580824Y-77489569D01*
X152561440Y-77497800D01*
X152546659Y-77524143D01*
X152535793Y-77571074D01*
X152528150Y-77641068D01*
X152525117Y-77689387D01*
X152522111Y-77753738D01*
X152521825Y-77798891D01*
X152525479Y-77832574D01*
X152534294Y-77862511D01*
X152549493Y-77896427D01*
X152561726Y-77920991D01*
X152586388Y-77967841D01*
X152609151Y-78007332D01*
X152625195Y-78031110D01*
X152625506Y-78031474D01*
X152641258Y-78059040D01*
X152656896Y-78101245D01*
X152670462Y-78150030D01*
X152679999Y-78197337D01*
X152683549Y-78235108D01*
X152679718Y-78254670D01*
X152658042Y-78265868D01*
X152622632Y-78271398D01*
X152616516Y-78271522D01*
X152580283Y-78266854D01*
X152548771Y-78249249D01*
X152518742Y-78220965D01*
X152488659Y-78183988D01*
X152467029Y-78147499D01*
X152461735Y-78132989D01*
X152446113Y-78095627D01*
X152421870Y-78065573D01*
X152395716Y-78049770D01*
X152381629Y-78050117D01*
X152361871Y-78065876D01*
X152346723Y-78098129D01*
X152335251Y-78150102D01*
X152326517Y-78225019D01*
X152324784Y-78246013D01*
X152317312Y-78312614D01*
X152306055Y-78378972D01*
X152293069Y-78433588D01*
X152288856Y-78446788D01*
X152274001Y-78500243D01*
X152259861Y-78570288D01*
X152248067Y-78646564D01*
X152240254Y-78718714D01*
X152237964Y-78769599D01*
X151854160Y-78769599D01*
X151861700Y-78725763D01*
X151876738Y-78669949D01*
X151885264Y-78646808D01*
X151902886Y-78595211D01*
X151916506Y-78537837D01*
X151919054Y-78521938D01*
X151930408Y-78471104D01*
X151948233Y-78422842D01*
X151955356Y-78409139D01*
X151974682Y-78365383D01*
X151988959Y-78313814D01*
X151991234Y-78300283D01*
X152003508Y-78248115D01*
X152023857Y-78193573D01*
X152031206Y-78178511D01*
X152049756Y-78138854D01*
X152061059Y-78105645D01*
X152062671Y-78094962D01*
X152068767Y-78069634D01*
X152084345Y-78031562D01*
X152096376Y-78007329D01*
X152118107Y-77954869D01*
X152129405Y-77903604D01*
X152130081Y-77891133D01*
X152133500Y-77849833D01*
X152141907Y-77816683D01*
X152143686Y-77812905D01*
X152150085Y-77779494D01*
X152141441Y-77728236D01*
X152140959Y-77726418D01*
X152132105Y-77686688D01*
X152133442Y-77660536D01*
X152146316Y-77636068D01*
X152152084Y-77628018D01*
X152184938Y-77570901D01*
X152210812Y-77497206D01*
X152227656Y-77416722D01*
X152859425Y-77416722D01*
X152864983Y-77453669D01*
X152883746Y-77488725D01*
X152890361Y-77496085D01*
X152925433Y-77522756D01*
X152954833Y-77529345D01*
X152971791Y-77518007D01*
X152967210Y-77503120D01*
X152945796Y-77484105D01*
X152945623Y-77483992D01*
X152920438Y-77458576D01*
X152918338Y-77449123D01*
X153147968Y-77449123D01*
X153151024Y-77460665D01*
X153160654Y-77462605D01*
X153179101Y-77455566D01*
X153181673Y-77449123D01*
X153171997Y-77436027D01*
X153168987Y-77435641D01*
X153150728Y-77445441D01*
X153147968Y-77449123D01*
X152918338Y-77449123D01*
X152912153Y-77421281D01*
X152912034Y-77414119D01*
X152909367Y-77381956D01*
X152899177Y-77370376D01*
X152888440Y-77370724D01*
X152867202Y-77386275D01*
X152859425Y-77416722D01*
X152227656Y-77416722D01*
X152230226Y-77404444D01*
X152243702Y-77290128D01*
X152251733Y-77152520D01*
X152257021Y-77041374D01*
X152263913Y-76954918D01*
X152272637Y-76890913D01*
X152282726Y-76849176D01*
X152295852Y-76802480D01*
X152303956Y-76760060D01*
X152305200Y-76744402D01*
X152297081Y-76709371D01*
X152275617Y-76662896D01*
X152245458Y-76613610D01*
X152211501Y-76570417D01*
X152190666Y-76544999D01*
X152164377Y-76509578D01*
X152157044Y-76499146D01*
X152120817Y-76452206D01*
X152074684Y-76400008D01*
X152024358Y-76348258D01*
X151975553Y-76302662D01*
X151933982Y-76268926D01*
X151913741Y-76256158D01*
X151875539Y-76231885D01*
X151838376Y-76200403D01*
X151808939Y-76168310D01*
X151793911Y-76142205D01*
X151793189Y-76137171D01*
X151787504Y-76119092D01*
X151772017Y-76082808D01*
X151749287Y-76034077D01*
X151729150Y-75993072D01*
X151709148Y-75954132D01*
X151689930Y-75920075D01*
X151668857Y-75887721D01*
X151643295Y-75853894D01*
X151610605Y-75815414D01*
X151568151Y-75769104D01*
X151513297Y-75711786D01*
X151443405Y-75640281D01*
X151399177Y-75595354D01*
X151279468Y-75471946D01*
X151174153Y-75359329D01*
X151084327Y-75258784D01*
X151011086Y-75171589D01*
X150955529Y-75099024D01*
X150918750Y-75042367D01*
X150909314Y-75023946D01*
X150889160Y-74980130D01*
X150865915Y-74930093D01*
X150859159Y-74915653D01*
X150838580Y-74881511D01*
X150804245Y-74834698D01*
X150761243Y-74781831D01*
X150722303Y-74737754D01*
X150670765Y-74680859D01*
X150618009Y-74621120D01*
X150571314Y-74566845D01*
X150545951Y-74536336D01*
X150466388Y-74438018D01*
X150402049Y-74357826D01*
X150350889Y-74293177D01*
X150310862Y-74241489D01*
X150283053Y-74204442D01*
X150250552Y-74164087D01*
X150206689Y-74114563D01*
X150159761Y-74065156D01*
X150149112Y-74054494D01*
X150108078Y-74012192D01*
X150073269Y-73973227D01*
X150050279Y-73943976D01*
X150045761Y-73936649D01*
X150027635Y-73905408D01*
X150014895Y-73887162D01*
X150000109Y-73868897D01*
X149973468Y-73835875D01*
X149940018Y-73794349D01*
X149930103Y-73782032D01*
X149893965Y-73738711D01*
X149861061Y-73702032D01*
X149837296Y-73678508D01*
X149833455Y-73675432D01*
X149804699Y-73650671D01*
X149780439Y-73625538D01*
X149749121Y-73600396D01*
X149712691Y-73585787D01*
X149680089Y-73583990D01*
X149661405Y-73595214D01*
X149652896Y-73621465D01*
X149649608Y-73654324D01*
X149642463Y-73694768D01*
X149628610Y-73724824D01*
X149612797Y-73751002D01*
X149589897Y-73793225D01*
X149564390Y-73843181D01*
X149559780Y-73852532D01*
X149508275Y-73956836D01*
X149467204Y-74038185D01*
X149435752Y-74098130D01*
X149413106Y-74138223D01*
X149398450Y-74160014D01*
X149397966Y-74160588D01*
X149384652Y-74189248D01*
X149379762Y-74222809D01*
X149371249Y-74263200D01*
X149352318Y-74298636D01*
X149327448Y-74337924D01*
X149309847Y-74376629D01*
X149291573Y-74414968D01*
X149269882Y-74444672D01*
X149250741Y-74471865D01*
X149244943Y-74491932D01*
X149237158Y-74516367D01*
X149217806Y-74549402D01*
X149211238Y-74558442D01*
X149190119Y-74588213D01*
X149178385Y-74608798D01*
X149177533Y-74612009D01*
X149169206Y-74626529D01*
X149147874Y-74653539D01*
X149130346Y-74673616D01*
X149103525Y-74705874D01*
X149086431Y-74731374D01*
X149083159Y-74740252D01*
X149074881Y-74761706D01*
X149066307Y-74773113D01*
X149048220Y-74795549D01*
X149023606Y-74829068D01*
X149015749Y-74840276D01*
X148987117Y-74879868D01*
X148951773Y-74926398D01*
X148933209Y-74949977D01*
X148902514Y-74990668D01*
X148876679Y-75028970D01*
X148866283Y-75047005D01*
X148848540Y-75074076D01*
X148818046Y-75112933D01*
X148780812Y-75155995D01*
X148773559Y-75163932D01*
X148706130Y-75238768D01*
X148638184Y-75318061D01*
X148563742Y-75408874D01*
X148522433Y-75460535D01*
X148473085Y-75518181D01*
X148407206Y-75588583D01*
X148329205Y-75667513D01*
X148243495Y-75750742D01*
X148154487Y-75834045D01*
X148066592Y-75913194D01*
X147984222Y-75983961D01*
X147931540Y-76026777D01*
X147894610Y-76057214D01*
X147862605Y-76085782D01*
X147854023Y-76094187D01*
X147824774Y-76118793D01*
X147781093Y-76145893D01*
X147718172Y-76178373D01*
X147696514Y-76188796D01*
X147657312Y-76211043D01*
X147624358Y-76235432D01*
X147623192Y-76236502D01*
X147595388Y-76255931D01*
X147574009Y-76262728D01*
X147550608Y-76271047D01*
X147519697Y-76291564D01*
X147513342Y-76296813D01*
X147459989Y-76331701D01*
X147409720Y-76340996D01*
X147361283Y-76324348D01*
X147313428Y-76281405D01*
X147276284Y-76230352D01*
X147247347Y-76186382D01*
X147221385Y-76149515D01*
X147203925Y-76127590D01*
X147203683Y-76127340D01*
X147188446Y-76100804D01*
X147176637Y-76061755D01*
X147175093Y-76053189D01*
X147173170Y-76012132D01*
X147183561Y-75972286D01*
X147201447Y-75935060D01*
X147221427Y-75890586D01*
X147233963Y-75848885D01*
X147236132Y-75831289D01*
X147242480Y-75796626D01*
X147258633Y-75752179D01*
X147269836Y-75728879D01*
X147290730Y-75678892D01*
X147302445Y-75629438D01*
X147303541Y-75613895D01*
X147311033Y-75565980D01*
X147329192Y-75520287D01*
X147330455Y-75518159D01*
X147348263Y-75482967D01*
X147357182Y-75453625D01*
X147357419Y-75450127D01*
X147362802Y-75426464D01*
X147376906Y-75386851D01*
X147396744Y-75339628D01*
X147397915Y-75337036D01*
X147418264Y-75286822D01*
X147432791Y-75240795D01*
X147438361Y-75208890D01*
X147438361Y-75208806D01*
X147444469Y-75174413D01*
X147460075Y-75129493D01*
X147472066Y-75103263D01*
X147491729Y-75055056D01*
X147504088Y-75006729D01*
X147506192Y-74985744D01*
X147512607Y-74943658D01*
X147528480Y-74893288D01*
X147539774Y-74867329D01*
X147565363Y-74796835D01*
X147573057Y-74720619D01*
X147579528Y-74649909D01*
X147598900Y-74599281D01*
X147614132Y-74562445D01*
X147628091Y-74507118D01*
X147638528Y-74442647D01*
X147647610Y-74382535D01*
X147659162Y-74326335D01*
X147670999Y-74284358D01*
X147673478Y-74277926D01*
X147686402Y-74232800D01*
X147693822Y-74179120D01*
X147694518Y-74160267D01*
X147700088Y-74106650D01*
X147714719Y-74043723D01*
X147727065Y-74006262D01*
X147752718Y-73929906D01*
X147763974Y-73874404D01*
X147760971Y-73837900D01*
X147743851Y-73818538D01*
X147741250Y-73817428D01*
X147721819Y-73823084D01*
X147686477Y-73849130D01*
X147634885Y-73895836D01*
X147595928Y-73933952D01*
X147542453Y-73987002D01*
X147489591Y-74038844D01*
X147443520Y-74083455D01*
X147411006Y-74114268D01*
X147374287Y-74149482D01*
X147327039Y-74196444D01*
X147277182Y-74247236D01*
X147255931Y-74269310D01*
X147110971Y-74412051D01*
X146951950Y-74552857D01*
X146788130Y-74683858D01*
X146656854Y-74778346D01*
X146595434Y-74821485D01*
X146532550Y-74867941D01*
X146476079Y-74911751D01*
X146433898Y-74946953D01*
X146432482Y-74948221D01*
X146373697Y-75000091D01*
X146324877Y-75040453D01*
X146276810Y-75076751D01*
X146249069Y-75096483D01*
X146209450Y-75124936D01*
X146155000Y-75164992D01*
X146092249Y-75211801D01*
X146027730Y-75260514D01*
X146013135Y-75271625D01*
X145953885Y-75316324D01*
X145899414Y-75356536D01*
X145854634Y-75388696D01*
X145824456Y-75409243D01*
X145817980Y-75413185D01*
X145711068Y-75473724D01*
X145611236Y-75531060D01*
X145521738Y-75583275D01*
X145445823Y-75628455D01*
X145386744Y-75664682D01*
X145347753Y-75690040D01*
X145345256Y-75691783D01*
X145308270Y-75716263D01*
X145279229Y-75732654D01*
X145267312Y-75736915D01*
X145250838Y-75747666D01*
X145245875Y-75756625D01*
X145227848Y-75776125D01*
X145209223Y-75785138D01*
X145175819Y-75801089D01*
X145153170Y-75817174D01*
X145121753Y-75837974D01*
X145081933Y-75857053D01*
X145079019Y-75858174D01*
X145038796Y-75878937D01*
X144996059Y-75909050D01*
X144984645Y-75918816D01*
X144904930Y-75987396D01*
X144822722Y-76051299D01*
X144744047Y-76106188D01*
X144674930Y-76147728D01*
X144647597Y-76161346D01*
X144553225Y-76208913D01*
X144470871Y-76259762D01*
X144406150Y-76310222D01*
X144380512Y-76336012D01*
X144341017Y-76376117D01*
X144306157Y-76397069D01*
X144266910Y-76402968D01*
X144237484Y-76400985D01*
X144197600Y-76399752D01*
X144170498Y-76409147D01*
X144154024Y-76432919D01*
X144146019Y-76474816D01*
X144144328Y-76538588D01*
X142890990Y-76538588D01*
X142875975Y-76536308D01*
X142812902Y-76539654D01*
X142766542Y-76556410D01*
X142738839Y-76578244D01*
X142702278Y-76612871D01*
X142661382Y-76655241D01*
X142620678Y-76700305D01*
X142584692Y-76743013D01*
X142557949Y-76778315D01*
X142544974Y-76801162D01*
X142544412Y-76804265D01*
X142536851Y-76826867D01*
X142518039Y-76859065D01*
X142511413Y-76868442D01*
X142487262Y-76908546D01*
X142470718Y-76949082D01*
X142469273Y-76954791D01*
X142454333Y-76997544D01*
X142436228Y-77030650D01*
X142419876Y-77065297D01*
X142407254Y-77111565D01*
X142404461Y-77129029D01*
X142395339Y-77174821D01*
X142381707Y-77214067D01*
X142376042Y-77224543D01*
X142364983Y-77252332D01*
X142353343Y-77298927D01*
X142342583Y-77356247D01*
X142334161Y-77416210D01*
X142329538Y-77470736D01*
X142329117Y-77484345D01*
X142220984Y-77484345D01*
X142221006Y-77471797D01*
X142221726Y-77401623D01*
X142223355Y-77350565D01*
X142226247Y-77314702D01*
X142230752Y-77290111D01*
X142237223Y-77272869D01*
X142246013Y-77259052D01*
X142248605Y-77255684D01*
X142270032Y-77211920D01*
X142284316Y-77143636D01*
X142286633Y-77124306D01*
X142295266Y-77065663D01*
X142306631Y-77030263D01*
X142319541Y-77015550D01*
X142337441Y-76990539D01*
X142342603Y-76952991D01*
X142351191Y-76905533D01*
X142372586Y-76855365D01*
X142376239Y-76849176D01*
X142396647Y-76808407D01*
X142408402Y-76770148D01*
X142409523Y-76759136D01*
X142416754Y-76724251D01*
X142429506Y-76703109D01*
X142454527Y-76675404D01*
X142488400Y-76634413D01*
X142526513Y-76586150D01*
X142564254Y-76536633D01*
X142597009Y-76491874D01*
X142620167Y-76457891D01*
X142627927Y-76444344D01*
X142642040Y-76419815D01*
X142652161Y-76411013D01*
X142665747Y-76400103D01*
X142686260Y-76372500D01*
X142709114Y-76335894D01*
X142729725Y-76297975D01*
X142743508Y-76266435D01*
X142746641Y-76252534D01*
X142738581Y-76223837D01*
X142719067Y-76190868D01*
X142717908Y-76189373D01*
X142697988Y-76151656D01*
X142684411Y-76103114D01*
X142682530Y-76089811D01*
X142670313Y-76036657D01*
X142648526Y-75996820D01*
X142647278Y-75995413D01*
X142631680Y-75972814D01*
X142621863Y-75942037D01*
X142616091Y-75895901D01*
X142613807Y-75856980D01*
X142609902Y-75799455D01*
X142603591Y-75762898D01*
X142593442Y-75741329D01*
X142583977Y-75732423D01*
X142565555Y-75707555D01*
X142564916Y-75705692D01*
X143220235Y-75705692D01*
X143225022Y-75719055D01*
X143245473Y-75723433D01*
X143267433Y-75715003D01*
X143272437Y-75703210D01*
X143269905Y-75686160D01*
X143256563Y-75685279D01*
X143239835Y-75691170D01*
X143220235Y-75705692D01*
X142564916Y-75705692D01*
X142551729Y-75667227D01*
X142549582Y-75655976D01*
X142535704Y-75606086D01*
X142513498Y-75558265D01*
X142508578Y-75550489D01*
X142494839Y-75527866D01*
X142485762Y-75504218D01*
X142480398Y-75473434D01*
X142477801Y-75429405D01*
X142477023Y-75366021D01*
X142477002Y-75346908D01*
X142476324Y-75275585D01*
X142473707Y-75224782D01*
X142468274Y-75188076D01*
X142459150Y-75159043D01*
X142448293Y-75136448D01*
X142436394Y-75110409D01*
X142427574Y-75079757D01*
X142421045Y-75039230D01*
X142416021Y-74983564D01*
X142415419Y-74972938D01*
X143654426Y-74972938D01*
X143656277Y-74980953D01*
X143663414Y-74981926D01*
X143674511Y-74976993D01*
X143672402Y-74972938D01*
X143656402Y-74971324D01*
X143654426Y-74972938D01*
X142415419Y-74972938D01*
X142411712Y-74907497D01*
X142410669Y-74884991D01*
X142406622Y-74805265D01*
X142402341Y-74747941D01*
X142397129Y-74708458D01*
X142390290Y-74682259D01*
X142381129Y-74664784D01*
X142376109Y-74658604D01*
X142364111Y-74640555D01*
X142355551Y-74613898D01*
X142349444Y-74573304D01*
X142344806Y-74513447D01*
X142342953Y-74479158D01*
X142338004Y-74403840D01*
X142331372Y-74350717D01*
X142322256Y-74315035D01*
X142311848Y-74294717D01*
X142300019Y-74271599D01*
X142292729Y-74238881D01*
X142289106Y-74190524D01*
X142288255Y-74131652D01*
X142288842Y-74079162D01*
X145728638Y-74079162D01*
X145734252Y-74093161D01*
X145750687Y-74089271D01*
X145756682Y-74084058D01*
X145759690Y-74066155D01*
X145757053Y-74055963D01*
X145748183Y-74043301D01*
X145737965Y-74053911D01*
X145728638Y-74079162D01*
X142288842Y-74079162D01*
X142288949Y-74069595D01*
X142291732Y-74028484D01*
X142297653Y-74002320D01*
X142307762Y-73985105D01*
X142315219Y-73977520D01*
X142325247Y-73966562D01*
X142332437Y-73951844D01*
X142337255Y-73929097D01*
X142340168Y-73894049D01*
X142341643Y-73842432D01*
X142342148Y-73769975D01*
X142342183Y-73730976D01*
X142342420Y-73647783D01*
X142343488Y-73586794D01*
X142345918Y-73543249D01*
X142350245Y-73512391D01*
X142357000Y-73489460D01*
X142366716Y-73469698D01*
X142372517Y-73460056D01*
X142386781Y-73432497D01*
X142396998Y-73399369D01*
X142404387Y-73354461D01*
X142410169Y-73291560D01*
X142412539Y-73256235D01*
X142421035Y-73122062D01*
X142427739Y-73020452D01*
X151017007Y-73020452D01*
X151019807Y-73034100D01*
X151028530Y-73049388D01*
X151038323Y-73039485D01*
X151040073Y-73036418D01*
X151045596Y-73006668D01*
X151042796Y-72993020D01*
X151034072Y-72977733D01*
X151024280Y-72987636D01*
X151022530Y-72990703D01*
X151017007Y-73020452D01*
X142427739Y-73020452D01*
X142428288Y-73012128D01*
X142431997Y-72959633D01*
X146979974Y-72959633D01*
X146991512Y-72969767D01*
X147013679Y-72973114D01*
X147041226Y-72965741D01*
X147047384Y-72951449D01*
X147039344Y-72936222D01*
X147026059Y-72937967D01*
X147000373Y-72945242D01*
X146992354Y-72946151D01*
X146980327Y-72956443D01*
X146979974Y-72959633D01*
X142431997Y-72959633D01*
X142434533Y-72923751D01*
X142435423Y-72912446D01*
X147033902Y-72912446D01*
X147040643Y-72919187D01*
X147047384Y-72912446D01*
X147040643Y-72905705D01*
X147033902Y-72912446D01*
X142435423Y-72912446D01*
X142440008Y-72854245D01*
X142444949Y-72800928D01*
X142449593Y-72761116D01*
X142454176Y-72732126D01*
X142458937Y-72711273D01*
X142461287Y-72703564D01*
X142472357Y-72657158D01*
X142477002Y-72611394D01*
X142477002Y-72611137D01*
X142489454Y-72558867D01*
X142510707Y-72525751D01*
X142532788Y-72495974D01*
X142544723Y-72473043D01*
X142545341Y-72469877D01*
X142546029Y-72464729D01*
X150671737Y-72464729D01*
X150675237Y-72496169D01*
X150686112Y-72527887D01*
X150690207Y-72535274D01*
X150712931Y-72575414D01*
X150731157Y-72612472D01*
X150745557Y-72638737D01*
X150757245Y-72649548D01*
X150768888Y-72660500D01*
X150785049Y-72687551D01*
X150788532Y-72694632D01*
X150811994Y-72728975D01*
X150848075Y-72766507D01*
X150870189Y-72784870D01*
X150912576Y-72822548D01*
X150939224Y-72864490D01*
X150953004Y-72901568D01*
X150970856Y-72949361D01*
X150986196Y-72970820D01*
X150999494Y-72966412D01*
X151005799Y-72953945D01*
X151005643Y-72927895D01*
X150997564Y-72905644D01*
X150987417Y-72874575D01*
X150980182Y-72830560D01*
X150978707Y-72811916D01*
X150973390Y-72768090D01*
X150958635Y-72737091D01*
X150927941Y-72705621D01*
X150925850Y-72703778D01*
X150896619Y-72673257D01*
X150878804Y-72645296D01*
X150876259Y-72635143D01*
X150865420Y-72609264D01*
X150849295Y-72595620D01*
X150827969Y-72579244D01*
X150822331Y-72568459D01*
X150813226Y-72554243D01*
X150790162Y-72528569D01*
X150759519Y-72497681D01*
X150727676Y-72467828D01*
X150701010Y-72445254D01*
X150687718Y-72436643D01*
X150675826Y-72442058D01*
X150671737Y-72464729D01*
X142546029Y-72464729D01*
X142553269Y-72410581D01*
X142570258Y-72370231D01*
X142582856Y-72354946D01*
X142601329Y-72325203D01*
X142615898Y-72282280D01*
X142619392Y-72264483D01*
X142621107Y-72257658D01*
X153438751Y-72257658D01*
X153442395Y-72277985D01*
X153459346Y-72292019D01*
X153470678Y-72290739D01*
X153484058Y-72282280D01*
X153476767Y-72268816D01*
X153470546Y-72262397D01*
X153448973Y-72249039D01*
X153438751Y-72257658D01*
X142621107Y-72257658D01*
X142630398Y-72220684D01*
X142646918Y-72185040D01*
X142654068Y-72175878D01*
X142673618Y-72144169D01*
X142679231Y-72118045D01*
X142679508Y-72117010D01*
X153370420Y-72117010D01*
X153377161Y-72123751D01*
X153383902Y-72117010D01*
X153377161Y-72110269D01*
X153370420Y-72117010D01*
X142679508Y-72117010D01*
X142687740Y-72086293D01*
X142708646Y-72050682D01*
X142712936Y-72045318D01*
X142740514Y-71996379D01*
X142746941Y-71960022D01*
X142755236Y-71917176D01*
X142773605Y-71881076D01*
X142792754Y-71847156D01*
X142800269Y-71816604D01*
X142808089Y-71772871D01*
X142827025Y-71725680D01*
X142851390Y-71688169D01*
X142859149Y-71680567D01*
X142875961Y-71651307D01*
X142881461Y-71609143D01*
X142889013Y-71560851D01*
X142895946Y-71550956D01*
X144703449Y-71550956D01*
X144704918Y-71564089D01*
X144709926Y-71577199D01*
X144717623Y-71591155D01*
X144728417Y-71593054D01*
X144745962Y-71580521D01*
X144773911Y-71551184D01*
X144805063Y-71515365D01*
X144842033Y-71471646D01*
X144876151Y-71430337D01*
X144899727Y-71400768D01*
X144923511Y-71370203D01*
X144956805Y-71328007D01*
X144990730Y-71285409D01*
X145020780Y-71246011D01*
X145042644Y-71213801D01*
X145051978Y-71195227D01*
X145052055Y-71194406D01*
X145061778Y-71180588D01*
X145065537Y-71180015D01*
X145077498Y-71169095D01*
X145079019Y-71159792D01*
X145076516Y-71145334D01*
X145066899Y-71142379D01*
X145047003Y-71152578D01*
X145013664Y-71177579D01*
X144963718Y-71219034D01*
X144961000Y-71221337D01*
X144906433Y-71271217D01*
X144856164Y-71323709D01*
X144814038Y-71374123D01*
X144783898Y-71417766D01*
X144769588Y-71449950D01*
X144768934Y-71455731D01*
X144760336Y-71477982D01*
X144739238Y-71507132D01*
X144735229Y-71511597D01*
X144712322Y-71536649D01*
X144703449Y-71550956D01*
X142895946Y-71550956D01*
X142913061Y-71526531D01*
X142936757Y-71492457D01*
X142952164Y-71448880D01*
X142952973Y-71444350D01*
X142965168Y-71402066D01*
X142984196Y-71367069D01*
X142987233Y-71363458D01*
X143010900Y-71329482D01*
X143023316Y-71301774D01*
X143035943Y-71277268D01*
X143061657Y-71238447D01*
X143096138Y-71191593D01*
X143119239Y-71162236D01*
X143154508Y-71116733D01*
X151031446Y-71116733D01*
X151034756Y-71121562D01*
X151045899Y-71134507D01*
X151044427Y-71140146D01*
X151049933Y-71153495D01*
X151073052Y-71170405D01*
X151076414Y-71172201D01*
X151106252Y-71192433D01*
X151123502Y-71212927D01*
X151123618Y-71213221D01*
X151139433Y-71228829D01*
X151162857Y-71233480D01*
X151181936Y-71226650D01*
X151186344Y-71215976D01*
X151175510Y-71194783D01*
X151148362Y-71167975D01*
X151112931Y-71141532D01*
X151077245Y-71121434D01*
X151049337Y-71113659D01*
X151048944Y-71113669D01*
X151031446Y-71116733D01*
X143154508Y-71116733D01*
X143155457Y-71115508D01*
X143167042Y-71099123D01*
X153720951Y-71099123D01*
X153731211Y-71112213D01*
X153734433Y-71112605D01*
X153747523Y-71102345D01*
X153747915Y-71099123D01*
X153737656Y-71086033D01*
X153734433Y-71085641D01*
X153721343Y-71095900D01*
X153720951Y-71099123D01*
X143167042Y-71099123D01*
X143184115Y-71074977D01*
X143201511Y-71046083D01*
X143204200Y-71038454D01*
X150916705Y-71038454D01*
X150923446Y-71045195D01*
X150930187Y-71038454D01*
X150923446Y-71031713D01*
X150916705Y-71038454D01*
X143204200Y-71038454D01*
X143205028Y-71036106D01*
X143213845Y-71017490D01*
X143237221Y-70985990D01*
X143270540Y-70947682D01*
X143279178Y-70938490D01*
X143317637Y-70894404D01*
X143343645Y-70856866D01*
X143353328Y-70831476D01*
X143353329Y-70831280D01*
X143363499Y-70808315D01*
X143394078Y-70768473D01*
X143445170Y-70711633D01*
X143516876Y-70637673D01*
X143521853Y-70632671D01*
X143576493Y-70576581D01*
X143623741Y-70525688D01*
X143660501Y-70483525D01*
X143683675Y-70453623D01*
X143690378Y-70440465D01*
X143694395Y-70421464D01*
X143707853Y-70396612D01*
X143732861Y-70363304D01*
X143771531Y-70318938D01*
X143825971Y-70260907D01*
X143837376Y-70249167D01*
X152132002Y-70249167D01*
X152136403Y-70262565D01*
X152153229Y-70270807D01*
X152159151Y-70268681D01*
X152164825Y-70254388D01*
X152158444Y-70245767D01*
X152140318Y-70238044D01*
X152132002Y-70249167D01*
X143837376Y-70249167D01*
X143885514Y-70199613D01*
X143994474Y-70086858D01*
X144010848Y-70069231D01*
X151971172Y-70069231D01*
X151980459Y-70096641D01*
X152008095Y-70140192D01*
X152024190Y-70161569D01*
X152066954Y-70209970D01*
X152100777Y-70233814D01*
X152126554Y-70233648D01*
X152133474Y-70228391D01*
X152136942Y-70207523D01*
X152122478Y-70175766D01*
X152093605Y-70138560D01*
X152053848Y-70101347D01*
X152048431Y-70097076D01*
X152005655Y-70068124D01*
X151979737Y-70059284D01*
X151971172Y-70069231D01*
X144010848Y-70069231D01*
X144084241Y-69990219D01*
X144156109Y-69908287D01*
X144183121Y-69875636D01*
X144208746Y-69848202D01*
X144229753Y-69832832D01*
X144234225Y-69831651D01*
X144250262Y-69824480D01*
X144278377Y-69802307D01*
X144320007Y-69763804D01*
X144376588Y-69707646D01*
X144447121Y-69635044D01*
X144450667Y-69631431D01*
X151391277Y-69631431D01*
X151399697Y-69649575D01*
X151408120Y-69660990D01*
X151428169Y-69677719D01*
X151452924Y-69671667D01*
X151453992Y-69671102D01*
X151489543Y-69657590D01*
X151507516Y-69664510D01*
X151509911Y-69676231D01*
X151519839Y-69698594D01*
X151543640Y-69726521D01*
X151572341Y-69751258D01*
X151596968Y-69764051D01*
X151600302Y-69764410D01*
X151619361Y-69774997D01*
X151630418Y-69789823D01*
X151653108Y-69811915D01*
X151681450Y-69824621D01*
X151718697Y-69841046D01*
X151743000Y-69859877D01*
X151768378Y-69879603D01*
X151786816Y-69885747D01*
X151804414Y-69893430D01*
X151806514Y-69899664D01*
X151817800Y-69914642D01*
X151843102Y-69926977D01*
X151869590Y-69931539D01*
X151879845Y-69928979D01*
X151879340Y-69918896D01*
X151862993Y-69908279D01*
X151840058Y-69891125D01*
X151833478Y-69876523D01*
X151822479Y-69856625D01*
X151809884Y-69848925D01*
X151786016Y-69834281D01*
X151754060Y-69808192D01*
X151741805Y-69796778D01*
X151703799Y-69765461D01*
X151663977Y-69740630D01*
X151654172Y-69736112D01*
X151619417Y-69717439D01*
X151594987Y-69696517D01*
X151594487Y-69695848D01*
X151568366Y-69674359D01*
X151546403Y-69665199D01*
X151515900Y-69647528D01*
X151497872Y-69625547D01*
X151483756Y-69605116D01*
X151465644Y-69600537D01*
X151434731Y-69608259D01*
X151401781Y-69619986D01*
X151391277Y-69631431D01*
X144450667Y-69631431D01*
X144520412Y-69560374D01*
X144579254Y-69504514D01*
X144626277Y-69465406D01*
X144664111Y-69440993D01*
X144695385Y-69429217D01*
X144712569Y-69427361D01*
X144738506Y-69416842D01*
X144760953Y-69393656D01*
X144785646Y-69369216D01*
X144810755Y-69359951D01*
X144833857Y-69351457D01*
X144869484Y-69329014D01*
X144910552Y-69297177D01*
X144917113Y-69291552D01*
X144937532Y-69275689D01*
X146713865Y-69275689D01*
X146717776Y-69299748D01*
X146737458Y-69306023D01*
X146759286Y-69300746D01*
X146762428Y-69296170D01*
X150849295Y-69296170D01*
X150860299Y-69310859D01*
X150889136Y-69332863D01*
X150929184Y-69357200D01*
X150970146Y-69380732D01*
X151000447Y-69400045D01*
X151013446Y-69410869D01*
X151028516Y-69424186D01*
X151058187Y-69441629D01*
X151091851Y-69457756D01*
X151118900Y-69467125D01*
X151124418Y-69467807D01*
X151144494Y-69476898D01*
X151170444Y-69498966D01*
X151172205Y-69500812D01*
X151205838Y-69526958D01*
X151240838Y-69542082D01*
X151270655Y-69554023D01*
X151285508Y-69568699D01*
X151296217Y-69581867D01*
X151320646Y-69591662D01*
X151365355Y-69600703D01*
X151365875Y-69600790D01*
X151372519Y-69590765D01*
X151372616Y-69566330D01*
X151363490Y-69539175D01*
X151339049Y-69523389D01*
X151321163Y-69518044D01*
X151279605Y-69501700D01*
X151244777Y-69478893D01*
X151244148Y-69478315D01*
X151203562Y-69445882D01*
X151150991Y-69414692D01*
X151111120Y-69394795D01*
X151076927Y-69374812D01*
X151052398Y-69354260D01*
X151052171Y-69353989D01*
X151026746Y-69336304D01*
X151011491Y-69332987D01*
X150984948Y-69324570D01*
X150957151Y-69306023D01*
X150927615Y-69288773D01*
X150894009Y-69280152D01*
X150865173Y-69280968D01*
X150849944Y-69292029D01*
X150849295Y-69296170D01*
X146762428Y-69296170D01*
X146764263Y-69293497D01*
X146776299Y-69284178D01*
X146807383Y-69273176D01*
X146838414Y-69265577D01*
X146887658Y-69251804D01*
X146891010Y-69249577D01*
X150721137Y-69249577D01*
X150723580Y-69256706D01*
X150746011Y-69265027D01*
X150773652Y-69262306D01*
X150788208Y-69252772D01*
X150786909Y-69236749D01*
X150769363Y-69225094D01*
X150746285Y-69221955D01*
X150729490Y-69230026D01*
X150721137Y-69249577D01*
X146891010Y-69249577D01*
X146910759Y-69236458D01*
X146912565Y-69230493D01*
X146906006Y-69211444D01*
X146884147Y-69204627D01*
X146843711Y-69209793D01*
X146797968Y-69221745D01*
X146751578Y-69237098D01*
X146725918Y-69251382D01*
X146715184Y-69268319D01*
X146713865Y-69275689D01*
X144937532Y-69275689D01*
X144970871Y-69249788D01*
X145017361Y-69223335D01*
X145040385Y-69216119D01*
X145076891Y-69203763D01*
X145090186Y-69193483D01*
X146940236Y-69193483D01*
X146957464Y-69195676D01*
X146998343Y-69196764D01*
X147011598Y-69196952D01*
X147069730Y-69195424D01*
X147109555Y-69187935D01*
X147139374Y-69172897D01*
X147140169Y-69172335D01*
X147179940Y-69150267D01*
X147223142Y-69134161D01*
X147244658Y-69127738D01*
X147247444Y-69123801D01*
X147228898Y-69121555D01*
X147186421Y-69120204D01*
X147176894Y-69120011D01*
X147118958Y-69121079D01*
X147079440Y-69128007D01*
X147050150Y-69142294D01*
X147048323Y-69143571D01*
X147009217Y-69165531D01*
X146966000Y-69182338D01*
X146943976Y-69189324D01*
X146940236Y-69193483D01*
X145090186Y-69193483D01*
X145102741Y-69183775D01*
X145103006Y-69183403D01*
X145130078Y-69163003D01*
X145153409Y-69157722D01*
X145187880Y-69148196D01*
X145209943Y-69132547D01*
X145239427Y-69113173D01*
X145279440Y-69099260D01*
X145284185Y-69098313D01*
X145322015Y-69087805D01*
X145349426Y-69073844D01*
X145351873Y-69071689D01*
X145387788Y-69044804D01*
X145403179Y-69037933D01*
X147883032Y-69037933D01*
X147896194Y-69062149D01*
X147931309Y-69075589D01*
X147950252Y-69076830D01*
X147985272Y-69074922D01*
X148000899Y-69066302D01*
X148004597Y-69046629D01*
X148004603Y-69045215D01*
X147998655Y-69022998D01*
X150258059Y-69022998D01*
X150266526Y-69044587D01*
X150271735Y-69055973D01*
X150284057Y-69076213D01*
X150302596Y-69086478D01*
X150335680Y-69090032D01*
X150359368Y-69090312D01*
X150399299Y-69088276D01*
X150425438Y-69083039D01*
X150431354Y-69078272D01*
X150419497Y-69063225D01*
X150390417Y-69052538D01*
X150364493Y-69049866D01*
X150335395Y-69040119D01*
X150324250Y-69030549D01*
X150298083Y-69015016D01*
X150282154Y-69013195D01*
X150262593Y-69015305D01*
X150258059Y-69022998D01*
X147998655Y-69022998D01*
X147995648Y-69011769D01*
X147973849Y-68985501D01*
X147946809Y-68973090D01*
X147927193Y-68977183D01*
X147892979Y-69007944D01*
X147883032Y-69037933D01*
X145403179Y-69037933D01*
X145428324Y-69026707D01*
X145450317Y-69022902D01*
X145474012Y-69013009D01*
X145499350Y-68989221D01*
X145499368Y-68989197D01*
X145525864Y-68966847D01*
X150101313Y-68966847D01*
X150107788Y-68975715D01*
X150123161Y-68992423D01*
X150128011Y-68995938D01*
X150138208Y-68987075D01*
X150148233Y-68975715D01*
X150156304Y-68961251D01*
X150143837Y-68955976D01*
X150128011Y-68955492D01*
X150103326Y-68957642D01*
X150101313Y-68966847D01*
X145525864Y-68966847D01*
X145528478Y-68964642D01*
X145557572Y-68955492D01*
X145588619Y-68947010D01*
X145623860Y-68926157D01*
X145629320Y-68921788D01*
X145657270Y-68906602D01*
X149884047Y-68906602D01*
X149885277Y-68914951D01*
X149903627Y-68923966D01*
X149936648Y-68927989D01*
X149972587Y-68926945D01*
X149999692Y-68920759D01*
X150006252Y-68915728D01*
X150000494Y-68905668D01*
X149977017Y-68896764D01*
X149945059Y-68890934D01*
X149913852Y-68890097D01*
X149898064Y-68893247D01*
X149884047Y-68906602D01*
X145657270Y-68906602D01*
X145682331Y-68892986D01*
X145717488Y-68888083D01*
X145769859Y-68880564D01*
X145842916Y-68858328D01*
X145902513Y-68834744D01*
X149723188Y-68834744D01*
X149727626Y-68844903D01*
X149742979Y-68847637D01*
X149765353Y-68845465D01*
X149770739Y-68842338D01*
X149760103Y-68832135D01*
X149738924Y-68828689D01*
X149723298Y-68834571D01*
X149723188Y-68834744D01*
X145902513Y-68834744D01*
X145935074Y-68821859D01*
X145935123Y-68821838D01*
X145964617Y-68811197D01*
X146006535Y-68798273D01*
X146022756Y-68793709D01*
X146065795Y-68781151D01*
X146101582Y-68769344D01*
X146110388Y-68765974D01*
X146141405Y-68756952D01*
X146183222Y-68749073D01*
X146191280Y-68747972D01*
X146255362Y-68738248D01*
X146330503Y-68724381D01*
X146408190Y-68708188D01*
X146479909Y-68691486D01*
X146537148Y-68676090D01*
X146555293Y-68670289D01*
X146585765Y-68663701D01*
X146635293Y-68657232D01*
X146695978Y-68651796D01*
X146737299Y-68649265D01*
X146804922Y-68644370D01*
X146858081Y-68637435D01*
X146891681Y-68629218D01*
X146899083Y-68625284D01*
X146923168Y-68614649D01*
X146963109Y-68605822D01*
X147010820Y-68599533D01*
X147058216Y-68596513D01*
X147097212Y-68597491D01*
X147119721Y-68603198D01*
X147121673Y-68605185D01*
X147139999Y-68613490D01*
X147153233Y-68610747D01*
X147175268Y-68605917D01*
X147217652Y-68600243D01*
X147273818Y-68594508D01*
X147323764Y-68590438D01*
X147387788Y-68585616D01*
X147470602Y-68579127D01*
X147564131Y-68571618D01*
X147660300Y-68563734D01*
X147725882Y-68558253D01*
X147810601Y-68551489D01*
X147890442Y-68545814D01*
X147959783Y-68541575D01*
X148013008Y-68539119D01*
X148042708Y-68538725D01*
X148074626Y-68538822D01*
X148128578Y-68538038D01*
X148199651Y-68536486D01*
X148282933Y-68534278D01*
X148373511Y-68531526D01*
X148410382Y-68530308D01*
X148516949Y-68527116D01*
X148598861Y-68525654D01*
X148658375Y-68525958D01*
G37*
D11*
%TO.C,R8*%
X129420000Y-85630000D02*
X129420000Y-92170000D01*
X129420000Y-92170000D02*
X132160000Y-92170000D01*
X130790000Y-84860000D02*
X130790000Y-85630000D01*
X130790000Y-92940000D02*
X130790000Y-92170000D01*
X132160000Y-85630000D02*
X129420000Y-85630000D01*
X132160000Y-92170000D02*
X132160000Y-85630000D01*
%TO.C,R3*%
X164740000Y-84360000D02*
X164740000Y-90900000D01*
X164740000Y-90900000D02*
X167480000Y-90900000D01*
X166110000Y-83590000D02*
X166110000Y-84360000D01*
X166110000Y-91670000D02*
X166110000Y-90900000D01*
X167480000Y-84360000D02*
X164740000Y-84360000D01*
X167480000Y-90900000D02*
X167480000Y-84360000D01*
%TO.C,Arduino_Mega1*%
X125730000Y-65786000D02*
X171450000Y-65786000D01*
X171450000Y-60706000D01*
X125730000Y-60706000D01*
X125730000Y-65786000D01*
X125730000Y-135890000D02*
X128270000Y-135890000D01*
X128270000Y-118110000D01*
X125730000Y-118110000D01*
X125730000Y-135890000D01*
X173990000Y-108966000D02*
X176530000Y-108966000D01*
X176530000Y-88646000D01*
X173990000Y-88646000D01*
X173990000Y-108966000D01*
%TO.C,SW2*%
X145070000Y-111010000D02*
X145070000Y-112510000D01*
X146320000Y-115010000D02*
X150820000Y-115010000D01*
X150820000Y-108510000D02*
X146320000Y-108510000D01*
X152070000Y-112510000D02*
X152070000Y-111010000D01*
%TO.C,SW3*%
X156500000Y-116090000D02*
X156500000Y-117590000D01*
X157750000Y-120090000D02*
X162250000Y-120090000D01*
X162250000Y-113590000D02*
X157750000Y-113590000D01*
X163500000Y-117590000D02*
X163500000Y-116090000D01*
%TO.C,SW1*%
X133640000Y-116090000D02*
X133640000Y-117590000D01*
X134890000Y-120090000D02*
X139390000Y-120090000D01*
X139390000Y-113590000D02*
X134890000Y-113590000D01*
X140640000Y-117590000D02*
X140640000Y-116090000D01*
%TO.C,R2*%
X158520000Y-76468000D02*
X159290000Y-76468000D01*
X159290000Y-75098000D02*
X159290000Y-77838000D01*
X159290000Y-77838000D02*
X165830000Y-77838000D01*
X165830000Y-75098000D02*
X159290000Y-75098000D01*
X165830000Y-77838000D02*
X165830000Y-75098000D01*
X166600000Y-76468000D02*
X165830000Y-76468000D01*
%TO.C,R4*%
X170842000Y-84360000D02*
X170842000Y-90900000D01*
X170842000Y-90900000D02*
X173582000Y-90900000D01*
X172212000Y-83590000D02*
X172212000Y-84360000D01*
X172212000Y-91670000D02*
X172212000Y-90900000D01*
X173582000Y-84360000D02*
X170842000Y-84360000D01*
X173582000Y-90900000D02*
X173582000Y-84360000D01*
%TD*%
M02*
