%TF.GenerationSoftware,KiCad,Pcbnew,8.0.2-8.0.2-0~ubuntu22.04.1*%
%TF.CreationDate,2024-05-09T21:23:21-04:00*%
%TF.ProjectId,TEJ Final Project,54454a20-4669-46e6-916c-2050726f6a65,rev?*%
%TF.SameCoordinates,Original*%
%TF.FileFunction,Copper,L2,Bot*%
%TF.FilePolarity,Positive*%
%FSLAX46Y46*%
G04 Gerber Fmt 4.6, Leading zero omitted, Abs format (unit mm)*
G04 Created by KiCad (PCBNEW 8.0.2-8.0.2-0~ubuntu22.04.1) date 2024-05-09 21:23:21*
%MOMM*%
%LPD*%
G01*
G04 APERTURE LIST*
%TA.AperFunction,ComponentPad*%
%ADD10C,1.600000*%
%TD*%
%TA.AperFunction,ComponentPad*%
%ADD11O,1.600000X1.600000*%
%TD*%
%TA.AperFunction,ComponentPad*%
%ADD12C,2.000000*%
%TD*%
%TA.AperFunction,ComponentPad*%
%ADD13R,1.600000X2.400000*%
%TD*%
%TA.AperFunction,ComponentPad*%
%ADD14O,1.600000X2.400000*%
%TD*%
%TA.AperFunction,ComponentPad*%
%ADD15C,1.524000*%
%TD*%
%TA.AperFunction,ViaPad*%
%ADD16C,0.600000*%
%TD*%
%TA.AperFunction,Conductor*%
%ADD17C,1.000000*%
%TD*%
G04 APERTURE END LIST*
D10*
%TO.P,R5,1*%
%TO.N,Net-(U1-QE)*%
X129540000Y-72658000D03*
D11*
%TO.P,R5,2*%
%TO.N,Net-(LED_Matrix_8x1-R5)*%
X139700000Y-72658000D03*
%TD*%
D12*
%TO.P,SW4,1,1*%
%TO.N,Net-(U1-GND)*%
X145320000Y-120940000D03*
X151820000Y-120940000D03*
%TO.P,SW4,2,2*%
%TO.N,Net-(Arduino_Mega1-Pad37)*%
X145320000Y-125440000D03*
X151820000Y-125440000D03*
%TD*%
D13*
%TO.P,U1,1,QB*%
%TO.N,Net-(U1-QB)*%
X139680000Y-92710000D03*
D14*
%TO.P,U1,2,QC*%
%TO.N,Net-(U1-QC)*%
X142220000Y-92710000D03*
%TO.P,U1,3,QD*%
%TO.N,Net-(U1-QD)*%
X144760000Y-92710000D03*
%TO.P,U1,4,QE*%
%TO.N,Net-(U1-QE)*%
X147300000Y-92710000D03*
%TO.P,U1,5,QF*%
%TO.N,Net-(U1-QF)*%
X149840000Y-92710000D03*
%TO.P,U1,6,QG*%
%TO.N,Net-(U1-QG)*%
X152380000Y-92710000D03*
%TO.P,U1,7,QH*%
%TO.N,Net-(U1-QH)*%
X154920000Y-92710000D03*
%TO.P,U1,8,GND*%
%TO.N,Net-(U1-GND)*%
X157460000Y-92710000D03*
%TO.P,U1,9,QH'*%
%TO.N,unconnected-(U1-QH'-Pad9)*%
X157460000Y-85090000D03*
%TO.P,U1,10,~{SRCLR}*%
%TO.N,unconnected-(U1-~{SRCLR}-Pad10)*%
X154920000Y-85090000D03*
%TO.P,U1,11,SRCLK*%
%TO.N,Net-(U1-SRCLK)*%
X152380000Y-85090000D03*
%TO.P,U1,12,RCLK*%
%TO.N,Net-(U1-RCLK)*%
X149840000Y-85090000D03*
%TO.P,U1,13,~{OE}*%
%TO.N,Net-(U1-GND)*%
X147300000Y-85090000D03*
%TO.P,U1,14,SER*%
%TO.N,Net-(U1-SER)*%
X144760000Y-85090000D03*
%TO.P,U1,15,QA*%
%TO.N,Net-(U1-QA)*%
X142220000Y-85090000D03*
%TO.P,U1,16,VCC*%
%TO.N,Net-(U1-VCC)*%
X139680000Y-85090000D03*
%TD*%
D10*
%TO.P,R7,1*%
%TO.N,Net-(U1-QG)*%
X126740000Y-93980000D03*
D11*
%TO.P,R7,2*%
%TO.N,Net-(LED_Matrix_8x1-R7)*%
X126740000Y-83820000D03*
%TD*%
D10*
%TO.P,R6,1*%
%TO.N,Net-(U1-QF)*%
X129540000Y-76708000D03*
D11*
%TO.P,R6,2*%
%TO.N,Net-(LED_Matrix_8x1-R6)*%
X139700000Y-76708000D03*
%TD*%
D10*
%TO.P,R1,1*%
%TO.N,Net-(U1-QA)*%
X157480000Y-72418000D03*
D11*
%TO.P,R1,2*%
%TO.N,Net-(LED_Matrix_8x1-R1)*%
X167640000Y-72418000D03*
%TD*%
D15*
%TO.P,LED_Matrix_8x1,1,R5*%
%TO.N,Net-(LED_Matrix_8x1-R5)*%
X139453000Y-98719000D03*
%TO.P,LED_Matrix_8x1,2,R7*%
%TO.N,Net-(LED_Matrix_8x1-R7)*%
X141993000Y-98719000D03*
%TO.P,LED_Matrix_8x1,3,C2*%
%TO.N,Net-(LED_Matrix_8x1-C2)*%
X144533000Y-98719000D03*
%TO.P,LED_Matrix_8x1,4,C3*%
%TO.N,Net-(LED_Matrix_8x1-C3)*%
X147073000Y-98719000D03*
%TO.P,LED_Matrix_8x1,5,R8*%
%TO.N,Net-(LED_Matrix_8x1-R8)*%
X149613000Y-98719000D03*
%TO.P,LED_Matrix_8x1,6,C5*%
%TO.N,Net-(LED_Matrix_8x1-C5)*%
X152153000Y-98719000D03*
%TO.P,LED_Matrix_8x1,7,R6*%
%TO.N,Net-(LED_Matrix_8x1-R6)*%
X154693000Y-98719000D03*
%TO.P,LED_Matrix_8x1,8,R3*%
%TO.N,Net-(LED_Matrix_8x1-R3)*%
X157233000Y-98719000D03*
%TO.P,LED_Matrix_8x1,9,R1*%
%TO.N,Net-(LED_Matrix_8x1-R1)*%
X157233000Y-52999000D03*
%TO.P,LED_Matrix_8x1,10,C4*%
%TO.N,Net-(LED_Matrix_8x1-C4)*%
X154693000Y-52999000D03*
%TO.P,LED_Matrix_8x1,11,C6*%
%TO.N,Net-(LED_Matrix_8x1-C6)*%
X152153000Y-52999000D03*
%TO.P,LED_Matrix_8x1,12,R4*%
%TO.N,Net-(LED_Matrix_8x1-R4)*%
X149613000Y-52999000D03*
%TO.P,LED_Matrix_8x1,13,C1*%
%TO.N,Net-(LED_Matrix_8x1-C1)*%
X147073000Y-52999000D03*
%TO.P,LED_Matrix_8x1,14,R2*%
%TO.N,Net-(LED_Matrix_8x1-R2)*%
X144533000Y-52999000D03*
%TO.P,LED_Matrix_8x1,15,C7*%
%TO.N,Net-(LED_Matrix_8x1-C7)*%
X141993000Y-52999000D03*
%TO.P,LED_Matrix_8x1,16,C8*%
%TO.N,Net-(LED_Matrix_8x1-C8)*%
X139453000Y-52999000D03*
%TD*%
D10*
%TO.P,R8,1*%
%TO.N,Net-(U1-QH)*%
X130790000Y-93980000D03*
D11*
%TO.P,R8,2*%
%TO.N,Net-(LED_Matrix_8x1-R8)*%
X130790000Y-83820000D03*
%TD*%
D10*
%TO.P,R3,1*%
%TO.N,Net-(U1-QC)*%
X166110000Y-92710000D03*
D11*
%TO.P,R3,2*%
%TO.N,Net-(LED_Matrix_8x1-R3)*%
X166110000Y-82550000D03*
%TD*%
D15*
%TO.P,Arduino_Mega1,5V*%
%TO.N,Net-(U1-VCC)*%
X127000000Y-64516000D03*
X127000000Y-61976000D03*
%TO.P,Arduino_Mega1,22*%
%TO.N,Net-(LED_Matrix_8x1-C1)*%
X129540000Y-64516000D03*
%TO.P,Arduino_Mega1,23*%
%TO.N,Net-(LED_Matrix_8x1-C2)*%
X129540000Y-61976000D03*
%TO.P,Arduino_Mega1,24*%
%TO.N,Net-(LED_Matrix_8x1-C3)*%
X132080000Y-64516000D03*
%TO.P,Arduino_Mega1,25*%
%TO.N,Net-(LED_Matrix_8x1-C4)*%
X132080000Y-61976000D03*
%TO.P,Arduino_Mega1,26*%
%TO.N,Net-(LED_Matrix_8x1-C5)*%
X134620000Y-64516000D03*
%TO.P,Arduino_Mega1,27*%
%TO.N,Net-(LED_Matrix_8x1-C6)*%
X134620000Y-61976000D03*
%TO.P,Arduino_Mega1,28*%
%TO.N,Net-(LED_Matrix_8x1-C7)*%
X137160000Y-64516000D03*
%TO.P,Arduino_Mega1,29*%
%TO.N,Net-(LED_Matrix_8x1-C8)*%
X137160000Y-61976000D03*
%TO.P,Arduino_Mega1,30*%
%TO.N,Net-(U1-SER)*%
X139700000Y-64516000D03*
%TO.P,Arduino_Mega1,31*%
%TO.N,Net-(Arduino_Mega1-Pad31)*%
X139700000Y-61976000D03*
%TO.P,Arduino_Mega1,32*%
%TO.N,Net-(U1-SRCLK)*%
X142240000Y-64516000D03*
%TO.P,Arduino_Mega1,33*%
%TO.N,Net-(Arduino_Mega1-Pad33)*%
X142240000Y-61976000D03*
%TO.P,Arduino_Mega1,34*%
%TO.N,Net-(U1-RCLK)*%
X144780000Y-64516000D03*
%TO.P,Arduino_Mega1,35*%
%TO.N,Net-(Arduino_Mega1-Pad35)*%
X144780000Y-61976000D03*
%TO.P,Arduino_Mega1,36*%
%TO.N,unconnected-(Arduino_Mega1-Pad36)*%
X147320000Y-64516000D03*
%TO.P,Arduino_Mega1,37*%
%TO.N,Net-(Arduino_Mega1-Pad37)*%
X147320000Y-61976000D03*
%TO.P,Arduino_Mega1,38*%
%TO.N,unconnected-(Arduino_Mega1-Pad38)*%
X149860000Y-64516000D03*
%TO.P,Arduino_Mega1,39*%
%TO.N,unconnected-(Arduino_Mega1-Pad39)*%
X149860000Y-61976000D03*
%TO.P,Arduino_Mega1,40*%
%TO.N,unconnected-(Arduino_Mega1-Pad40)*%
X152400000Y-64516000D03*
%TO.P,Arduino_Mega1,41*%
%TO.N,unconnected-(Arduino_Mega1-Pad41)*%
X152400000Y-61976000D03*
%TO.P,Arduino_Mega1,42*%
%TO.N,unconnected-(Arduino_Mega1-Pad42)*%
X154940000Y-64516000D03*
%TO.P,Arduino_Mega1,43*%
%TO.N,unconnected-(Arduino_Mega1-Pad43)*%
X154940000Y-61976000D03*
%TO.P,Arduino_Mega1,44*%
%TO.N,unconnected-(Arduino_Mega1-Pad44)*%
X157480000Y-64516000D03*
%TO.P,Arduino_Mega1,45*%
%TO.N,unconnected-(Arduino_Mega1-Pad45)*%
X157480000Y-61976000D03*
%TO.P,Arduino_Mega1,46*%
%TO.N,unconnected-(Arduino_Mega1-Pad46)*%
X160020000Y-64516000D03*
%TO.P,Arduino_Mega1,47*%
%TO.N,unconnected-(Arduino_Mega1-Pad47)*%
X160020000Y-61976000D03*
%TO.P,Arduino_Mega1,48*%
%TO.N,unconnected-(Arduino_Mega1-Pad48)*%
X162560000Y-64516000D03*
%TO.P,Arduino_Mega1,49*%
%TO.N,unconnected-(Arduino_Mega1-Pad49)*%
X162560000Y-61976000D03*
%TO.P,Arduino_Mega1,50*%
%TO.N,unconnected-(Arduino_Mega1-Pad50)*%
X165100000Y-64516000D03*
%TO.P,Arduino_Mega1,51*%
%TO.N,unconnected-(Arduino_Mega1-Pad51)*%
X165100000Y-61976000D03*
%TO.P,Arduino_Mega1,52*%
%TO.N,unconnected-(Arduino_Mega1-Pad52)*%
X167640000Y-64516000D03*
%TO.P,Arduino_Mega1,53*%
%TO.N,unconnected-(Arduino_Mega1-Pad53)*%
X167640000Y-61976000D03*
%TO.P,Arduino_Mega1,D*%
%TO.N,unconnected-(Arduino_Mega1-PadD)_3*%
X127000000Y-134620000D03*
%TO.N,unconnected-(Arduino_Mega1-PadD)_5*%
X127000000Y-127000000D03*
%TO.N,unconnected-(Arduino_Mega1-PadD)*%
X127000000Y-119380000D03*
%TO.N,unconnected-(Arduino_Mega1-PadD)_2*%
X175260000Y-107696000D03*
%TO.N,unconnected-(Arduino_Mega1-PadD)_0*%
X175260000Y-102616000D03*
%TO.N,unconnected-(Arduino_Mega1-PadD)_1*%
X175260000Y-94996000D03*
%TO.N,unconnected-(Arduino_Mega1-PadD)_4*%
X175260000Y-89916000D03*
%TO.P,Arduino_Mega1,GND*%
%TO.N,Net-(U1-GND)*%
X170180000Y-64516000D03*
X170180000Y-61976000D03*
%TD*%
D12*
%TO.P,SW2,1,1*%
%TO.N,Net-(U1-GND)*%
X145320000Y-109510000D03*
X151820000Y-109510000D03*
%TO.P,SW2,2,2*%
%TO.N,Net-(Arduino_Mega1-Pad31)*%
X145320000Y-114010000D03*
X151820000Y-114010000D03*
%TD*%
%TO.P,SW3,1,1*%
%TO.N,Net-(U1-GND)*%
X156750000Y-114590000D03*
X163250000Y-114590000D03*
%TO.P,SW3,2,2*%
%TO.N,Net-(Arduino_Mega1-Pad33)*%
X156750000Y-119090000D03*
X163250000Y-119090000D03*
%TD*%
%TO.P,SW1,1,1*%
%TO.N,Net-(U1-GND)*%
X133890000Y-114590000D03*
X140390000Y-114590000D03*
%TO.P,SW1,2,2*%
%TO.N,Net-(Arduino_Mega1-Pad35)*%
X133890000Y-119090000D03*
X140390000Y-119090000D03*
%TD*%
D10*
%TO.P,R2,1*%
%TO.N,Net-(U1-QB)*%
X157480000Y-76468000D03*
D11*
%TO.P,R2,2*%
%TO.N,Net-(LED_Matrix_8x1-R2)*%
X167640000Y-76468000D03*
%TD*%
D10*
%TO.P,R4,1*%
%TO.N,Net-(U1-QD)*%
X172212000Y-92710000D03*
D11*
%TO.P,R4,2*%
%TO.N,Net-(LED_Matrix_8x1-R4)*%
X172212000Y-82550000D03*
%TD*%
D16*
%TO.N,Net-(LED_Matrix_8x1-C5)*%
X123190000Y-72390000D03*
X136779000Y-67691000D03*
X151130000Y-105410000D03*
%TO.N,Net-(U1-GND)*%
X121158000Y-80264000D03*
X136144000Y-81026000D03*
%TO.N,Net-(U1-VCC)*%
X121158000Y-77470000D03*
X136144000Y-78740000D03*
X130302000Y-58674000D03*
%TD*%
D17*
%TO.N,Net-(LED_Matrix_8x1-C5)*%
X151130000Y-105410000D02*
X152153000Y-104387000D01*
X152153000Y-104387000D02*
X152153000Y-98719000D01*
X135382000Y-68834000D02*
X133604000Y-70612000D01*
X124968000Y-70612000D02*
X123190000Y-72390000D01*
X136779000Y-67691000D02*
X136779000Y-68199000D01*
X133604000Y-70612000D02*
X124968000Y-70612000D01*
X136144000Y-68834000D02*
X135382000Y-68834000D01*
X136779000Y-68199000D02*
X136144000Y-68834000D01*
%TO.N,Net-(LED_Matrix_8x1-C7)*%
X137160000Y-64770000D02*
X137160000Y-64516000D01*
X140970000Y-54864000D02*
X126238000Y-54864000D01*
X121920000Y-59182000D02*
X121920000Y-65278000D01*
X121920000Y-65278000D02*
X125396450Y-68754450D01*
X133175550Y-68754450D02*
X137160000Y-64770000D01*
X141993000Y-52999000D02*
X141993000Y-53841000D01*
X125396450Y-68754450D02*
X133175550Y-68754450D01*
X141993000Y-53841000D02*
X140970000Y-54864000D01*
X126238000Y-54864000D02*
X121920000Y-59182000D01*
%TO.N,Net-(U1-SER)*%
X159512000Y-79248000D02*
X159512000Y-71628000D01*
X144760000Y-84094000D02*
X147828000Y-81026000D01*
X144018000Y-70104000D02*
X139700000Y-65786000D01*
X144760000Y-85090000D02*
X144760000Y-84094000D01*
X157988000Y-70104000D02*
X144018000Y-70104000D01*
X139700000Y-65786000D02*
X139700000Y-64516000D01*
X159512000Y-71628000D02*
X157988000Y-70104000D01*
X147828000Y-81026000D02*
X157734000Y-81026000D01*
X157734000Y-81026000D02*
X159512000Y-79248000D01*
%TO.N,Net-(U1-SRCLK)*%
X158496000Y-82804000D02*
X153670000Y-82804000D01*
X145542000Y-68580000D02*
X158877000Y-68580000D01*
X153670000Y-82804000D02*
X152380000Y-84094000D01*
X142240000Y-64516000D02*
X142240000Y-65278000D01*
X152380000Y-84094000D02*
X152380000Y-85090000D01*
X161036000Y-80264000D02*
X158496000Y-82804000D01*
X142240000Y-65278000D02*
X145542000Y-68580000D01*
X161036000Y-70739000D02*
X161036000Y-80264000D01*
X158877000Y-68580000D02*
X161036000Y-70739000D01*
%TO.N,Net-(U1-GND)*%
X136144000Y-81026000D02*
X135382000Y-80264000D01*
X135382000Y-80264000D02*
X121158000Y-80264000D01*
%TO.N,Net-(LED_Matrix_8x1-C1)*%
X124440000Y-65004000D02*
X125984000Y-66548000D01*
X147073000Y-52999000D02*
X147073000Y-53841000D01*
X125984000Y-66548000D02*
X128524000Y-66548000D01*
X124440000Y-59629056D02*
X124440000Y-65004000D01*
X144018000Y-56896000D02*
X127173056Y-56896000D01*
X128524000Y-66548000D02*
X129540000Y-65532000D01*
X147073000Y-53841000D02*
X144018000Y-56896000D01*
X127173056Y-56896000D02*
X124440000Y-59629056D01*
X129540000Y-65532000D02*
X129540000Y-64516000D01*
%TO.N,Net-(U1-RCLK)*%
X158496000Y-87376000D02*
X162560000Y-83312000D01*
X162560000Y-83312000D02*
X162560000Y-69850000D01*
X159566428Y-66856428D02*
X146612428Y-66856428D01*
X146612428Y-66856428D02*
X144780000Y-65024000D01*
X149840000Y-85090000D02*
X149840000Y-86340000D01*
X150876000Y-87376000D02*
X158496000Y-87376000D01*
X144780000Y-65024000D02*
X144780000Y-64516000D01*
X162560000Y-69850000D02*
X159566428Y-66856428D01*
X149840000Y-86340000D02*
X150876000Y-87376000D01*
%TO.N,Net-(LED_Matrix_8x1-C6)*%
X137668000Y-58928000D02*
X134620000Y-61976000D01*
X147320000Y-58928000D02*
X137668000Y-58928000D01*
X152153000Y-54095000D02*
X147320000Y-58928000D01*
X152153000Y-52999000D02*
X152153000Y-54095000D01*
%TO.N,Net-(LED_Matrix_8x1-R6)*%
X141732000Y-71628000D02*
X141732000Y-74676000D01*
X154693000Y-98719000D02*
X154693000Y-104387000D01*
X117348000Y-78740000D02*
X121412000Y-74676000D01*
X140716000Y-70612000D02*
X141732000Y-71628000D01*
X136144000Y-70612000D02*
X140716000Y-70612000D01*
X126746000Y-106934000D02*
X117348000Y-97536000D01*
X154693000Y-104387000D02*
X152146000Y-106934000D01*
X132080000Y-74676000D02*
X136144000Y-70612000D01*
X141732000Y-74676000D02*
X139700000Y-76708000D01*
X152146000Y-106934000D02*
X126746000Y-106934000D01*
X121412000Y-74676000D02*
X132080000Y-74676000D01*
X117348000Y-97536000D02*
X117348000Y-78740000D01*
%TO.N,Net-(LED_Matrix_8x1-R1)*%
X172212000Y-68580000D02*
X168374000Y-72418000D01*
X172212000Y-57912000D02*
X172212000Y-68580000D01*
X168374000Y-72418000D02*
X167640000Y-72418000D01*
X167299000Y-52999000D02*
X172212000Y-57912000D01*
X157233000Y-52999000D02*
X167299000Y-52999000D01*
%TO.N,Net-(LED_Matrix_8x1-R7)*%
X126740000Y-83820000D02*
X120904000Y-89656000D01*
X126746000Y-101854000D02*
X139700000Y-101854000D01*
X139700000Y-101854000D02*
X141993000Y-99561000D01*
X141993000Y-99561000D02*
X141993000Y-98719000D01*
X120904000Y-96012000D02*
X126746000Y-101854000D01*
X120904000Y-89656000D02*
X120904000Y-96012000D01*
%TO.N,Net-(LED_Matrix_8x1-R4)*%
X150876000Y-50800000D02*
X167894000Y-50800000D01*
X174244000Y-57150000D02*
X174244000Y-69088000D01*
X166878000Y-74422000D02*
X165608000Y-75692000D01*
X149613000Y-52999000D02*
X149613000Y-52063000D01*
X165608000Y-77216000D02*
X166878000Y-78486000D01*
X165608000Y-75692000D02*
X165608000Y-77216000D01*
X168148000Y-78486000D02*
X172212000Y-82550000D01*
X166878000Y-78486000D02*
X168148000Y-78486000D01*
X174244000Y-69088000D02*
X168910000Y-74422000D01*
X149613000Y-52063000D02*
X150876000Y-50800000D01*
X167894000Y-50800000D02*
X174244000Y-57150000D01*
X168910000Y-74422000D02*
X166878000Y-74422000D01*
%TO.N,Net-(LED_Matrix_8x1-R2)*%
X144533000Y-52999000D02*
X144533000Y-51047000D01*
X176276000Y-56134000D02*
X176276000Y-69596000D01*
X169404000Y-76468000D02*
X167640000Y-76468000D01*
X144533000Y-51047000D02*
X146812000Y-48768000D01*
X168910000Y-48768000D02*
X176276000Y-56134000D01*
X176276000Y-69596000D02*
X169404000Y-76468000D01*
X146812000Y-48768000D02*
X168910000Y-48768000D01*
%TO.N,Net-(LED_Matrix_8x1-R3)*%
X170180000Y-95250000D02*
X166711000Y-98719000D01*
X166110000Y-82550000D02*
X170180000Y-86620000D01*
X166711000Y-98719000D02*
X157233000Y-98719000D01*
X170180000Y-86620000D02*
X170180000Y-95250000D01*
%TO.N,Net-(LED_Matrix_8x1-R5)*%
X139453000Y-99307000D02*
X139453000Y-98719000D01*
X138684000Y-100076000D02*
X139453000Y-99307000D01*
X134620000Y-85852000D02*
X129540000Y-85852000D01*
X122682000Y-90170000D02*
X122682000Y-95250000D01*
X137668000Y-82804000D02*
X134620000Y-85852000D01*
X139700000Y-72658000D02*
X137668000Y-74690000D01*
X129540000Y-85852000D02*
X127508000Y-87884000D01*
X124968000Y-87884000D02*
X122682000Y-90170000D01*
X122682000Y-95250000D02*
X127508000Y-100076000D01*
X127508000Y-87884000D02*
X124968000Y-87884000D01*
X127508000Y-100076000D02*
X138684000Y-100076000D01*
X137668000Y-74690000D02*
X137668000Y-82804000D01*
%TO.N,Net-(LED_Matrix_8x1-R8)*%
X130790000Y-83820000D02*
X128758000Y-81788000D01*
X119126000Y-87630000D02*
X119126000Y-96774000D01*
X125984000Y-103632000D02*
X147320000Y-103632000D01*
X128758000Y-81788000D02*
X124968000Y-81788000D01*
X147320000Y-103632000D02*
X149613000Y-101339000D01*
X124968000Y-81788000D02*
X119126000Y-87630000D01*
X149613000Y-101339000D02*
X149613000Y-98719000D01*
X119126000Y-96774000D02*
X125984000Y-103632000D01*
%TO.N,Net-(U1-QA)*%
X146929000Y-79248000D02*
X142220000Y-83957000D01*
X150650000Y-79248000D02*
X146929000Y-79248000D01*
X157480000Y-72418000D02*
X150650000Y-79248000D01*
X142220000Y-83957000D02*
X142220000Y-85090000D01*
%TO.N,Net-(U1-QC)*%
X143510000Y-94996000D02*
X142220000Y-93706000D01*
X142220000Y-93706000D02*
X142220000Y-92710000D01*
X166110000Y-92710000D02*
X163824000Y-94996000D01*
X163824000Y-94996000D02*
X143510000Y-94996000D01*
%TO.N,Net-(U1-QD)*%
X137404000Y-90424000D02*
X136144000Y-91684000D01*
X144760000Y-91420000D02*
X143764000Y-90424000D01*
X168148000Y-94234000D02*
X168148000Y-87376000D01*
X165100000Y-80772000D02*
X167132000Y-80772000D01*
X167132000Y-80772000D02*
X172212000Y-85852000D01*
X172212000Y-85852000D02*
X172212000Y-92710000D01*
X168148000Y-87376000D02*
X164084000Y-83312000D01*
X165608000Y-96774000D02*
X168148000Y-94234000D01*
X144760000Y-92710000D02*
X144760000Y-91420000D01*
X136144000Y-94254000D02*
X138664000Y-96774000D01*
X143764000Y-90424000D02*
X137404000Y-90424000D01*
X164084000Y-83312000D02*
X164084000Y-81788000D01*
X136144000Y-91684000D02*
X136144000Y-94254000D01*
X138664000Y-96774000D02*
X165608000Y-96774000D01*
X164084000Y-81788000D02*
X165100000Y-80772000D01*
%TO.N,Net-(U1-QG)*%
X147066000Y-90424000D02*
X151130000Y-90424000D01*
X145542000Y-88900000D02*
X147066000Y-90424000D01*
X152380000Y-91674000D02*
X152380000Y-92710000D01*
X151130000Y-90424000D02*
X152380000Y-91674000D01*
X126740000Y-93980000D02*
X131820000Y-88900000D01*
X131820000Y-88900000D02*
X145542000Y-88900000D01*
%TO.N,Net-(U1-QH)*%
X126330112Y-96520000D02*
X124460000Y-94649888D01*
X126939225Y-90142642D02*
X128285735Y-90142642D01*
X124460000Y-92621867D02*
X126939225Y-90142642D01*
X128285735Y-90142642D02*
X131052377Y-87376000D01*
X128250000Y-96520000D02*
X126330112Y-96520000D01*
X130790000Y-93980000D02*
X128250000Y-96520000D01*
X124460000Y-94649888D02*
X124460000Y-92621867D01*
X146558000Y-87376000D02*
X148082000Y-88900000D01*
X148082000Y-88900000D02*
X152400000Y-88900000D01*
X131052377Y-87376000D02*
X146558000Y-87376000D01*
X152400000Y-88900000D02*
X154920000Y-91420000D01*
X154920000Y-91420000D02*
X154920000Y-92710000D01*
%TO.N,Net-(U1-VCC)*%
X122428000Y-78740000D02*
X136144000Y-78740000D01*
X127000000Y-60960000D02*
X128016000Y-59944000D01*
X121158000Y-77470000D02*
X122428000Y-78740000D01*
X130302000Y-59436000D02*
X130302000Y-58674000D01*
X129794000Y-59944000D02*
X130302000Y-59436000D01*
X127000000Y-61976000D02*
X127000000Y-60960000D01*
X128016000Y-59944000D02*
X129794000Y-59944000D01*
%TD*%
%TA.AperFunction,Conductor*%
%TO.N,Net-(U1-GND)*%
G36*
X180441539Y-45307185D02*
G01*
X180487294Y-45359989D01*
X180498500Y-45411500D01*
X180498500Y-136198500D01*
X180478815Y-136265539D01*
X180426011Y-136311294D01*
X180374500Y-136322500D01*
X116765500Y-136322500D01*
X116698461Y-136302815D01*
X116652706Y-136250011D01*
X116641500Y-136198500D01*
X116641500Y-134619997D01*
X125724647Y-134619997D01*
X125724647Y-134620002D01*
X125744021Y-134841457D01*
X125744022Y-134841465D01*
X125801558Y-135056191D01*
X125801559Y-135056193D01*
X125801560Y-135056196D01*
X125848536Y-135156936D01*
X125895511Y-135257676D01*
X125895512Y-135257677D01*
X126023023Y-135439781D01*
X126180219Y-135596977D01*
X126362323Y-135724488D01*
X126563804Y-135818440D01*
X126778537Y-135875978D01*
X126936724Y-135889817D01*
X126999998Y-135895353D01*
X127000000Y-135895353D01*
X127000002Y-135895353D01*
X127055365Y-135890509D01*
X127221463Y-135875978D01*
X127436196Y-135818440D01*
X127637677Y-135724488D01*
X127819781Y-135596977D01*
X127976977Y-135439781D01*
X128104488Y-135257677D01*
X128198440Y-135056196D01*
X128255978Y-134841463D01*
X128275353Y-134620000D01*
X128255978Y-134398537D01*
X128198440Y-134183804D01*
X128104488Y-133982324D01*
X128104486Y-133982321D01*
X128104485Y-133982319D01*
X127976978Y-133800220D01*
X127976975Y-133800217D01*
X127819781Y-133643023D01*
X127637677Y-133515512D01*
X127637678Y-133515512D01*
X127637676Y-133515511D01*
X127536936Y-133468536D01*
X127436196Y-133421560D01*
X127436193Y-133421559D01*
X127436191Y-133421558D01*
X127221465Y-133364022D01*
X127221457Y-133364021D01*
X127000002Y-133344647D01*
X126999998Y-133344647D01*
X126778542Y-133364021D01*
X126778535Y-133364022D01*
X126563800Y-133421561D01*
X126362323Y-133515512D01*
X126362319Y-133515514D01*
X126180217Y-133643023D01*
X126023023Y-133800217D01*
X125895514Y-133982319D01*
X125895512Y-133982323D01*
X125801561Y-134183800D01*
X125744022Y-134398535D01*
X125744021Y-134398542D01*
X125724647Y-134619997D01*
X116641500Y-134619997D01*
X116641500Y-126999997D01*
X125724647Y-126999997D01*
X125724647Y-127000002D01*
X125744021Y-127221457D01*
X125744022Y-127221465D01*
X125801558Y-127436191D01*
X125801559Y-127436193D01*
X125801560Y-127436196D01*
X125848536Y-127536936D01*
X125895511Y-127637676D01*
X125895512Y-127637677D01*
X126023023Y-127819781D01*
X126180219Y-127976977D01*
X126362323Y-128104488D01*
X126563804Y-128198440D01*
X126778537Y-128255978D01*
X126936724Y-128269817D01*
X126999998Y-128275353D01*
X127000000Y-128275353D01*
X127000002Y-128275353D01*
X127055365Y-128270509D01*
X127221463Y-128255978D01*
X127436196Y-128198440D01*
X127637677Y-128104488D01*
X127819781Y-127976977D01*
X127976977Y-127819781D01*
X128104488Y-127637677D01*
X128198440Y-127436196D01*
X128255978Y-127221463D01*
X128275353Y-127000000D01*
X128271255Y-126953164D01*
X128256827Y-126788242D01*
X128255978Y-126778537D01*
X128198440Y-126563804D01*
X128104488Y-126362324D01*
X128104486Y-126362321D01*
X128104485Y-126362319D01*
X127976978Y-126180220D01*
X127923717Y-126126959D01*
X127819781Y-126023023D01*
X127654936Y-125907597D01*
X127637676Y-125895511D01*
X127536936Y-125848536D01*
X127436196Y-125801560D01*
X127436193Y-125801559D01*
X127436191Y-125801558D01*
X127221465Y-125744022D01*
X127221457Y-125744021D01*
X127000002Y-125724647D01*
X126999998Y-125724647D01*
X126778542Y-125744021D01*
X126778535Y-125744022D01*
X126563800Y-125801561D01*
X126362323Y-125895512D01*
X126362319Y-125895514D01*
X126180217Y-126023023D01*
X126023023Y-126180217D01*
X125895514Y-126362319D01*
X125895512Y-126362323D01*
X125801561Y-126563800D01*
X125744022Y-126778535D01*
X125744021Y-126778542D01*
X125724647Y-126999997D01*
X116641500Y-126999997D01*
X116641500Y-125440000D01*
X143806835Y-125440000D01*
X143825465Y-125676714D01*
X143880895Y-125907595D01*
X143880895Y-125907597D01*
X143971757Y-126126959D01*
X143971759Y-126126962D01*
X144095820Y-126329410D01*
X144095821Y-126329413D01*
X144095824Y-126329416D01*
X144250031Y-126509969D01*
X144313064Y-126563804D01*
X144430586Y-126664178D01*
X144430589Y-126664179D01*
X144633037Y-126788240D01*
X144633040Y-126788242D01*
X144852403Y-126879104D01*
X144852404Y-126879104D01*
X144852406Y-126879105D01*
X145083289Y-126934535D01*
X145320000Y-126953165D01*
X145556711Y-126934535D01*
X145787594Y-126879105D01*
X145787596Y-126879104D01*
X145787597Y-126879104D01*
X146006959Y-126788242D01*
X146006960Y-126788241D01*
X146006963Y-126788240D01*
X146209416Y-126664176D01*
X146389969Y-126509969D01*
X146544176Y-126329416D01*
X146668240Y-126126963D01*
X146759105Y-125907594D01*
X146814535Y-125676711D01*
X146833165Y-125440000D01*
X150306835Y-125440000D01*
X150325465Y-125676714D01*
X150380895Y-125907595D01*
X150380895Y-125907597D01*
X150471757Y-126126959D01*
X150471759Y-126126962D01*
X150595820Y-126329410D01*
X150595821Y-126329413D01*
X150595824Y-126329416D01*
X150750031Y-126509969D01*
X150813064Y-126563804D01*
X150930586Y-126664178D01*
X150930589Y-126664179D01*
X151133037Y-126788240D01*
X151133040Y-126788242D01*
X151352403Y-126879104D01*
X151352404Y-126879104D01*
X151352406Y-126879105D01*
X151583289Y-126934535D01*
X151820000Y-126953165D01*
X152056711Y-126934535D01*
X152287594Y-126879105D01*
X152287596Y-126879104D01*
X152287597Y-126879104D01*
X152506959Y-126788242D01*
X152506960Y-126788241D01*
X152506963Y-126788240D01*
X152709416Y-126664176D01*
X152889969Y-126509969D01*
X153044176Y-126329416D01*
X153168240Y-126126963D01*
X153259105Y-125907594D01*
X153314535Y-125676711D01*
X153333165Y-125440000D01*
X153314535Y-125203289D01*
X153259105Y-124972406D01*
X153259104Y-124972403D01*
X153259104Y-124972402D01*
X153168242Y-124753040D01*
X153168240Y-124753037D01*
X153044179Y-124550589D01*
X153044178Y-124550586D01*
X153009340Y-124509797D01*
X152889969Y-124370031D01*
X152770596Y-124268076D01*
X152709413Y-124215821D01*
X152709410Y-124215820D01*
X152506962Y-124091759D01*
X152506959Y-124091757D01*
X152287596Y-124000895D01*
X152056714Y-123945465D01*
X151820000Y-123926835D01*
X151583285Y-123945465D01*
X151352404Y-124000895D01*
X151352402Y-124000895D01*
X151133040Y-124091757D01*
X151133037Y-124091759D01*
X150930589Y-124215820D01*
X150930586Y-124215821D01*
X150750031Y-124370031D01*
X150595821Y-124550586D01*
X150595820Y-124550589D01*
X150471759Y-124753037D01*
X150471757Y-124753040D01*
X150380895Y-124972402D01*
X150380895Y-124972404D01*
X150325465Y-125203285D01*
X150306835Y-125440000D01*
X146833165Y-125440000D01*
X146814535Y-125203289D01*
X146759105Y-124972406D01*
X146759104Y-124972403D01*
X146759104Y-124972402D01*
X146668242Y-124753040D01*
X146668240Y-124753037D01*
X146544179Y-124550589D01*
X146544178Y-124550586D01*
X146509340Y-124509797D01*
X146389969Y-124370031D01*
X146270596Y-124268076D01*
X146209413Y-124215821D01*
X146209410Y-124215820D01*
X146006962Y-124091759D01*
X146006959Y-124091757D01*
X145787596Y-124000895D01*
X145556714Y-123945465D01*
X145320000Y-123926835D01*
X145083285Y-123945465D01*
X144852404Y-124000895D01*
X144852402Y-124000895D01*
X144633040Y-124091757D01*
X144633037Y-124091759D01*
X144430589Y-124215820D01*
X144430586Y-124215821D01*
X144250031Y-124370031D01*
X144095821Y-124550586D01*
X144095820Y-124550589D01*
X143971759Y-124753037D01*
X143971757Y-124753040D01*
X143880895Y-124972402D01*
X143880895Y-124972404D01*
X143825465Y-125203285D01*
X143806835Y-125440000D01*
X116641500Y-125440000D01*
X116641500Y-120939994D01*
X143814859Y-120939994D01*
X143814859Y-120940005D01*
X143835385Y-121187729D01*
X143835387Y-121187738D01*
X143896412Y-121428717D01*
X143996266Y-121656364D01*
X144096564Y-121809882D01*
X144796212Y-121110234D01*
X144807482Y-121152292D01*
X144879890Y-121277708D01*
X144982292Y-121380110D01*
X145107708Y-121452518D01*
X145149765Y-121463787D01*
X144449942Y-122163609D01*
X144496768Y-122200055D01*
X144496770Y-122200056D01*
X144715385Y-122318364D01*
X144715396Y-122318369D01*
X144950506Y-122399083D01*
X145195707Y-122440000D01*
X145444293Y-122440000D01*
X145689493Y-122399083D01*
X145924603Y-122318369D01*
X145924614Y-122318364D01*
X146143228Y-122200057D01*
X146143231Y-122200055D01*
X146190056Y-122163609D01*
X145490234Y-121463787D01*
X145532292Y-121452518D01*
X145657708Y-121380110D01*
X145760110Y-121277708D01*
X145832518Y-121152292D01*
X145843787Y-121110235D01*
X146543434Y-121809882D01*
X146643731Y-121656369D01*
X146743587Y-121428717D01*
X146804612Y-121187738D01*
X146804614Y-121187729D01*
X146825141Y-120940005D01*
X146825141Y-120939994D01*
X150314859Y-120939994D01*
X150314859Y-120940005D01*
X150335385Y-121187729D01*
X150335387Y-121187738D01*
X150396412Y-121428717D01*
X150496266Y-121656364D01*
X150596564Y-121809882D01*
X151296212Y-121110234D01*
X151307482Y-121152292D01*
X151379890Y-121277708D01*
X151482292Y-121380110D01*
X151607708Y-121452518D01*
X151649765Y-121463787D01*
X150949942Y-122163609D01*
X150996768Y-122200055D01*
X150996770Y-122200056D01*
X151215385Y-122318364D01*
X151215396Y-122318369D01*
X151450506Y-122399083D01*
X151695707Y-122440000D01*
X151944293Y-122440000D01*
X152189493Y-122399083D01*
X152424603Y-122318369D01*
X152424614Y-122318364D01*
X152643228Y-122200057D01*
X152643231Y-122200055D01*
X152690056Y-122163609D01*
X151990234Y-121463787D01*
X152032292Y-121452518D01*
X152157708Y-121380110D01*
X152260110Y-121277708D01*
X152332518Y-121152292D01*
X152343787Y-121110235D01*
X153043434Y-121809882D01*
X153143731Y-121656369D01*
X153243587Y-121428717D01*
X153304612Y-121187738D01*
X153304614Y-121187729D01*
X153325141Y-120940005D01*
X153325141Y-120939994D01*
X153304614Y-120692270D01*
X153304612Y-120692261D01*
X153243587Y-120451282D01*
X153143731Y-120223630D01*
X153043434Y-120070116D01*
X152343787Y-120769764D01*
X152332518Y-120727708D01*
X152260110Y-120602292D01*
X152157708Y-120499890D01*
X152032292Y-120427482D01*
X151990235Y-120416212D01*
X152690057Y-119716390D01*
X152690056Y-119716389D01*
X152643229Y-119679943D01*
X152424614Y-119561635D01*
X152424603Y-119561630D01*
X152189493Y-119480916D01*
X151944293Y-119440000D01*
X151695707Y-119440000D01*
X151450506Y-119480916D01*
X151215396Y-119561630D01*
X151215390Y-119561632D01*
X150996761Y-119679949D01*
X150949942Y-119716388D01*
X150949942Y-119716390D01*
X151649765Y-120416212D01*
X151607708Y-120427482D01*
X151482292Y-120499890D01*
X151379890Y-120602292D01*
X151307482Y-120727708D01*
X151296212Y-120769764D01*
X150596564Y-120070116D01*
X150496267Y-120223632D01*
X150396412Y-120451282D01*
X150335387Y-120692261D01*
X150335385Y-120692270D01*
X150314859Y-120939994D01*
X146825141Y-120939994D01*
X146804614Y-120692270D01*
X146804612Y-120692261D01*
X146743587Y-120451282D01*
X146643731Y-120223630D01*
X146543434Y-120070116D01*
X145843787Y-120769764D01*
X145832518Y-120727708D01*
X145760110Y-120602292D01*
X145657708Y-120499890D01*
X145532292Y-120427482D01*
X145490235Y-120416212D01*
X146190057Y-119716390D01*
X146190056Y-119716389D01*
X146143229Y-119679943D01*
X145924614Y-119561635D01*
X145924603Y-119561630D01*
X145689493Y-119480916D01*
X145444293Y-119440000D01*
X145195707Y-119440000D01*
X144950506Y-119480916D01*
X144715396Y-119561630D01*
X144715390Y-119561632D01*
X144496761Y-119679949D01*
X144449942Y-119716388D01*
X144449942Y-119716390D01*
X145149765Y-120416212D01*
X145107708Y-120427482D01*
X144982292Y-120499890D01*
X144879890Y-120602292D01*
X144807482Y-120727708D01*
X144796212Y-120769764D01*
X144096564Y-120070116D01*
X143996267Y-120223632D01*
X143896412Y-120451282D01*
X143835387Y-120692261D01*
X143835385Y-120692270D01*
X143814859Y-120939994D01*
X116641500Y-120939994D01*
X116641500Y-119379997D01*
X125724647Y-119379997D01*
X125724647Y-119380002D01*
X125744021Y-119601457D01*
X125744022Y-119601465D01*
X125801558Y-119816191D01*
X125801559Y-119816193D01*
X125801560Y-119816196D01*
X125848536Y-119916936D01*
X125895511Y-120017676D01*
X125895512Y-120017677D01*
X126023023Y-120199781D01*
X126180219Y-120356977D01*
X126362323Y-120484488D01*
X126563804Y-120578440D01*
X126778537Y-120635978D01*
X126936724Y-120649817D01*
X126999998Y-120655353D01*
X127000000Y-120655353D01*
X127000002Y-120655353D01*
X127055365Y-120650509D01*
X127221463Y-120635978D01*
X127436196Y-120578440D01*
X127637677Y-120484488D01*
X127819781Y-120356977D01*
X127976977Y-120199781D01*
X128104488Y-120017677D01*
X128198440Y-119816196D01*
X128255978Y-119601463D01*
X128275353Y-119380000D01*
X128255978Y-119158537D01*
X128237613Y-119090000D01*
X132376835Y-119090000D01*
X132395465Y-119326714D01*
X132450895Y-119557595D01*
X132450895Y-119557597D01*
X132541757Y-119776959D01*
X132541759Y-119776962D01*
X132665820Y-119979410D01*
X132665821Y-119979413D01*
X132665824Y-119979416D01*
X132820031Y-120159969D01*
X132894571Y-120223632D01*
X133000586Y-120314178D01*
X133000589Y-120314179D01*
X133203037Y-120438240D01*
X133203040Y-120438242D01*
X133422403Y-120529104D01*
X133422404Y-120529104D01*
X133422406Y-120529105D01*
X133653289Y-120584535D01*
X133890000Y-120603165D01*
X134126711Y-120584535D01*
X134357594Y-120529105D01*
X134357596Y-120529104D01*
X134357597Y-120529104D01*
X134576959Y-120438242D01*
X134576960Y-120438241D01*
X134576963Y-120438240D01*
X134779416Y-120314176D01*
X134959969Y-120159969D01*
X135114176Y-119979416D01*
X135238240Y-119776963D01*
X135263331Y-119716389D01*
X135329104Y-119557597D01*
X135329104Y-119557596D01*
X135329105Y-119557594D01*
X135384535Y-119326711D01*
X135403165Y-119090000D01*
X138876835Y-119090000D01*
X138895465Y-119326714D01*
X138950895Y-119557595D01*
X138950895Y-119557597D01*
X139041757Y-119776959D01*
X139041759Y-119776962D01*
X139165820Y-119979410D01*
X139165821Y-119979413D01*
X139165824Y-119979416D01*
X139320031Y-120159969D01*
X139394571Y-120223632D01*
X139500586Y-120314178D01*
X139500589Y-120314179D01*
X139703037Y-120438240D01*
X139703040Y-120438242D01*
X139922403Y-120529104D01*
X139922404Y-120529104D01*
X139922406Y-120529105D01*
X140153289Y-120584535D01*
X140390000Y-120603165D01*
X140626711Y-120584535D01*
X140857594Y-120529105D01*
X140857596Y-120529104D01*
X140857597Y-120529104D01*
X141076959Y-120438242D01*
X141076960Y-120438241D01*
X141076963Y-120438240D01*
X141279416Y-120314176D01*
X141459969Y-120159969D01*
X141614176Y-119979416D01*
X141738240Y-119776963D01*
X141763331Y-119716389D01*
X141829104Y-119557597D01*
X141829104Y-119557596D01*
X141829105Y-119557594D01*
X141884535Y-119326711D01*
X141903165Y-119090000D01*
X155236835Y-119090000D01*
X155255465Y-119326714D01*
X155310895Y-119557595D01*
X155310895Y-119557597D01*
X155401757Y-119776959D01*
X155401759Y-119776962D01*
X155525820Y-119979410D01*
X155525821Y-119979413D01*
X155525824Y-119979416D01*
X155680031Y-120159969D01*
X155754571Y-120223632D01*
X155860586Y-120314178D01*
X155860589Y-120314179D01*
X156063037Y-120438240D01*
X156063040Y-120438242D01*
X156282403Y-120529104D01*
X156282404Y-120529104D01*
X156282406Y-120529105D01*
X156513289Y-120584535D01*
X156750000Y-120603165D01*
X156986711Y-120584535D01*
X157217594Y-120529105D01*
X157217596Y-120529104D01*
X157217597Y-120529104D01*
X157436959Y-120438242D01*
X157436960Y-120438241D01*
X157436963Y-120438240D01*
X157639416Y-120314176D01*
X157819969Y-120159969D01*
X157974176Y-119979416D01*
X158098240Y-119776963D01*
X158123331Y-119716389D01*
X158189104Y-119557597D01*
X158189104Y-119557596D01*
X158189105Y-119557594D01*
X158244535Y-119326711D01*
X158263165Y-119090000D01*
X161736835Y-119090000D01*
X161755465Y-119326714D01*
X161810895Y-119557595D01*
X161810895Y-119557597D01*
X161901757Y-119776959D01*
X161901759Y-119776962D01*
X162025820Y-119979410D01*
X162025821Y-119979413D01*
X162025824Y-119979416D01*
X162180031Y-120159969D01*
X162254571Y-120223632D01*
X162360586Y-120314178D01*
X162360589Y-120314179D01*
X162563037Y-120438240D01*
X162563040Y-120438242D01*
X162782403Y-120529104D01*
X162782404Y-120529104D01*
X162782406Y-120529105D01*
X163013289Y-120584535D01*
X163250000Y-120603165D01*
X163486711Y-120584535D01*
X163717594Y-120529105D01*
X163717596Y-120529104D01*
X163717597Y-120529104D01*
X163936959Y-120438242D01*
X163936960Y-120438241D01*
X163936963Y-120438240D01*
X164139416Y-120314176D01*
X164319969Y-120159969D01*
X164474176Y-119979416D01*
X164598240Y-119776963D01*
X164623331Y-119716389D01*
X164689104Y-119557597D01*
X164689104Y-119557596D01*
X164689105Y-119557594D01*
X164744535Y-119326711D01*
X164763165Y-119090000D01*
X164744535Y-118853289D01*
X164689105Y-118622406D01*
X164689104Y-118622403D01*
X164689104Y-118622402D01*
X164598242Y-118403040D01*
X164598240Y-118403037D01*
X164474179Y-118200589D01*
X164474178Y-118200586D01*
X164392238Y-118104647D01*
X164319969Y-118020031D01*
X164200596Y-117918076D01*
X164139413Y-117865821D01*
X164139410Y-117865820D01*
X163936962Y-117741759D01*
X163936959Y-117741757D01*
X163717596Y-117650895D01*
X163486714Y-117595465D01*
X163250000Y-117576835D01*
X163013285Y-117595465D01*
X162782404Y-117650895D01*
X162782402Y-117650895D01*
X162563040Y-117741757D01*
X162563037Y-117741759D01*
X162360589Y-117865820D01*
X162360586Y-117865821D01*
X162180031Y-118020031D01*
X162025821Y-118200586D01*
X162025820Y-118200589D01*
X161901759Y-118403037D01*
X161901757Y-118403040D01*
X161810895Y-118622402D01*
X161810895Y-118622404D01*
X161755465Y-118853285D01*
X161736835Y-119090000D01*
X158263165Y-119090000D01*
X158244535Y-118853289D01*
X158189105Y-118622406D01*
X158189104Y-118622403D01*
X158189104Y-118622402D01*
X158098242Y-118403040D01*
X158098240Y-118403037D01*
X157974179Y-118200589D01*
X157974178Y-118200586D01*
X157892238Y-118104647D01*
X157819969Y-118020031D01*
X157700596Y-117918076D01*
X157639413Y-117865821D01*
X157639410Y-117865820D01*
X157436962Y-117741759D01*
X157436959Y-117741757D01*
X157217596Y-117650895D01*
X156986714Y-117595465D01*
X156750000Y-117576835D01*
X156513285Y-117595465D01*
X156282404Y-117650895D01*
X156282402Y-117650895D01*
X156063040Y-117741757D01*
X156063037Y-117741759D01*
X155860589Y-117865820D01*
X155860586Y-117865821D01*
X155680031Y-118020031D01*
X155525821Y-118200586D01*
X155525820Y-118200589D01*
X155401759Y-118403037D01*
X155401757Y-118403040D01*
X155310895Y-118622402D01*
X155310895Y-118622404D01*
X155255465Y-118853285D01*
X155236835Y-119090000D01*
X141903165Y-119090000D01*
X141884535Y-118853289D01*
X141829105Y-118622406D01*
X141829104Y-118622403D01*
X141829104Y-118622402D01*
X141738242Y-118403040D01*
X141738240Y-118403037D01*
X141614179Y-118200589D01*
X141614178Y-118200586D01*
X141532238Y-118104647D01*
X141459969Y-118020031D01*
X141340596Y-117918076D01*
X141279413Y-117865821D01*
X141279410Y-117865820D01*
X141076962Y-117741759D01*
X141076959Y-117741757D01*
X140857596Y-117650895D01*
X140626714Y-117595465D01*
X140390000Y-117576835D01*
X140153285Y-117595465D01*
X139922404Y-117650895D01*
X139922402Y-117650895D01*
X139703040Y-117741757D01*
X139703037Y-117741759D01*
X139500589Y-117865820D01*
X139500586Y-117865821D01*
X139320031Y-118020031D01*
X139165821Y-118200586D01*
X139165820Y-118200589D01*
X139041759Y-118403037D01*
X139041757Y-118403040D01*
X138950895Y-118622402D01*
X138950895Y-118622404D01*
X138895465Y-118853285D01*
X138876835Y-119090000D01*
X135403165Y-119090000D01*
X135384535Y-118853289D01*
X135329105Y-118622406D01*
X135329104Y-118622403D01*
X135329104Y-118622402D01*
X135238242Y-118403040D01*
X135238240Y-118403037D01*
X135114179Y-118200589D01*
X135114178Y-118200586D01*
X135032238Y-118104647D01*
X134959969Y-118020031D01*
X134840596Y-117918076D01*
X134779413Y-117865821D01*
X134779410Y-117865820D01*
X134576962Y-117741759D01*
X134576959Y-117741757D01*
X134357596Y-117650895D01*
X134126714Y-117595465D01*
X133890000Y-117576835D01*
X133653285Y-117595465D01*
X133422404Y-117650895D01*
X133422402Y-117650895D01*
X133203040Y-117741757D01*
X133203037Y-117741759D01*
X133000589Y-117865820D01*
X133000586Y-117865821D01*
X132820031Y-118020031D01*
X132665821Y-118200586D01*
X132665820Y-118200589D01*
X132541759Y-118403037D01*
X132541757Y-118403040D01*
X132450895Y-118622402D01*
X132450895Y-118622404D01*
X132395465Y-118853285D01*
X132376835Y-119090000D01*
X128237613Y-119090000D01*
X128198440Y-118943804D01*
X128104488Y-118742324D01*
X128104486Y-118742321D01*
X128104485Y-118742319D01*
X127976978Y-118560220D01*
X127976975Y-118560217D01*
X127819781Y-118403023D01*
X127637677Y-118275512D01*
X127637678Y-118275512D01*
X127637676Y-118275511D01*
X127536936Y-118228536D01*
X127436196Y-118181560D01*
X127436193Y-118181559D01*
X127436191Y-118181558D01*
X127221465Y-118124022D01*
X127221457Y-118124021D01*
X127000002Y-118104647D01*
X126999998Y-118104647D01*
X126778542Y-118124021D01*
X126778535Y-118124022D01*
X126563800Y-118181561D01*
X126362323Y-118275512D01*
X126362319Y-118275514D01*
X126180217Y-118403023D01*
X126023023Y-118560217D01*
X125895514Y-118742319D01*
X125895512Y-118742323D01*
X125801561Y-118943800D01*
X125744022Y-119158535D01*
X125744021Y-119158542D01*
X125724647Y-119379997D01*
X116641500Y-119379997D01*
X116641500Y-114589994D01*
X132384859Y-114589994D01*
X132384859Y-114590005D01*
X132405385Y-114837729D01*
X132405387Y-114837738D01*
X132466412Y-115078717D01*
X132566266Y-115306364D01*
X132666564Y-115459882D01*
X133366212Y-114760234D01*
X133377482Y-114802292D01*
X133449890Y-114927708D01*
X133552292Y-115030110D01*
X133677708Y-115102518D01*
X133719765Y-115113787D01*
X133019942Y-115813609D01*
X133066768Y-115850055D01*
X133066770Y-115850056D01*
X133285385Y-115968364D01*
X133285396Y-115968369D01*
X133520506Y-116049083D01*
X133765707Y-116090000D01*
X134014293Y-116090000D01*
X134259493Y-116049083D01*
X134494603Y-115968369D01*
X134494614Y-115968364D01*
X134713228Y-115850057D01*
X134713231Y-115850055D01*
X134760056Y-115813609D01*
X134060234Y-115113787D01*
X134102292Y-115102518D01*
X134227708Y-115030110D01*
X134330110Y-114927708D01*
X134402518Y-114802292D01*
X134413787Y-114760235D01*
X135113434Y-115459882D01*
X135213731Y-115306369D01*
X135313587Y-115078717D01*
X135374612Y-114837738D01*
X135374614Y-114837729D01*
X135395141Y-114590005D01*
X135395141Y-114589994D01*
X138884859Y-114589994D01*
X138884859Y-114590005D01*
X138905385Y-114837729D01*
X138905387Y-114837738D01*
X138966412Y-115078717D01*
X139066266Y-115306364D01*
X139166564Y-115459882D01*
X139866212Y-114760234D01*
X139877482Y-114802292D01*
X139949890Y-114927708D01*
X140052292Y-115030110D01*
X140177708Y-115102518D01*
X140219765Y-115113787D01*
X139519942Y-115813609D01*
X139566768Y-115850055D01*
X139566770Y-115850056D01*
X139785385Y-115968364D01*
X139785396Y-115968369D01*
X140020506Y-116049083D01*
X140265707Y-116090000D01*
X140514293Y-116090000D01*
X140759493Y-116049083D01*
X140994603Y-115968369D01*
X140994614Y-115968364D01*
X141213228Y-115850057D01*
X141213231Y-115850055D01*
X141260056Y-115813609D01*
X140560234Y-115113787D01*
X140602292Y-115102518D01*
X140727708Y-115030110D01*
X140830110Y-114927708D01*
X140902518Y-114802292D01*
X140913787Y-114760235D01*
X141613434Y-115459882D01*
X141713731Y-115306369D01*
X141813587Y-115078717D01*
X141874612Y-114837738D01*
X141874614Y-114837729D01*
X141895141Y-114590005D01*
X141895141Y-114589994D01*
X141874614Y-114342270D01*
X141874612Y-114342261D01*
X141813587Y-114101282D01*
X141773548Y-114010000D01*
X143806835Y-114010000D01*
X143825465Y-114246714D01*
X143880895Y-114477595D01*
X143880895Y-114477597D01*
X143971757Y-114696959D01*
X143971759Y-114696962D01*
X144095820Y-114899410D01*
X144095821Y-114899413D01*
X144148076Y-114960596D01*
X144250031Y-115079969D01*
X144389797Y-115199340D01*
X144430586Y-115234178D01*
X144430588Y-115234178D01*
X144548392Y-115306369D01*
X144633037Y-115358240D01*
X144633040Y-115358242D01*
X144852403Y-115449104D01*
X144852404Y-115449104D01*
X144852406Y-115449105D01*
X145083289Y-115504535D01*
X145320000Y-115523165D01*
X145556711Y-115504535D01*
X145787594Y-115449105D01*
X145787596Y-115449104D01*
X145787597Y-115449104D01*
X146006959Y-115358242D01*
X146006960Y-115358241D01*
X146006963Y-115358240D01*
X146209416Y-115234176D01*
X146389969Y-115079969D01*
X146544176Y-114899416D01*
X146668240Y-114696963D01*
X146712546Y-114590000D01*
X146759104Y-114477597D01*
X146759104Y-114477596D01*
X146759105Y-114477594D01*
X146814535Y-114246711D01*
X146833165Y-114010000D01*
X150306835Y-114010000D01*
X150325465Y-114246714D01*
X150380895Y-114477595D01*
X150380895Y-114477597D01*
X150471757Y-114696959D01*
X150471759Y-114696962D01*
X150595820Y-114899410D01*
X150595821Y-114899413D01*
X150648076Y-114960596D01*
X150750031Y-115079969D01*
X150889797Y-115199340D01*
X150930586Y-115234178D01*
X150930588Y-115234178D01*
X151048392Y-115306369D01*
X151133037Y-115358240D01*
X151133040Y-115358242D01*
X151352403Y-115449104D01*
X151352404Y-115449104D01*
X151352406Y-115449105D01*
X151583289Y-115504535D01*
X151820000Y-115523165D01*
X152056711Y-115504535D01*
X152287594Y-115449105D01*
X152287596Y-115449104D01*
X152287597Y-115449104D01*
X152506959Y-115358242D01*
X152506960Y-115358241D01*
X152506963Y-115358240D01*
X152709416Y-115234176D01*
X152889969Y-115079969D01*
X153044176Y-114899416D01*
X153168240Y-114696963D01*
X153212546Y-114590000D01*
X153212548Y-114589994D01*
X155244859Y-114589994D01*
X155244859Y-114590005D01*
X155265385Y-114837729D01*
X155265387Y-114837738D01*
X155326412Y-115078717D01*
X155426266Y-115306364D01*
X155526564Y-115459882D01*
X156226212Y-114760234D01*
X156237482Y-114802292D01*
X156309890Y-114927708D01*
X156412292Y-115030110D01*
X156537708Y-115102518D01*
X156579765Y-115113787D01*
X155879942Y-115813609D01*
X155926768Y-115850055D01*
X155926770Y-115850056D01*
X156145385Y-115968364D01*
X156145396Y-115968369D01*
X156380506Y-116049083D01*
X156625707Y-116090000D01*
X156874293Y-116090000D01*
X157119493Y-116049083D01*
X157354603Y-115968369D01*
X157354614Y-115968364D01*
X157573228Y-115850057D01*
X157573231Y-115850055D01*
X157620056Y-115813609D01*
X156920234Y-115113787D01*
X156962292Y-115102518D01*
X157087708Y-115030110D01*
X157190110Y-114927708D01*
X157262518Y-114802292D01*
X157273787Y-114760235D01*
X157973434Y-115459882D01*
X158073731Y-115306369D01*
X158173587Y-115078717D01*
X158234612Y-114837738D01*
X158234614Y-114837729D01*
X158255141Y-114590005D01*
X158255141Y-114589994D01*
X161744859Y-114589994D01*
X161744859Y-114590005D01*
X161765385Y-114837729D01*
X161765387Y-114837738D01*
X161826412Y-115078717D01*
X161926266Y-115306364D01*
X162026564Y-115459882D01*
X162726212Y-114760234D01*
X162737482Y-114802292D01*
X162809890Y-114927708D01*
X162912292Y-115030110D01*
X163037708Y-115102518D01*
X163079765Y-115113787D01*
X162379942Y-115813609D01*
X162426768Y-115850055D01*
X162426770Y-115850056D01*
X162645385Y-115968364D01*
X162645396Y-115968369D01*
X162880506Y-116049083D01*
X163125707Y-116090000D01*
X163374293Y-116090000D01*
X163619493Y-116049083D01*
X163854603Y-115968369D01*
X163854614Y-115968364D01*
X164073228Y-115850057D01*
X164073231Y-115850055D01*
X164120056Y-115813609D01*
X163420234Y-115113787D01*
X163462292Y-115102518D01*
X163587708Y-115030110D01*
X163690110Y-114927708D01*
X163762518Y-114802292D01*
X163773787Y-114760234D01*
X164473434Y-115459882D01*
X164573731Y-115306369D01*
X164673587Y-115078717D01*
X164734612Y-114837738D01*
X164734614Y-114837729D01*
X164755141Y-114590005D01*
X164755141Y-114589994D01*
X164734614Y-114342270D01*
X164734612Y-114342261D01*
X164673587Y-114101282D01*
X164573731Y-113873630D01*
X164473434Y-113720116D01*
X163773787Y-114419764D01*
X163762518Y-114377708D01*
X163690110Y-114252292D01*
X163587708Y-114149890D01*
X163462292Y-114077482D01*
X163420235Y-114066212D01*
X164120057Y-113366390D01*
X164120056Y-113366389D01*
X164073229Y-113329943D01*
X163854614Y-113211635D01*
X163854603Y-113211630D01*
X163619493Y-113130916D01*
X163374293Y-113090000D01*
X163125707Y-113090000D01*
X162880506Y-113130916D01*
X162645396Y-113211630D01*
X162645390Y-113211632D01*
X162426761Y-113329949D01*
X162379942Y-113366388D01*
X162379942Y-113366390D01*
X163079765Y-114066212D01*
X163037708Y-114077482D01*
X162912292Y-114149890D01*
X162809890Y-114252292D01*
X162737482Y-114377708D01*
X162726212Y-114419764D01*
X162026564Y-113720116D01*
X161926267Y-113873632D01*
X161826412Y-114101282D01*
X161765387Y-114342261D01*
X161765385Y-114342270D01*
X161744859Y-114589994D01*
X158255141Y-114589994D01*
X158234614Y-114342270D01*
X158234612Y-114342261D01*
X158173587Y-114101282D01*
X158073731Y-113873630D01*
X157973434Y-113720116D01*
X157273787Y-114419764D01*
X157262518Y-114377708D01*
X157190110Y-114252292D01*
X157087708Y-114149890D01*
X156962292Y-114077482D01*
X156920235Y-114066212D01*
X157620057Y-113366390D01*
X157620056Y-113366389D01*
X157573229Y-113329943D01*
X157354614Y-113211635D01*
X157354603Y-113211630D01*
X157119493Y-113130916D01*
X156874293Y-113090000D01*
X156625707Y-113090000D01*
X156380506Y-113130916D01*
X156145396Y-113211630D01*
X156145390Y-113211632D01*
X155926761Y-113329949D01*
X155879942Y-113366388D01*
X155879942Y-113366390D01*
X156579765Y-114066212D01*
X156537708Y-114077482D01*
X156412292Y-114149890D01*
X156309890Y-114252292D01*
X156237482Y-114377708D01*
X156226212Y-114419764D01*
X155526564Y-113720116D01*
X155426267Y-113873632D01*
X155326412Y-114101282D01*
X155265387Y-114342261D01*
X155265385Y-114342270D01*
X155244859Y-114589994D01*
X153212548Y-114589994D01*
X153259104Y-114477597D01*
X153259104Y-114477596D01*
X153259105Y-114477594D01*
X153314535Y-114246711D01*
X153333165Y-114010000D01*
X153314535Y-113773289D01*
X153259105Y-113542406D01*
X153259104Y-113542403D01*
X153259104Y-113542402D01*
X153168242Y-113323040D01*
X153168240Y-113323037D01*
X153044179Y-113120589D01*
X153044178Y-113120586D01*
X153009340Y-113079797D01*
X152889969Y-112940031D01*
X152770596Y-112838076D01*
X152709413Y-112785821D01*
X152709410Y-112785820D01*
X152506962Y-112661759D01*
X152506959Y-112661757D01*
X152287596Y-112570895D01*
X152056714Y-112515465D01*
X151820000Y-112496835D01*
X151583285Y-112515465D01*
X151352404Y-112570895D01*
X151352402Y-112570895D01*
X151133040Y-112661757D01*
X151133037Y-112661759D01*
X150930589Y-112785820D01*
X150930586Y-112785821D01*
X150750031Y-112940031D01*
X150595821Y-113120586D01*
X150595820Y-113120589D01*
X150471759Y-113323037D01*
X150471757Y-113323040D01*
X150380895Y-113542402D01*
X150380895Y-113542404D01*
X150325465Y-113773285D01*
X150306835Y-114010000D01*
X146833165Y-114010000D01*
X146814535Y-113773289D01*
X146759105Y-113542406D01*
X146759104Y-113542403D01*
X146759104Y-113542402D01*
X146668242Y-113323040D01*
X146668240Y-113323037D01*
X146544179Y-113120589D01*
X146544178Y-113120586D01*
X146509340Y-113079797D01*
X146389969Y-112940031D01*
X146270596Y-112838076D01*
X146209413Y-112785821D01*
X146209410Y-112785820D01*
X146006962Y-112661759D01*
X146006959Y-112661757D01*
X145787596Y-112570895D01*
X145556714Y-112515465D01*
X145320000Y-112496835D01*
X145083285Y-112515465D01*
X144852404Y-112570895D01*
X144852402Y-112570895D01*
X144633040Y-112661757D01*
X144633037Y-112661759D01*
X144430589Y-112785820D01*
X144430586Y-112785821D01*
X144250031Y-112940031D01*
X144095821Y-113120586D01*
X144095820Y-113120589D01*
X143971759Y-113323037D01*
X143971757Y-113323040D01*
X143880895Y-113542402D01*
X143880895Y-113542404D01*
X143825465Y-113773285D01*
X143806835Y-114010000D01*
X141773548Y-114010000D01*
X141713731Y-113873630D01*
X141613434Y-113720116D01*
X140913787Y-114419764D01*
X140902518Y-114377708D01*
X140830110Y-114252292D01*
X140727708Y-114149890D01*
X140602292Y-114077482D01*
X140560235Y-114066212D01*
X141260057Y-113366390D01*
X141260056Y-113366389D01*
X141213229Y-113329943D01*
X140994614Y-113211635D01*
X140994603Y-113211630D01*
X140759493Y-113130916D01*
X140514293Y-113090000D01*
X140265707Y-113090000D01*
X140020506Y-113130916D01*
X139785396Y-113211630D01*
X139785390Y-113211632D01*
X139566761Y-113329949D01*
X139519942Y-113366388D01*
X139519942Y-113366390D01*
X140219765Y-114066212D01*
X140177708Y-114077482D01*
X140052292Y-114149890D01*
X139949890Y-114252292D01*
X139877482Y-114377708D01*
X139866212Y-114419764D01*
X139166564Y-113720116D01*
X139066267Y-113873632D01*
X138966412Y-114101282D01*
X138905387Y-114342261D01*
X138905385Y-114342270D01*
X138884859Y-114589994D01*
X135395141Y-114589994D01*
X135374614Y-114342270D01*
X135374612Y-114342261D01*
X135313587Y-114101282D01*
X135213731Y-113873630D01*
X135113434Y-113720116D01*
X134413787Y-114419764D01*
X134402518Y-114377708D01*
X134330110Y-114252292D01*
X134227708Y-114149890D01*
X134102292Y-114077482D01*
X134060235Y-114066212D01*
X134760057Y-113366390D01*
X134760056Y-113366389D01*
X134713229Y-113329943D01*
X134494614Y-113211635D01*
X134494603Y-113211630D01*
X134259493Y-113130916D01*
X134014293Y-113090000D01*
X133765707Y-113090000D01*
X133520506Y-113130916D01*
X133285396Y-113211630D01*
X133285390Y-113211632D01*
X133066761Y-113329949D01*
X133019942Y-113366388D01*
X133019942Y-113366390D01*
X133719765Y-114066212D01*
X133677708Y-114077482D01*
X133552292Y-114149890D01*
X133449890Y-114252292D01*
X133377482Y-114377708D01*
X133366212Y-114419764D01*
X132666564Y-113720116D01*
X132566267Y-113873632D01*
X132466412Y-114101282D01*
X132405387Y-114342261D01*
X132405385Y-114342270D01*
X132384859Y-114589994D01*
X116641500Y-114589994D01*
X116641500Y-98555096D01*
X116661185Y-98488057D01*
X116713989Y-98442302D01*
X116783147Y-98432358D01*
X116846703Y-98461383D01*
X116853181Y-98467415D01*
X125962647Y-107576881D01*
X126081763Y-107695997D01*
X126103120Y-107717354D01*
X126268289Y-107827717D01*
X126268295Y-107827720D01*
X126268296Y-107827721D01*
X126451831Y-107903744D01*
X126646666Y-107942499D01*
X126646670Y-107942500D01*
X144575212Y-107942500D01*
X144642251Y-107962185D01*
X144688006Y-108014989D01*
X144697950Y-108084147D01*
X144668925Y-108147703D01*
X144634230Y-108175555D01*
X144496761Y-108249949D01*
X144449942Y-108286388D01*
X144449942Y-108286390D01*
X145149765Y-108986212D01*
X145107708Y-108997482D01*
X144982292Y-109069890D01*
X144879890Y-109172292D01*
X144807482Y-109297708D01*
X144796212Y-109339764D01*
X144096564Y-108640116D01*
X143996267Y-108793632D01*
X143896412Y-109021282D01*
X143835387Y-109262261D01*
X143835385Y-109262270D01*
X143814859Y-109509994D01*
X143814859Y-109510005D01*
X143835385Y-109757729D01*
X143835387Y-109757738D01*
X143896412Y-109998717D01*
X143996266Y-110226364D01*
X144096564Y-110379882D01*
X144796212Y-109680234D01*
X144807482Y-109722292D01*
X144879890Y-109847708D01*
X144982292Y-109950110D01*
X145107708Y-110022518D01*
X145149765Y-110033787D01*
X144449942Y-110733609D01*
X144496768Y-110770055D01*
X144496770Y-110770056D01*
X144715385Y-110888364D01*
X144715396Y-110888369D01*
X144950506Y-110969083D01*
X145195707Y-111010000D01*
X145444293Y-111010000D01*
X145689493Y-110969083D01*
X145924603Y-110888369D01*
X145924614Y-110888364D01*
X146143228Y-110770057D01*
X146143231Y-110770055D01*
X146190056Y-110733609D01*
X145490234Y-110033787D01*
X145532292Y-110022518D01*
X145657708Y-109950110D01*
X145760110Y-109847708D01*
X145832518Y-109722292D01*
X145843787Y-109680235D01*
X146543434Y-110379882D01*
X146643731Y-110226369D01*
X146743587Y-109998717D01*
X146804612Y-109757738D01*
X146804614Y-109757729D01*
X146825141Y-109510005D01*
X146825141Y-109509994D01*
X146804614Y-109262270D01*
X146804612Y-109262261D01*
X146743587Y-109021282D01*
X146643731Y-108793630D01*
X146543434Y-108640116D01*
X145843787Y-109339764D01*
X145832518Y-109297708D01*
X145760110Y-109172292D01*
X145657708Y-109069890D01*
X145532292Y-108997482D01*
X145490235Y-108986212D01*
X146190057Y-108286390D01*
X146190056Y-108286389D01*
X146143229Y-108249943D01*
X146005771Y-108175555D01*
X145956180Y-108126336D01*
X145941072Y-108058119D01*
X145965242Y-107992563D01*
X146021018Y-107950482D01*
X146064788Y-107942500D01*
X151075212Y-107942500D01*
X151142251Y-107962185D01*
X151188006Y-108014989D01*
X151197950Y-108084147D01*
X151168925Y-108147703D01*
X151134230Y-108175555D01*
X150996761Y-108249949D01*
X150949942Y-108286388D01*
X150949942Y-108286390D01*
X151649765Y-108986212D01*
X151607708Y-108997482D01*
X151482292Y-109069890D01*
X151379890Y-109172292D01*
X151307482Y-109297708D01*
X151296212Y-109339764D01*
X150596564Y-108640116D01*
X150496267Y-108793632D01*
X150396412Y-109021282D01*
X150335387Y-109262261D01*
X150335385Y-109262270D01*
X150314859Y-109509994D01*
X150314859Y-109510005D01*
X150335385Y-109757729D01*
X150335387Y-109757738D01*
X150396412Y-109998717D01*
X150496266Y-110226364D01*
X150596564Y-110379882D01*
X151296212Y-109680234D01*
X151307482Y-109722292D01*
X151379890Y-109847708D01*
X151482292Y-109950110D01*
X151607708Y-110022518D01*
X151649765Y-110033787D01*
X150949942Y-110733609D01*
X150996768Y-110770055D01*
X150996770Y-110770056D01*
X151215385Y-110888364D01*
X151215396Y-110888369D01*
X151450506Y-110969083D01*
X151695707Y-111010000D01*
X151944293Y-111010000D01*
X152189493Y-110969083D01*
X152424603Y-110888369D01*
X152424614Y-110888364D01*
X152643228Y-110770057D01*
X152643231Y-110770055D01*
X152690056Y-110733609D01*
X151990234Y-110033787D01*
X152032292Y-110022518D01*
X152157708Y-109950110D01*
X152260110Y-109847708D01*
X152332518Y-109722292D01*
X152343787Y-109680235D01*
X153043434Y-110379882D01*
X153143731Y-110226369D01*
X153243587Y-109998717D01*
X153304612Y-109757738D01*
X153304614Y-109757729D01*
X153325141Y-109510005D01*
X153325141Y-109509994D01*
X153304614Y-109262270D01*
X153304612Y-109262261D01*
X153243587Y-109021282D01*
X153143731Y-108793630D01*
X153043434Y-108640116D01*
X152343787Y-109339764D01*
X152332518Y-109297708D01*
X152260110Y-109172292D01*
X152157708Y-109069890D01*
X152032292Y-108997482D01*
X151990235Y-108986212D01*
X152690057Y-108286390D01*
X152690056Y-108286389D01*
X152643229Y-108249943D01*
X152421724Y-108130071D01*
X152372133Y-108080852D01*
X152357025Y-108012635D01*
X152381195Y-107947079D01*
X152434779Y-107906651D01*
X152434541Y-107906075D01*
X152436763Y-107905154D01*
X152436971Y-107904998D01*
X152437918Y-107904676D01*
X152440167Y-107903744D01*
X152440169Y-107903744D01*
X152623704Y-107827721D01*
X152788881Y-107717353D01*
X152810237Y-107695997D01*
X173984647Y-107695997D01*
X173984647Y-107696002D01*
X174004021Y-107917457D01*
X174004022Y-107917465D01*
X174061558Y-108132191D01*
X174061559Y-108132193D01*
X174061560Y-108132196D01*
X174068791Y-108147703D01*
X174155511Y-108333676D01*
X174155512Y-108333677D01*
X174283023Y-108515781D01*
X174440219Y-108672977D01*
X174622323Y-108800488D01*
X174823804Y-108894440D01*
X175038537Y-108951978D01*
X175196724Y-108965817D01*
X175259998Y-108971353D01*
X175260000Y-108971353D01*
X175260002Y-108971353D01*
X175315365Y-108966509D01*
X175481463Y-108951978D01*
X175696196Y-108894440D01*
X175897677Y-108800488D01*
X176079781Y-108672977D01*
X176236977Y-108515781D01*
X176364488Y-108333677D01*
X176458440Y-108132196D01*
X176515978Y-107917463D01*
X176535353Y-107696000D01*
X176515978Y-107474537D01*
X176458440Y-107259804D01*
X176364488Y-107058324D01*
X176364486Y-107058321D01*
X176364485Y-107058319D01*
X176236978Y-106876220D01*
X176236975Y-106876217D01*
X176079781Y-106719023D01*
X175897677Y-106591512D01*
X175897678Y-106591512D01*
X175897676Y-106591511D01*
X175796936Y-106544536D01*
X175696196Y-106497560D01*
X175696193Y-106497559D01*
X175696191Y-106497558D01*
X175481465Y-106440022D01*
X175481457Y-106440021D01*
X175260002Y-106420647D01*
X175259998Y-106420647D01*
X175038542Y-106440021D01*
X175038535Y-106440022D01*
X174823800Y-106497561D01*
X174622323Y-106591512D01*
X174622319Y-106591514D01*
X174440217Y-106719023D01*
X174283023Y-106876217D01*
X174155514Y-107058319D01*
X174155512Y-107058323D01*
X174061561Y-107259800D01*
X174004022Y-107474535D01*
X174004021Y-107474542D01*
X173984647Y-107695997D01*
X152810237Y-107695997D01*
X152929353Y-107576881D01*
X155476353Y-105029881D01*
X155586721Y-104864704D01*
X155637267Y-104742675D01*
X155662744Y-104681169D01*
X155701500Y-104486329D01*
X155701500Y-102615997D01*
X173984647Y-102615997D01*
X173984647Y-102616002D01*
X174004021Y-102837457D01*
X174004022Y-102837465D01*
X174061558Y-103052191D01*
X174061559Y-103052193D01*
X174061560Y-103052196D01*
X174108536Y-103152936D01*
X174155511Y-103253676D01*
X174155512Y-103253677D01*
X174283023Y-103435781D01*
X174440219Y-103592977D01*
X174622323Y-103720488D01*
X174823804Y-103814440D01*
X175038537Y-103871978D01*
X175196724Y-103885817D01*
X175259998Y-103891353D01*
X175260000Y-103891353D01*
X175260002Y-103891353D01*
X175315365Y-103886509D01*
X175481463Y-103871978D01*
X175696196Y-103814440D01*
X175897677Y-103720488D01*
X176079781Y-103592977D01*
X176236977Y-103435781D01*
X176364488Y-103253677D01*
X176458440Y-103052196D01*
X176515978Y-102837463D01*
X176535353Y-102616000D01*
X176515978Y-102394537D01*
X176458440Y-102179804D01*
X176364488Y-101978324D01*
X176364486Y-101978321D01*
X176364485Y-101978319D01*
X176236978Y-101796220D01*
X176236975Y-101796217D01*
X176079781Y-101639023D01*
X175897677Y-101511512D01*
X175897678Y-101511512D01*
X175897676Y-101511511D01*
X175796936Y-101464536D01*
X175696196Y-101417560D01*
X175696193Y-101417559D01*
X175696191Y-101417558D01*
X175481465Y-101360022D01*
X175481457Y-101360021D01*
X175260002Y-101340647D01*
X175259998Y-101340647D01*
X175038542Y-101360021D01*
X175038535Y-101360022D01*
X174823800Y-101417561D01*
X174622323Y-101511512D01*
X174622319Y-101511514D01*
X174440217Y-101639023D01*
X174283023Y-101796217D01*
X174155514Y-101978319D01*
X174155512Y-101978323D01*
X174061561Y-102179800D01*
X174004022Y-102394535D01*
X174004021Y-102394542D01*
X173984647Y-102615997D01*
X155701500Y-102615997D01*
X155701500Y-99532858D01*
X155721185Y-99465819D01*
X155723926Y-99461734D01*
X155742917Y-99434611D01*
X155797488Y-99356677D01*
X155850618Y-99242738D01*
X155896790Y-99190299D01*
X155963983Y-99171147D01*
X156030865Y-99191363D01*
X156075381Y-99242738D01*
X156128512Y-99356677D01*
X156256023Y-99538781D01*
X156413219Y-99695977D01*
X156595323Y-99823488D01*
X156796804Y-99917440D01*
X157011537Y-99974978D01*
X157169724Y-99988817D01*
X157232998Y-99994353D01*
X157233000Y-99994353D01*
X157233002Y-99994353D01*
X157288365Y-99989509D01*
X157454463Y-99974978D01*
X157669196Y-99917440D01*
X157870677Y-99823488D01*
X157930168Y-99781832D01*
X157975737Y-99749925D01*
X158041943Y-99727598D01*
X158046860Y-99727500D01*
X166810330Y-99727500D01*
X166810331Y-99727499D01*
X167005169Y-99688744D01*
X167188704Y-99612721D01*
X167353881Y-99502353D01*
X167494353Y-99361881D01*
X167552912Y-99303322D01*
X167552925Y-99303307D01*
X170963354Y-95892881D01*
X171073722Y-95727704D01*
X171112668Y-95633677D01*
X171127438Y-95598019D01*
X171127447Y-95597994D01*
X171127477Y-95597924D01*
X171149744Y-95544169D01*
X171188500Y-95349329D01*
X171188500Y-94995997D01*
X173984647Y-94995997D01*
X173984647Y-94996002D01*
X174004021Y-95217457D01*
X174004022Y-95217465D01*
X174061558Y-95432191D01*
X174061559Y-95432193D01*
X174061560Y-95432196D01*
X174098540Y-95511500D01*
X174155511Y-95633676D01*
X174155512Y-95633677D01*
X174283023Y-95815781D01*
X174440219Y-95972977D01*
X174622323Y-96100488D01*
X174823804Y-96194440D01*
X175038537Y-96251978D01*
X175196724Y-96265817D01*
X175259998Y-96271353D01*
X175260000Y-96271353D01*
X175260002Y-96271353D01*
X175315365Y-96266509D01*
X175481463Y-96251978D01*
X175696196Y-96194440D01*
X175897677Y-96100488D01*
X176079781Y-95972977D01*
X176236977Y-95815781D01*
X176364488Y-95633677D01*
X176458440Y-95432196D01*
X176515978Y-95217463D01*
X176535353Y-94996000D01*
X176534495Y-94986198D01*
X176520332Y-94824304D01*
X176515978Y-94774537D01*
X176458440Y-94559804D01*
X176364488Y-94358324D01*
X176364486Y-94358321D01*
X176364485Y-94358319D01*
X176236978Y-94176220D01*
X176164302Y-94103544D01*
X176079781Y-94019023D01*
X175931237Y-93915011D01*
X175897676Y-93891511D01*
X175736311Y-93816266D01*
X175696196Y-93797560D01*
X175696193Y-93797559D01*
X175696191Y-93797558D01*
X175481465Y-93740022D01*
X175481457Y-93740021D01*
X175260002Y-93720647D01*
X175259998Y-93720647D01*
X175038542Y-93740021D01*
X175038535Y-93740022D01*
X174823800Y-93797561D01*
X174622323Y-93891512D01*
X174622319Y-93891514D01*
X174440217Y-94019023D01*
X174283023Y-94176217D01*
X174155514Y-94358319D01*
X174155512Y-94358323D01*
X174061561Y-94559800D01*
X174004022Y-94774535D01*
X174004021Y-94774542D01*
X173984647Y-94995997D01*
X171188500Y-94995997D01*
X171188500Y-93828921D01*
X171208185Y-93761882D01*
X171260989Y-93716127D01*
X171330147Y-93706183D01*
X171383620Y-93727345D01*
X171555251Y-93847523D01*
X171649591Y-93891514D01*
X171762750Y-93944281D01*
X171762752Y-93944281D01*
X171762757Y-93944284D01*
X171983913Y-94003543D01*
X172146832Y-94017796D01*
X172211998Y-94023498D01*
X172212000Y-94023498D01*
X172212002Y-94023498D01*
X172269021Y-94018509D01*
X172440087Y-94003543D01*
X172661243Y-93944284D01*
X172868749Y-93847523D01*
X173056300Y-93716198D01*
X173218198Y-93554300D01*
X173349523Y-93366749D01*
X173446284Y-93159243D01*
X173505543Y-92938087D01*
X173525498Y-92710000D01*
X173522775Y-92678881D01*
X173505543Y-92481918D01*
X173505543Y-92481916D01*
X173505543Y-92481913D01*
X173446284Y-92260757D01*
X173349523Y-92053251D01*
X173242924Y-91901012D01*
X173220598Y-91834807D01*
X173220500Y-91829890D01*
X173220500Y-89915997D01*
X173984647Y-89915997D01*
X173984647Y-89916002D01*
X174004021Y-90137457D01*
X174004022Y-90137465D01*
X174061558Y-90352191D01*
X174061559Y-90352193D01*
X174061560Y-90352196D01*
X174108536Y-90452936D01*
X174155511Y-90553676D01*
X174155512Y-90553677D01*
X174283023Y-90735781D01*
X174440219Y-90892977D01*
X174622323Y-91020488D01*
X174823804Y-91114440D01*
X175038537Y-91171978D01*
X175196724Y-91185817D01*
X175259998Y-91191353D01*
X175260000Y-91191353D01*
X175260002Y-91191353D01*
X175315365Y-91186509D01*
X175481463Y-91171978D01*
X175696196Y-91114440D01*
X175897677Y-91020488D01*
X176079781Y-90892977D01*
X176236977Y-90735781D01*
X176364488Y-90553677D01*
X176458440Y-90352196D01*
X176515978Y-90137463D01*
X176535353Y-89916000D01*
X176534724Y-89908816D01*
X176515978Y-89694542D01*
X176515978Y-89694537D01*
X176458440Y-89479804D01*
X176364488Y-89278324D01*
X176364486Y-89278321D01*
X176364485Y-89278319D01*
X176236978Y-89096220D01*
X176174905Y-89034147D01*
X176079781Y-88939023D01*
X175897677Y-88811512D01*
X175897678Y-88811512D01*
X175897676Y-88811511D01*
X175796936Y-88764536D01*
X175696196Y-88717560D01*
X175696193Y-88717559D01*
X175696191Y-88717558D01*
X175481465Y-88660022D01*
X175481457Y-88660021D01*
X175260002Y-88640647D01*
X175259998Y-88640647D01*
X175038542Y-88660021D01*
X175038535Y-88660022D01*
X174823800Y-88717561D01*
X174622323Y-88811512D01*
X174622319Y-88811514D01*
X174440217Y-88939023D01*
X174283023Y-89096217D01*
X174155514Y-89278319D01*
X174155512Y-89278323D01*
X174061561Y-89479800D01*
X174004022Y-89694535D01*
X174004021Y-89694542D01*
X173984647Y-89915997D01*
X173220500Y-89915997D01*
X173220500Y-85752670D01*
X173220499Y-85752666D01*
X173208656Y-85693127D01*
X173181744Y-85557831D01*
X173159477Y-85504075D01*
X173105722Y-85374296D01*
X172995353Y-85209119D01*
X172995350Y-85209115D01*
X171827385Y-84041150D01*
X171793900Y-83979827D01*
X171798884Y-83910135D01*
X171840756Y-83854202D01*
X171906220Y-83829785D01*
X171947159Y-83833694D01*
X171983913Y-83843543D01*
X172146832Y-83857796D01*
X172211998Y-83863498D01*
X172212000Y-83863498D01*
X172212002Y-83863498D01*
X172269021Y-83858509D01*
X172440087Y-83843543D01*
X172661243Y-83784284D01*
X172868749Y-83687523D01*
X173056300Y-83556198D01*
X173218198Y-83394300D01*
X173349523Y-83206749D01*
X173446284Y-82999243D01*
X173505543Y-82778087D01*
X173525498Y-82550000D01*
X173505543Y-82321913D01*
X173446284Y-82100757D01*
X173349523Y-81893251D01*
X173218198Y-81705700D01*
X173056300Y-81543802D01*
X172868749Y-81412477D01*
X172841533Y-81399786D01*
X172661249Y-81315718D01*
X172661238Y-81315714D01*
X172440089Y-81256457D01*
X172440083Y-81256456D01*
X172380501Y-81251243D01*
X172315433Y-81225789D01*
X172303630Y-81215396D01*
X168790884Y-77702649D01*
X168786173Y-77698783D01*
X168787218Y-77697509D01*
X168747505Y-77649986D01*
X168738799Y-77580661D01*
X168768956Y-77517635D01*
X168828400Y-77480917D01*
X168861202Y-77476500D01*
X169503330Y-77476500D01*
X169503331Y-77476499D01*
X169698169Y-77437744D01*
X169881704Y-77361721D01*
X170046881Y-77251353D01*
X170187353Y-77110881D01*
X170245912Y-77052322D01*
X170245925Y-77052307D01*
X177059354Y-70238881D01*
X177169722Y-70073703D01*
X177245744Y-69890168D01*
X177245744Y-69890165D01*
X177245746Y-69890161D01*
X177257982Y-69828647D01*
X177284499Y-69695333D01*
X177284500Y-69695329D01*
X177284500Y-56034670D01*
X177284499Y-56034666D01*
X177251310Y-55867815D01*
X177245744Y-55839831D01*
X177169721Y-55656296D01*
X177169720Y-55656295D01*
X177169717Y-55656289D01*
X177059354Y-55491120D01*
X177059353Y-55491119D01*
X176918881Y-55350647D01*
X173291881Y-51723647D01*
X169552884Y-47984649D01*
X169552880Y-47984646D01*
X169387704Y-47874279D01*
X169204169Y-47798256D01*
X169204161Y-47798254D01*
X169009333Y-47759500D01*
X169009329Y-47759500D01*
X146712671Y-47759500D01*
X146712666Y-47759500D01*
X146517838Y-47798253D01*
X146517838Y-47798254D01*
X146517835Y-47798255D01*
X146517831Y-47798256D01*
X146441809Y-47829745D01*
X146441807Y-47829745D01*
X146334294Y-47874278D01*
X146169123Y-47984642D01*
X146169115Y-47984648D01*
X144247488Y-49906278D01*
X143890119Y-50263647D01*
X143819882Y-50333884D01*
X143749645Y-50404120D01*
X143639282Y-50569289D01*
X143639277Y-50569298D01*
X143563256Y-50752830D01*
X143563254Y-50752838D01*
X143524500Y-50947666D01*
X143524500Y-52185141D01*
X143504815Y-52252180D01*
X143502075Y-52256264D01*
X143428512Y-52361323D01*
X143428511Y-52361325D01*
X143375382Y-52475261D01*
X143329209Y-52527700D01*
X143262016Y-52546852D01*
X143195135Y-52526636D01*
X143150618Y-52475261D01*
X143097488Y-52361325D01*
X143097488Y-52361324D01*
X143097486Y-52361321D01*
X143097485Y-52361319D01*
X142969978Y-52179220D01*
X142893449Y-52102691D01*
X142812781Y-52022023D01*
X142630677Y-51894512D01*
X142630678Y-51894512D01*
X142630676Y-51894511D01*
X142529936Y-51847536D01*
X142429196Y-51800560D01*
X142429193Y-51800559D01*
X142429191Y-51800558D01*
X142214465Y-51743022D01*
X142214457Y-51743021D01*
X141993002Y-51723647D01*
X141992998Y-51723647D01*
X141771542Y-51743021D01*
X141771535Y-51743022D01*
X141556800Y-51800561D01*
X141355323Y-51894512D01*
X141355319Y-51894514D01*
X141173217Y-52022023D01*
X141016023Y-52179217D01*
X140888514Y-52361319D01*
X140888512Y-52361323D01*
X140835382Y-52475261D01*
X140789209Y-52527700D01*
X140722016Y-52546852D01*
X140655135Y-52526636D01*
X140610618Y-52475261D01*
X140557488Y-52361325D01*
X140557488Y-52361324D01*
X140557486Y-52361321D01*
X140557485Y-52361319D01*
X140429978Y-52179220D01*
X140353449Y-52102691D01*
X140272781Y-52022023D01*
X140090677Y-51894512D01*
X140090678Y-51894512D01*
X140090676Y-51894511D01*
X139989936Y-51847536D01*
X139889196Y-51800560D01*
X139889193Y-51800559D01*
X139889191Y-51800558D01*
X139674465Y-51743022D01*
X139674457Y-51743021D01*
X139453002Y-51723647D01*
X139452998Y-51723647D01*
X139231542Y-51743021D01*
X139231535Y-51743022D01*
X139016800Y-51800561D01*
X138815323Y-51894512D01*
X138815319Y-51894514D01*
X138633217Y-52022023D01*
X138476023Y-52179217D01*
X138348514Y-52361319D01*
X138348512Y-52361323D01*
X138254561Y-52562800D01*
X138197022Y-52777535D01*
X138197021Y-52777542D01*
X138177647Y-52998997D01*
X138177647Y-52999002D01*
X138197021Y-53220457D01*
X138197022Y-53220465D01*
X138254558Y-53435191D01*
X138254559Y-53435193D01*
X138254560Y-53435196D01*
X138270929Y-53470299D01*
X138348512Y-53636677D01*
X138348515Y-53636683D01*
X138365106Y-53660376D01*
X138387434Y-53726582D01*
X138370424Y-53794349D01*
X138319477Y-53842162D01*
X138263532Y-53855500D01*
X126138666Y-53855500D01*
X125943838Y-53894254D01*
X125943830Y-53894256D01*
X125760298Y-53970277D01*
X125760289Y-53970282D01*
X125595119Y-54080646D01*
X125595117Y-54080648D01*
X123309119Y-56366647D01*
X121277119Y-58398647D01*
X121206882Y-58468884D01*
X121136645Y-58539120D01*
X121026282Y-58704289D01*
X121026277Y-58704298D01*
X120950256Y-58887830D01*
X120950254Y-58887838D01*
X120911500Y-59082666D01*
X120911500Y-65377333D01*
X120950254Y-65572161D01*
X120950256Y-65572169D01*
X121009187Y-65714440D01*
X121009187Y-65714441D01*
X121026275Y-65755697D01*
X121026282Y-65755710D01*
X121136646Y-65920880D01*
X121136649Y-65920884D01*
X124672848Y-69457084D01*
X124706333Y-69518407D01*
X124701349Y-69588099D01*
X124659477Y-69644032D01*
X124632620Y-69659326D01*
X124490294Y-69718278D01*
X124325123Y-69828642D01*
X124325117Y-69828647D01*
X122406649Y-71747115D01*
X122406646Y-71747119D01*
X122296282Y-71912289D01*
X122296277Y-71912298D01*
X122220256Y-72095831D01*
X122220254Y-72095839D01*
X122181500Y-72290666D01*
X122181500Y-72489333D01*
X122220254Y-72684160D01*
X122220256Y-72684168D01*
X122296277Y-72867701D01*
X122296282Y-72867710D01*
X122406646Y-73032880D01*
X122406649Y-73032884D01*
X122547115Y-73173350D01*
X122547119Y-73173353D01*
X122712289Y-73283717D01*
X122712295Y-73283720D01*
X122712296Y-73283721D01*
X122895832Y-73359744D01*
X123054439Y-73391293D01*
X123090666Y-73398499D01*
X123090669Y-73398500D01*
X123090671Y-73398500D01*
X123289331Y-73398500D01*
X123289332Y-73398499D01*
X123484168Y-73359744D01*
X123667704Y-73283721D01*
X123832881Y-73173353D01*
X125349416Y-71656819D01*
X125410739Y-71623334D01*
X125437097Y-71620500D01*
X128430881Y-71620500D01*
X128497920Y-71640185D01*
X128543675Y-71692989D01*
X128553619Y-71762147D01*
X128532457Y-71815620D01*
X128464763Y-71912298D01*
X128402476Y-72001252D01*
X128402475Y-72001254D01*
X128305718Y-72208750D01*
X128305714Y-72208761D01*
X128246457Y-72429910D01*
X128246456Y-72429918D01*
X128226502Y-72657998D01*
X128226502Y-72658001D01*
X128246456Y-72886081D01*
X128246457Y-72886089D01*
X128305714Y-73107238D01*
X128305718Y-73107249D01*
X128388009Y-73283722D01*
X128402477Y-73314749D01*
X128512850Y-73472378D01*
X128535177Y-73538582D01*
X128518167Y-73606350D01*
X128467219Y-73654163D01*
X128411275Y-73667500D01*
X121312666Y-73667500D01*
X121117838Y-73706253D01*
X121117838Y-73706254D01*
X121117835Y-73706255D01*
X121117831Y-73706256D01*
X121064075Y-73728522D01*
X120934300Y-73782275D01*
X120934299Y-73782276D01*
X120769119Y-73892646D01*
X120769115Y-73892649D01*
X116853181Y-77808584D01*
X116791858Y-77842069D01*
X116722166Y-77837085D01*
X116666233Y-77795213D01*
X116641816Y-77729749D01*
X116641500Y-77720903D01*
X116641500Y-45411500D01*
X116661185Y-45344461D01*
X116713989Y-45298706D01*
X116765500Y-45287500D01*
X180374500Y-45287500D01*
X180441539Y-45307185D01*
G37*
%TD.AperFunction*%
%TA.AperFunction,Conductor*%
G36*
X163365334Y-84035414D02*
G01*
X163409681Y-84063915D01*
X167103181Y-87757415D01*
X167136666Y-87818738D01*
X167139500Y-87845096D01*
X167139500Y-91595279D01*
X167119815Y-91662318D01*
X167067011Y-91708073D01*
X166997853Y-91718017D01*
X166944378Y-91696855D01*
X166766749Y-91572477D01*
X166766745Y-91572475D01*
X166559249Y-91475718D01*
X166559238Y-91475714D01*
X166338089Y-91416457D01*
X166338081Y-91416456D01*
X166110002Y-91396502D01*
X166109998Y-91396502D01*
X165881918Y-91416456D01*
X165881910Y-91416457D01*
X165660761Y-91475714D01*
X165660750Y-91475718D01*
X165453254Y-91572475D01*
X165453252Y-91572476D01*
X165453251Y-91572477D01*
X165265700Y-91703802D01*
X165265698Y-91703803D01*
X165265695Y-91703806D01*
X165103806Y-91865695D01*
X165103803Y-91865698D01*
X165103802Y-91865700D01*
X165079075Y-91901014D01*
X164972476Y-92053252D01*
X164972475Y-92053254D01*
X164875718Y-92260750D01*
X164875714Y-92260761D01*
X164816457Y-92481910D01*
X164816456Y-92481916D01*
X164811243Y-92541497D01*
X164785789Y-92606565D01*
X164775396Y-92618368D01*
X163442585Y-93951181D01*
X163381262Y-93984666D01*
X163354904Y-93987500D01*
X158672712Y-93987500D01*
X158605673Y-93967815D01*
X158559918Y-93915011D01*
X158549974Y-93845853D01*
X158570191Y-93796042D01*
X158569314Y-93795505D01*
X158571855Y-93791357D01*
X158664755Y-93609031D01*
X158727990Y-93414417D01*
X158760000Y-93212317D01*
X158760000Y-92960000D01*
X157775686Y-92960000D01*
X157780080Y-92955606D01*
X157832741Y-92864394D01*
X157860000Y-92762661D01*
X157860000Y-92657339D01*
X157832741Y-92555606D01*
X157780080Y-92464394D01*
X157775686Y-92460000D01*
X158760000Y-92460000D01*
X158760000Y-92207682D01*
X158727990Y-92005582D01*
X158664755Y-91810968D01*
X158571859Y-91628650D01*
X158451582Y-91463105D01*
X158451582Y-91463104D01*
X158306895Y-91318417D01*
X158141349Y-91198140D01*
X157959029Y-91105244D01*
X157764413Y-91042009D01*
X157710000Y-91033390D01*
X157710000Y-92394314D01*
X157705606Y-92389920D01*
X157614394Y-92337259D01*
X157512661Y-92310000D01*
X157407339Y-92310000D01*
X157305606Y-92337259D01*
X157214394Y-92389920D01*
X157210000Y-92394314D01*
X157210000Y-91033390D01*
X157155586Y-91042009D01*
X156960970Y-91105244D01*
X156778650Y-91198140D01*
X156613105Y-91318417D01*
X156613104Y-91318417D01*
X156468417Y-91463104D01*
X156468417Y-91463105D01*
X156348140Y-91628650D01*
X156305254Y-91712819D01*
X156257279Y-91763615D01*
X156189458Y-91780410D01*
X156123323Y-91757872D01*
X156084284Y-91712819D01*
X156079515Y-91703459D01*
X156039129Y-91624197D01*
X155989945Y-91556500D01*
X155952182Y-91504523D01*
X155928702Y-91438717D01*
X155928500Y-91431638D01*
X155928500Y-91320670D01*
X155928499Y-91320666D01*
X155917618Y-91265965D01*
X155889744Y-91125831D01*
X155813721Y-90942296D01*
X155813720Y-90942295D01*
X155813717Y-90942289D01*
X155703354Y-90777120D01*
X155662015Y-90735781D01*
X155562881Y-90636647D01*
X153522415Y-88596181D01*
X153488930Y-88534858D01*
X153493914Y-88465166D01*
X153535786Y-88409233D01*
X153601250Y-88384816D01*
X153610096Y-88384500D01*
X158595330Y-88384500D01*
X158595331Y-88384499D01*
X158790169Y-88345744D01*
X158973704Y-88269721D01*
X159138881Y-88159353D01*
X159279353Y-88018881D01*
X163234319Y-84063915D01*
X163295642Y-84030430D01*
X163365334Y-84035414D01*
G37*
%TD.AperFunction*%
%TA.AperFunction,Conductor*%
G36*
X120082530Y-77534216D02*
G01*
X120138463Y-77576088D01*
X120160813Y-77626207D01*
X120188254Y-77764160D01*
X120188256Y-77764168D01*
X120264277Y-77947701D01*
X120264282Y-77947710D01*
X120374646Y-78112880D01*
X120374649Y-78112884D01*
X121785115Y-79523350D01*
X121785119Y-79523353D01*
X121950289Y-79633717D01*
X121950295Y-79633720D01*
X121950296Y-79633721D01*
X122133831Y-79709744D01*
X122328666Y-79748499D01*
X122328670Y-79748500D01*
X122328671Y-79748500D01*
X136243330Y-79748500D01*
X136243331Y-79748499D01*
X136438169Y-79709744D01*
X136488049Y-79689082D01*
X136557515Y-79681614D01*
X136619995Y-79712888D01*
X136655648Y-79772977D01*
X136659500Y-79803644D01*
X136659500Y-82334904D01*
X136639815Y-82401943D01*
X136623181Y-82422585D01*
X134238585Y-84807181D01*
X134177262Y-84840666D01*
X134150904Y-84843500D01*
X131908922Y-84843500D01*
X131841883Y-84823815D01*
X131796128Y-84771011D01*
X131786184Y-84701853D01*
X131807345Y-84648379D01*
X131927523Y-84476749D01*
X132024284Y-84269243D01*
X132083543Y-84048087D01*
X132101960Y-83837576D01*
X132103498Y-83820001D01*
X132103498Y-83819998D01*
X132092800Y-83697721D01*
X132083543Y-83591913D01*
X132024284Y-83370757D01*
X132018163Y-83357631D01*
X131932371Y-83173648D01*
X131927523Y-83163251D01*
X131796198Y-82975700D01*
X131634300Y-82813802D01*
X131446749Y-82682477D01*
X131427592Y-82673544D01*
X131239249Y-82585718D01*
X131239238Y-82585714D01*
X131018089Y-82526457D01*
X131018083Y-82526456D01*
X130958501Y-82521243D01*
X130893433Y-82495789D01*
X130881630Y-82485396D01*
X129400884Y-81004649D01*
X129400880Y-81004646D01*
X129235710Y-80894282D01*
X129235701Y-80894277D01*
X129180298Y-80871329D01*
X129052169Y-80818256D01*
X129052161Y-80818254D01*
X128857333Y-80779500D01*
X128857329Y-80779500D01*
X124868671Y-80779500D01*
X124868666Y-80779500D01*
X124673838Y-80818253D01*
X124673838Y-80818254D01*
X124673835Y-80818255D01*
X124673831Y-80818256D01*
X124597809Y-80849745D01*
X124597807Y-80849745D01*
X124490294Y-80894278D01*
X124325123Y-81004642D01*
X124325115Y-81004648D01*
X118568181Y-86761584D01*
X118506858Y-86795069D01*
X118437166Y-86790085D01*
X118381233Y-86748213D01*
X118356816Y-86682749D01*
X118356500Y-86673903D01*
X118356500Y-79209095D01*
X118376185Y-79142056D01*
X118392814Y-79121419D01*
X119951517Y-77562715D01*
X120012838Y-77529232D01*
X120082530Y-77534216D01*
G37*
%TD.AperFunction*%
%TA.AperFunction,Conductor*%
G36*
X152780943Y-82054185D02*
G01*
X152826698Y-82106989D01*
X152836642Y-82176147D01*
X152807617Y-82239703D01*
X152801585Y-82246181D01*
X151737119Y-83310647D01*
X151690135Y-83357631D01*
X151596645Y-83451120D01*
X151486282Y-83616289D01*
X151486277Y-83616299D01*
X151413037Y-83793116D01*
X151386163Y-83833339D01*
X151381930Y-83837571D01*
X151381928Y-83837574D01*
X151260871Y-84004195D01*
X151220484Y-84083459D01*
X151172510Y-84134254D01*
X151104689Y-84151049D01*
X151038554Y-84128511D01*
X150999516Y-84083459D01*
X150959128Y-84004195D01*
X150838073Y-83837576D01*
X150838069Y-83837571D01*
X150692428Y-83691930D01*
X150692423Y-83691926D01*
X150525806Y-83570873D01*
X150525805Y-83570872D01*
X150525803Y-83570871D01*
X150468496Y-83541671D01*
X150342294Y-83477367D01*
X150146408Y-83413719D01*
X149970794Y-83385905D01*
X149942981Y-83381500D01*
X149737019Y-83381500D01*
X149712550Y-83385375D01*
X149533591Y-83413719D01*
X149337705Y-83477367D01*
X149154193Y-83570873D01*
X148987576Y-83691926D01*
X148987571Y-83691930D01*
X148841930Y-83837571D01*
X148841926Y-83837576D01*
X148720871Y-84004195D01*
X148675714Y-84092820D01*
X148627740Y-84143615D01*
X148559918Y-84160410D01*
X148493784Y-84137872D01*
X148454745Y-84092818D01*
X148411861Y-84008652D01*
X148291582Y-83843105D01*
X148291582Y-83843104D01*
X148146895Y-83698417D01*
X147981349Y-83578140D01*
X147799029Y-83485244D01*
X147604413Y-83422009D01*
X147550000Y-83413390D01*
X147550000Y-84774314D01*
X147545606Y-84769920D01*
X147454394Y-84717259D01*
X147352661Y-84690000D01*
X147247339Y-84690000D01*
X147145606Y-84717259D01*
X147054394Y-84769920D01*
X147050000Y-84774314D01*
X147050000Y-83411211D01*
X147015022Y-83357631D01*
X147014523Y-83287763D01*
X147046063Y-83234169D01*
X148209415Y-82070819D01*
X148270738Y-82037334D01*
X148297096Y-82034500D01*
X152713904Y-82034500D01*
X152780943Y-82054185D01*
G37*
%TD.AperFunction*%
%TA.AperFunction,Conductor*%
G36*
X169760667Y-64689694D02*
G01*
X169819910Y-64792306D01*
X169903694Y-64876090D01*
X170006306Y-64935333D01*
X170091413Y-64958137D01*
X169481810Y-65567740D01*
X169546590Y-65613099D01*
X169546592Y-65613100D01*
X169746715Y-65706419D01*
X169746729Y-65706424D01*
X169960013Y-65763573D01*
X169960023Y-65763575D01*
X170179999Y-65782821D01*
X170180001Y-65782821D01*
X170399976Y-65763575D01*
X170399986Y-65763573D01*
X170613270Y-65706424D01*
X170613284Y-65706419D01*
X170813407Y-65613100D01*
X170813409Y-65613099D01*
X170994306Y-65486432D01*
X170998447Y-65482959D01*
X170999793Y-65484564D01*
X171053142Y-65455434D01*
X171122834Y-65460418D01*
X171178767Y-65502290D01*
X171203184Y-65567754D01*
X171203500Y-65576600D01*
X171203500Y-68110903D01*
X171183815Y-68177942D01*
X171167181Y-68198584D01*
X168213060Y-71152704D01*
X168151737Y-71186189D01*
X168093286Y-71184798D01*
X167868092Y-71124458D01*
X167868088Y-71124457D01*
X167868087Y-71124457D01*
X167868086Y-71124456D01*
X167868081Y-71124456D01*
X167640002Y-71104502D01*
X167639998Y-71104502D01*
X167411918Y-71124456D01*
X167411910Y-71124457D01*
X167190761Y-71183714D01*
X167190750Y-71183718D01*
X166983254Y-71280475D01*
X166983252Y-71280476D01*
X166983251Y-71280477D01*
X166795700Y-71411802D01*
X166795698Y-71411803D01*
X166795695Y-71411806D01*
X166633806Y-71573695D01*
X166633803Y-71573698D01*
X166633802Y-71573700D01*
X166587249Y-71640185D01*
X166502476Y-71761252D01*
X166502475Y-71761254D01*
X166405718Y-71968750D01*
X166405714Y-71968761D01*
X166346457Y-72189910D01*
X166346456Y-72189918D01*
X166326502Y-72417998D01*
X166326502Y-72418001D01*
X166346456Y-72646081D01*
X166346457Y-72646089D01*
X166405714Y-72867238D01*
X166405718Y-72867249D01*
X166482955Y-73032884D01*
X166502477Y-73074749D01*
X166633802Y-73262300D01*
X166633806Y-73262304D01*
X166636908Y-73266734D01*
X166634792Y-73268215D01*
X166658495Y-73322296D01*
X166647492Y-73391293D01*
X166600933Y-73443389D01*
X166582954Y-73452619D01*
X166400299Y-73528277D01*
X166400289Y-73528282D01*
X166235119Y-73638646D01*
X166235115Y-73638649D01*
X165098437Y-74775329D01*
X164965119Y-74908647D01*
X164903605Y-74970161D01*
X164824645Y-75049120D01*
X164714282Y-75214289D01*
X164714277Y-75214298D01*
X164638256Y-75397830D01*
X164638254Y-75397838D01*
X164599500Y-75592666D01*
X164599500Y-77315333D01*
X164638254Y-77510161D01*
X164638257Y-77510173D01*
X164672267Y-77592279D01*
X164714277Y-77693700D01*
X164714282Y-77693710D01*
X164824646Y-77858880D01*
X164824649Y-77858884D01*
X166094647Y-79128881D01*
X166174861Y-79209095D01*
X166235120Y-79269354D01*
X166400289Y-79379717D01*
X166400295Y-79379720D01*
X166400296Y-79379721D01*
X166583831Y-79455744D01*
X166778666Y-79494499D01*
X166778670Y-79494500D01*
X166778671Y-79494500D01*
X167678904Y-79494500D01*
X167745943Y-79514185D01*
X167766585Y-79530819D01*
X170877396Y-82641630D01*
X170910881Y-82702953D01*
X170913243Y-82718501D01*
X170918456Y-82778083D01*
X170918458Y-82778092D01*
X170928305Y-82814840D01*
X170926642Y-82884689D01*
X170887479Y-82942552D01*
X170823251Y-82970056D01*
X170754349Y-82958470D01*
X170720849Y-82934614D01*
X167774884Y-79988649D01*
X167774880Y-79988646D01*
X167609710Y-79878282D01*
X167609701Y-79878277D01*
X167426169Y-79802256D01*
X167426161Y-79802254D01*
X167231333Y-79763500D01*
X167231329Y-79763500D01*
X165000671Y-79763500D01*
X165000666Y-79763500D01*
X164805838Y-79802254D01*
X164805830Y-79802256D01*
X164622298Y-79878277D01*
X164622289Y-79878282D01*
X164457119Y-79988646D01*
X164457115Y-79988649D01*
X163780181Y-80665584D01*
X163718858Y-80699069D01*
X163649166Y-80694085D01*
X163593233Y-80652213D01*
X163568816Y-80586749D01*
X163568500Y-80577903D01*
X163568500Y-69750670D01*
X163568499Y-69750666D01*
X163562056Y-69718277D01*
X163529744Y-69555831D01*
X163453721Y-69372296D01*
X163453720Y-69372295D01*
X163453717Y-69372289D01*
X163343354Y-69207120D01*
X163314499Y-69178265D01*
X163202881Y-69066647D01*
X161720493Y-67584259D01*
X160209312Y-66073077D01*
X160209308Y-66073074D01*
X160107762Y-66005223D01*
X160062957Y-65951611D01*
X160054250Y-65882286D01*
X160084404Y-65819258D01*
X160143847Y-65782539D01*
X160165842Y-65778593D01*
X160241463Y-65771978D01*
X160456196Y-65714440D01*
X160657677Y-65620488D01*
X160839781Y-65492977D01*
X160996977Y-65335781D01*
X161124488Y-65153677D01*
X161177618Y-65039738D01*
X161223790Y-64987299D01*
X161290983Y-64968147D01*
X161357865Y-64988363D01*
X161402382Y-65039739D01*
X161444910Y-65130942D01*
X161455512Y-65153677D01*
X161583023Y-65335781D01*
X161740219Y-65492977D01*
X161922323Y-65620488D01*
X162123804Y-65714440D01*
X162338537Y-65771978D01*
X162496724Y-65785817D01*
X162559998Y-65791353D01*
X162560000Y-65791353D01*
X162560002Y-65791353D01*
X162615365Y-65786509D01*
X162781463Y-65771978D01*
X162996196Y-65714440D01*
X163197677Y-65620488D01*
X163379781Y-65492977D01*
X163536977Y-65335781D01*
X163664488Y-65153677D01*
X163717618Y-65039738D01*
X163763790Y-64987299D01*
X163830983Y-64968147D01*
X163897865Y-64988363D01*
X163942382Y-65039739D01*
X163984910Y-65130942D01*
X163995512Y-65153677D01*
X164123023Y-65335781D01*
X164280219Y-65492977D01*
X164462323Y-65620488D01*
X164663804Y-65714440D01*
X164878537Y-65771978D01*
X165036724Y-65785817D01*
X165099998Y-65791353D01*
X165100000Y-65791353D01*
X165100002Y-65791353D01*
X165155365Y-65786509D01*
X165321463Y-65771978D01*
X165536196Y-65714440D01*
X165737677Y-65620488D01*
X165919781Y-65492977D01*
X166076977Y-65335781D01*
X166204488Y-65153677D01*
X166257618Y-65039738D01*
X166303790Y-64987299D01*
X166370983Y-64968147D01*
X166437865Y-64988363D01*
X166482382Y-65039739D01*
X166524910Y-65130942D01*
X166535512Y-65153677D01*
X166663023Y-65335781D01*
X166820219Y-65492977D01*
X167002323Y-65620488D01*
X167203804Y-65714440D01*
X167418537Y-65771978D01*
X167576724Y-65785817D01*
X167639998Y-65791353D01*
X167640000Y-65791353D01*
X167640002Y-65791353D01*
X167695365Y-65786509D01*
X167861463Y-65771978D01*
X168076196Y-65714440D01*
X168277677Y-65620488D01*
X168459781Y-65492977D01*
X168616977Y-65335781D01*
X168744488Y-65153677D01*
X168802307Y-65029682D01*
X168848479Y-64977243D01*
X168915672Y-64958091D01*
X168982554Y-64978306D01*
X169027071Y-65029683D01*
X169082898Y-65149405D01*
X169082901Y-65149411D01*
X169128258Y-65214187D01*
X169128259Y-65214188D01*
X169737861Y-64604585D01*
X169760667Y-64689694D01*
G37*
%TD.AperFunction*%
%TA.AperFunction,Conductor*%
G36*
X169760667Y-62149694D02*
G01*
X169819910Y-62252306D01*
X169903694Y-62336090D01*
X170006306Y-62395333D01*
X170091413Y-62418137D01*
X169481810Y-63027740D01*
X169546589Y-63073098D01*
X169676373Y-63133618D01*
X169728812Y-63179790D01*
X169747964Y-63246984D01*
X169727748Y-63313865D01*
X169676373Y-63358382D01*
X169546590Y-63418901D01*
X169481811Y-63464258D01*
X170091414Y-64073861D01*
X170006306Y-64096667D01*
X169903694Y-64155910D01*
X169819910Y-64239694D01*
X169760667Y-64342306D01*
X169737861Y-64427414D01*
X169128258Y-63817811D01*
X169082901Y-63882590D01*
X169027071Y-64002317D01*
X168980898Y-64054756D01*
X168913705Y-64073908D01*
X168846824Y-64053692D01*
X168802307Y-64002317D01*
X168746477Y-63882590D01*
X168744488Y-63878324D01*
X168744486Y-63878321D01*
X168744485Y-63878319D01*
X168616978Y-63696220D01*
X168616975Y-63696217D01*
X168459781Y-63539023D01*
X168277677Y-63411512D01*
X168163738Y-63358381D01*
X168111299Y-63312210D01*
X168092147Y-63245017D01*
X168112363Y-63178135D01*
X168163739Y-63133618D01*
X168277677Y-63080488D01*
X168459781Y-62952977D01*
X168616977Y-62795781D01*
X168744488Y-62613677D01*
X168802307Y-62489682D01*
X168848479Y-62437243D01*
X168915672Y-62418091D01*
X168982554Y-62438306D01*
X169027071Y-62489683D01*
X169082898Y-62609405D01*
X169082901Y-62609411D01*
X169128258Y-62674187D01*
X169128259Y-62674188D01*
X169737861Y-62064585D01*
X169760667Y-62149694D01*
G37*
%TD.AperFunction*%
%TA.AperFunction,Conductor*%
G36*
X156030865Y-53471363D02*
G01*
X156075381Y-53522738D01*
X156128512Y-53636677D01*
X156256023Y-53818781D01*
X156413219Y-53975977D01*
X156595323Y-54103488D01*
X156796804Y-54197440D01*
X157011537Y-54254978D01*
X157169724Y-54268817D01*
X157232998Y-54274353D01*
X157233000Y-54274353D01*
X157233002Y-54274353D01*
X157288365Y-54269509D01*
X157454463Y-54254978D01*
X157669196Y-54197440D01*
X157870677Y-54103488D01*
X157903299Y-54080646D01*
X157975737Y-54029925D01*
X158041943Y-54007598D01*
X158046860Y-54007500D01*
X166829904Y-54007500D01*
X166896943Y-54027185D01*
X166917585Y-54043819D01*
X171167181Y-58293415D01*
X171200666Y-58354738D01*
X171203500Y-58381096D01*
X171203500Y-60915400D01*
X171183815Y-60982439D01*
X171131011Y-61028194D01*
X171061853Y-61038138D01*
X170998297Y-61009113D01*
X170996148Y-61007112D01*
X170994306Y-61005567D01*
X170813409Y-60878900D01*
X170813407Y-60878899D01*
X170613284Y-60785580D01*
X170613270Y-60785575D01*
X170399986Y-60728426D01*
X170399976Y-60728424D01*
X170180001Y-60709179D01*
X170179999Y-60709179D01*
X169960023Y-60728424D01*
X169960013Y-60728426D01*
X169746729Y-60785575D01*
X169746720Y-60785579D01*
X169546590Y-60878901D01*
X169481811Y-60924258D01*
X170091414Y-61533861D01*
X170006306Y-61556667D01*
X169903694Y-61615910D01*
X169819910Y-61699694D01*
X169760667Y-61802306D01*
X169737861Y-61887414D01*
X169128258Y-61277811D01*
X169082901Y-61342590D01*
X169027071Y-61462317D01*
X168980898Y-61514756D01*
X168913705Y-61533908D01*
X168846824Y-61513692D01*
X168802307Y-61462317D01*
X168744488Y-61338325D01*
X168744488Y-61338324D01*
X168744486Y-61338321D01*
X168744485Y-61338319D01*
X168616978Y-61156220D01*
X168587216Y-61126458D01*
X168459781Y-60999023D01*
X168277677Y-60871512D01*
X168277678Y-60871512D01*
X168277676Y-60871511D01*
X168132695Y-60803906D01*
X168076196Y-60777560D01*
X168076193Y-60777559D01*
X168076191Y-60777558D01*
X167861465Y-60720022D01*
X167861457Y-60720021D01*
X167640002Y-60700647D01*
X167639998Y-60700647D01*
X167418542Y-60720021D01*
X167418535Y-60720022D01*
X167203800Y-60777561D01*
X167002323Y-60871512D01*
X167002319Y-60871514D01*
X166820217Y-60999023D01*
X166663023Y-61156217D01*
X166535514Y-61338319D01*
X166535512Y-61338323D01*
X166482382Y-61452261D01*
X166436209Y-61504700D01*
X166369016Y-61523852D01*
X166302135Y-61503636D01*
X166257618Y-61452261D01*
X166204488Y-61338325D01*
X166204488Y-61338324D01*
X166204486Y-61338321D01*
X166204485Y-61338319D01*
X166076978Y-61156220D01*
X166047216Y-61126458D01*
X165919781Y-60999023D01*
X165737677Y-60871512D01*
X165737678Y-60871512D01*
X165737676Y-60871511D01*
X165592695Y-60803906D01*
X165536196Y-60777560D01*
X165536193Y-60777559D01*
X165536191Y-60777558D01*
X165321465Y-60720022D01*
X165321457Y-60720021D01*
X165100002Y-60700647D01*
X165099998Y-60700647D01*
X164878542Y-60720021D01*
X164878535Y-60720022D01*
X164663800Y-60777561D01*
X164462323Y-60871512D01*
X164462319Y-60871514D01*
X164280217Y-60999023D01*
X164123023Y-61156217D01*
X163995514Y-61338319D01*
X163995512Y-61338323D01*
X163942382Y-61452261D01*
X163896209Y-61504700D01*
X163829016Y-61523852D01*
X163762135Y-61503636D01*
X163717618Y-61452261D01*
X163664488Y-61338325D01*
X163664488Y-61338324D01*
X163664486Y-61338321D01*
X163664485Y-61338319D01*
X163536978Y-61156220D01*
X163507216Y-61126458D01*
X163379781Y-60999023D01*
X163197677Y-60871512D01*
X163197678Y-60871512D01*
X163197676Y-60871511D01*
X163052695Y-60803906D01*
X162996196Y-60777560D01*
X162996193Y-60777559D01*
X162996191Y-60777558D01*
X162781465Y-60720022D01*
X162781457Y-60720021D01*
X162560002Y-60700647D01*
X162559998Y-60700647D01*
X162338542Y-60720021D01*
X162338535Y-60720022D01*
X162123800Y-60777561D01*
X161922323Y-60871512D01*
X161922319Y-60871514D01*
X161740217Y-60999023D01*
X161583023Y-61156217D01*
X161455514Y-61338319D01*
X161455512Y-61338323D01*
X161402382Y-61452261D01*
X161356209Y-61504700D01*
X161289016Y-61523852D01*
X161222135Y-61503636D01*
X161177618Y-61452261D01*
X161124488Y-61338325D01*
X161124488Y-61338324D01*
X161124486Y-61338321D01*
X161124485Y-61338319D01*
X160996978Y-61156220D01*
X160967216Y-61126458D01*
X160839781Y-60999023D01*
X160657677Y-60871512D01*
X160657678Y-60871512D01*
X160657676Y-60871511D01*
X160512695Y-60803906D01*
X160456196Y-60777560D01*
X160456193Y-60777559D01*
X160456191Y-60777558D01*
X160241465Y-60720022D01*
X160241457Y-60720021D01*
X160020002Y-60700647D01*
X160019998Y-60700647D01*
X159798542Y-60720021D01*
X159798535Y-60720022D01*
X159583800Y-60777561D01*
X159382323Y-60871512D01*
X159382319Y-60871514D01*
X159200217Y-60999023D01*
X159043023Y-61156217D01*
X158915514Y-61338319D01*
X158915512Y-61338323D01*
X158862382Y-61452261D01*
X158816209Y-61504700D01*
X158749016Y-61523852D01*
X158682135Y-61503636D01*
X158637618Y-61452261D01*
X158584488Y-61338325D01*
X158584488Y-61338324D01*
X158584486Y-61338321D01*
X158584485Y-61338319D01*
X158456978Y-61156220D01*
X158427216Y-61126458D01*
X158299781Y-60999023D01*
X158117677Y-60871512D01*
X158117678Y-60871512D01*
X158117676Y-60871511D01*
X157972695Y-60803906D01*
X157916196Y-60777560D01*
X157916193Y-60777559D01*
X157916191Y-60777558D01*
X157701465Y-60720022D01*
X157701457Y-60720021D01*
X157480002Y-60700647D01*
X157479998Y-60700647D01*
X157258542Y-60720021D01*
X157258535Y-60720022D01*
X157043800Y-60777561D01*
X156842323Y-60871512D01*
X156842319Y-60871514D01*
X156660217Y-60999023D01*
X156503023Y-61156217D01*
X156375514Y-61338319D01*
X156375512Y-61338323D01*
X156322382Y-61452261D01*
X156276209Y-61504700D01*
X156209016Y-61523852D01*
X156142135Y-61503636D01*
X156097618Y-61452261D01*
X156044488Y-61338325D01*
X156044488Y-61338324D01*
X156044486Y-61338321D01*
X156044485Y-61338319D01*
X155916978Y-61156220D01*
X155887216Y-61126458D01*
X155759781Y-60999023D01*
X155577677Y-60871512D01*
X155577678Y-60871512D01*
X155577676Y-60871511D01*
X155432695Y-60803906D01*
X155376196Y-60777560D01*
X155376193Y-60777559D01*
X155376191Y-60777558D01*
X155161465Y-60720022D01*
X155161457Y-60720021D01*
X154940002Y-60700647D01*
X154939998Y-60700647D01*
X154718542Y-60720021D01*
X154718535Y-60720022D01*
X154503800Y-60777561D01*
X154302323Y-60871512D01*
X154302319Y-60871514D01*
X154120217Y-60999023D01*
X153963023Y-61156217D01*
X153835514Y-61338319D01*
X153835512Y-61338323D01*
X153782382Y-61452261D01*
X153736209Y-61504700D01*
X153669016Y-61523852D01*
X153602135Y-61503636D01*
X153557618Y-61452261D01*
X153504488Y-61338325D01*
X153504488Y-61338324D01*
X153504486Y-61338321D01*
X153504485Y-61338319D01*
X153376978Y-61156220D01*
X153347216Y-61126458D01*
X153219781Y-60999023D01*
X153037677Y-60871512D01*
X153037678Y-60871512D01*
X153037676Y-60871511D01*
X152892695Y-60803906D01*
X152836196Y-60777560D01*
X152836193Y-60777559D01*
X152836191Y-60777558D01*
X152621465Y-60720022D01*
X152621457Y-60720021D01*
X152400002Y-60700647D01*
X152399998Y-60700647D01*
X152178542Y-60720021D01*
X152178535Y-60720022D01*
X151963800Y-60777561D01*
X151762323Y-60871512D01*
X151762319Y-60871514D01*
X151580217Y-60999023D01*
X151423023Y-61156217D01*
X151295514Y-61338319D01*
X151295512Y-61338323D01*
X151242382Y-61452261D01*
X151196209Y-61504700D01*
X151129016Y-61523852D01*
X151062135Y-61503636D01*
X151017618Y-61452261D01*
X150964488Y-61338325D01*
X150964488Y-61338324D01*
X150964486Y-61338321D01*
X150964485Y-61338319D01*
X150836978Y-61156220D01*
X150807216Y-61126458D01*
X150679781Y-60999023D01*
X150497677Y-60871512D01*
X150497678Y-60871512D01*
X150497676Y-60871511D01*
X150352695Y-60803906D01*
X150296196Y-60777560D01*
X150296193Y-60777559D01*
X150296191Y-60777558D01*
X150081465Y-60720022D01*
X150081457Y-60720021D01*
X149860002Y-60700647D01*
X149859998Y-60700647D01*
X149638542Y-60720021D01*
X149638535Y-60720022D01*
X149423800Y-60777561D01*
X149222323Y-60871512D01*
X149222319Y-60871514D01*
X149040217Y-60999023D01*
X148883023Y-61156217D01*
X148755514Y-61338319D01*
X148755512Y-61338323D01*
X148702382Y-61452261D01*
X148656209Y-61504700D01*
X148589016Y-61523852D01*
X148522135Y-61503636D01*
X148477618Y-61452261D01*
X148424488Y-61338325D01*
X148424488Y-61338324D01*
X148424486Y-61338321D01*
X148424485Y-61338319D01*
X148296978Y-61156220D01*
X148267216Y-61126458D01*
X148139781Y-60999023D01*
X147957677Y-60871512D01*
X147957678Y-60871512D01*
X147957676Y-60871511D01*
X147812695Y-60803906D01*
X147756196Y-60777560D01*
X147756193Y-60777559D01*
X147756191Y-60777558D01*
X147541465Y-60720022D01*
X147541457Y-60720021D01*
X147320002Y-60700647D01*
X147319998Y-60700647D01*
X147098542Y-60720021D01*
X147098535Y-60720022D01*
X146883800Y-60777561D01*
X146682323Y-60871512D01*
X146682319Y-60871514D01*
X146500217Y-60999023D01*
X146343023Y-61156217D01*
X146215514Y-61338319D01*
X146215512Y-61338323D01*
X146162382Y-61452261D01*
X146116209Y-61504700D01*
X146049016Y-61523852D01*
X145982135Y-61503636D01*
X145937618Y-61452261D01*
X145884488Y-61338325D01*
X145884488Y-61338324D01*
X145884486Y-61338321D01*
X145884485Y-61338319D01*
X145756978Y-61156220D01*
X145727216Y-61126458D01*
X145599781Y-60999023D01*
X145417677Y-60871512D01*
X145417678Y-60871512D01*
X145417676Y-60871511D01*
X145272695Y-60803906D01*
X145216196Y-60777560D01*
X145216193Y-60777559D01*
X145216191Y-60777558D01*
X145001465Y-60720022D01*
X145001457Y-60720021D01*
X144780002Y-60700647D01*
X144779998Y-60700647D01*
X144558542Y-60720021D01*
X144558535Y-60720022D01*
X144343800Y-60777561D01*
X144142323Y-60871512D01*
X144142319Y-60871514D01*
X143960217Y-60999023D01*
X143803023Y-61156217D01*
X143675514Y-61338319D01*
X143675512Y-61338323D01*
X143622382Y-61452261D01*
X143576209Y-61504700D01*
X143509016Y-61523852D01*
X143442135Y-61503636D01*
X143397618Y-61452261D01*
X143344488Y-61338325D01*
X143344488Y-61338324D01*
X143344486Y-61338321D01*
X143344485Y-61338319D01*
X143216978Y-61156220D01*
X143187216Y-61126458D01*
X143059781Y-60999023D01*
X142877677Y-60871512D01*
X142877678Y-60871512D01*
X142877676Y-60871511D01*
X142732695Y-60803906D01*
X142676196Y-60777560D01*
X142676193Y-60777559D01*
X142676191Y-60777558D01*
X142461465Y-60720022D01*
X142461457Y-60720021D01*
X142240002Y-60700647D01*
X142239998Y-60700647D01*
X142018542Y-60720021D01*
X142018535Y-60720022D01*
X141803800Y-60777561D01*
X141602323Y-60871512D01*
X141602319Y-60871514D01*
X141420217Y-60999023D01*
X141263023Y-61156217D01*
X141135514Y-61338319D01*
X141135512Y-61338323D01*
X141082382Y-61452261D01*
X141036209Y-61504700D01*
X140969016Y-61523852D01*
X140902135Y-61503636D01*
X140857618Y-61452261D01*
X140804488Y-61338325D01*
X140804488Y-61338324D01*
X140804486Y-61338321D01*
X140804485Y-61338319D01*
X140676978Y-61156220D01*
X140647216Y-61126458D01*
X140519781Y-60999023D01*
X140337677Y-60871512D01*
X140337678Y-60871512D01*
X140337676Y-60871511D01*
X140192695Y-60803906D01*
X140136196Y-60777560D01*
X140136193Y-60777559D01*
X140136191Y-60777558D01*
X139921465Y-60720022D01*
X139921457Y-60720021D01*
X139700002Y-60700647D01*
X139699998Y-60700647D01*
X139478542Y-60720021D01*
X139478535Y-60720022D01*
X139263800Y-60777561D01*
X139062323Y-60871512D01*
X139062319Y-60871514D01*
X138880217Y-60999023D01*
X138723023Y-61156217D01*
X138595514Y-61338319D01*
X138595512Y-61338323D01*
X138542382Y-61452261D01*
X138496209Y-61504700D01*
X138429016Y-61523852D01*
X138362135Y-61503636D01*
X138317618Y-61452261D01*
X138264488Y-61338325D01*
X138264488Y-61338324D01*
X138264486Y-61338321D01*
X138264485Y-61338319D01*
X138136978Y-61156220D01*
X138107216Y-61126458D01*
X137979781Y-60999023D01*
X137797677Y-60871512D01*
X137797678Y-60871512D01*
X137797676Y-60871511D01*
X137652695Y-60803906D01*
X137596196Y-60777560D01*
X137596191Y-60777558D01*
X137596182Y-60777555D01*
X137526413Y-60758860D01*
X137466753Y-60722495D01*
X137436225Y-60659648D01*
X137444520Y-60590272D01*
X137470824Y-60551408D01*
X138049415Y-59972819D01*
X138110738Y-59939334D01*
X138137096Y-59936500D01*
X147419330Y-59936500D01*
X147419331Y-59936499D01*
X147614169Y-59897744D01*
X147797704Y-59821721D01*
X147962881Y-59711353D01*
X148103353Y-59570881D01*
X152936353Y-54737881D01*
X153046721Y-54572704D01*
X153122744Y-54389169D01*
X153161500Y-54194329D01*
X153161500Y-53995671D01*
X153161500Y-53812858D01*
X153181185Y-53745819D01*
X153183926Y-53741734D01*
X153207015Y-53708759D01*
X153257488Y-53636677D01*
X153310618Y-53522738D01*
X153356790Y-53470299D01*
X153423983Y-53451147D01*
X153490865Y-53471363D01*
X153535381Y-53522738D01*
X153588512Y-53636677D01*
X153716023Y-53818781D01*
X153873219Y-53975977D01*
X154055323Y-54103488D01*
X154256804Y-54197440D01*
X154471537Y-54254978D01*
X154629724Y-54268817D01*
X154692998Y-54274353D01*
X154693000Y-54274353D01*
X154693002Y-54274353D01*
X154748365Y-54269509D01*
X154914463Y-54254978D01*
X155129196Y-54197440D01*
X155330677Y-54103488D01*
X155512781Y-53975977D01*
X155669977Y-53818781D01*
X155797488Y-53636677D01*
X155850618Y-53522738D01*
X155896790Y-53470299D01*
X155963983Y-53451147D01*
X156030865Y-53471363D01*
G37*
%TD.AperFunction*%
%TD*%
M02*
